<svg width="146" height="143" viewBox="0 0 146 143" fill="none" xmlns="http://www.w3.org/2000/svg">
<path d="M5 138H141" stroke="#C7C7C7" stroke-width="10" stroke-linecap="round"/>
<circle cx="17" cy="117" r="6" fill="#28D6A4"/>
<circle cx="17" cy="68" r="6" fill="#E0E0E0"/>
<circle cx="17" cy="6" r="6" fill="#E0E0E0"/>
<circle cx="17" cy="48" r="6" fill="#914EF9"/>
<circle cx="39" cy="106" r="6" fill="#E0E0E0"/>
<circle cx="39" cy="79" r="6" fill="#6784D7"/>
<circle cx="39" cy="17" r="6" fill="#E0E0E0"/>
<circle cx="39" cy="37" r="6" fill="#914EF9"/>
<circle cx="61" cy="112" r="6" fill="#E0E0E0"/>
<circle cx="61" cy="73" r="6" fill="#E0E0E0"/>
<circle cx="61" cy="11" r="6" fill="#CB74D8"/>
<circle cx="79" cy="105" r="6" fill="#E0E0E0"/>
<circle cx="61" cy="50" r="6" fill="#E0E0E0"/>
<circle cx="83" cy="121" r="6" fill="#28D6A4"/>
<circle cx="83" cy="85" r="6" fill="#6784D7"/>
<circle cx="83" cy="23" r="6" fill="#E0E0E0"/>
<circle cx="83" cy="43" r="6" fill="#914EF9"/>
<circle cx="105" cy="106" r="6" fill="#E0E0E0"/>
<circle cx="105" cy="89" r="6" fill="#6784D7"/>
<circle cx="105" cy="19" r="6" fill="#CB74D8"/>
<circle cx="105" cy="58" r="6" fill="#E0E0E0"/>
<circle cx="127" cy="116" r="6" fill="#28D6A4"/>
<circle cx="127" cy="74" r="6" fill="#6784D7"/>
<circle cx="127" cy="12" r="6" fill="#E0E0E0"/>
<circle cx="127" cy="34" r="6" fill="#914EF9"/>
</svg>
