<svg width="150" height="140" viewBox="0 0 150 140" fill="none" xmlns="http://www.w3.org/2000/svg">
<path d="M5 135H141" stroke="#C7C7C7" stroke-width="10" stroke-linecap="round"/>
<path d="M6.5 53C14.2164 43 17.2221 41.5 27.5 41.5C44.0779 41.5 36.4719 107 58 107C71.9152 107 69.9204 19 94 19C110 19 111.5 34.5 121 35C130.5 35.5 136.5 32.6 144.5 27" stroke="url(#paint0_linear_5313_295)" stroke-width="10" stroke-linecap="round" stroke-linejoin="round"/>
<path d="M8 77.1432C8 77.1432 19.5 93 35.5 93C59.5796 93 57.5848 5.00014 71.5 5C93.0281 4.99978 85.4221 70.5 102 70.5C112.278 70.5 112.939 52 123.216 52C136.5 52 143.5 69 143.5 69" stroke="#EEEEEE" stroke-width="10" stroke-linecap="round" stroke-linejoin="round"/>
<path fill-rule="evenodd" clip-rule="evenodd" d="M41.0371 96.8116C43.2796 95.8612 45.2376 94.3812 46.9124 92.6113C47.7376 91.7394 48.51 90.7825 49.2348 89.7576C47.8929 85.1806 46.8438 79.7852 45.8352 74.0578C45.4368 75.1825 45.025 76.2626 44.5984 77.2927C42.9981 81.1571 41.3285 83.9632 39.6492 85.7378C39.1445 86.2711 38.6628 86.6888 38.1992 87.0107C38.9961 90.4618 39.9185 93.797 41.0371 96.8116ZM91.0832 24.9009C90.6196 25.2228 90.1379 25.6405 89.6332 26.1738C87.9539 27.9484 86.2844 30.7545 84.684 34.6189C84.2574 35.649 83.8456 36.7292 83.4472 37.8538C82.4386 32.1265 81.3895 26.731 80.0476 22.1541C80.7724 21.1291 81.5448 20.1723 82.37 19.3003C84.0449 17.5304 86.0028 16.0504 88.2453 15.1C89.364 18.1146 90.2863 21.4498 91.0832 24.9009Z" fill="url(#paint1_linear_5313_295)"/>
<defs>
<linearGradient id="paint0_linear_5313_295" x1="75.5" y1="107" x2="75.5" y2="19" gradientUnits="userSpaceOnUse">
<stop stop-color="#9945FF"/>
<stop offset="1" stop-color="#26D9A3"/>
</linearGradient>
<linearGradient id="paint1_linear_5313_295" x1="64.6412" y1="15.1" x2="64.6412" y2="96.8116" gradientUnits="userSpaceOnUse">
<stop stop-color="#2C9CBF"/>
<stop offset="1" stop-color="#86C0BE"/>
</linearGradient>
</defs>
</svg>
