<svg width="208" height="40" viewBox="0 0 208 40" fill="none" xmlns="http://www.w3.org/2000/svg">
  <defs>
    <linearGradient id="exhaust04_smoke" x1="34" y1="20" x2="188" y2="20" gradientUnits="userSpaceOnUse">
      <stop offset="0" stop-color="#FC7614" stop-opacity="0.94"/>
      <stop offset="0.4" stop-color="#FCA86B" stop-opacity="0.8"/>
      <stop offset="0.82" stop-color="#CFD3DB" stop-opacity="0.7"/>
      <stop offset="1" stop-color="#B2B9C2" stop-opacity="0.34"/>
    </linearGradient>
    <radialGradient id="exhaust04_core" cx="0" cy="0" r="1" gradientUnits="userSpaceOnUse"
      gradientTransform="translate(64 20) scale(28 9)">
      <stop offset="0" stop-color="#FFE8C8"/>
      <stop offset="1" stop-color="#F67F33" stop-opacity="0.34"/>
    </radialGradient>
    <filter id="exhaust04_blur" x="0" y="0" width="208" height="40" filterUnits="userSpaceOnUse">
      <feGaussianBlur stdDeviation="4.1"/>
    </filter>
  </defs>
  <path d="M36 20C56 10 84 7.2 114 8.1C138 8.9 164 6 188 9.6C164 23.2 132 30.3 102 31.4C74 32.5 52 26 36 20Z"
        fill="url(#exhaust04_smoke)" filter="url(#exhaust04_blur)"/>
  <path d="M46 20C50 13.6 64 12.3 80 13.3C88 14.1 104 12.7 126 15.1C106 20.8 86 23 68 23.8C52 24.4 48 22 46 20Z"
        fill="url(#exhaust04_core)"/>
</svg>
