<svg width="244" height="52" viewBox="0 0 244 52" fill="none" xmlns="http://www.w3.org/2000/svg">
  <defs>
    <linearGradient id="exhaust08_flame" x1="40" y1="26" x2="198" y2="26" gradientUnits="userSpaceOnUse">
      <stop offset="0" stop-color="#CFE7FF" stop-opacity="0.8"/>
      <stop offset="0.24" stop-color="#77BBFF" stop-opacity="0.6"/>
      <stop offset="0.54" stop-color="#52A5F9" stop-opacity="0.38"/>
      <stop offset="0.82" stop-color="#418FDD" stop-opacity="0.2"/>
      <stop offset="1" stop-color="#3B83CB" stop-opacity="0"/>
    </linearGradient>
    <linearGradient id="exhaust08_smoke" x1="128" y1="26" x2="236" y2="26" gradientUnits="userSpaceOnUse">
      <stop offset="0" stop-color="#B7D0E9" stop-opacity="0.32"/>
      <stop offset="0.34" stop-color="#CDD5DC" stop-opacity="0.38"/>
      <stop offset="0.7" stop-color="#CEDCE9" stop-opacity="0.4"/>
      <stop offset="1" stop-color="#C0CDD9" stop-opacity="0.26"/>
    </linearGradient>
    <radialGradient id="exhaust08_core" cx="0" cy="0" r="1" gradientUnits="userSpaceOnUse"
      gradientTransform="translate(80 26) scale(46 9.6)">
      <stop offset="0" stop-color="#D8EBFF" stop-opacity="0.82"/>
      <stop offset="1" stop-color="#68B3FF" stop-opacity="0.08"/>
    </radialGradient>
  </defs>
  <path d="M22 26C50 12.4 98 8 150 10.2C182 11.6 214 17.6 240 27.8C204 40.6 152 48.2 104 48.8C62 49.2 36 39.8 22 26Z"
        fill="url(#exhaust08_smoke)"/>
  <path d="M36 26C56 18.6 82 16.2 112 17.4C136 18.4 166 21.6 196 28.2C158 35.8 120 38.6 88 39.2C60 39.6 42 34.6 36 26Z"
        fill="url(#exhaust08_flame)"/>
  <path d="M48 26C58 21.6 76 20.8 94 21.6C104 22.2 124 23 156 27C122 30.6 94 31.4 72 31.8C54 32 48 29.6 48 26Z"
        fill="url(#exhaust08_core)"/>
</svg>
