<svg width="232" height="42" viewBox="0 0 232 42" fill="none" xmlns="http://www.w3.org/2000/svg">
  <defs>
    <linearGradient id="exhaust05_smoke" x1="40" y1="21" x2="212" y2="21" gradientUnits="userSpaceOnUse">
      <stop offset="0" stop-color="#FF130B" stop-opacity="0.95"/>
      <stop offset="0.42" stop-color="#FD6560" stop-opacity="0.82"/>
      <stop offset="0.86" stop-color="#DACBCB" stop-opacity="0.72"/>
      <stop offset="1" stop-color="#C1AEAE" stop-opacity="0.36"/>
    </linearGradient>
    <radialGradient id="exhaust05_core" cx="0" cy="0" r="1" gradientUnits="userSpaceOnUse"
      gradientTransform="translate(76 21) scale(30 9.2)">
      <stop offset="0" stop-color="#FFC6C4"/>
      <stop offset="1" stop-color="#FA342D" stop-opacity="0.38"/>
    </radialGradient>
    <filter id="exhaust05_blur" x="0" y="0" width="232" height="42" filterUnits="userSpaceOnUse">
      <feGaussianBlur stdDeviation="4.5"/>
    </filter>
  </defs>
  <path d="M42 21C64 10.5 94 8.1 126 9.2C154 10.1 182 7.1 212 11.2C184 25 148 32.4 116 33.6C86 34.8 60 27.4 42 21Z"
        fill="url(#exhaust05_smoke)" filter="url(#exhaust05_blur)"/>
  <path d="M52 21C56 14 70 13 88 14C96 14.8 112 13.6 136 16.2C112 21.6 90 24 72 24.8C56 25.4 54 23 52 21Z"
        fill="url(#exhaust05_core)"/>
</svg>
