<svg width="236" height="50" viewBox="0 0 236 50" fill="none" xmlns="http://www.w3.org/2000/svg">
  <defs>
    <linearGradient id="exhaust07_flame" x1="34" y1="25" x2="196" y2="25" gradientUnits="userSpaceOnUse">
      <stop offset="0" stop-color="#CAE4FF" stop-opacity="0.9"/>
      <stop offset="0.22" stop-color="#63B1FF" stop-opacity="0.72"/>
      <stop offset="0.5" stop-color="#49A1F9" stop-opacity="0.55"/>
      <stop offset="0.78" stop-color="#3789DC" stop-opacity="0.32"/>
      <stop offset="1" stop-color="#317DCA" stop-opacity="0"/>
    </linearGradient>
    <linearGradient id="exhaust07_smoke" x1="120" y1="25" x2="232" y2="25" gradientUnits="userSpaceOnUse">
      <stop offset="0" stop-color="#9DC8F3" stop-opacity="0.3"/>
      <stop offset="0.38" stop-color="#C0D3E6" stop-opacity="0.38"/>
      <stop offset="0.72" stop-color="#D7E0E9" stop-opacity="0.36"/>
      <stop offset="1" stop-color="#C5D2DE" stop-opacity="0.22"/>
    </linearGradient>
    <radialGradient id="exhaust07_core" cx="0" cy="0" r="1" gradientUnits="userSpaceOnUse"
      gradientTransform="translate(74 25) scale(44 9.6)">
      <stop offset="0" stop-color="#D3E9FF" stop-opacity="0.92"/>
      <stop offset="1" stop-color="#57ABFF" stop-opacity="0.1"/>
    </radialGradient>
  </defs>
  <path d="M24 25C50 12.4 92 8.2 142 10.2C172 11.6 204 16.8 232 25.6C198 38.8 152 45.6 108 46C68 46.4 40 38 24 25Z"
        fill="url(#exhaust07_smoke)"/>
  <path d="M36 25C52 17.6 76 14.6 104 15.6C128 16.6 158 19.6 188 25.6C156 32.6 122 36.2 92 36.8C62 37.4 44 32.6 36 25Z"
        fill="url(#exhaust07_flame)"/>
  <path d="M46 25C56 20.2 72 19 88 19.8C98 20.4 118 21 148 24.6C118 28.4 92 29.6 70 30C52 30.2 46 27.8 46 25Z"
        fill="url(#exhaust07_core)"/>
</svg>
