<svg width="171" height="171" viewBox="0 0 171 171" fill="none" xmlns="http://www.w3.org/2000/svg">
<path d="M86 11L86 160" stroke="#EEEEEE" stroke-width="6"/>
<path d="M86 11L86 160" stroke="#EEEEEE" stroke-width="6"/>
<path d="M86 11L86 160" stroke="#EEEEEE" stroke-width="6"/>
<path d="M86 11L86 160" stroke="#EEEEEE" stroke-width="6"/>
<path d="M149.037 48L19.9993 122.5" stroke="#EEEEEE" stroke-width="6"/>
<path d="M149.037 48L19.9993 122.5" stroke="#EEEEEE" stroke-width="6"/>
<path d="M149.037 48L19.9993 122.5" stroke="#EEEEEE" stroke-width="6"/>
<path d="M149.037 48L19.9993 122.5" stroke="#EEEEEE" stroke-width="6"/>
<path d="M150.037 121.5L20.9993 47" stroke="#EEEEEE" stroke-width="6"/>
<path d="M150.037 121.5L20.9993 47" stroke="#EEEEEE" stroke-width="6"/>
<path d="M150.037 121.5L20.9993 47" stroke="#EEEEEE" stroke-width="6"/>
<path d="M150.037 121.5L20.9993 47" stroke="#EEEEEE" stroke-width="6"/>
<path d="M16.4548 45.6368L85.5 5.7735L154.545 45.6368V125.363L85.5 165.227L16.4548 125.363V45.6368Z" stroke="#E4E4E4" stroke-width="10"/>
<path d="M51.0065 63.3597L86.5359 48.3995L97.3976 78.151L97.4728 78.357L97.6038 78.5328L115.723 102.851L86.5563 136.725L39.0745 111.56L51.0065 63.3597Z" stroke="#C7C7C7" stroke-width="3"/>
<circle cx="115.243" cy="102.243" r="3" transform="rotate(-45 115.243 102.243)" fill="#A2A2A2"/>
<circle cx="86.2426" cy="136.243" r="3" transform="rotate(-45 86.2426 136.243)" fill="#A2A2A2"/>
<circle cx="39.2426" cy="111.242" r="3" transform="rotate(-45 39.2426 111.242)" fill="#A2A2A2"/>
<circle cx="51.2426" cy="63.2427" r="3" transform="rotate(-45 51.2426 63.2427)" fill="#A2A2A2"/>
<circle cx="86.2426" cy="49.2425" r="3" transform="rotate(-45 86.2426 49.2425)" fill="#A2A2A2"/>
<circle cx="97.2426" cy="78.2427" r="3" transform="rotate(-45 97.2426 78.2427)" fill="#A2A2A2"/>
<path d="M33.6537 53.5287L85.2938 30.4265L132 57.5161V109.871L86.5551 123.05L62.2562 97.8164L33.6537 53.5287Z" stroke="url(#paint0_linear_6419_135)" stroke-width="7"/>
<circle cx="37" cy="56" r="9" fill="#8475FF"/>
<circle cx="87" cy="33" r="9" fill="#A473FF"/>
<circle cx="132" cy="60" r="9" fill="#7676FF"/>
<circle cx="132" cy="110" r="9" fill="#21BDCB"/>
<circle cx="88" cy="121" r="9" fill="#29C9B1"/>
<circle cx="64" cy="99" r="9" fill="#219DEC"/>
<defs>
<linearGradient id="paint0_linear_6419_135" x1="82" y1="26.5" x2="84.5" y2="127" gradientUnits="userSpaceOnUse">
<stop stop-color="#B072FF"/>
<stop offset="0.29" stop-color="#7277FF"/>
<stop offset="0.768712" stop-color="#00AEE5"/>
<stop offset="1" stop-color="#2FCDAA"/>
</linearGradient>
</defs>
</svg>
