<svg width="13" height="13" viewBox="0 0 13 13" fill="none" xmlns="http://www.w3.org/2000/svg">
<path d="M0 5.77338V-0.00439453H5.77778V5.77338H0ZM1.44444 4.32894H4.33333V1.44005H1.44444V4.32894ZM0 12.9956V7.21783H5.77778V12.9956H0ZM1.44444 11.5512H4.33333V8.66227H1.44444V11.5512ZM7.22222 5.77338V-0.00439453H13V5.77338H7.22222ZM8.66667 4.32894H11.5556V1.44005H8.66667V4.32894ZM11.5556 12.9956V11.5512H13V12.9956H11.5556ZM7.22222 8.66227V7.21783H8.66667V8.66227H7.22222ZM8.66667 10.1067V8.66227H10.1111V10.1067H8.66667ZM7.22222 11.5512V10.1067H8.66667V11.5512H7.22222ZM8.66667 12.9956V11.5512H10.1111V12.9956H8.66667ZM10.1111 11.5512V10.1067H11.5556V11.5512H10.1111ZM10.1111 8.66227V7.21783H11.5556V8.66227H10.1111ZM11.5556 10.1067V8.66227H13V10.1067H11.5556Z" fill="black"/>
</svg>
