<svg width="134" height="217" viewBox="0 0 134 217" fill="none" xmlns="http://www.w3.org/2000/svg">
<path d="M57.4334 25.8245C59.611 23.2803 65.9017 23.8558 68.7748 24.4615H73.765C76.0333 24.4615 89.6429 24.4615 91.9112 22.19C93.7258 20.3728 97.5063 16.2839 99.1697 14.4666C104.916 26.1274 116.772 50.0852 118.223 52.6294C120.038 55.8097 122.306 58.5356 122.306 63.5331V101.696C122.306 104.876 126.843 101.696 131.379 103.968C135.916 106.239 132.74 116.689 131.379 121.686C130.018 126.684 125.935 138.042 122.306 140.768C118.677 143.493 114.14 138.042 108.696 140.768C103.253 143.493 101.892 148.945 99.1697 151.671C96.4478 154.397 90.5502 153.943 86.4673 151.671C82.3844 149.4 79.6625 147.128 75.5796 147.582C71.4967 148.037 70.1357 151.671 68.7748 155.76C67.4837 159.639 65.5992 162.575 57.4334 165.301C49.2677 168.027 46.0921 169.844 43.3701 167.118C40.6481 164.392 35.6579 157.123 35.6579 151.671C35.6579 146.219 35.6579 137.587 37.4726 134.861C38.9243 132.681 42.9165 125.169 44.7311 121.686C46.6969 119.414 49.1769 113.781 43.3701 109.419C36.1116 103.968 40.1945 102.15 40.1945 98.5158C40.1945 94.8812 37.4726 92.6096 35.6579 92.1553C33.8433 91.701 28.8532 90.338 26.5849 88.5207C24.3166 86.7034 24.3166 83.5232 24.7703 80.7973C25.1332 78.6166 27.6434 77.7685 28.8532 77.617C33.2385 77.4656 42.8257 77.2536 46.0921 77.617C49.3584 77.9805 48.6628 75.0426 47.9067 73.5282C47.3018 71.8623 44.9125 66.8951 40.1945 60.3529C34.297 52.1751 30.6678 46.269 30.6678 43.9974C30.6678 42.1801 35.2043 42.3315 37.4726 42.6344C38.9848 42.7858 42.8257 42.9979 46.0921 42.6344C50.175 42.1801 54.7115 29.0047 57.4334 25.8245Z" fill="#EEEEEE"/>
<path d="M21 35C19.5 35.5 18.044 35.2994 17.05 35.1678C16.056 35.0362 10.187 34.7135 10.187 36.5308C10.187 38.8024 13.8473 44.7086 19.7952 52.8863C24.5535 59.4285 26.9632 64.3958 27.5732 66.0616C28.3358 67.576 29.0373 70.5139 25.7431 70.1505C22.4489 69.787 12.7797 69.9991 8.35687 70.1505C7.13679 70.3019 4.60511 71.15 4.23908 73.3307C3.78155 76.0567 3.78155 79.2369 6.06921 81.0542C8.35687 82.8715 13.3897 84.2344 15.2198 84.6887C17.05 85.1431 19.7952 87.4147 19.7952 91.0492C19.7952 94.6838 15.6774 96.5011 22.9979 101.953C28.8543 106.314 26.3531 111.948 24.3705 114.22C22.5404 117.703 18.5141 125.214 17.05 127.395C15.2198 130.121 15.2198 138.753 15.2198 144.205C15.2198 149.657 20.2526 156.926 22.9979 159.652C25.7431 162.377 28.9459 160.56 37.1814 157.834C45.417 155.108 47.3176 152.173 48.6197 148.294C49.9923 144.205 51.3649 140.57 55.4827 140.116C59.6005 139.661 62.3457 141.933 66.4635 144.205C70.5813 146.476 76.5292 146.931 79.2744 144.205C82.0196 141.479 83.3922 136.027 88.8826 133.301C94.373 130.575 98.9483 136.027 102.609 133.301C106.269 130.575 110.387 119.217 111.759 114.22C113.132 109.222 116.335 98.7727 111.759 96.5011C107.184 94.2295 102.609 97.4097 102.609 94.2295C102.609 91.0492 102.609 61.0641 102.609 56.0666C102.609 51.069 100.321 48.3431 98.4908 45.1629C97.0267 42.6187 85.0698 18.6609 79.2744 7C77.5968 8.8173 73.784 12.9062 71.9539 14.7234C69.6662 16.995 66.5 17.5 65.5 17.5" stroke="url(#paint0_linear_6334_12)" stroke-width="8" stroke-linecap="round"/>
<path d="M19.7162 201.924C21.5668 196.431 29.4315 195.058 32.67 194.6C45.6238 194.6 48.3943 201.43 49.3248 204.213C50.8554 208.791 48.0796 212.911 41.1401 215.657C34.9451 218.109 29.4315 217.03 24.3426 213.826C19.2536 210.622 17.8657 207.418 19.7162 201.924Z" fill="#EEEEEE"/>
<path d="M10.3585 195.391C12.153 189.898 19.7794 188.525 22.9198 188.067C35.481 188.067 38.1675 194.897 39.0698 197.68C40.5541 202.257 37.8624 206.377 31.1332 209.124C25.1259 211.576 19.7794 210.497 14.8447 207.293C9.90989 204.088 8.56405 200.884 10.3585 195.391Z" stroke="#36C4AF" stroke-width="8"/>
<path d="M94 101.163C94 105.119 88.1071 116 86.5 116C84.8929 116 79 105.119 79 101.163C79 97.2069 82.3579 94 86.5 94C90.6421 94 94 97.2069 94 101.163Z" fill="#4DA6C3"/>
<path d="M62 29.6047C62 38.7751 48.6429 64 45 64C41.3571 64 28 38.7751 28 29.6047C28 20.4342 35.6112 13 45 13C54.3888 13 62 20.4342 62 29.6047Z" fill="url(#paint1_linear_6334_12)"/>
<circle cx="44" cy="29" r="7" fill="white"/>
<defs>
<linearGradient id="paint0_linear_6334_12" x1="59.0667" y1="7" x2="59.0667" y2="161" gradientUnits="userSpaceOnUse">
<stop stop-color="#9945FF"/>
<stop offset="1" stop-color="#26D9A3"/>
</linearGradient>
<linearGradient id="paint1_linear_6334_12" x1="45" y1="13" x2="45" y2="64" gradientUnits="userSpaceOnUse">
<stop stop-color="#9945FF"/>
<stop offset="1" stop-color="#638BD4"/>
</linearGradient>
</defs>
</svg>
