<svg width="42" height="42" viewBox="0 0 42 42" fill="none" xmlns="http://www.w3.org/2000/svg">
<circle cx="21" cy="21" r="21" fill="#FF6969"/>
<mask id="path-2-inside-1_7189_180" fill="white">
<path d="M17.6476 8.48971L29.0236 9.33151C29.7941 9.38877 30.2423 10.28 29.8234 10.9213L25.6779 17.2631L28.2609 17.8462C28.9353 17.9987 29.2849 18.7803 28.9425 19.3706L20.7013 33.5708C20.2202 34.3998 18.9522 34.0689 18.8576 33.0893L17.8019 22.1704L11.8429 21.2475C11.1498 21.1401 10.7513 20.3598 11.0753 19.7446L16.7394 8.99069C16.9156 8.65607 17.2685 8.46181 17.6476 8.48971Z"/>
</mask>
<path d="M17.6476 8.48971L17.8321 5.99653L17.8311 5.99645L17.6476 8.48971ZM29.0236 9.33151L29.2089 6.83838L29.2081 6.83832L29.0236 9.33151ZM29.8234 10.9213L31.916 12.2892L31.9164 12.2885L29.8234 10.9213ZM25.6779 17.2631L23.5853 15.8953L21.6152 18.9091L25.1274 19.7018L25.6779 17.2631ZM28.2609 17.8462L28.8123 15.4077L28.8113 15.4075L28.2609 17.8462ZM28.9425 19.3706L31.1048 20.6254L31.105 20.6251L28.9425 19.3706ZM20.7013 33.5708L18.5391 32.3159L18.539 32.316L20.7013 33.5708ZM18.8576 33.0893L21.346 32.8488L21.3459 32.8487L18.8576 33.0893ZM17.8019 22.1704L20.2903 21.9298L20.1034 19.997L18.1845 19.6998L17.8019 22.1704ZM11.8429 21.2475L11.46 23.718L11.4603 23.7181L11.8429 21.2475ZM11.0753 19.7446L13.2872 20.9097L13.2873 20.9096L11.0753 19.7446ZM16.7394 8.99069L14.5275 7.82556L14.5274 7.82566L16.7394 8.99069ZM17.6476 8.48971L17.4631 10.9829L28.8391 11.8247L29.0236 9.33151L29.2081 6.83832L17.8321 5.99653L17.6476 8.48971ZM29.0236 9.33151L28.8383 11.8246C28.2518 11.781 27.8296 11.4155 27.6361 11.0308C27.4423 10.6454 27.3941 10.0689 27.7303 9.55422L29.8234 10.9213L31.9164 12.2885C33.4014 10.015 31.8311 7.03327 29.2089 6.83838L29.0236 9.33151ZM29.8234 10.9213L27.7308 9.55347L23.5853 15.8953L25.6779 17.2631L27.7704 18.631L31.916 12.2892L29.8234 10.9213ZM25.6779 17.2631L25.1274 19.7018L27.7104 20.2848L28.2609 17.8462L28.8113 15.4075L26.2283 14.8245L25.6779 17.2631ZM28.2609 17.8462L27.7095 20.2846C26.7889 20.0764 26.2501 19.0295 26.7801 18.1161L28.9425 19.3706L31.105 20.6251C32.3197 18.5312 31.0817 15.9209 28.8123 15.4077L28.2609 17.8462ZM28.9425 19.3706L26.7803 18.1157L18.5391 32.3159L20.7013 33.5708L22.8635 34.8256L31.1048 20.6254L28.9425 19.3706ZM20.7013 33.5708L18.539 32.316C18.9386 31.6275 19.7222 31.4474 20.266 31.5894C20.7915 31.7266 21.2828 32.1956 21.346 32.8488L18.8576 33.0893L16.3691 33.3298C16.527 34.9627 17.6996 36.0869 19.003 36.4272C20.3247 36.7723 21.9829 36.3431 22.8636 34.8256L20.7013 33.5708ZM18.8576 33.0893L21.3459 32.8487L20.2903 21.9298L17.8019 22.1704L15.3135 22.411L16.3692 33.3299L18.8576 33.0893ZM17.8019 22.1704L18.1845 19.6998L12.2255 18.777L11.8429 21.2475L11.4603 23.7181L17.4193 24.6409L17.8019 22.1704ZM11.8429 21.2475L12.2258 18.777C13.194 18.9271 13.7792 19.9757 13.2872 20.9097L11.0753 19.7446L8.86343 18.5795C7.72329 20.7439 9.1055 23.3531 11.46 23.718L11.8429 21.2475ZM11.0753 19.7446L13.2873 20.9096L18.9513 10.1557L16.7394 8.99069L14.5274 7.82566L8.86338 18.5796L11.0753 19.7446ZM16.7394 8.99069L18.9513 10.1558C18.6597 10.7093 18.0669 11.0273 17.4641 10.983L17.6476 8.48971L17.8311 5.99645C16.47 5.89629 15.1715 6.60287 14.5275 7.82556L16.7394 8.99069Z" fill="black" mask="url(#path-2-inside-1_7189_180)"/>
</svg>
