<svg width="51" height="34" viewBox="0 0 51 34" fill="none" xmlns="http://www.w3.org/2000/svg">
<path d="M30.0137 6.9527C30.0137 10.1095 27.8307 12.3536 25.4995 12.3536C23.1683 12.3536 20.9854 10.1095 20.9854 6.9527C20.9854 3.79592 23.1683 1.55176 25.4995 1.55176C27.8307 1.55176 30.0137 3.79592 30.0137 6.9527Z" stroke="#24F2A7" stroke-width="2.5"/>
<circle cx="39.688" cy="7.83935" r="4.51415" stroke="white" stroke-width="2.5"/>
<path d="M7.68369 7.83935C7.68369 10.4285 9.59855 12.3535 11.7544 12.3535C13.9103 12.3535 15.8252 10.4285 15.8252 7.83935C15.8252 5.25016 13.9103 3.3252 11.7544 3.3252C9.59855 3.3252 7.68369 5.25016 7.68369 7.83935Z" stroke="white" stroke-width="2.5"/>
<path d="M15.3018 22.2207C15.3018 18.9307 17.9688 16.2637 21.2588 16.2637H29.741C33.0309 16.2637 35.698 18.9307 35.698 22.2207V24.772C35.698 28.5979 31.3472 30.7983 28.2656 28.5309V28.5309C26.6204 27.3204 24.3793 27.3204 22.7342 28.5309V28.5309C19.6525 30.7983 15.3018 28.5979 15.3018 24.772V22.2207Z" stroke="#24F2A7" stroke-width="2.5"/>
<path d="M39.2451 26.4959L39.5802 26.7537C43.4284 29.7138 48.9998 26.9705 48.9998 22.1154V22.1154C48.9998 18.8836 46.3799 16.2637 43.1481 16.2637H39.2451" stroke="white" stroke-width="2.5"/>
<path d="M11.7549 26.4959L11.4198 26.7537C7.57157 29.7138 2.00017 26.9705 2.00017 22.1154V22.1154C2.00017 18.8836 4.62008 16.2637 7.85191 16.2637H11.7549" stroke="white" stroke-width="2.5"/>
</svg>
