<svg width="23" height="28" viewBox="0 0 23 28" fill="none" xmlns="http://www.w3.org/2000/svg">
<path fill-rule="evenodd" clip-rule="evenodd" d="M16.0177 1.0959C16.0826 0.983649 16.2261 0.945189 16.3383 1.01C16.4506 1.07481 16.4891 1.21835 16.4243 1.3306L15.174 3.49603C17.2687 4.67439 18.7411 6.82847 18.9749 9.34198H4.01952C4.2533 6.82814 5.72604 4.67382 7.82119 3.49556L6.57139 1.33084C6.50658 1.21859 6.54504 1.07505 6.65729 1.01024C6.76954 0.945433 6.91308 0.983894 6.97789 1.09615L8.23771 3.27822C9.22358 2.80255 10.3293 2.53595 11.4972 2.53595C12.6655 2.53595 13.7715 2.80271 14.7575 3.27864L16.0177 1.0959ZM1.70154 9.69396C0.761807 9.69396 0 10.4558 0 11.3955V18.4364C0 19.3761 0.761807 20.1379 1.70154 20.1379C2.64128 20.1379 3.40309 19.3761 3.40309 18.4364V11.3955C3.40309 10.4558 2.64128 9.69396 1.70154 9.69396ZM21.2986 9.69396C20.3589 9.69396 19.5971 10.4558 19.5971 11.3955V18.4364C19.5971 19.3761 20.3589 20.1379 21.2986 20.1379C22.2383 20.1379 23.0001 19.3761 23.0001 18.4364V11.3955C23.0001 10.4558 22.2383 9.69396 21.2986 9.69396ZM10.4436 22.7194H12.5565V26.2988C12.5565 27.2385 13.3183 28.0003 14.2581 28.0003C15.1978 28.0003 15.9596 27.2385 15.9596 26.2988V22.7194H17.0103C18.1148 22.7194 19.0103 21.824 19.0103 20.7194V9.92847H3.98972V20.7194C3.98972 21.824 4.88515 22.7194 5.98972 22.7194H7.04054V26.2988C7.04054 27.2385 7.80234 28.0003 8.74208 28.0003C9.68182 28.0003 10.4436 27.2385 10.4436 26.2988V22.7194ZM8.09787 6.76062C8.48673 6.76062 8.80196 6.44539 8.80196 6.05653C8.80196 5.66768 8.48673 5.35245 8.09787 5.35245C7.70901 5.35245 7.39378 5.66768 7.39378 6.05653C7.39378 6.44539 7.70901 6.76062 8.09787 6.76062ZM15.6076 6.05653C15.6076 6.44539 15.2923 6.76062 14.9035 6.76062C14.5146 6.76062 14.1994 6.44539 14.1994 6.05653C14.1994 5.66768 14.5146 5.35245 14.9035 5.35245C15.2923 5.35245 15.6076 5.66768 15.6076 6.05653Z" fill="#FFFFFF"/>
</svg>
