<svg width="37" height="44" viewBox="0 0 37 44" fill="none" xmlns="http://www.w3.org/2000/svg">
<mask id="path-1-inside-1_5500_145" fill="white">
<rect y="12.0005" width="37" height="24" rx="2"/>
</mask>
<rect y="12.0005" width="37" height="24" rx="2" stroke="#707070" stroke-width="7" mask="url(#path-1-inside-1_5500_145)"/>
<path d="M25 42.0005H13" stroke="#707070" stroke-width="3.5" stroke-linecap="round"/>
<rect x="16" y="35.0005" width="6" height="8" fill="#707070"/>
<path fill-rule="evenodd" clip-rule="evenodd" d="M23.3074 0.132722C23.3806 0.00577089 23.5428 -0.0376943 23.6697 0.0356395C23.7966 0.108973 23.8401 0.271336 23.7669 0.398287L22.3552 2.84598C24.7254 4.17898 26.3909 6.61717 26.6529 9.46183H9.74695C10.0089 6.61765 11.6739 4.17981 14.0435 2.84666L12.632 0.399327C12.5588 0.272376 12.6023 0.110014 12.7292 0.0366798C12.8561 -0.036654 13.0183 0.00681138 13.0915 0.133762L14.5144 2.60085C15.6291 2.06282 16.8793 1.76125 18.1999 1.76125C19.5201 1.76125 20.7699 2.0626 21.8842 2.60025L23.3074 0.132722ZM7.12644 9.86221C6.06422 9.86221 5.20312 10.7233 5.20312 11.7855V19.7565C5.20312 20.8188 6.06422 21.6799 7.12644 21.6799C8.18867 21.6799 9.04976 20.8188 9.04976 19.7565V11.7855C9.04976 10.7233 8.18867 9.86221 7.12644 9.86221ZM29.2796 9.86221C28.2173 9.86221 27.3562 10.7233 27.3562 11.7855V19.7565C27.3562 20.8188 28.2173 21.6799 29.2796 21.6799C30.3418 21.6799 31.2029 20.8188 31.2029 19.7565V11.7855C31.2029 10.7233 30.3418 9.86221 29.2796 9.86221ZM17.0083 24.6006H19.3957V28.653C19.3957 29.7152 20.2568 30.5763 21.319 30.5763C22.3812 30.5763 23.2423 29.7152 23.2423 28.653V24.6006H24.6908C25.7954 24.6006 26.6908 23.7052 26.6908 22.6006V10.1273H9.71256V22.6006C9.71256 23.7052 10.608 24.6006 11.7126 24.6006H13.1617V28.653C13.1617 29.7152 14.0228 30.5763 15.085 30.5763C16.1472 30.5763 17.0083 29.7152 17.0083 28.653V24.6006ZM14.3588 6.54183C14.7984 6.54183 15.1547 6.18514 15.1547 5.74513C15.1547 5.30513 14.7984 4.94844 14.3588 4.94844C13.9193 4.94844 13.563 5.30513 13.563 5.74513C13.563 6.18514 13.9193 6.54183 14.3588 6.54183ZM22.8451 5.74513C22.8451 6.18514 22.4888 6.54183 22.0493 6.54183C21.6097 6.54183 21.2534 6.18514 21.2534 5.74513C21.2534 5.30513 21.6097 4.94844 22.0493 4.94844C22.4888 4.94844 22.8451 5.30513 22.8451 5.74513Z" fill="white"/>
</svg>
