<svg width="29" height="37" viewBox="0 0 29 37" fill="none" xmlns="http://www.w3.org/2000/svg">
<path fill-rule="evenodd" clip-rule="evenodd" d="M14.4478 10.1856C18.336 9.33348 21.24 5.95597 21.24 1.91919C21.24 1.57263 21.2186 1.23093 21.177 0.895264C17.2888 1.74735 14.3848 5.12485 14.3848 9.16163C14.3848 9.50819 14.4062 9.8499 14.4478 10.1856Z" fill="white"/>
<path fill-rule="evenodd" clip-rule="evenodd" d="M0.00452081 20.5317C0.228056 31.0334 5.5929 37.0447 8.57337 36.8999C10.2758 36.8171 11.5649 36.2618 12.6352 35.8007C13.4387 35.4546 14.1188 35.1616 14.7579 35.1616C15.4277 35.1616 16.4438 35.5128 17.5625 35.8995C18.9327 36.3731 20.4569 36.8999 21.6875 36.8999C23.4557 36.8999 27.3689 33.6367 29.0007 26.7519C25.8473 25.8522 23.5448 23.0188 23.5448 19.6626C23.5448 16.6754 25.3689 14.1024 27.9935 12.9383C26.3066 10.2201 23.7807 9.37817 22.209 9.37817C21.5633 9.32988 20.0333 9.37817 19.0795 9.95757C17.8873 10.6818 16.1736 11.4061 15.2049 11.4061C14.2363 11.4061 11.643 10.4078 10.8087 9.95757C9.76556 9.39467 8.05179 9.32365 7.43957 9.39467C4.78505 9.70289 -0.170606 12.3042 0.00452081 20.5317Z" fill="white"/>
</svg>
