<svg width="37" height="43" viewBox="0 0 37 43" fill="none" xmlns="http://www.w3.org/2000/svg">
<mask id="path-1-inside-1_5500_134" fill="white">
<rect y="10.9996" width="37" height="24" rx="2"/>
</mask>
<rect y="10.9996" width="37" height="24" rx="2" stroke="#707070" stroke-width="7" mask="url(#path-1-inside-1_5500_134)"/>
<path d="M25 40.9996H13" stroke="#707070" stroke-width="3.5" stroke-linecap="round"/>
<rect x="16" y="33.9996" width="6" height="8" fill="#707070"/>
<path fill-rule="evenodd" clip-rule="evenodd" d="M18.4638 7.04696C21.4126 6.40001 23.6149 3.83818 23.6149 0.776387C23.6149 0.513611 23.5986 0.254517 23.5671 0C20.6183 0.646946 18.416 3.20878 18.416 6.27057C18.416 6.53334 18.4322 6.79244 18.4638 7.04696Z" fill="white"/>
<path fill-rule="evenodd" clip-rule="evenodd" d="M7.50538 14.897C7.67496 22.8636 11.7447 27.4239 14.0057 27.314C15.2972 27.2512 16.2752 26.8299 17.0871 26.4802C17.6966 26.2176 18.2126 25.9954 18.6973 25.9954C19.2055 25.9954 19.9763 26.2618 20.825 26.5551C21.8644 26.9143 23.0206 27.314 23.9541 27.314C25.2956 27.314 28.2641 24.8385 29.502 19.6157C27.1096 18.9333 25.3626 16.7838 25.3626 14.2376C25.3626 11.9714 26.7465 10.0193 28.7377 9.13634C27.458 7.07452 25.542 6.43591 24.3498 6.43591C23.8599 6.39928 22.6993 6.43591 21.9758 6.87545C21.0714 7.42487 19.7713 7.97429 19.0365 7.97429C18.3016 7.97429 16.3344 7.21696 15.7015 6.87545C14.9101 6.44843 13.6101 6.39455 13.1456 6.44843C11.1319 6.68224 7.37253 8.65562 7.50538 14.897Z" fill="white"/>
</svg>
