<svg width="21" height="26" viewBox="0 0 21 26" fill="none" xmlns="http://www.w3.org/2000/svg">
<path fill-rule="evenodd" clip-rule="evenodd" d="M10.1404 6.70816C12.8692 6.09281 14.9073 3.65408 14.9073 0.739339C14.9073 0.4891 14.8923 0.242369 14.8631 0C12.1343 0.615359 10.0962 3.05408 10.0962 5.96882C10.0962 6.21906 10.1112 6.46579 10.1404 6.70816Z" fill="#000000"/>
<path fill-rule="evenodd" clip-rule="evenodd" d="M0.00317293 14.1791C0.160061 21.762 3.92538 26.1026 6.01722 25.998C7.21207 25.9382 8.11686 25.5373 8.86803 25.2043C9.43195 24.9544 9.9093 24.7429 10.3578 24.7429C10.8279 24.7429 11.5411 24.9965 12.3263 25.2757C13.2879 25.6176 14.3577 25.998 15.2213 25.998C16.4624 25.998 19.2089 23.6418 20.3542 18.6704C18.1412 18.0206 16.5254 15.9748 16.5254 13.5516C16.5254 11.3948 17.8055 9.53696 19.6474 8.69637C18.4634 6.73342 16.6905 6.12545 15.5874 6.12545C15.1342 6.09059 14.0604 6.12545 13.391 6.54382C12.5542 7.06678 11.3514 7.58974 10.6716 7.58974C9.99173 7.58974 8.17164 6.86889 7.5861 6.54382C6.85396 6.13737 5.65115 6.08609 5.22146 6.13737C3.35839 6.35992 -0.11974 8.23826 0.00317293 14.1791Z" fill="#000000"/>
</svg>
