<svg width="135" height="132" viewBox="0 0 135 132" fill="none" xmlns="http://www.w3.org/2000/svg">
<path fill-rule="evenodd" clip-rule="evenodd" d="M79 3H135V59H79V3ZM91 21C91 18.2386 93.2386 16 96 16L111 16C113.761 16 116 18.2386 116 21C116 23.7614 113.761 26 111 26L96 26C93.2386 26 91 23.7614 91 21ZM96 33C93.2386 33 91 35.2386 91 38C91 40.7614 93.2386 43 96 43H116C118.761 43 121 40.7614 121 38C121 35.2386 118.761 33 116 33H96Z" fill="#E4E4E4"/>
<path fill-rule="evenodd" clip-rule="evenodd" d="M79 76H135V132H79V76ZM91 94C91 91.2386 93.2386 89 96 89L111 89C113.761 89 116 91.2386 116 94C116 96.7614 113.761 99 111 99L96 99C93.2386 99 91 96.7614 91 94ZM96 106C93.2386 106 91 108.239 91 111C91 113.761 93.2386 116 96 116H116C118.761 116 121 113.761 121 111C121 108.239 118.761 106 116 106H96Z" fill="#E4E4E4"/>
<path fill-rule="evenodd" clip-rule="evenodd" d="M4 76H60V132H4V76ZM16 94C16 91.2386 18.2386 89 21 89L36 89C38.7614 89 41 91.2386 41 94C41 96.7614 38.7614 99 36 99L21 99C18.2386 99 16 96.7614 16 94ZM21 106C18.2386 106 16 108.239 16 111C16 113.761 18.2386 116 21 116H41C43.7614 116 46 113.761 46 111C46 108.239 43.7614 106 41 106H21Z" fill="#E4E4E4"/>
<path fill-rule="evenodd" clip-rule="evenodd" d="M30.5 61C47.3447 61 61 47.3447 61 30.5C61 13.6553 47.3447 0 30.5 0C13.6553 0 0 13.6553 0 30.5C0 47.3447 13.6553 61 30.5 61ZM49.7071 23.3552C51.5601 21.3078 51.4026 18.1459 49.3552 16.2929C47.3078 14.4399 44.1459 14.5974 42.2929 16.6448L26.0871 34.5508L17.7055 25.299C15.8515 23.2525 12.6895 23.0964 10.643 24.9504C8.59654 26.8044 8.44049 29.9664 10.2945 32.0129L22.3834 45.357L26.0907 49.4492L29.796 45.3552L49.7071 23.3552Z" fill="url(#paint0_linear_5313_347)"/>
<defs>
<linearGradient id="paint0_linear_5313_347" x1="61" y1="0" x2="9.5" y2="56.5" gradientUnits="userSpaceOnUse">
<stop stop-color="#9945FF"/>
<stop offset="1" stop-color="#26D9A3"/>
</linearGradient>
</defs>
</svg>
