<svg width="114" height="114" viewBox="0 0 114 114" fill="none" xmlns="http://www.w3.org/2000/svg">
<path fill-rule="evenodd" clip-rule="evenodd" d="M26.0548 10.5009C35.3256 4.30634 46.2251 1 57.3751 1C72.3218 1.01578 86.6518 6.96035 97.2208 17.5293C107.79 28.0982 113.734 42.4283 113.75 57.375C113.75 68.5249 110.444 79.4245 104.249 88.6953C98.0546 97.9661 89.25 105.192 78.9488 109.459C68.6477 113.726 57.3125 114.842 46.3768 112.667C35.4412 110.492 25.3961 105.122 17.5119 97.2382C9.62772 89.354 4.25852 79.3089 2.08328 68.3732C-0.0919638 57.4376 1.02445 46.1024 5.29134 35.8012C9.55823 25.5 16.784 16.6955 26.0548 10.5009ZM30.8733 97.0377C38.7178 102.279 47.9405 105.077 57.3751 105.077C70.022 105.063 82.1468 100.032 91.0896 91.0895C100.032 82.1468 105.063 70.0219 105.077 57.375C105.077 47.9405 102.279 38.7178 97.0378 30.8732C91.7962 23.0287 84.3462 16.9146 75.6298 13.3042C66.9134 9.69373 57.3221 8.74907 48.0689 10.5897C38.8156 12.4302 30.3159 16.9734 23.6447 23.6447C16.9735 30.3159 12.4303 38.8156 10.5897 48.0688C8.74912 57.3221 9.69377 66.9134 13.3042 75.6298C16.9147 84.3462 23.0287 91.7962 30.8733 97.0377ZM40.0833 41.0392L37.8645 39.56L35.6457 41.0392L29.1408 45.3757C27.3027 46.6011 26.806 49.0846 28.0314 50.9227C29.2569 52.7608 31.7403 53.2575 33.5784 52.0321L37.8645 49.1748L42.1505 52.0321C43.9886 53.2575 46.4721 52.7608 47.6975 50.9227C48.9229 49.0846 48.4262 46.6011 46.5881 45.3757L40.0833 41.0392ZM76.8926 39.56L79.1114 41.0392L85.6162 45.3757C87.4543 46.6011 87.951 49.0846 86.7256 50.9227C85.5002 52.7608 83.0167 53.2575 81.1786 52.0321L76.8926 49.1748L72.6066 52.0321C70.7684 53.2575 68.285 52.7608 67.0596 50.9227C65.8342 49.0846 66.3308 46.6011 68.169 45.3757L74.6738 41.0392L76.8926 39.56ZM67.6251 93.2501C79.5683 89.5201 88.1251 79.4555 88.1251 67.6251C88.1251 67.6251 74.3578 72.42 57.3751 72.42C40.3923 72.42 26.625 67.6251 26.625 67.6251C26.625 79.4555 35.1818 89.5201 47.125 93.2501C47.125 93.2438 47.1624 93.2572 47.2417 93.2858C47.8188 93.4934 50.6161 94.5001 57.3751 94.5001C65.0626 94.5001 67.6251 93.2501 67.6251 93.2501Z" fill="#2D63CC"/>
<path d="M57.3751 1L57.3753 0.75H57.3751V1ZM26.0548 10.5009L25.9159 10.293L25.9159 10.293L26.0548 10.5009ZM97.2208 17.5293L97.044 17.7061L97.044 17.7061L97.2208 17.5293ZM113.75 57.375L114 57.375L114 57.3748L113.75 57.375ZM104.249 88.6953L104.457 88.8342L104.457 88.8342L104.249 88.6953ZM46.3768 112.667L46.3281 112.912L46.3281 112.912L46.3768 112.667ZM17.5119 97.2382L17.3351 97.415L17.3351 97.415L17.5119 97.2382ZM2.08328 68.3732L2.32848 68.3245L2.32848 68.3245L2.08328 68.3732ZM5.29134 35.8012L5.52231 35.8969L5.52231 35.8969L5.29134 35.8012ZM57.3751 105.077L57.3751 105.327L57.3753 105.327L57.3751 105.077ZM91.0896 91.0895L91.2664 91.2663L91.2664 91.2663L91.0896 91.0895ZM105.077 57.375L105.327 57.3753V57.375H105.077ZM97.0378 30.8732L96.8299 31.0121L96.8299 31.0121L97.0378 30.8732ZM75.6298 13.3042L75.5341 13.5351L75.5341 13.5351L75.6298 13.3042ZM48.0689 10.5897L48.1177 10.8349L48.1177 10.8349L48.0689 10.5897ZM23.6447 23.6447L23.8215 23.8214L23.8215 23.8214L23.6447 23.6447ZM13.3042 75.6298L13.5352 75.5341L13.5352 75.5341L13.3042 75.6298ZM37.8645 39.56L38.0031 39.3519L37.8645 39.2595L37.7258 39.3519L37.8645 39.56ZM40.0833 41.0392L40.2219 40.8311L40.2219 40.8311L40.0833 41.0392ZM35.6457 41.0392L35.507 40.8311L35.507 40.8311L35.6457 41.0392ZM29.1408 45.3757L29.0022 45.1677L29.0022 45.1677L29.1408 45.3757ZM28.0314 50.9227L27.8234 51.0614L27.8234 51.0614L28.0314 50.9227ZM33.5784 52.0321L33.7171 52.2401L33.7171 52.2401L33.5784 52.0321ZM37.8645 49.1748L38.0031 48.9667L37.8645 48.8743L37.7258 48.9667L37.8645 49.1748ZM42.1505 52.0321L42.0118 52.2401L42.0118 52.2401L42.1505 52.0321ZM47.6975 50.9227L47.4895 50.784L47.4895 50.784L47.6975 50.9227ZM46.5881 45.3757L46.4494 45.5837L46.4494 45.5837L46.5881 45.3757ZM79.1114 41.0392L79.25 40.8311L79.25 40.8311L79.1114 41.0392ZM76.8926 39.56L77.0312 39.3519L76.8926 39.2595L76.7539 39.3519L76.8926 39.56ZM85.6162 45.3757L85.4775 45.5837L85.4775 45.5837L85.6162 45.3757ZM81.1786 52.0321L81.0399 52.2401L81.0399 52.2401L81.1786 52.0321ZM76.8926 49.1748L77.0312 48.9667L76.8926 48.8743L76.7539 48.9667L76.8926 49.1748ZM72.6066 52.0321L72.7452 52.2401L72.7452 52.2401L72.6066 52.0321ZM68.169 45.3757L68.0303 45.1677L68.0303 45.1677L68.169 45.3757ZM74.6738 41.0392L74.8124 41.2472L74.8124 41.2472L74.6738 41.0392ZM88.1251 67.6251H88.3751V67.2733L88.0429 67.389L88.1251 67.6251ZM67.6251 93.2501L67.5505 93.0115L67.5325 93.0171L67.5155 93.0254L67.6251 93.2501ZM26.625 67.6251L26.7073 67.389L26.375 67.2733V67.6251H26.625ZM47.125 93.2501L47.0505 93.4887L47.375 93.5901V93.2501H47.125ZM47.2417 93.2858L47.157 93.521L47.1571 93.521L47.2417 93.2858ZM57.3751 0.75C46.1757 0.75 35.2278 4.071 25.9159 10.293L26.1937 10.7088C35.4234 4.54168 46.2746 1.25 57.3751 1.25V0.75ZM97.3976 17.3525C86.7818 6.73675 72.3883 0.765854 57.3753 0.75L57.3748 1.25C72.2553 1.26571 86.5219 7.18394 97.044 17.7061L97.3976 17.3525ZM114 57.3748C113.984 42.3618 108.013 27.9683 97.3976 17.3525L97.044 17.7061C107.566 28.2282 113.484 42.4948 113.5 57.3753L114 57.3748ZM104.457 88.8342C110.679 79.5222 114 68.5744 114 57.375H113.5C113.5 68.4755 110.208 79.3267 104.041 88.5564L104.457 88.8342ZM79.0445 109.69C89.3914 105.404 98.235 98.1461 104.457 88.8342L104.041 88.5564C97.8742 97.7861 89.1087 104.98 78.8532 109.228L79.0445 109.69ZM46.3281 112.912C57.3122 115.097 68.6976 113.976 79.0445 109.69L78.8532 109.228C68.5977 113.476 57.3128 114.587 46.4256 112.422L46.3281 112.912ZM17.3351 97.415C25.2543 105.334 35.3439 110.727 46.3281 112.912L46.4256 112.422C35.5384 110.256 25.5379 104.911 17.6887 97.0614L17.3351 97.415ZM1.83808 68.422C4.02297 79.4062 9.41598 89.4958 17.3351 97.415L17.6887 97.0614C9.83946 89.2122 4.49407 79.2117 2.32848 68.3245L1.83808 68.422ZM5.06037 35.7056C0.774558 46.0524 -0.346806 57.4378 1.83808 68.422L2.32848 68.3245C0.162879 57.4373 1.27434 46.1524 5.52231 35.8969L5.06037 35.7056ZM25.9159 10.293C16.604 16.5151 9.34618 25.3587 5.06037 35.7056L5.52231 35.8969C9.77028 25.6414 16.964 16.8759 26.1937 10.7088L25.9159 10.293ZM57.3751 104.827C47.99 104.827 38.8156 102.044 31.0122 96.8299L30.7344 97.2456C38.6201 102.515 47.8911 105.327 57.3751 105.327V104.827ZM90.9128 90.9128C82.0169 99.8087 69.9555 104.813 57.3748 104.827L57.3753 105.327C70.0885 105.313 82.2768 100.256 91.2664 91.2663L90.9128 90.9128ZM104.827 57.3747C104.813 69.9555 99.8087 82.0168 90.9128 90.9128L91.2664 91.2663C100.256 82.2768 105.313 70.0884 105.327 57.3753L104.827 57.3747ZM96.8299 31.0121C102.044 38.8156 104.827 47.9899 104.827 57.375H105.327C105.327 47.891 102.515 38.62 97.2456 30.7343L96.8299 31.0121ZM75.5341 13.5351C84.2048 17.1267 91.6158 23.2087 96.8299 31.0121L97.2456 30.7343C91.9766 22.8487 84.4876 16.7026 75.7255 13.0732L75.5341 13.5351ZM48.1177 10.8349C57.3224 9.00391 66.8634 9.94362 75.5341 13.5351L75.7255 13.0732C66.9634 9.44383 57.3219 8.49423 48.0201 10.3445L48.1177 10.8349ZM23.8215 23.8214C30.4578 17.1852 38.9129 12.6658 48.1177 10.8349L48.0201 10.3445C38.7183 12.1947 30.1741 16.7617 23.4679 23.4679L23.8215 23.8214ZM10.8349 48.1176C12.6658 38.9128 17.1852 30.4577 23.8215 23.8214L23.4679 23.4679C16.7617 30.1741 12.1947 38.7183 10.3445 48.0201L10.8349 48.1176ZM13.5352 75.5341C9.94367 66.8634 9.00396 57.3224 10.8349 48.1176L10.3445 48.0201C8.49427 57.3218 9.44388 66.9634 13.0733 75.7254L13.5352 75.5341ZM31.0122 96.8299C23.2087 91.6158 17.1267 84.2048 13.5352 75.5341L13.0733 75.7254C16.7026 84.4875 22.8487 91.9766 30.7344 97.2456L31.0122 96.8299ZM37.7258 39.768L39.9446 41.2472L40.2219 40.8311L38.0031 39.3519L37.7258 39.768ZM35.7843 41.2472L38.0031 39.768L37.7258 39.3519L35.507 40.8311L35.7843 41.2472ZM29.2795 45.5837L35.7843 41.2472L35.507 40.8311L29.0022 45.1677L29.2795 45.5837ZM28.2395 50.784C27.0906 49.0608 27.5563 46.7325 29.2795 45.5837L29.0022 45.1677C27.0492 46.4697 26.5214 49.1084 27.8234 51.0614L28.2395 50.784ZM33.4398 51.8241C31.7165 52.9729 29.3883 52.5072 28.2395 50.784L27.8234 51.0614C29.1254 53.0144 31.7641 53.5421 33.7171 52.2401L33.4398 51.8241ZM37.7258 48.9667L33.4398 51.8241L33.7171 52.2401L38.0031 49.3828L37.7258 48.9667ZM42.2891 51.8241L38.0031 48.9667L37.7258 49.3828L42.0118 52.2401L42.2891 51.8241ZM47.4895 50.784C46.3406 52.5072 44.0124 52.9729 42.2891 51.8241L42.0118 52.2401C43.9648 53.5421 46.6035 53.0144 47.9055 51.0614L47.4895 50.784ZM46.4494 45.5837C48.1726 46.7325 48.6383 49.0608 47.4895 50.784L47.9055 51.0614C49.2075 49.1084 48.6797 46.4697 46.7267 45.1677L46.4494 45.5837ZM39.9446 41.2472L46.4494 45.5837L46.7267 45.1677L40.2219 40.8311L39.9446 41.2472ZM79.25 40.8311L77.0312 39.3519L76.7539 39.768L78.9727 41.2472L79.25 40.8311ZM85.7549 45.1677L79.25 40.8311L78.9727 41.2472L85.4775 45.5837L85.7549 45.1677ZM86.9336 51.0614C88.2356 49.1084 87.7079 46.4697 85.7549 45.1677L85.4775 45.5837C87.2007 46.7325 87.6664 49.0608 86.5176 50.784L86.9336 51.0614ZM81.0399 52.2401C82.9929 53.5421 85.6316 53.0144 86.9336 51.0614L86.5176 50.784C85.3688 52.5072 83.0405 52.9729 81.3173 51.8241L81.0399 52.2401ZM76.7539 49.3828L81.0399 52.2401L81.3173 51.8241L77.0312 48.9667L76.7539 49.3828ZM72.7452 52.2401L77.0312 49.3828L76.7539 48.9667L72.4679 51.8241L72.7452 52.2401ZM66.8516 51.0614C68.1535 53.0144 70.7922 53.5421 72.7452 52.2401L72.4679 51.8241C70.7447 52.9729 68.4164 52.5072 67.2676 50.784L66.8516 51.0614ZM68.0303 45.1677C66.0773 46.4697 65.5496 49.1084 66.8516 51.0614L67.2676 50.784C66.1188 49.0608 66.5844 46.7325 68.3076 45.5837L68.0303 45.1677ZM74.5351 40.8311L68.0303 45.1677L68.3076 45.5837L74.8124 41.2472L74.5351 40.8311ZM76.7539 39.3519L74.5351 40.8311L74.8124 41.2472L77.0312 39.768L76.7539 39.3519ZM87.8751 67.6251C87.8751 79.3265 79.4095 89.3078 67.5505 93.0115L67.6996 93.4887C79.7271 89.7324 88.3751 79.5846 88.3751 67.6251H87.8751ZM57.3751 72.67C65.889 72.67 73.5947 71.4682 79.1713 70.2669C81.9599 69.6662 84.2172 69.0653 85.778 68.6144C86.5584 68.389 87.1648 68.201 87.5766 68.0692C87.7824 68.0033 87.9397 67.9514 88.0456 67.916C88.0986 67.8983 88.1388 67.8846 88.1659 67.8754C88.1794 67.8708 88.1896 67.8673 88.1966 67.8649C88.2 67.8637 88.2026 67.8628 88.2044 67.8621C88.2053 67.8618 88.206 67.8616 88.2065 67.8614C88.2067 67.8613 88.2069 67.8613 88.2071 67.8612C88.2072 67.8612 88.2073 67.8612 88.1251 67.6251C88.0429 67.389 88.0428 67.389 88.0428 67.389C88.0427 67.389 88.0426 67.3891 88.0424 67.3891C88.042 67.3893 88.0415 67.3895 88.0407 67.3897C88.0391 67.3903 88.0367 67.3911 88.0335 67.3922C88.0271 67.3944 88.0173 67.3978 88.0043 67.4022C87.9782 67.4111 87.939 67.4244 87.887 67.4418C87.783 67.4766 87.6279 67.5278 87.4241 67.593C87.0167 67.7234 86.4148 67.91 85.6392 68.1341C84.088 68.5822 81.842 69.1801 79.066 69.7781C73.5132 70.9743 65.8439 72.17 57.3751 72.17V72.67ZM26.625 67.6251C26.5428 67.8612 26.5429 67.8612 26.543 67.8612C26.5432 67.8613 26.5434 67.8613 26.5436 67.8614C26.5441 67.8616 26.5448 67.8618 26.5457 67.8621C26.5475 67.8628 26.5501 67.8637 26.5536 67.8649C26.5605 67.8673 26.5707 67.8708 26.5842 67.8754C26.6113 67.8846 26.6515 67.8983 26.7045 67.916C26.8105 67.9514 26.9677 68.0033 27.1735 68.0692C27.5853 68.201 28.1917 68.389 28.9721 68.6144C30.533 69.0653 32.7902 69.6662 35.5789 70.2669C41.1554 71.4682 48.8612 72.67 57.3751 72.67V72.17C48.9062 72.17 41.237 70.9743 35.6841 69.7781C32.9081 69.1801 30.6621 68.5822 29.1109 68.1341C28.3353 67.91 27.7335 67.7234 27.326 67.593C27.1222 67.5278 26.9671 67.4766 26.8631 67.4418C26.8111 67.4244 26.7719 67.4111 26.7458 67.4022C26.7328 67.3978 26.723 67.3944 26.7166 67.3922C26.7134 67.3911 26.711 67.3903 26.7094 67.3897C26.7086 67.3895 26.7081 67.3893 26.7077 67.3891C26.7075 67.3891 26.7074 67.389 26.7073 67.389C26.7073 67.389 26.7073 67.389 26.625 67.6251ZM47.1996 93.0115C35.3406 89.3078 26.875 79.3265 26.875 67.6251H26.375C26.375 79.5846 35.023 89.7324 47.0505 93.4887L47.1996 93.0115ZM47.3264 93.0505C47.289 93.0371 47.2544 93.0246 47.2296 93.0167C47.2195 93.0135 47.198 93.0067 47.1747 93.0026C47.1677 93.0014 47.1324 92.9949 47.0889 93.0015C47.0671 93.0049 47.0162 93.0153 46.9667 93.056C46.906 93.106 46.875 93.1784 46.875 93.2501H47.375C47.375 93.321 47.3444 93.3928 47.2843 93.4422C47.2354 93.4825 47.1853 93.4926 47.1647 93.4958C47.1236 93.502 47.0918 93.4957 47.0896 93.4953C47.0758 93.493 47.0685 93.4901 47.0777 93.493C47.0914 93.4974 47.1151 93.5059 47.157 93.521L47.3264 93.0505ZM57.3751 94.2501C50.644 94.2501 47.8755 93.2481 47.3264 93.0505L47.1571 93.521C47.7622 93.7387 50.5881 94.7501 57.3751 94.7501V94.2501ZM67.6251 93.2501C67.5155 93.0254 67.5156 93.0253 67.5157 93.0253C67.5157 93.0253 67.5158 93.0252 67.5159 93.0252C67.516 93.0252 67.516 93.0251 67.516 93.0251C67.5161 93.0251 67.5159 93.0252 67.5156 93.0253C67.5151 93.0256 67.5139 93.0261 67.512 93.027C67.5083 93.0287 67.502 93.0316 67.4931 93.0356C67.4752 93.0435 67.4466 93.0558 67.4067 93.0718C67.3271 93.1038 67.2022 93.1507 67.0272 93.2076C66.6772 93.3215 66.1266 93.4752 65.335 93.6297C63.7517 93.9386 61.2055 94.2501 57.3751 94.2501V94.7501C61.2321 94.7501 63.8109 94.4365 65.4307 94.1204C66.2407 93.9624 66.8112 93.8037 67.1819 93.6831C67.3672 93.6229 67.5027 93.5721 67.5931 93.5358C67.6384 93.5176 67.6724 93.503 67.6958 93.4927C67.7074 93.4875 67.7165 93.4833 67.7229 93.4803C67.7262 93.4788 67.7288 93.4776 67.7307 93.4767C67.7317 93.4762 67.7325 93.4758 67.7332 93.4755C67.7335 93.4753 67.7338 93.4752 67.734 93.4751C67.7342 93.475 67.7343 93.4749 67.7344 93.4749C67.7345 93.4748 67.7347 93.4748 67.6251 93.2501Z" fill="#2D63CC"/>
</svg>
