<svg width="115" height="114" viewBox="0 0 115 114" fill="none" xmlns="http://www.w3.org/2000/svg">
<path d="M57.5 1C46.3254 1 35.4017 4.28434 26.1103 10.4377C16.8189 16.5911 9.57718 25.3371 5.30083 35.5697C1.02448 45.8024 -0.0944078 57.0621 2.08566 67.925C4.26572 78.788 9.64682 88.7662 17.5485 96.598C25.4502 104.43 35.5175 109.763 46.4774 111.924C57.4373 114.085 68.7976 112.976 79.1216 108.737C89.4456 104.499 98.2697 97.3211 104.478 88.1119C110.686 78.9028 114 68.0757 114 57C113.984 42.1527 108.026 27.918 97.4341 17.4193C86.8417 6.92069 72.4799 1.01568 57.5 1ZM57.5 104.385C48.0445 104.385 38.8014 101.606 30.9395 96.3988C23.0776 91.1922 16.9499 83.7917 13.3315 75.1333C9.71302 66.4749 8.76627 56.9474 10.6109 47.7557C12.4556 38.564 17.0089 30.1209 23.6949 23.494C30.3809 16.8672 38.8994 12.3542 48.1732 10.5259C57.447 8.69752 67.0595 9.63589 75.7952 13.2223C84.5309 16.8087 91.9975 22.8822 97.2506 30.6745C102.504 38.4669 105.308 47.6282 105.308 57C105.293 69.5628 100.252 81.607 91.2893 90.4902C82.3267 99.3735 70.175 104.37 57.5 104.385ZM31.4231 46.2308C31.4231 44.9528 31.8054 43.7035 32.5218 42.6409C33.2381 41.5783 34.2563 40.7501 35.4475 40.2611C36.6388 39.772 37.9496 39.6441 39.2142 39.8934C40.4788 40.1427 41.6404 40.7581 42.5521 41.6618C43.4638 42.5654 44.0847 43.7168 44.3363 44.9702C44.5878 46.2236 44.4587 47.5228 43.9653 48.7035C43.4719 49.8842 42.6363 50.8933 41.5642 51.6033C40.4921 52.3133 39.2317 52.6923 37.9423 52.6923C36.2133 52.6923 34.5551 52.0115 33.3325 50.7998C32.1099 49.588 31.4231 47.9445 31.4231 46.2308ZM83.5769 46.2308C83.5769 47.5087 83.1946 48.758 82.4782 49.8206C81.7619 50.8832 80.7437 51.7114 79.5525 52.2004C78.3613 52.6895 77.0505 52.8175 75.7859 52.5681C74.5213 52.3188 73.3596 51.7034 72.4479 50.7998C71.5362 49.8961 70.9153 48.7448 70.6637 47.4913C70.4122 46.2379 70.5413 44.9387 71.0347 43.758C71.5281 42.5773 72.3637 41.5682 73.4358 40.8582C74.5079 40.1482 75.7683 39.7692 77.0577 39.7692C78.7867 39.7692 80.4449 40.45 81.6675 41.6618C82.8901 42.8735 83.5769 44.5171 83.5769 46.2308ZM82.9956 72.0769C77.4054 81.6561 68.1101 87.1538 57.5 87.1538C46.89 87.1538 37.6001 81.6615 32.0098 72.0769C31.6954 71.5866 31.4842 71.0383 31.3891 70.4651C31.2939 69.8918 31.3168 69.3054 31.4563 68.7411C31.5957 68.1768 31.8489 67.6463 32.2006 67.1815C32.5522 66.7167 32.9951 66.3272 33.5026 66.0365C34.0101 65.7457 34.5717 65.5597 35.1535 65.4897C35.7354 65.4196 36.3256 65.467 36.8885 65.6288C37.4515 65.7907 37.9756 66.0638 38.4293 66.4316C38.883 66.7994 39.257 67.2544 39.5287 67.7692C43.5869 74.7208 49.9649 78.5384 57.5 78.5384C65.0352 78.5384 71.4131 74.7154 75.4659 67.7692C76.0423 66.7795 76.9916 66.0573 78.1052 65.7615C79.2188 65.4656 80.4053 65.6203 81.4039 66.1915C82.4024 66.7628 83.131 67.7037 83.4295 68.8075C83.728 69.9112 83.572 71.0872 82.9956 72.0769Z" fill="#24BE86" stroke="#24BE86" stroke-width="0.5"/>
</svg>
