<svg width="20" height="18" viewBox="0 0 20 18" fill="none" xmlns="http://www.w3.org/2000/svg">
<rect x="0.5" y="1.38867" width="19" height="15.8889" stroke="#767676"/>
<line x1="5.5" x2="5.5" y2="3.55556" stroke="#767676"/>
<line x1="14.5" x2="14.5" y2="3.55556" stroke="#767676"/>
<line x1="1" y1="5.72217" x2="15" y2="5.72217" stroke="#767676"/>
<line y1="-0.5" x2="2.67591" y2="-0.5" transform="matrix(0.747409 -0.664364 0.747409 0.664364 4 10.6665)" stroke="#767676"/>
<line y1="-0.5" x2="2.67591" y2="-0.5" transform="matrix(0.747409 -0.664364 0.747409 0.664364 4 15.1113)" stroke="#767676"/>
<line y1="-0.5" x2="2.67591" y2="-0.5" transform="matrix(0.747409 -0.664364 0.747409 0.664364 9 10.6665)" stroke="#767676"/>
<line y1="-0.5" x2="2.67591" y2="-0.5" transform="matrix(0.747409 -0.664364 0.747409 0.664364 9 15.1113)" stroke="#767676"/>
<line y1="-0.5" x2="2.67591" y2="-0.5" transform="matrix(0.747409 -0.664364 0.747409 0.664364 14 10.6665)" stroke="#767676"/>
<line y1="-0.5" x2="2.67591" y2="-0.5" transform="matrix(0.747409 -0.664364 0.747409 0.664364 14 15.1113)" stroke="#767676"/>
<line x1="17" y1="5.72217" x2="19" y2="5.72217" stroke="#767676"/>
</svg>
