<svg width="20" height="23" viewBox="0 0 20 23" fill="none" xmlns="http://www.w3.org/2000/svg">
<circle cx="10" cy="12" r="10" fill="#535457"/>
<path d="M8.816 13.968H10.88C10.64 11.712 13.424 10.96 13.424 8.688C13.424 6.624 12.016 5.632 10.08 5.632C8.688 5.632 7.552 6.288 6.72 7.232L8.016 8.432C8.544 7.888 9.104 7.536 9.808 7.536C10.64 7.536 11.168 8.032 11.168 8.848C11.168 10.368 8.432 11.392 8.816 13.968ZM9.856 18.224C10.688 18.224 11.328 17.568 11.328 16.688C11.328 15.808 10.688 15.168 9.856 15.168C9.008 15.168 8.4 15.808 8.4 16.688C8.4 17.568 9.008 18.224 9.856 18.224Z" fill="white"/>
</svg>
