<svg width="24" height="24" viewBox="0 0 24 24" fill="none" xmlns="http://www.w3.org/2000/svg">
<path fill-rule="evenodd" clip-rule="evenodd" d="M7.39006 0C7.89987 0 8.31314 0.413278 8.31314 0.923082V2.95148H11.0824L11.0824 0.923082C11.0824 0.413278 11.4957 0 12.0055 0C12.5153 0 12.9286 0.413278 12.9286 0.923082V2.95148H15.6978L15.6978 0.923082C15.6978 0.413278 16.1111 0 16.6209 0C17.1307 0 17.544 0.413278 17.544 0.923082V2.95148H18.083C19.7399 2.95148 21.083 4.29463 21.083 5.95148V6.46146L23.077 6.46146C23.5868 6.46146 24.0001 6.87474 24.0001 7.38454C24.0001 7.89434 23.5868 8.30762 23.077 8.30762H21.083V11.0769H23.077C23.5868 11.0769 24.0001 11.4901 24.0001 11.9999C24.0001 12.5098 23.5868 12.923 23.077 12.923H21.083V15.6923H23.077C23.5868 15.6923 24.0001 16.1056 24.0001 16.6154C24.0001 17.1252 23.5868 17.5384 23.077 17.5384H21.083V18.5669C21.083 20.2238 19.7399 21.5669 18.083 21.5669H17.544V23.077C17.544 23.5868 17.1307 24.0001 16.6209 24.0001C16.1111 24.0001 15.6978 23.5868 15.6978 23.077L15.6978 21.5669H12.9286V23.077C12.9286 23.5868 12.5153 24.0001 12.0055 24.0001C11.4957 24.0001 11.0824 23.5868 11.0824 23.077L11.0824 21.5669H8.31314V23.077C8.31314 23.5868 7.89987 24.0001 7.39006 24.0001C6.88026 24.0001 6.46698 23.5868 6.46698 23.077V21.5669H5.46757C3.81072 21.5669 2.46757 20.2238 2.46757 18.5669V17.5384H0.923082C0.413278 17.5384 0 17.1252 0 16.6154C0 16.1056 0.413278 15.6923 0.923082 15.6923H2.46757V12.923H0.923082C0.413278 12.923 0 12.5098 0 11.9999C0 11.4901 0.413278 11.0769 0.923082 11.0769H2.46757V8.30762H0.923082C0.413278 8.30762 0 7.89434 0 7.38454C0 6.87474 0.413278 6.46146 0.923082 6.46146L2.46757 6.46146V5.95148C2.46757 4.29463 3.81072 2.95148 5.46757 2.95148H6.46698V0.923082C6.46698 0.413278 6.88026 0 7.39006 0ZM7.46639 6.46161C7.44845 6.46161 7.43063 6.46208 7.41292 6.46301L8.98224 8.4807H12.7138C12.9126 8.37042 13.1413 8.30762 13.3847 8.30762C14.1494 8.30762 14.7693 8.92754 14.7693 9.69224C14.7693 10.457 14.1494 11.0769 13.3847 11.0769C12.7189 11.0769 12.1629 10.607 12.0302 9.9807H8.61543H8.24862L8.02341 9.69116L6.46639 7.68927V16.5386C6.46639 17.0909 6.91411 17.5386 7.46639 17.5386H16.5352L14.7402 15.5192L11.2863 15.5192C11.0876 15.6295 10.8588 15.6923 10.6154 15.6923C9.85073 15.6923 9.23082 15.0724 9.23082 14.3077C9.23082 13.5429 9.85073 12.923 10.6154 12.923C11.2812 12.923 11.8373 13.3929 11.97 14.0192L15.077 14.0192H15.4138L15.6376 14.2709L17.5434 16.415V7.46161C17.5434 6.90932 17.0957 6.46161 16.5434 6.46161H7.46639Z" fill="#009ff9"/>
</svg>
