<svg width="10" height="12" viewBox="0 0 10 12" fill="none" xmlns="http://www.w3.org/2000/svg">
<path fill-rule="evenodd" clip-rule="evenodd" d="M4.68054 3.09633C5.93996 2.81231 6.88058 1.68676 6.88058 0.341526C6.88058 0.226098 6.87366 0.112288 6.8602 0.000488281C5.60078 0.284507 4.66016 1.41005 4.66016 2.75529C4.66016 2.87072 4.66708 2.98453 4.68054 3.09633Z" fill="#7277FF"/>
<path fill-rule="evenodd" clip-rule="evenodd" d="M0.00146441 6.54447C0.0738735 10.0442 1.81169 12.0476 2.77714 11.9993C3.3286 11.9717 3.74619 11.7866 4.09288 11.633C4.35315 11.5177 4.57346 11.42 4.78046 11.42C4.99744 11.42 5.32658 11.5371 5.68898 11.6659C6.13281 11.8237 6.62652 11.9993 7.02514 11.9993C7.59793 11.9993 8.86548 10.9118 9.39408 8.61748C8.37279 8.31754 7.6271 7.37336 7.6271 6.25501C7.6271 5.25958 8.2179 4.40212 9.06797 4.01416C8.52155 3.10809 7.70324 2.82747 7.1941 2.82747C6.98492 2.81138 6.48932 2.82747 6.18037 3.02056C5.79419 3.26193 5.23905 3.50329 4.92528 3.50329C4.61151 3.50329 3.77148 3.17059 3.50123 3.02056C3.16333 2.83297 2.60819 2.8093 2.40988 2.83297C1.55 2.93569 -0.0552639 3.8026 0.00146441 6.54447Z" fill="#7277FF"/>
</svg>
