<svg width="23" height="25" viewBox="0 0 23 25" fill="none" xmlns="http://www.w3.org/2000/svg">
<path d="M15 17L18 20" stroke="#0079F9" stroke-width="2" stroke-linecap="round"/>
<path d="M18 17L15 20" stroke="#0079F9" stroke-width="2" stroke-linecap="round"/>
<mask id="path-3-inside-1_5721_72" fill="white">
<path fill-rule="evenodd" clip-rule="evenodd" d="M6.08062 0.00267696C5.70133 -0.0254125 5.34853 0.169313 5.17219 0.504066L0.114373 10.106C-0.209692 10.7212 0.188908 11.5016 0.882047 11.6091L6.16449 12.4279L7.09534 22.0584C7.19002 23.038 8.45793 23.3694 8.93907 22.5403L16.2199 9.99407C16.5625 9.40372 16.2126 8.62143 15.5379 8.46912L13.3196 7.96833L16.9969 2.34166C17.4161 1.70021 16.9676 0.808953 16.1969 0.751872L6.08062 0.00267696Z"/>
</mask>
<path d="M5.17219 0.504066L2.9603 -0.661059L2.9603 -0.661057L5.17219 0.504066ZM6.08062 0.00267696L5.89598 2.49585L6.08062 0.00267696ZM0.114373 10.106L2.32627 11.2711L0.114373 10.106ZM0.882047 11.6091L1.26498 9.13857H1.26498L0.882047 11.6091ZM6.16449 12.4279L8.6529 12.1873L8.4661 10.2548L6.54743 9.95737L6.16449 12.4279ZM7.09534 22.0584L4.60693 22.2989L7.09534 22.0584ZM8.93907 22.5403L11.1013 23.7951V23.7951L8.93907 22.5403ZM16.2199 9.99407L14.0576 8.73926V8.73926L16.2199 9.99407ZM15.5379 8.46912L16.0885 6.03049L16.0885 6.03049L15.5379 8.46912ZM13.3196 7.96833L11.2269 6.60062L9.25733 9.61419L12.7691 10.407L13.3196 7.96833ZM16.9969 2.34166L14.9042 0.973955V0.973956L16.9969 2.34166ZM16.1969 0.751872L16.0122 3.24504L16.1969 0.751872ZM7.38409 1.66919C7.09372 2.22043 6.50182 2.54072 5.89598 2.49585L6.26526 -2.4905C4.90085 -2.59154 3.60333 -1.8818 2.9603 -0.661059L7.38409 1.66919ZM2.32627 11.2711L7.38409 1.66919L2.9603 -0.661057L-2.09752 8.94083L2.32627 11.2711ZM1.26498 9.13857C2.23315 9.28864 2.81828 10.337 2.32627 11.2711L-2.09752 8.94083C-3.23766 11.1053 -1.85534 13.7146 0.499111 14.0796L1.26498 9.13857ZM6.54743 9.95737L1.26498 9.13857L0.49911 14.0796L5.78155 14.8984L6.54743 9.95737ZM9.58374 21.8179L8.6529 12.1873L3.67609 12.6684L4.60693 22.2989L9.58374 21.8179ZM6.77679 21.2855C7.17658 20.5966 7.96073 20.4167 8.50449 20.5589C9.0297 20.6962 9.52063 21.1649 9.58374 21.8179L4.60693 22.2989C4.76473 23.9315 5.93696 25.0557 7.24007 25.3964C8.56175 25.7418 10.2204 25.3131 11.1013 23.7951L6.77679 21.2855ZM14.0576 8.73926L6.77679 21.2855L11.1013 23.7951L18.3822 11.2489L14.0576 8.73926ZM14.9874 10.9078C14.0658 10.6997 13.5277 9.65236 14.0576 8.73926L18.3822 11.2489C19.5972 9.15508 18.3595 6.54317 16.0885 6.03049L14.9874 10.9078ZM12.7691 10.407L14.9874 10.9078L16.0885 6.03049L13.8701 5.52969L12.7691 10.407ZM14.9042 0.973956L11.2269 6.60062L15.4123 9.33603L19.0896 3.70936L14.9042 0.973956ZM16.0122 3.24504C15.426 3.20163 15.0037 2.83637 14.81 2.45143C14.6159 2.06568 14.5678 1.48875 14.9042 0.973955L19.0896 3.70936C20.5763 1.43462 19.0035 -1.54712 16.3815 -1.7413L16.0122 3.24504ZM5.89598 2.49585L16.0122 3.24504L16.3815 -1.7413L6.26526 -2.4905L5.89598 2.49585Z" fill="#0079F9" mask="url(#path-3-inside-1_5721_72)"/>
<circle cx="16.5" cy="18.5" r="5.5" stroke="#0079F9" stroke-width="2"/>
</svg>
