<svg width="38" height="38" viewBox="0 0 38 38" fill="none" xmlns="http://www.w3.org/2000/svg">
<rect x="6" y="6" width="26" height="26" rx="2" stroke="white" stroke-width="2"/>
<path d="M10 24V14C12.2091 14 14 12.2091 14 10H24C24 12.2091 25.7909 14 28 14V24C25.7909 24 24 25.7909 24 28H14C14 25.7909 12.2091 24 10 24Z" stroke="white" stroke-width="2"/>
<rect y="11" width="5" height="2" fill="white"/>
<rect x="27.5" width="5" height="2" transform="rotate(90 27.5 0)" fill="white"/>
<rect x="33" y="11" width="5" height="2" fill="white"/>
<rect x="27.5" y="33" width="5" height="2" transform="rotate(90 27.5 33)" fill="white"/>
<rect y="26" width="5" height="2" fill="white"/>
<rect x="12.5" width="5" height="2" transform="rotate(90 12.5 0)" fill="white"/>
<rect x="33" y="26" width="5" height="2" fill="white"/>
<rect x="12.5" y="33" width="5" height="2" transform="rotate(90 12.5 33)" fill="white"/>
<rect y="21" width="5" height="2" fill="white"/>
<rect x="17.5" width="5" height="2" transform="rotate(90 17.5 0)" fill="white"/>
<rect x="33" y="21" width="5" height="2" fill="white"/>
<rect x="17.5" y="33" width="5" height="2" transform="rotate(90 17.5 33)" fill="white"/>
<rect y="16" width="5" height="2" fill="white"/>
<rect x="22.5" width="5" height="2" transform="rotate(90 22.5 0)" fill="white"/>
<rect x="33" y="16" width="5" height="2" fill="white"/>
<rect x="22.5" y="33" width="5" height="2" transform="rotate(90 22.5 33)" fill="white"/>
</svg>
