<svg width="28" height="33" viewBox="0 0 28 33" fill="none" xmlns="http://www.w3.org/2000/svg">
<path d="M1 3C1 1.89543 1.89543 1 3 1H14H18.6171C19.3713 1 20.0613 1.42427 20.4017 2.09726L26.7847 14.7161C26.9262 14.9959 27 15.3052 27 15.6188V16.5V30C27 31.1046 26.1046 32 25 32H3C1.89543 32 1 31.1046 1 30V3Z" stroke="white" stroke-width="2"/>
<rect x="7" y="2" width="5" height="2" transform="rotate(90 7 2)" fill="white"/>
<rect x="12" y="2" width="5" height="2" transform="rotate(90 12 2)" fill="white"/>
<rect x="17" y="2" width="5" height="2" transform="rotate(90 17 2)" fill="white"/>
<rect x="6" y="15" width="14" height="11" rx="1" stroke="white" stroke-width="2"/>
</svg>
