<svg width="20" height="20" viewBox="0 0 20 20" fill="none" xmlns="http://www.w3.org/2000/svg">
<path d="M14.5 9.13397C15.1667 9.51888 15.1667 10.4811 14.5 10.866L8.5 14.3301C7.83333 14.715 7 14.2339 7 13.4641L7 6.5359C7 5.7661 7.83333 5.28497 8.5 5.66987L14.5 9.13397Z" fill="#12E89A"/>
<rect x="18.25" y="18.25" width="16.5" height="16.5" rx="8.25" transform="rotate(-180 18.25 18.25)" stroke="#636363" stroke-width="1.5"/>
<path d="M8.72361 0.552786C8.893 0.214002 9.23926 0 9.61803 0H10.382C10.7607 0 11.107 0.214002 11.2764 0.552786L12 2H8L8.72361 0.552786Z" fill="#636363"/>
<path d="M11.2764 19.4472C11.107 19.786 10.7607 20 10.382 20L9.61803 20C9.23926 20 8.893 19.786 8.72361 19.4472L8 18L12 18L11.2764 19.4472Z" fill="#636363"/>
<path d="M19.4472 8.72361C19.786 8.893 20 9.23926 20 9.61803L20 10.382C20 10.7607 19.786 11.107 19.4472 11.2764L18 12L18 8L19.4472 8.72361Z" fill="#636363"/>
<path d="M0.552786 11.2764C0.214002 11.107 1.6251e-07 10.7607 2.1218e-07 10.382L3.12357e-07 9.61803C3.62027e-07 9.23926 0.214003 8.893 0.552787 8.72361L2 8L2 12L0.552786 11.2764Z" fill="#636363"/>
<path d="M15.778 2.41719C16.1373 2.29742 16.5335 2.39094 16.8013 2.65877L17.3415 3.19895C17.6094 3.46679 17.7029 3.86295 17.5831 4.22229L17.0714 5.75729L14.243 2.92886L15.778 2.41719Z" fill="#636363"/>
<path d="M4.22296 17.5828C3.86363 17.7026 3.46746 17.6091 3.19963 17.3412L2.65945 16.801C2.39161 16.5332 2.29809 16.137 2.41787 15.7777L2.92954 14.2427L5.75796 17.0711L4.22296 17.5828Z" fill="#636363"/>
<path d="M17.5828 15.7775C17.7026 16.1369 17.6091 16.533 17.3412 16.8009L16.801 17.341C16.5332 17.6089 16.137 17.7024 15.7777 17.5826L14.2427 17.071L17.0711 14.2425L17.5828 15.7775Z" fill="#636363"/>
<path d="M2.41719 4.22247C2.29742 3.86314 2.39094 3.46697 2.65877 3.19914L3.19895 2.65896C3.46679 2.39113 3.86295 2.2976 4.22229 2.41738L5.75729 2.92905L2.92886 5.75748L2.41719 4.22247Z" fill="#636363"/>
<mask id="mask0_1451_162" style="mask-type:alpha" maskUnits="userSpaceOnUse" x="7" y="5" width="8" height="10">
<path d="M14.5 9.13397C15.1667 9.51888 15.1667 10.4811 14.5 10.866L8.5 14.3301C7.83333 14.715 7 14.2339 7 13.4641L7 6.5359C7 5.7661 7.83333 5.28497 8.5 5.66987L14.5 9.13397Z" fill="#12E89A"/>
</mask>
<g mask="url(#mask0_1451_162)">
<rect x="13.5" y="5" width="1.5" height="11" transform="rotate(30 13.5 5)" fill="#2F2F2F"/>
</g>
</svg>
