<svg width="16" height="17" viewBox="0 0 16 17" fill="none" xmlns="http://www.w3.org/2000/svg">
<mask id="path-1-inside-1_15_162" fill="white">
<path d="M9.26074 3.91113L12.499 4L5.42383 16.8506L4.66504 9H0L3.99805 0.0947266L11 0L9.26074 3.91113Z"/>
</mask>
<path d="M9.26074 3.91113L12.499 4L5.42383 16.8506L4.66504 9H0L3.99805 0.0947266L11 0L9.26074 3.91113Z" fill="#FF8282"/>
<path d="M9.26074 3.91113L7.89015 3.30164L6.97966 5.3491L9.21959 5.41057L9.26074 3.91113ZM12.499 4L13.813 4.72346L14.9997 2.56806L12.5402 2.50056L12.499 4ZM5.42383 16.8506L3.93079 16.9949L4.39759 21.8246L6.73783 17.574L5.42383 16.8506ZM4.66504 9L6.15808 8.85569L6.02705 7.5H4.66504V9ZM0 9L-1.36842 8.38564L-2.31766 10.5H0V9ZM3.99805 0.0947266L3.97776 -1.40514L3.02137 -1.3922L2.62963 -0.519628L3.99805 0.0947266ZM11 0L12.3706 0.609493L13.3227 -1.53156L10.9797 -1.49986L11 0ZM9.26074 3.91113L9.21959 5.41057L12.4579 5.49944L12.499 4L12.5402 2.50056L9.30189 2.4117L9.26074 3.91113ZM12.499 4L11.185 3.27654L4.10982 16.1271L5.42383 16.8506L6.73783 17.574L13.813 4.72346L12.499 4ZM5.42383 16.8506L6.91687 16.7063L6.15808 8.85569L4.66504 9L3.172 9.14431L3.93079 16.9949L5.42383 16.8506ZM4.66504 9V7.5H0V9V10.5H4.66504V9ZM0 9L1.36842 9.61436L5.36647 0.709082L3.99805 0.0947266L2.62963 -0.519628L-1.36842 8.38564L0 9ZM3.99805 0.0947266L4.01834 1.59459L11.0203 1.49986L11 0L10.9797 -1.49986L3.97776 -1.40514L3.99805 0.0947266ZM11 0L9.62941 -0.609493L7.89015 3.30164L9.26074 3.91113L10.6313 4.52063L12.3706 0.609493L11 0Z" fill="#767676" mask="url(#path-1-inside-1_15_162)"/>
<circle cx="12" cy="12" r="3" fill="black" stroke="black"/>
<path d="M10.5 10.5L13.5 13.5" stroke="white"/>
<path d="M13.5 10.5L10.5 13.5" stroke="white"/>
</svg>
