<svg width="42" height="32" viewBox="0 0 42 32" fill="none" xmlns="http://www.w3.org/2000/svg">
<rect x="0.75" y="0.75" width="40.5" height="30.5" rx="15.25" fill="white" stroke="#858696" stroke-width="1.5"/>
<ellipse cx="16.1583" cy="12.9199" rx="3.91998" ry="3.91998" transform="rotate(-90 16.1583 12.9199)" stroke="#858696" stroke-width="1.5"/>
<path d="M22.3199 23C22.3199 21.8845 21.5886 19.6671 20.4147 18.5455C19.3088 17.4889 17.8102 16.84 16.16 16.84C14.5098 16.84 13.0111 17.4889 11.9053 18.5455C10.7313 19.6671 10 21.8845 10 23" stroke="#858696" stroke-width="1.5" stroke-linecap="round"/>
<path d="M28.3135 18.3262C28.3311 15.9707 29.0518 15.25 30.2646 14.5117C30.9854 14.0723 31.5479 13.3691 31.5479 12.3848C31.5479 11.1895 30.6162 10.4336 29.4561 10.4336C28.4541 10.4336 27.4521 11.0312 27.3467 12.4727H25.7471C25.835 10.3457 27.4521 9.09766 29.4561 9.09766C31.6533 9.09766 33.0947 10.5215 33.0947 12.4551C33.0947 13.8262 32.4443 14.793 31.3545 15.4609C30.2646 16.1289 29.8604 16.7969 29.8252 18.3262V18.4141H28.3135V18.3262ZM29.1221 22.1055C28.5068 22.1055 27.9795 21.5957 27.9971 20.9629C27.9795 20.3477 28.5068 19.8379 29.1221 19.8379C29.7373 19.8379 30.2471 20.3477 30.2471 20.9629C30.2471 21.5957 29.7373 22.1055 29.1221 22.1055Z" fill="#E9B2B2"/>
</svg>
