<svg width="42" height="43" viewBox="0 0 42 43" fill="none" xmlns="http://www.w3.org/2000/svg">
<circle cx="21" cy="21.7288" r="20.5" fill="#FF6969" stroke="#FF833D"/>
<mask id="path-2-inside-1_3852_439" fill="white">
<path fill-rule="evenodd" clip-rule="evenodd" d="M18.4833 10.8645C18.104 10.8364 17.7512 11.0311 17.5749 11.3659L12.339 21.3058C12.0149 21.921 12.4135 22.7015 13.1067 22.8089L18.5878 23.6585L19.5552 33.6665C19.6498 34.6461 20.9178 34.9775 21.3989 34.1484L28.9614 21.1167C29.304 20.5264 28.9542 19.7441 28.2795 19.5918L25.9548 19.067L29.769 13.2308C30.1882 12.5894 29.7397 11.6981 28.969 11.641L18.4833 10.8645Z"/>
</mask>
<path d="M17.5749 11.3659L15.8053 10.4338L15.8053 10.4338L17.5749 11.3659ZM18.4833 10.8645L18.3356 12.859H18.3356L18.4833 10.8645ZM12.339 21.3058L14.1085 22.2379L12.339 21.3058ZM13.1067 22.8089L12.8003 24.7853L12.8003 24.7853L13.1067 22.8089ZM18.5878 23.6585L20.5786 23.4661L20.4291 21.92L18.8942 21.6821L18.5878 23.6585ZM19.5552 33.6665L21.5459 33.4741V33.4741L19.5552 33.6665ZM21.3989 34.1484L19.6691 33.1445L19.6691 33.1445L21.3989 34.1484ZM28.9614 21.1167L27.2316 20.1129L28.9614 21.1167ZM28.2795 19.5918L28.7199 17.6409L28.7199 17.6409L28.2795 19.5918ZM25.9548 19.067L24.2806 17.9728L22.705 20.3837L25.5143 21.0179L25.9548 19.067ZM29.769 13.2308L28.0948 12.1367V12.1367L29.769 13.2308ZM28.969 11.641L28.8213 13.6356L28.969 11.641ZM19.3444 12.298C19.1473 12.672 18.7444 12.8893 18.3356 12.859L18.631 8.86996C17.4636 8.7835 16.355 9.39024 15.8053 10.4338L19.3444 12.298ZM14.1085 22.2379L19.3444 12.298L15.8053 10.4338L10.5695 20.3737L14.1085 22.2379ZM13.413 20.8325C13.7589 20.8861 14.0042 21.1064 14.1225 21.3381C14.241 21.5702 14.2806 21.9112 14.1085 22.2379L10.5695 20.3737C9.59254 22.2283 10.7781 24.4719 12.8003 24.7853L13.413 20.8325ZM18.8942 21.6821L13.413 20.8325L12.8003 24.7853L18.2815 25.6349L18.8942 21.6821ZM21.5459 33.4741L20.5786 23.4661L16.5971 23.8509L17.5644 33.8589L21.5459 33.4741ZM19.6691 33.1445C19.7805 32.9525 19.9745 32.7792 20.2214 32.687C20.4508 32.6014 20.6676 32.6062 20.8379 32.6507C21.1803 32.7402 21.5049 33.0497 21.5459 33.4741L17.5644 33.8589C17.7001 35.2629 18.7061 36.2279 19.8263 36.5207C20.9615 36.8174 22.3759 36.4496 23.1287 35.1522L19.6691 33.1445ZM27.2316 20.1129L19.6691 33.1445L23.1287 35.1522L30.6912 22.1206L27.2316 20.1129ZM27.8391 21.5427C27.5092 21.4682 27.2817 21.2424 27.1762 21.0064C27.0704 20.7699 27.0475 20.43 27.2316 20.1129L30.6912 22.1206C31.7318 20.3274 30.6716 18.0815 28.7199 17.6409L27.8391 21.5427ZM25.5143 21.0179L27.8391 21.5427L28.7199 17.6409L26.3952 17.1161L25.5143 21.0179ZM28.0948 12.1367L24.2806 17.9728L27.6289 20.1611L31.4432 14.325L28.0948 12.1367ZM28.8213 13.6356C28.4294 13.6066 28.1524 13.3618 28.0287 13.1158C27.9046 12.8693 27.8676 12.4844 28.0948 12.1367L31.4432 14.325C32.7163 12.3769 31.3684 9.81327 29.1167 9.64651L28.8213 13.6356ZM18.3356 12.859L28.8213 13.6356L29.1167 9.64651L18.631 8.86996L18.3356 12.859Z" fill="white" mask="url(#path-2-inside-1_3852_439)"/>
</svg>
