<svg width="31" height="32" viewBox="0 0 31 32" fill="none" xmlns="http://www.w3.org/2000/svg">
<path d="M7.17401 15.8902C6.07633 11.7937 8.50742 7.58288 12.604 6.4852V6.4852C16.7006 5.38752 20.9114 7.81862 22.009 11.9152L22.0802 12.1808L23.4981 17.4726C23.5956 17.8363 23.8988 18.1082 24.271 18.1656V18.1656C25.9044 18.4172 26.4598 20.4901 25.1711 21.5247L24.8582 21.776C24.7459 21.8662 24.616 21.932 24.4769 21.9693L10.0638 25.8312C9.92468 25.8685 9.77932 25.8764 9.63696 25.8545L9.24033 25.7934C7.607 25.5417 7.05158 23.4688 8.34024 22.4342V22.4342C8.63392 22.1984 8.76057 21.8114 8.6631 21.4476L7.24517 16.1558L7.17401 15.8902Z" stroke="white"/>
<path d="M14.1409 6.0735L13.7291 4.53688C13.5017 3.68823 12.6294 3.1846 11.7808 3.41199V3.41199C10.9321 3.63939 10.4285 4.5117 10.6559 5.36035L11.0676 6.89697" stroke="white"/>
<path d="M13.2088 27.1843V27.1843C13.512 28.3159 14.6751 28.9874 15.8066 28.6842V28.6842C16.9382 28.381 17.6097 27.2179 17.3065 26.0864V26.0864" stroke="white"/>
    <circle cx="20" cy="7" r="4" fill="#24F2A7"/>
</svg>
