<svg width="20" height="12" viewBox="0 0 20 12" fill="none" xmlns="http://www.w3.org/2000/svg">
<path d="M16.626 1.52297C18.0679 3.91944 17.9696 6.76361 16.626 9.00015" stroke="#7277FF" stroke-width="1.5" stroke-linecap="round"/>
<path d="M14.5372 2.64652C15.5738 4.36943 15.5032 6.4142 14.5372 8.02212" stroke="#7277FF" stroke-width="1.5" stroke-linecap="round"/>
<path d="M12.6123 3.95628C13.1499 4.90681 13.1178 6.00733 12.6277 6.8967" stroke="#7277FF" stroke-width="1.5" stroke-linecap="round"/>
<path d="M3.37395 1.52297C1.93213 3.91944 2.03035 6.76361 3.37395 9.00015" stroke="#7277FF" stroke-width="1.5" stroke-linecap="round"/>
<path d="M5.46276 2.64652C4.42618 4.36943 4.4968 6.4142 5.46276 8.02212" stroke="#7277FF" stroke-width="1.5" stroke-linecap="round"/>
<path d="M7.38772 3.95628C6.85014 4.90681 6.88218 6.00733 7.37228 6.8967" stroke="#7277FF" stroke-width="1.5" stroke-linecap="round"/>
<path d="M9.25 10.5C9.25 10.9142 9.58579 11.25 10 11.25C10.4142 11.25 10.75 10.9142 10.75 10.5H9.25ZM9.25 6V10.5H10.75V6H9.25Z" fill="#7277FF"/>
<circle cx="9.94689" cy="5.44885" r="1.40197" fill="#7277FF"/>
</svg>
