<svg width="34" height="34" viewBox="0 0 34 34" fill="none" xmlns="http://www.w3.org/2000/svg">
<rect x="0.5" y="0.5" width="33" height="33" rx="4.5" fill="white" stroke="#E3E5E8"/>
<path d="M9.16667 20.7803H6.75V14.2197H9.16667H9.42987L9.63535 14.0552L14.8438 9.88617C15.0075 9.75515 15.25 9.87169 15.25 10.0813V24.9187C15.25 25.1283 15.0075 25.2448 14.8438 25.1138L9.63535 20.9448L9.42987 20.7803H9.16667Z" stroke="#009FF9" stroke-width="1.5"/>
<path d="M20 25C23.866 25 27 21.6421 27 17.5C27 13.3579 23.866 10 20 10" stroke="#009FF9" stroke-width="1.5"/>
<path d="M17.9718 20.6756C19.7469 20.6927 21.1997 19.2762 21.2166 17.5118C21.2336 15.7474 19.8083 14.3032 18.0332 14.2861" stroke="#009FF9" stroke-width="1.5"/>
</svg>
