<svg width="21" height="18" viewBox="0 0 21 18" fill="none" xmlns="http://www.w3.org/2000/svg">
<path d="M4 13.25H13" stroke="#24F2A7" stroke-width="1.5"/>
<mask id="path-2-inside-1_841_209" fill="white">
<path fill-rule="evenodd" clip-rule="evenodd" d="M2 0C0.895431 0 0 0.89543 0 2V6V13V16C0 17.1046 0.89543 18 2 18H15C16.1046 18 17 17.1046 17 16V6C17 4.89543 16.1046 4 15 4H8V2C8 0.895431 7.10457 0 6 0H2Z"/>
</mask>
<path d="M8 4H6.5V5.5H8V4ZM1.5 2C1.5 1.72386 1.72386 1.5 2 1.5V-1.5C0.0670035 -1.5 -1.5 0.0670031 -1.5 2H1.5ZM1.5 6V2H-1.5V6H1.5ZM1.5 13V6H-1.5V13H1.5ZM1.5 16V13H-1.5V16H1.5ZM2 16.5C1.72386 16.5 1.5 16.2761 1.5 16H-1.5C-1.5 17.933 0.0670026 19.5 2 19.5V16.5ZM15 16.5H2V19.5H15V16.5ZM15.5 16C15.5 16.2761 15.2761 16.5 15 16.5V19.5C16.933 19.5 18.5 17.933 18.5 16H15.5ZM15.5 6V16H18.5V6H15.5ZM15 5.5C15.2761 5.5 15.5 5.72386 15.5 6H18.5C18.5 4.067 16.933 2.5 15 2.5V5.5ZM8 5.5H15V2.5H8V5.5ZM6.5 2V4H9.5V2H6.5ZM6 1.5C6.27614 1.5 6.5 1.72386 6.5 2H9.5C9.5 0.0670035 7.933 -1.5 6 -1.5V1.5ZM2 1.5H6V-1.5H2V1.5Z" fill="white" mask="url(#path-2-inside-1_841_209)"/>
<mask id="path-4-inside-2_841_209" fill="white">
<path fill-rule="evenodd" clip-rule="evenodd" d="M17.9231 2.46777H9.5V0.967773H17.9231C19.4419 0.967773 20.6731 2.19899 20.6731 3.71777V15.8269C20.6731 16.9067 19.7977 17.7821 18.7179 17.7821V16.2821C18.9693 16.2821 19.1731 16.0783 19.1731 15.8269V3.71777C19.1731 3.02742 18.6134 2.46777 17.9231 2.46777Z"/>
</mask>
<path fill-rule="evenodd" clip-rule="evenodd" d="M17.9231 2.46777H9.5V0.967773H17.9231C19.4419 0.967773 20.6731 2.19899 20.6731 3.71777V15.8269C20.6731 16.9067 19.7977 17.7821 18.7179 17.7821V16.2821C18.9693 16.2821 19.1731 16.0783 19.1731 15.8269V3.71777C19.1731 3.02742 18.6134 2.46777 17.9231 2.46777Z" fill="#C4C4C4"/>
<path d="M9.5 2.46777H8.5V3.46777H9.5V2.46777ZM9.5 0.967773V-0.0322266H8.5V0.967773H9.5ZM18.7179 17.7821H17.7179V18.7821H18.7179V17.7821ZM18.7179 16.2821V15.2821H17.7179V16.2821H18.7179ZM9.5 3.46777H17.9231V1.46777H9.5V3.46777ZM8.5 0.967773V2.46777H10.5V0.967773H8.5ZM17.9231 -0.0322266H9.5V1.96777H17.9231V-0.0322266ZM21.6731 3.71777C21.6731 1.6467 19.9941 -0.0322266 17.9231 -0.0322266V1.96777C18.8896 1.96777 19.6731 2.75128 19.6731 3.71777H21.6731ZM21.6731 15.8269V3.71777H19.6731V15.8269H21.6731ZM18.7179 18.7821C20.35 18.7821 21.6731 17.459 21.6731 15.8269H19.6731C19.6731 16.3544 19.2455 16.7821 18.7179 16.7821V18.7821ZM17.7179 16.2821V17.7821H19.7179V16.2821H17.7179ZM18.1731 15.8269C18.1731 15.526 18.417 15.2821 18.7179 15.2821V17.2821C19.5216 17.2821 20.1731 16.6306 20.1731 15.8269H18.1731ZM18.1731 3.71777V15.8269H20.1731V3.71777H18.1731ZM17.9231 3.46777C18.0611 3.46777 18.1731 3.5797 18.1731 3.71777H20.1731C20.1731 2.47513 19.1657 1.46777 17.9231 1.46777V3.46777Z" fill="white" mask="url(#path-4-inside-2_841_209)"/>
</svg>
