<svg width="34" height="32" viewBox="0 0 34 32" fill="none" xmlns="http://www.w3.org/2000/svg">
<path d="M26.9636 25.544L27.6708 24.8369C27.3625 24.5287 26.8901 24.4556 26.5031 24.6564L26.9636 25.544ZM32.3597 30.9401L31.6526 31.6472C31.9386 31.9332 32.3687 32.0187 32.7424 31.864C33.116 31.7092 33.3597 31.3445 33.3597 30.9401H32.3597ZM32.3597 16.9806L31.3602 16.9493C31.3598 16.9597 31.3597 16.9701 31.3597 16.9806H32.3597ZM2 11C2 6.02944 6.02944 2 11 2V0C4.92487 0 0 4.92487 0 11H2ZM2 16.662V11H0V16.662H2ZM11 25.662C6.02943 25.662 2 21.6326 2 16.662H0C0 22.7371 4.92486 27.662 11 27.662V25.662ZM22.3647 25.662H11V27.662H22.3647V25.662ZM26.5031 24.6564C25.2652 25.2987 23.8588 25.662 22.3647 25.662V27.662C24.1869 27.662 25.9085 27.2181 27.4242 26.4317L26.5031 24.6564ZM26.2565 26.2512L31.6526 31.6472L33.0668 30.233L27.6708 24.8369L26.2565 26.2512ZM33.3597 30.9401V16.9806H31.3597V30.9401H33.3597ZM31.3647 16.662C31.3647 16.7582 31.3632 16.8539 31.3602 16.9493L33.3592 17.0119C33.3628 16.8956 33.3647 16.779 33.3647 16.662H31.3647ZM31.3647 11V16.662H33.3647V11H31.3647ZM22.3647 2C27.3352 2 31.3647 6.02944 31.3647 11H33.3647C33.3647 4.92487 28.4398 0 22.3647 0V2ZM11 2H22.3647V0H11V2Z" fill="white"/>
<circle cx="12.7625" cy="14.472" r="2.35235" fill="white"/>
<circle cx="22.1688" cy="14.472" r="2.35235" fill="white"/>
</svg>
