<svg width="23" height="29" viewBox="0 0 23 29" fill="none" xmlns="http://www.w3.org/2000/svg">
<path fill-rule="evenodd" clip-rule="evenodd" d="M11.2758 7.25192C14.3109 6.58694 16.5778 3.95054 16.5778 0.7995C16.5778 0.528897 16.5611 0.262089 16.5286 0C13.4935 0.664989 11.2266 3.30139 11.2266 6.45243C11.2266 6.72303 11.2433 6.98984 11.2758 7.25192Z" fill="#BFBFBF"/>
<path fill-rule="evenodd" clip-rule="evenodd" d="M0.00352874 15.3273C0.17801 23.5244 4.36556 28.2166 6.69199 28.1035C8.02082 28.0389 9.02708 27.6055 9.86248 27.2456C10.4896 26.9754 11.0205 26.7468 11.5193 26.7468C12.0422 26.7468 12.8353 27.0209 13.7085 27.3227C14.778 27.6923 15.9677 28.1035 16.9282 28.1035C18.3085 28.1035 21.3629 25.5564 22.6367 20.1824C20.1753 19.4801 18.3781 17.2685 18.3781 14.6489C18.3781 12.3172 19.8019 10.3088 21.8504 9.40021C20.5337 7.27849 18.5621 6.62134 17.3354 6.62134C16.8313 6.58365 15.6371 6.62134 14.8926 7.07359C13.9621 7.63892 12.6244 8.20423 11.8683 8.20423C11.1122 8.20423 9.088 7.42499 8.4368 7.07359C7.62256 6.63422 6.28486 6.57879 5.80699 6.63422C3.73499 6.8748 -0.133168 8.90528 0.00352874 15.3273Z" fill="#BFBFBF"/>
</svg>
