<svg width="20" height="20" viewBox="0 0 20 20" fill="none" xmlns="http://www.w3.org/2000/svg">
<path d="M6 6H14.4" stroke="#0089F9"/>
<path d="M6 9.5H14.4" stroke="#0089F9"/>
<path d="M6 13H14.4" stroke="#0089F9"/>
<path d="M1 8.5C1 4.35786 4.35786 1 8.5 1H11.5C15.6421 1 19 4.35786 19 8.5V10.3C19 14.4421 15.6421 17.8 11.5 17.8H10H6.48283C5.8304 17.8 5.18076 17.8851 4.55036 18.0532L1 19L1.65345 17.2099C2.22367 15.6477 2.25854 13.9404 1.75257 12.3562L1.35557 11.1133C1.11994 10.3755 1 9.60578 1 8.83134V8.5Z" stroke="#0089F9"/>
</svg>
