<svg width="21" height="21" viewBox="0 0 21 21" fill="none" xmlns="http://www.w3.org/2000/svg">
<circle cx="10.5" cy="10.5" r="10.5" fill="#8CC3E2"/>
<path d="M13.0384 13.0392L13.7455 12.3321C13.419 12.0056 12.9113 11.9451 12.5172 12.1858L13.0384 13.0392ZM14.9994 15.0002L14.2923 15.7073C14.5783 15.9933 15.0084 16.0789 15.3821 15.9241C15.7558 15.7693 15.9994 15.4047 15.9994 15.0002H14.9994ZM14.9994 9.61548L13.9996 9.59873C13.9995 9.60431 13.9994 9.6099 13.9994 9.61548H14.9994ZM6 9.5455C6 7.83844 7.38385 6.45459 9.09091 6.45459V4.45459C6.27928 4.45459 4 6.73387 4 9.5455H6ZM9.09091 12.6364C7.38385 12.6364 6 11.2526 6 9.5455H4C4 12.3571 6.27928 14.6364 9.09091 14.6364V12.6364ZM10.9091 12.6364H9.09091V14.6364H10.9091V12.6364ZM12.5172 12.1858C12.0494 12.4716 11.5 12.6364 10.9091 12.6364V14.6364C11.8782 14.6364 12.7869 14.3646 13.5597 13.8927L12.5172 12.1858ZM12.3313 13.7464L14.2923 15.7073L15.7065 14.2931L13.7455 12.3321L12.3313 13.7464ZM15.9994 15.0002V9.61548H13.9994V15.0002H15.9994ZM14 9.5455C14 9.56327 13.9999 9.58101 13.9996 9.59873L15.9993 9.63223C15.9998 9.60339 16 9.57448 16 9.5455H14ZM10.9091 6.45459C12.6162 6.45459 14 7.83844 14 9.5455H16C16 6.73387 13.7207 4.45459 10.9091 4.45459V6.45459ZM9.09091 6.45459H10.9091V4.45459H9.09091V6.45459Z" fill="white"/>
<circle cx="8.75" cy="9.75" r="0.75" fill="white"/>
<circle cx="11.75" cy="9.75" r="0.75" fill="white"/>
</svg>
