<svg width="23" height="23" viewBox="0 0 23 23" fill="none" xmlns="http://www.w3.org/2000/svg">
<circle cx="11.6128" cy="11.6121" r="10.1967" stroke="white"/>
<path d="M16.9949 11.6122C16.9949 14.4885 16.2808 17.0759 15.2264 18.9286C14.1548 20.8117 12.8151 21.8089 11.6117 21.8089C10.4083 21.8089 9.0686 20.8117 7.997 18.9286C6.94266 17.0759 6.22852 14.4885 6.22852 11.6122C6.22852 8.73582 6.94266 6.14845 7.997 4.29574C9.0686 2.41267 10.4083 1.41544 11.6117 1.41544C12.8151 1.41544 14.1548 2.41267 15.2264 4.29574C16.2808 6.14845 16.9949 8.73582 16.9949 11.6122Z" stroke="white"/>
<path d="M11.6133 1.45006L11.6133 21.7739" stroke="white"/>
<path d="M21.7793 11.6116L1.4555 11.6116" stroke="white" stroke-opacity="0.7"/>
<path fill-rule="evenodd" clip-rule="evenodd" d="M20.709 6.79796L2.52453 6.79796L3.5942 5.72829L11.6168 5.72829L19.6393 5.72829L20.709 6.79796Z" fill="white" fill-opacity="0.7"/>
<path fill-rule="evenodd" clip-rule="evenodd" d="M20.1741 17.4948H11.6168H3.5942L2.52453 16.4251H20.709L20.1741 17.4948Z" fill="white" fill-opacity="0.7"/>
</svg>
