<svg width="25" height="24" viewBox="0 0 25 24" fill="none" xmlns="http://www.w3.org/2000/svg">
<circle cx="12.8574" cy="12.4755" r="7.25" stroke="#0079F9" stroke-width="2"/>
<path d="M15.0874 12.4755C15.0874 14.6613 14.7389 16.5946 14.2106 17.9447C13.9452 18.6229 13.654 19.1037 13.3817 19.398C13.1104 19.6913 12.9329 19.7255 12.8591 19.7255C12.7854 19.7255 12.6078 19.6913 12.3366 19.398C12.0643 19.1037 11.773 18.6229 11.5076 17.9447C10.9793 16.5946 10.6309 14.6613 10.6309 12.4755C10.6309 10.2897 10.9793 8.35637 11.5076 7.00623C11.773 6.32807 12.0643 5.84725 12.3366 5.55289C12.6078 5.25968 12.7854 5.22546 12.8591 5.22546C12.9329 5.22546 13.1104 5.25968 13.3817 5.55289C13.654 5.84725 13.9452 6.32807 14.2106 7.00623C14.7389 8.35637 15.0874 10.2897 15.0874 12.4755Z" stroke="#0079F9" stroke-width="2"/>
<path d="M5.68359 14.9863H20.0314" stroke="#0079F9" stroke-width="2"/>
<path d="M5.68359 10.682H20.0314" stroke="#0079F9" stroke-width="2"/>
<circle cx="6.6948" cy="1.95652" r="0.956522" fill="#0079F9"/>
<circle cx="19.1304" cy="1.95652" r="0.956522" fill="#0079F9"/>
<circle cx="23.9136" cy="12.4783" r="0.956522" fill="#0079F9"/>
<circle cx="19.1304" cy="22.0434" r="0.956522" fill="#0079F9"/>
<circle cx="6.6948" cy="22.0434" r="0.956522" fill="#0079F9"/>
<circle cx="0.956522" cy="12.4783" r="0.956522" fill="#0079F9"/>
<path d="M8.51211 1.95654H12.9121H17.3121M19.9521 3.27176L22.1521 7.21741L23.9121 10.7247M23.9121 14.2319L22.1521 17.7392L20.3921 21.0196M17.3121 23H12.9121H8.07211M5.43211 21.0196L3.67211 17.7392L1.91211 14.2319M1.91211 10.7247L3.67211 7.21741L5.43211 3.71017" stroke="#0079F9" stroke-width="2"/>
</svg>
