<svg width="15" height="18" viewBox="0 0 15 18" fill="none" xmlns="http://www.w3.org/2000/svg">
<path d="M4.18139 14.084C4.76339 14.084 5.26139 13.862 5.63939 13.424L5.07539 12.752C4.86539 12.98 4.58339 13.16 4.22339 13.16C3.59339 13.16 3.18539 12.644 3.18539 11.756C3.18539 10.886 3.65939 10.37 4.23539 10.37C4.55339 10.37 4.78739 10.514 5.01539 10.718L5.57339 10.034C5.26739 9.722 4.79939 9.452 4.21739 9.452C3.08339 9.452 2.08739 10.304 2.08739 11.792C2.08739 13.304 3.04739 14.084 4.18139 14.084ZM7.43911 14.084C8.51911 14.084 9.14311 13.43 9.14311 12.686C9.14311 12.056 8.81311 11.684 8.26111 11.462L7.70311 11.24C7.30711 11.084 7.03111 10.988 7.03111 10.736C7.03111 10.502 7.22911 10.37 7.55911 10.37C7.90711 10.37 8.18311 10.49 8.47711 10.712L9.01111 10.04C8.62111 9.65 8.07511 9.452 7.55911 9.452C6.61111 9.452 5.93911 10.052 5.93911 10.802C5.93911 11.45 6.37711 11.84 6.84511 12.026L7.41511 12.266C7.79911 12.428 8.04511 12.512 8.04511 12.77C8.04511 13.01 7.85911 13.16 7.46311 13.16C7.10911 13.16 6.69511 12.974 6.38311 12.704L5.77111 13.442C6.23311 13.868 6.85711 14.084 7.43911 14.084ZM10.6531 14H11.9431L13.2811 9.53H12.1891L11.6851 11.57C11.5591 12.05 11.4691 12.506 11.3371 12.998H11.3071C11.1811 12.506 11.0911 12.05 10.9591 11.57L10.4491 9.53H9.31514L10.6531 14Z" fill="#35B2DA"/>
<path d="M0.5 1.38892H9.28996L14.5 6.70418V17.2778H0.5V1.38892Z" stroke="#767676"/>
</svg>
