<svg width="19" height="21" viewBox="0 0 19 21" fill="none" xmlns="http://www.w3.org/2000/svg">
<path d="M3.37197 9.10722C3.37197 5.94134 5.93843 3.37488 9.10431 3.37488V3.37488C12.2702 3.37488 14.8367 5.94134 14.8367 9.10722V9.31247V13.402C14.8367 13.6832 15.0028 13.9377 15.2601 14.051V14.051C16.3891 14.5481 16.3891 16.15 15.2601 16.647L14.9859 16.7677C14.8875 16.8111 14.7811 16.8334 14.6736 16.8334H3.53501C3.42749 16.8334 3.32115 16.8111 3.22274 16.7677L2.94856 16.647C1.81949 16.15 1.81949 14.5481 2.94856 14.051V14.051C3.20588 13.9377 3.37197 13.6832 3.37197 13.402V9.31247V9.10722Z" stroke="#858696" stroke-width="1.5"/>
<path d="M10.293 3.37504V2.18752C10.293 1.53167 9.76134 1 9.10549 1V1C8.44964 1 7.91797 1.53167 7.91797 2.18752V3.37504" stroke="#858696" stroke-width="1.5"/>
<path d="M5.54227 18.4166V18.4166C5.54227 19.2911 6.25116 20 7.12563 20V20C8.00009 20 8.70898 19.2911 8.70898 18.4166V18.4166" stroke="#858696" stroke-width="1.5"/>
</svg>
