<svg width="29" height="29" viewBox="0 0 29 29" fill="none" xmlns="http://www.w3.org/2000/svg">
<path d="M9.64453 13.9111L11.6656 15.9322L5.79664 20.8768C5.48757 21.1372 5.03064 21.1177 4.74488 20.8319C4.45912 20.5461 4.43962 20.0892 4.7 19.7801L9.64453 13.9111Z" fill="url(#paint0_linear_5476_71)" stroke="#808080" stroke-width="1.5"/>
<path d="M21.8803 7.94282L18.0007 4.06316C17.4566 3.51914 16.5746 3.51914 16.0306 4.06316C15.4866 4.60718 15.4866 5.48921 16.0306 6.03323L18.6142 8.61687C19.5213 9.52392 20.9777 9.54679 21.9125 8.68547C22.0945 8.46943 22.0838 8.14625 21.8803 7.94282Z" fill="#FFE6E6"/>
<path d="M21.8803 8.72048V8.72048C22.0951 8.50573 22.0951 8.15756 21.8803 7.94282L18.0007 4.06316C17.4566 3.51914 16.5746 3.51914 16.0306 4.06316V4.06316C15.4866 4.60718 15.4866 5.48921 16.0306 6.03323L18.6142 8.61687C19.5447 9.54738 21.0534 9.54738 21.9839 8.61687V8.61687" stroke="#FF6969" stroke-width="1.5"/>
<path fill-rule="evenodd" clip-rule="evenodd" d="M16.273 6.27449L19.9713 9.97281L18.8738 11.5094L15.5719 16.132C15.907 16.6695 15.841 17.3859 15.3739 17.853C14.8298 18.397 13.9478 18.397 13.4038 17.853L7.49358 11.9428C6.94956 11.3988 6.94956 10.5167 7.49358 9.97272C7.96098 9.50533 8.67788 9.4395 9.21556 9.77523L14.3405 6.11455C14.9372 5.68836 15.7545 5.756 16.273 6.27449Z" fill="#FFE6E6"/>
<path d="M19.9713 9.97281L20.5816 10.4087L20.9509 9.89174L20.5017 9.44248L19.9713 9.97281ZM16.273 6.27449L15.7427 6.80482L16.273 6.27449ZM18.8738 11.5094L19.4841 11.9453L19.4841 11.9453L18.8738 11.5094ZM15.5719 16.132L14.9616 15.696L14.6705 16.1036L14.9355 16.5287L15.5719 16.132ZM9.21556 9.77523L8.81833 10.4114L9.24355 10.6769L9.65149 10.3855L9.21556 9.77523ZM14.3405 6.11455L13.9046 5.50425H13.9046L14.3405 6.11455ZM20.5017 9.44248L16.8034 5.74416L15.7427 6.80482L19.441 10.5031L20.5017 9.44248ZM19.4841 11.9453L20.5816 10.4087L19.361 9.53688L18.2635 11.0735L19.4841 11.9453ZM16.1822 16.5679L19.4841 11.9453L18.2635 11.0735L14.9616 15.696L16.1822 16.5679ZM14.9355 16.5287C15.0901 16.7768 15.0585 17.1077 14.8435 17.3227L15.9042 18.3833C16.6235 17.664 16.7239 16.5623 16.2084 15.7353L14.9355 16.5287ZM14.8435 17.3227C14.5924 17.5738 14.1852 17.5738 13.9341 17.3227L12.8735 18.3833C13.7104 19.2202 15.0673 19.2202 15.9042 18.3833L14.8435 17.3227ZM13.9341 17.3227L8.02391 11.4125L6.96325 12.4731L12.8735 18.3833L13.9341 17.3227ZM8.02391 11.4125C7.77279 11.1613 7.77279 10.7542 8.02391 10.5031L6.96325 9.44239C6.12634 10.2793 6.12634 11.6362 6.96325 12.4731L8.02391 11.4125ZM8.02391 10.5031C8.23899 10.288 8.57019 10.2565 8.81833 10.4114L9.61279 9.13907C8.78557 8.62253 7.68297 8.72268 6.96325 9.44239L8.02391 10.5031ZM13.9046 5.50425L8.77963 9.16493L9.65149 10.3855L14.7764 6.72485L13.9046 5.50425ZM16.8034 5.74416C16.0256 4.96643 14.7996 4.86496 13.9046 5.50425L14.7764 6.72485C15.0748 6.51176 15.4835 6.54558 15.7427 6.80482L16.8034 5.74416Z" fill="#FF6969"/>
<path d="M10.1074 14.6077L17.3622 7.74505L20.2057 5.98047L22.0684 7.74505V8.62748L20.2057 9.60785L15.4999 16.1764V17.843L13.7352 18.2351L10.1074 14.6077Z" fill="#FFA6A6"/>
<path d="M9.13477 9.64502L12.7466 13.2568" stroke="#FF6969" stroke-width="1.5"/>
<path d="M21.8803 8.72048V8.72048C22.0951 8.50573 22.0951 8.15756 21.8803 7.94282L18.0007 4.06316C17.4566 3.51914 16.5746 3.51914 16.0306 4.06316V4.06316C15.4866 4.60718 15.4866 5.48921 16.0306 6.03323L18.6142 8.61687C19.5447 9.54738 21.0534 9.54738 21.9839 8.61687V8.61687" stroke="#FF6969" stroke-width="1.5"/>
<path d="M19.9712 9.97263L20.5815 10.4086L20.9508 9.89156L20.5015 9.4423L19.9712 9.97263ZM16.2729 6.27432L16.8032 5.74399L16.2729 6.27432ZM18.8736 11.5092L19.4839 11.9451L19.4839 11.9451L18.8736 11.5092ZM15.5716 16.132L14.9613 15.696L14.6702 16.1037L14.9352 16.5288L15.5716 16.132ZM13.4036 17.8532L13.9339 17.3229L13.4036 17.8532ZM7.49341 11.943L6.96308 12.4733L7.49341 11.943ZM9.21512 9.77525L8.81803 10.4115L9.24321 10.6769L9.65105 10.3855L9.21512 9.77525ZM14.3403 6.11438L14.7763 6.72468L14.7763 6.72468L14.3403 6.11438ZM20.5015 9.4423L16.8032 5.74399L15.7425 6.80465L19.4408 10.503L20.5015 9.4423ZM19.4839 11.9451L20.5815 10.4086L19.3609 9.5367L18.2633 11.0733L19.4839 11.9451ZM16.1819 16.5679L19.4839 11.9451L18.2633 11.0733L14.9613 15.696L16.1819 16.5679ZM14.9352 16.5288C15.0899 16.7769 15.0583 17.1079 14.8434 17.3229L15.904 18.3835C16.6234 17.6641 16.7238 16.5622 16.2081 15.7351L14.9352 16.5288ZM14.8434 17.3229C14.5922 17.574 14.1851 17.574 13.9339 17.3229L12.8733 18.3835C13.7102 19.2204 15.0671 19.2204 15.904 18.3835L14.8434 17.3229ZM13.9339 17.3229L8.02374 11.4126L6.96308 12.4733L12.8733 18.3835L13.9339 17.3229ZM8.02374 11.4126C7.77261 11.1615 7.77261 10.7544 8.02374 10.5032L6.96308 9.44257C6.12616 10.2795 6.12616 11.6364 6.96308 12.4733L8.02374 11.4126ZM8.02374 10.5032C8.23878 10.2882 8.56991 10.2566 8.81803 10.4115L9.61221 9.13899C8.78503 8.62275 7.68267 8.72297 6.96308 9.44257L8.02374 10.5032ZM13.9044 5.50408L8.77919 9.16495L9.65105 10.3855L14.7763 6.72468L13.9044 5.50408ZM16.8032 5.74399C16.0254 4.96625 14.7994 4.86478 13.9044 5.50408L14.7763 6.72468C15.0746 6.51158 15.4833 6.5454 15.7425 6.80465L16.8032 5.74399Z" fill="#FF6969"/>
<defs>
<linearGradient id="paint0_linear_5476_71" x1="9.81265" y1="17.8431" x2="8.04798" y2="15.9804" gradientUnits="userSpaceOnUse">
<stop offset="0.53125" stop-color="#C4C4C4"/>
<stop offset="0.552083" stop-color="white" stop-opacity="0"/>
</linearGradient>
</defs>
</svg>
