<svg width="21" height="21" viewBox="0 0 21 21" fill="none" xmlns="http://www.w3.org/2000/svg">
  <mask id="path-1-inside-1_1668_717" fill="white">
    <path fill-rule="evenodd" clip-rule="evenodd" d="M10.5 1V11V11.5H19.948C19.9824 11.1714 20 10.8377 20 10.5C20 5.25329 15.7467 1 10.5 1Z"/>
  </mask>
  <path d="M10.5 1V-0.5H9V1H10.5ZM10.5 11.5H9V13H10.5V11.5ZM19.948 11.5V13H21.2993L21.4399 11.6561L19.948 11.5ZM12 11V1H9V11H12ZM12 11.5V11H9V11.5H12ZM19.948 10H10.5V13H19.948V10ZM18.5 10.5C18.5 10.7855 18.4851 11.067 18.4561 11.3439L21.4399 11.6561C21.4796 11.2757 21.5 10.89 21.5 10.5H18.5ZM10.5 2.5C14.9183 2.5 18.5 6.08172 18.5 10.5H21.5C21.5 4.42487 16.5751 -0.5 10.5 -0.5V2.5Z" fill="#24F2A7" mask="url(#path-1-inside-1_1668_717)"/>
  <path fill-rule="evenodd" clip-rule="evenodd" d="M9.61659 0.988281C4.77032 1.48142 0.98877 5.5746 0.98877 10.551C0.98877 15.8599 5.29245 20.1636 10.6013 20.1636C15.2352 20.1636 19.1032 16.8847 20.0119 12.5205H18.4732C17.5931 16.0492 14.4025 18.6636 10.6013 18.6636C6.12088 18.6636 2.48877 15.0314 2.48877 10.551C2.48877 6.40389 5.60056 2.98357 9.61659 2.49762V0.988281Z" fill="#636363"/>
</svg>
