<svg width="42" height="42" viewBox="0 0 42 42" fill="none" xmlns="http://www.w3.org/2000/svg">
<rect width="42" height="42" rx="19" fill="#DDB1A8"/>
<path d="M18.269 13.043L20.2883 17.0814L18.6729 19.5045L20.6921 22.2507L18.269 24.9789L22.3075 29.1968" stroke="white" stroke-width="2"/>
<path d="M18.6731 13.8505C18.2692 12.9082 17.2192 11.0236 16.25 11.0236C15.2808 11.0236 15.0385 11.0236 14.2308 11.0236C13.1538 10.889 11 11.2659 11 13.8505C11 16.4351 11 25.1583 11 29.1967C11 30.2737 11.6462 32.4275 14.2308 32.4275C16.8154 32.4275 25 32.4275 28.7692 32.4275C29.8462 32.4275 32 31.7814 32 29.1967C32 26.6121 32 17.889 32 13.8506C32 12.9083 31.4345 11.0236 29.173 11.0236C26.9115 11.0236 23.6538 11.0236 23.1154 11.0236L25.5385 15.466L23.1154 19.5044L25.5385 22.3314L22.3077 25.5621V29.1967" stroke="white" stroke-width="2" stroke-linecap="round"/>
</svg>
