<svg width="18" height="17" viewBox="0 0 18 17" fill="none" xmlns="http://www.w3.org/2000/svg">
<path d="M7.72266 6L7.72266 16" stroke="#383C43" stroke-width="1.5"/>
<rect x="1.72266" y="1" width="15" height="15" rx="2" stroke="#383C43" stroke-width="1.5"/>
<mask id="path-3-inside-1_5405_614" fill="white">
<path fill-rule="evenodd" clip-rule="evenodd" d="M1.75 3.02771C2.16421 3.02771 2.5 3.3635 2.5 3.77771C2.5 4.74223 3.2819 5.52413 4.24642 5.52413C5.21095 5.52413 5.99285 4.74223 5.99285 3.77771C5.99285 3.3635 6.32863 3.02771 6.74285 3.02771C7.15706 3.02771 7.49285 3.3635 7.49285 3.77771C7.49285 5.57066 6.03937 7.02413 4.24642 7.02413C2.45347 7.02413 1 5.57066 1 3.77771C1 3.3635 1.33579 3.02771 1.75 3.02771Z"/>
</mask>
<path d="M4 3.77771C4 2.53507 2.99264 1.52771 1.75 1.52771V4.52771C1.33579 4.52771 1 4.19192 1 3.77771H4ZM4.24642 4.02413C4.11033 4.02413 4 3.91381 4 3.77771H1C1 5.57066 2.45347 7.02413 4.24642 7.02413V4.02413ZM4.49285 3.77771C4.49285 3.91381 4.38252 4.02413 4.24642 4.02413V7.02413C6.03937 7.02413 7.49285 5.57066 7.49285 3.77771H4.49285ZM6.74285 1.52771C5.50021 1.52771 4.49285 2.53507 4.49285 3.77771H7.49285C7.49285 4.19192 7.15706 4.52771 6.74285 4.52771V1.52771ZM8.99285 3.77771C8.99285 2.53507 7.98549 1.52771 6.74285 1.52771V4.52771C6.32863 4.52771 5.99285 4.19192 5.99285 3.77771H8.99285ZM4.24642 8.52413C6.8678 8.52413 8.99285 6.39909 8.99285 3.77771H5.99285C5.99285 4.74223 5.21095 5.52413 4.24642 5.52413V8.52413ZM-0.5 3.77771C-0.5 6.39909 1.62505 8.52413 4.24642 8.52413V5.52413C3.2819 5.52413 2.5 4.74223 2.5 3.77771H-0.5ZM1.75 1.52771C0.507359 1.52771 -0.5 2.53507 -0.5 3.77771H2.5C2.5 4.19192 2.16421 4.52771 1.75 4.52771V1.52771Z" fill="#383C43" mask="url(#path-3-inside-1_5405_614)"/>
<mask id="path-5-inside-2_5405_614" fill="white">
<path fill-rule="evenodd" clip-rule="evenodd" d="M6.74219 3.02771C7.1564 3.02771 7.49219 3.3635 7.49219 3.77771C7.49219 4.74223 8.27409 5.52413 9.23861 5.52413C10.2031 5.52413 10.985 4.74223 10.985 3.77771C10.985 3.3635 11.3208 3.02771 11.735 3.02771C12.1492 3.02771 12.485 3.3635 12.485 3.77771C12.485 5.57066 11.0316 7.02413 9.23861 7.02413C7.44566 7.02413 5.99219 5.57066 5.99219 3.77771C5.99219 3.3635 6.32797 3.02771 6.74219 3.02771Z"/>
</mask>
<path d="M8.99219 3.77771C8.99219 2.53507 7.98483 1.52771 6.74219 1.52771V4.52771C6.32797 4.52771 5.99219 4.19192 5.99219 3.77771H8.99219ZM9.23861 4.02413C9.10251 4.02413 8.99219 3.91381 8.99219 3.77771H5.99219C5.99219 5.57066 7.44566 7.02413 9.23861 7.02413V4.02413ZM9.48503 3.77771C9.48503 3.91381 9.37471 4.02413 9.23861 4.02413V7.02413C11.0316 7.02413 12.485 5.57066 12.485 3.77771H9.48503ZM11.735 1.52771C10.4924 1.52771 9.48503 2.53507 9.48503 3.77771H12.485C12.485 4.19192 12.1492 4.52771 11.735 4.52771V1.52771ZM13.985 3.77771C13.985 2.53507 12.9777 1.52771 11.735 1.52771V4.52771C11.3208 4.52771 10.985 4.19192 10.985 3.77771H13.985ZM9.23861 8.52413C11.86 8.52413 13.985 6.39909 13.985 3.77771H10.985C10.985 4.74223 10.2031 5.52413 9.23861 5.52413V8.52413ZM4.49219 3.77771C4.49219 6.39909 6.61723 8.52413 9.23861 8.52413V5.52413C8.27409 5.52413 7.49219 4.74223 7.49219 3.77771H4.49219ZM6.74219 1.52771C5.49955 1.52771 4.49219 2.53507 4.49219 3.77771H7.49219C7.49219 4.19192 7.1564 4.52771 6.74219 4.52771V1.52771Z" fill="#383C43" mask="url(#path-5-inside-2_5405_614)"/>
<mask id="path-7-inside-3_5405_614" fill="white">
<path fill-rule="evenodd" clip-rule="evenodd" d="M11.7363 3.02771C12.1505 3.02771 12.4863 3.3635 12.4863 3.77771C12.4863 4.74223 13.2682 5.52413 14.2328 5.52413C15.1973 5.52413 15.9792 4.74223 15.9792 3.77771C15.9792 3.3635 16.315 3.02771 16.7292 3.02771C17.1434 3.02771 17.4792 3.3635 17.4792 3.77771C17.4792 5.57066 16.0257 7.02413 14.2328 7.02413C12.4398 7.02413 10.9863 5.57066 10.9863 3.77771C10.9863 3.3635 11.3221 3.02771 11.7363 3.02771Z"/>
</mask>
<path d="M13.9863 3.77771C13.9863 2.53507 12.979 1.52771 11.7363 1.52771V4.52771C11.3221 4.52771 10.9863 4.19192 10.9863 3.77771H13.9863ZM14.2328 4.02413C14.0967 4.02413 13.9863 3.91381 13.9863 3.77771H10.9863C10.9863 5.57066 12.4398 7.02413 14.2328 7.02413V4.02413ZM14.4792 3.77771C14.4792 3.91381 14.3688 4.02413 14.2328 4.02413V7.02413C16.0257 7.02413 17.4792 5.57066 17.4792 3.77771H14.4792ZM16.7292 1.52771C15.4865 1.52771 14.4792 2.53507 14.4792 3.77771H17.4792C17.4792 4.19192 17.1434 4.52771 16.7292 4.52771V1.52771ZM18.9792 3.77771C18.9792 2.53507 17.9718 1.52771 16.7292 1.52771V4.52771C16.315 4.52771 15.9792 4.19192 15.9792 3.77771H18.9792ZM14.2328 8.52413C16.8541 8.52413 18.9792 6.39909 18.9792 3.77771H15.9792C15.9792 4.74223 15.1973 5.52413 14.2328 5.52413V8.52413ZM9.48633 3.77771C9.48633 6.39909 11.6114 8.52413 14.2328 8.52413V5.52413C13.2682 5.52413 12.4863 4.74223 12.4863 3.77771H9.48633ZM11.7363 1.52771C10.4937 1.52771 9.48633 2.53507 9.48633 3.77771H12.4863C12.4863 4.19192 12.1505 4.52771 11.7363 4.52771V1.52771Z" fill="#383C43" mask="url(#path-7-inside-3_5405_614)"/>
<circle cx="5.47266" cy="10.75" r="0.75" fill="#383C43"/>
</svg>
