<svg width="52" height="52" viewBox="0 0 52 52" fill="none" xmlns="http://www.w3.org/2000/svg">
<circle cx="26" cy="26" r="26" fill="#9497FF"/>
<path d="M24.4004 12.5015L25.2831 12.9715V12.9715L24.4004 12.5015ZM26.2612 12.9527L25.2658 13.0489V13.0489L26.2612 12.9527ZM17.1162 26.1802L16.2335 25.7102H16.2335L17.1162 26.1802ZM17.7997 27.6709L17.564 28.6427H17.564L17.7997 27.6709ZM23.822 29.1313L24.8173 29.0351L24.7489 28.3271L24.0576 28.1594L23.822 29.1313ZM24.7701 38.9404L23.7747 39.0366L24.7701 38.9404ZM26.6309 39.3916L25.7482 38.9216L26.6309 39.3916ZM33.9151 25.7129L33.0325 25.2428L33.9151 25.7129ZM33.2316 24.2222L32.9959 25.1941H32.9959L33.2316 24.2222ZM27.2093 22.7619L26.2139 22.8581L26.2824 23.5661L26.9736 23.7337L27.2093 22.7619ZM25.2831 12.9715C25.2878 12.9626 25.2874 12.9663 25.278 12.9748C25.2689 12.983 25.2575 12.9901 25.246 12.9947C25.2245 13.0034 25.2188 12.998 25.2313 13.001C25.2436 13.004 25.2527 13.0105 25.2563 13.0144C25.2574 13.0157 25.2583 13.017 25.2594 13.0194C25.2604 13.0216 25.264 13.0302 25.2658 13.0489L27.2566 12.8565C27.1634 11.8923 26.4703 11.2435 25.7027 11.0573C24.927 10.8692 23.9914 11.1419 23.5178 12.0314L25.2831 12.9715ZM17.9988 26.6503L25.2831 12.9715L23.5178 12.0314L16.2335 25.7102L17.9988 26.6503ZM18.0354 26.6991C18.0307 26.6979 18.0276 26.6964 18.0234 26.6928C18.0179 26.6882 18.011 26.68 18.0059 26.6687C18.0007 26.6573 18 26.6491 18 26.6466C18 26.6457 18.0001 26.6462 17.9997 26.6476C17.9996 26.6483 17.9994 26.6489 17.9991 26.6495C17.9989 26.6501 17.9988 26.6504 17.9988 26.6503L16.2335 25.7102C15.607 26.8868 16.2949 28.335 17.564 28.6427L18.0354 26.6991ZM24.0576 28.1594L18.0354 26.6991L17.564 28.6427L23.5863 30.1031L24.0576 28.1594ZM25.7654 38.8442L24.8173 29.0351L22.8266 29.2275L23.7747 39.0366L25.7654 38.8442ZM25.7482 38.9216C25.7435 38.9305 25.7439 38.9268 25.7532 38.9184C25.7624 38.9101 25.7738 38.903 25.7852 38.8984C25.8068 38.8897 25.8124 38.8952 25.7999 38.8921C25.7877 38.8892 25.7786 38.8826 25.775 38.8787C25.7739 38.8774 25.7729 38.8762 25.7718 38.8737C25.7709 38.8716 25.7673 38.8629 25.7654 38.8442L23.7747 39.0366C23.8679 40.0009 24.561 40.6497 25.3286 40.8358C26.1043 41.0239 27.0398 40.7512 27.5135 39.8617L25.7482 38.9216ZM33.0325 25.2428L25.7482 38.9216L27.5135 39.8617L34.7978 26.1829L33.0325 25.2428ZM32.9959 25.1941C33.0006 25.1952 33.0037 25.1967 33.0079 25.2003C33.0134 25.2049 33.0202 25.2132 33.0254 25.2245C33.0306 25.2358 33.0313 25.244 33.0313 25.2465C33.0313 25.2474 33.0312 25.2469 33.0315 25.2455C33.0317 25.2448 33.0319 25.2442 33.0321 25.2436C33.0324 25.243 33.0325 25.2427 33.0325 25.2428L34.7978 26.1829C35.4243 25.0063 34.7364 23.5582 33.4672 23.2504L32.9959 25.1941ZM26.9736 23.7337L32.9959 25.1941L33.4672 23.2504L27.445 21.79L26.9736 23.7337ZM25.2658 13.0489L26.2139 22.8581L28.2047 22.6656L27.2566 12.8565L25.2658 13.0489Z" fill="white"/>
</svg>
