<svg width="22" height="22" viewBox="0 0 22 22" fill="none" xmlns="http://www.w3.org/2000/svg">
<rect x="12.4082" y="1" width="8" height="8" rx="3" stroke="#BFBFBF" stroke-width="2"/>
<path d="M1 4C1 2.34315 2.34315 1 4 1H6C7.65685 1 9 2.34315 9 4V6C9 7.65685 7.65685 9 6 9H4C2.34315 9 1 7.65685 1 6V4Z" stroke="#BFBFBF" stroke-width="2"/>
<path d="M1 15.4091C1 13.7522 2.34315 12.4091 4 12.4091H6C7.65685 12.4091 9 13.7522 9 15.4091V17.4091C9 19.0659 7.65685 20.4091 6 20.4091H4C2.34315 20.4091 1 19.0659 1 17.4091V15.4091Z" stroke="#BFBFBF" stroke-width="2"/>
<path d="M12.4082 15.4091C12.4082 13.7522 13.7513 12.4091 15.4082 12.4091H17.9991C19.656 12.4091 20.9991 13.7522 20.9991 15.4091V18C20.9991 19.6568 19.656 21 17.9991 21H15.4082C13.7513 21 12.4082 19.6568 12.4082 18V15.4091Z" stroke="#BFBFBF" stroke-width="2" stroke-dasharray="3 3"/>
</svg>
