<svg width="42" height="42" viewBox="0 0 42 42" fill="none" xmlns="http://www.w3.org/2000/svg">
<rect width="42" height="42" rx="19" fill="#97CEB9"/>
<path d="M9 18H16V29C16 30.1046 15.1046 31 14 31H9V18Z" stroke="white" stroke-width="2"/>
<circle cx="13" cy="28" r="1" fill="white"/>
<path d="M16 19.0007C18.112 18.9581 23.397 17.4633 23.397 8.476C23.5 8.00092 26.7242 7.04254 27.5 11C27.7301 12.1736 26.5 15.5 25.7245 18.0505H31.026C32.0173 18.2208 34 18.9953 34 20.7314C34 22.4676 31.5001 27.0719 30.2501 29.2847C29.6898 29.7953 28.2588 30.8421 27.0175 30.9443C25.7762 31.0464 21.2419 30.9868 19.1299 30.9443C18.6127 30.6464 16.931 29.1343 16 27.5002" stroke="white" stroke-width="2"/>
</svg>
