<svg width="335" height="338" viewBox="0 0 335 338" fill="none" xmlns="http://www.w3.org/2000/svg">
<path d="M228.981 179.739L259.945 208.284L293.622 92.2952L179.134 130.767L205.27 156.762" stroke="#00CE83" stroke-width="6" stroke-linejoin="round"/>
<path d="M213.767 200.722L294.894 92.028L205.679 156.767L213.767 200.722Z" stroke="#00AA6C" stroke-width="6" stroke-linejoin="round"/>
<path d="M153.577 234.281L153.499 231.282L153.577 234.281ZM86.1282 211.226L86.0623 208.227L86.1282 211.226ZM34.9977 236.466C36.0934 235.223 35.9741 233.327 34.7312 232.231C33.4883 231.136 31.5926 231.255 30.4969 232.498L34.9977 236.466ZM42.0746 222.384C40.7138 223.329 40.3767 225.199 41.3219 226.56C42.267 227.92 44.1363 228.257 45.4972 227.312L42.0746 222.384ZM50.6016 224.08C52.0372 223.252 52.5305 221.418 51.7035 219.982C50.8764 218.547 49.0421 218.053 47.6064 218.881L50.6016 224.08ZM61.4803 212.575C59.9133 213.113 59.0794 214.82 59.6176 216.387C60.1559 217.954 61.8625 218.788 63.4295 218.249L61.4803 212.575ZM69.2273 216.52C70.833 216.112 71.8038 214.479 71.3956 212.873C70.9873 211.267 69.3546 210.297 67.7488 210.705L69.2273 216.52ZM82.7972 208.362C81.1434 208.463 79.8847 209.886 79.9858 211.539C80.0869 213.193 81.5094 214.452 83.1632 214.351L82.7972 208.362ZM88.8267 214.211C90.4834 214.23 91.8419 212.902 91.8609 211.246C91.88 209.589 90.5524 208.23 88.8956 208.211L88.8267 214.211ZM102.041 209.507C100.414 209.193 98.8408 210.257 98.5264 211.883C98.212 213.51 99.2759 215.084 100.903 215.398L102.041 209.507ZM105.945 216.597C107.539 217.049 109.198 216.124 109.65 214.53C110.102 212.936 109.177 211.277 107.583 210.825L105.945 216.597ZM119.907 215.657C118.426 214.915 116.623 215.514 115.881 216.996C115.139 218.477 115.738 220.279 117.22 221.021L119.907 215.657ZM121.852 223.527C123.287 224.356 125.122 223.865 125.951 222.43C126.779 220.996 126.288 219.161 124.854 218.332L121.852 223.527ZM135.721 225.046C134.309 224.179 132.462 224.621 131.595 226.034C130.728 227.446 131.171 229.293 132.583 230.16L135.721 225.046ZM137.463 232.973C138.928 233.747 140.743 233.186 141.517 231.721C142.29 230.256 141.73 228.441 140.265 227.668L137.463 232.973ZM151.112 231.211C149.461 231.069 148.007 232.291 147.865 233.942C147.722 235.593 148.945 237.046 150.596 237.189L151.112 231.211ZM157.458 236.766C159.07 236.38 160.063 234.761 159.677 233.15C159.291 231.538 157.672 230.545 156.061 230.931L157.458 236.766ZM167.769 224.202C166.504 225.271 166.344 227.164 167.413 228.43C168.482 229.696 170.375 229.855 171.641 228.786L167.769 224.202ZM176.553 224.232C177.721 223.056 177.714 221.157 176.538 219.989C175.363 218.822 173.463 218.828 172.296 220.004L176.553 224.232ZM181.856 208.929C180.847 210.244 181.095 212.127 182.41 213.135C183.725 214.144 185.608 213.896 186.616 212.581L181.856 208.929ZM190.502 207.299C191.458 205.945 191.136 204.073 189.782 203.118C188.429 202.162 186.557 202.484 185.601 203.838L190.502 207.299ZM193.59 191.436C192.756 192.868 193.24 194.704 194.671 195.539C196.102 196.374 197.939 195.89 198.774 194.458L193.59 191.436ZM33.1911 238.696C33.6804 238.027 34.2822 237.277 34.9977 236.466L30.4969 232.498C29.6761 233.429 28.9579 234.32 28.3485 235.153L33.1911 238.696ZM45.4972 227.312C47.0756 226.216 48.7782 225.13 50.6016 224.08L47.6064 218.881C45.6331 220.017 43.788 221.194 42.0746 222.384L45.4972 227.312ZM63.4295 218.249C65.2894 217.61 67.2225 217.029 69.2273 216.52L67.7488 210.705C65.5816 211.256 63.4914 211.884 61.4803 212.575L63.4295 218.249ZM83.1632 214.351C84.1606 214.29 85.1709 214.248 86.194 214.225L86.0623 208.227C84.9607 208.251 83.8723 208.296 82.7972 208.362L83.1632 214.351ZM86.194 214.225C87.0886 214.206 87.9659 214.201 88.8267 214.211L88.8956 208.211C87.9673 208.201 87.023 208.206 86.0623 208.227L86.194 214.225ZM100.903 215.398C102.66 215.738 104.338 216.141 105.945 216.597L107.583 210.825C105.814 210.323 103.97 209.88 102.041 209.507L100.903 215.398ZM117.22 221.021C118.823 221.824 120.361 222.666 121.852 223.527L124.854 218.332C123.28 217.423 121.636 216.523 119.907 215.657L117.22 221.021ZM132.583 230.16C134.199 231.152 135.821 232.106 137.463 232.973L140.265 227.668C138.781 226.884 137.28 226.003 135.721 225.046L132.583 230.16ZM150.596 237.189C151.595 237.275 152.614 237.307 153.655 237.28L153.499 231.282C152.684 231.303 151.89 231.278 151.112 231.211L150.596 237.189ZM153.655 237.28C154.931 237.247 156.202 237.067 157.458 236.766L156.061 230.931C155.168 231.145 154.314 231.261 153.499 231.282L153.655 237.28ZM171.641 228.786C173.305 227.381 174.947 225.849 176.553 224.232L172.296 220.004C170.794 221.517 169.28 222.926 167.769 224.202L171.641 228.786ZM186.616 212.581C187.965 210.823 189.264 209.052 190.502 207.299L185.601 203.838C184.405 205.532 183.153 207.239 181.856 208.929L186.616 212.581ZM198.774 194.458C199.356 193.459 199.898 192.503 200.397 191.6L195.143 188.702C194.669 189.562 194.15 190.476 193.59 191.436L198.774 194.458Z" fill="#B1B1B1"/>
<rect x="189.77" y="184.762" width="13" height="14" fill="white"/>
<rect x="24.77" y="228.762" width="13" height="14" fill="white"/>
</svg>
