<svg width="195" height="187" viewBox="0 0 195 187" fill="none" xmlns="http://www.w3.org/2000/svg">
<path d="M98.498 8L126.38 59.1243L183.618 69.843L143.611 112.158L151.105 169.907L98.498 144.935L45.8913 169.907L53.3847 112.158L13.3785 69.843L70.6165 59.1243L98.498 8Z" fill="white" stroke="#FFCD1C" stroke-width="5"/>
<path d="M98.498 8L119.541 68.5372L183.618 69.843L132.546 108.563L151.105 169.907L98.498 133.3L45.8913 169.907L64.4502 108.563L13.3785 69.843L77.4553 68.5372L98.498 8Z" stroke="#FFCD1C" stroke-opacity="0.3" stroke-width="5"/>
<path fill-rule="evenodd" clip-rule="evenodd" d="M195 149.271L180.989 157.444L194.164 177.755C184.664 173.374 172.94 169.789 159.696 167.283V138.378C173.331 140.958 185.356 144.682 195 149.24V149.271Z" fill="#12A36E"/>
<path fill-rule="evenodd" clip-rule="evenodd" d="M0.000411987 149.271L14.0834 157.444L0.839291 177.756C10.3883 173.375 22.174 169.79 35.4873 167.283V138.378C21.7815 140.959 9.69462 144.682 0.000411987 149.24V149.271Z" fill="#12A36E"/>
<path d="M17.998 167.896L17.9981 134.997C37.1688 127.651 65.5587 123 97.2403 123C129.207 123 157.823 127.735 176.998 135.196V166L176.752 168C157.578 160.594 129.071 155.9 97.2403 155.9C65.5587 155.9 37.1688 160.551 17.998 167.896Z" fill="#12A36E"/>
<path d="M175.498 132.227V161.908L175.496 161.925C156.144 154.826 128.217 150.4 97.2403 150.4C66.5355 150.4 38.8282 154.749 19.498 161.738L19.4981 132.033C38.4314 124.982 66.2079 120.5 97.2403 120.5C128.557 120.5 156.556 125.065 175.498 132.227Z" fill="#35DA9E" stroke="#00CE83" stroke-width="3"/>
<path d="M87.104 143H89.162V135.174H87.104V143ZM88.126 133.9C88.84 133.9 89.33 133.452 89.33 132.766C89.33 132.094 88.84 131.66 88.126 131.66C87.412 131.66 86.936 132.094 86.936 132.766C86.936 133.452 87.412 133.9 88.126 133.9ZM95.64 143.196C98.384 143.196 100.26 141.152 100.26 137.778C100.26 134.418 98.384 132.458 95.64 132.458C92.882 132.458 91.006 134.404 91.006 137.778C91.006 141.152 92.882 143.196 95.64 143.196ZM95.64 141.404C94.086 141.404 93.12 139.99 93.12 137.778C93.12 135.566 94.086 134.236 95.64 134.236C97.18 134.236 98.16 135.566 98.16 137.778C98.16 139.99 97.18 141.404 95.64 141.404ZM105.391 143.196C107.771 143.196 109.185 141.754 109.185 140.06C109.185 138.576 108.359 137.764 107.113 137.246L105.755 136.686C104.873 136.336 104.131 136.056 104.131 135.314C104.131 134.642 104.705 134.236 105.615 134.236C106.469 134.236 107.155 134.544 107.827 135.09L108.863 133.788C108.023 132.934 106.819 132.458 105.615 132.458C103.529 132.458 102.031 133.76 102.031 135.454C102.031 136.952 103.095 137.806 104.131 138.226L105.517 138.814C106.441 139.206 107.071 139.458 107.071 140.228C107.071 140.942 106.511 141.404 105.433 141.404C104.523 141.404 103.529 140.956 102.801 140.27L101.611 141.698C102.619 142.664 103.991 143.196 105.391 143.196Z" fill="white"/>
</svg>
