<svg width="70" height="140" viewBox="0 0 70 140" fill="none" xmlns="http://www.w3.org/2000/svg">
<rect x="0.5" y="0.5" width="69" height="139" rx="14.5" fill="white" stroke="#636363"/>
<path d="M25.1539 130.207H43.7883C43.5419 132.213 41.8321 133.766 39.7596 133.766H29.1827C27.1101 133.766 25.4003 132.213 25.1539 130.207Z" stroke="#636363"/>
<path d="M27.8217 6.5791H43.6618C44.0151 6.5791 44.3016 6.86556 44.3016 7.21892C44.3016 7.57228 44.0151 7.85874 43.6618 7.85874H27.8217C27.4683 7.85874 27.1819 7.57228 27.1819 7.21892C27.1819 6.86556 27.4683 6.5791 27.8217 6.5791Z" stroke="#636363"/>
<path d="M58.4823 10.2586C58.4823 11.0148 57.8415 11.6583 57.0127 11.6583C56.1839 11.6583 55.5432 11.0148 55.5432 10.2586C55.5432 9.50241 56.1839 8.85889 57.0127 8.85889C57.8415 8.85889 58.4823 9.50241 58.4823 10.2586Z" stroke="#636363"/>
<path d="M49.8163 11.0182C49.8163 11.3547 49.5282 11.6581 49.1346 11.6581C48.7409 11.6581 48.4529 11.3547 48.4529 11.0182C48.4529 10.6817 48.7409 10.3784 49.1346 10.3784C49.5282 10.3784 49.8163 10.6817 49.8163 11.0182Z" stroke="#636363"/>
<path d="M46.665 11.0182C46.665 11.3547 46.377 11.6581 45.9833 11.6581C45.5896 11.6581 45.3016 11.3547 45.3016 11.0182C45.3016 10.6817 45.5896 10.3784 45.9833 10.3784C46.377 10.3784 46.665 10.6817 46.665 11.0182Z" stroke="#636363"/>
</svg>
