<svg width="196" height="187" viewBox="0 0 196 187" fill="none" xmlns="http://www.w3.org/2000/svg">
<path d="M99.4961 8L127.378 59.1243L184.616 69.843L144.609 112.158L152.103 169.907L99.4961 144.935L46.8893 169.907L54.3827 112.158L14.3765 69.843L71.6145 59.1243L99.4961 8Z" fill="white" stroke="#FFCD1C" stroke-width="5"/>
<path d="M99.4961 8L120.539 68.5372L184.616 69.843L133.544 108.563L152.103 169.907L99.4961 133.3L46.8893 169.907L65.4483 108.563L14.3765 69.843L78.4534 68.5372L99.4961 8Z" stroke="#FFCD1C" stroke-opacity="0.3" stroke-width="5"/>
<path fill-rule="evenodd" clip-rule="evenodd" d="M195.998 149.271L181.987 157.444L195.162 177.755C185.662 173.374 173.938 169.789 160.694 167.283V138.378C174.329 140.958 186.354 144.682 195.998 149.24V149.271Z" fill="#0079F9"/>
<path fill-rule="evenodd" clip-rule="evenodd" d="M0.998466 149.271L15.0815 157.444L1.83734 177.756C11.3864 173.375 23.1721 169.79 36.4854 167.283V138.378C22.7795 140.959 10.6927 144.682 0.998466 149.24V149.271Z" fill="#0079F9"/>
<path d="M18.9961 167.896L18.9961 134.997C38.1668 127.651 66.5567 123 98.2384 123C130.205 123 158.821 127.735 177.996 135.196V166L177.75 168C158.576 160.594 130.069 155.9 98.2384 155.9C66.5567 155.9 38.1668 160.551 18.9961 167.896Z" fill="#0079F9"/>
<path d="M176.496 132.227V161.908L176.494 161.925C157.142 154.826 129.215 150.4 98.2384 150.4C67.5335 150.4 39.8262 154.749 20.4961 161.738L20.4961 132.033C39.4295 124.982 67.206 120.5 98.2384 120.5C129.555 120.5 157.555 125.065 176.496 132.227Z" fill="#30ACF2" stroke="#009FF9" stroke-width="3"/>
<path d="M70.9401 143H73.0401L74.5241 137.61C74.8321 136.532 75.1261 135.342 75.4061 134.222H75.4621C75.7561 135.328 76.0501 136.532 76.3581 137.61L77.8421 143H80.0121L76.6941 132.64H74.2581L70.9401 143ZM72.9981 140.34H77.9261V138.744H72.9981V140.34ZM81.0708 143H83.1288V137.61C83.7028 137.05 84.1088 136.742 84.7528 136.742C85.5088 136.742 85.8588 137.148 85.8588 138.38V143H87.9168V138.114C87.9168 136.154 87.1748 134.978 85.4948 134.978C84.4308 134.978 83.6188 135.538 82.9468 136.21H82.9048L82.7368 135.174H81.0708V143ZM92.7976 143.196C93.6096 143.196 94.3936 142.762 94.9676 142.188H95.0096L95.1636 143H96.8436V131.842H94.7856V134.586L94.8696 135.818C94.2956 135.3 93.7496 134.978 92.8676 134.978C91.1876 134.978 89.5776 136.532 89.5776 139.094C89.5776 141.67 90.8376 143.196 92.7976 143.196ZM93.3156 141.502C92.2936 141.502 91.6916 140.704 91.6916 139.066C91.6916 137.498 92.4476 136.658 93.3296 136.658C93.8196 136.658 94.3236 136.826 94.7856 137.26V140.704C94.3376 141.278 93.8756 141.502 93.3156 141.502ZM99.0494 143H101.107V138.338C101.541 137.204 102.283 136.784 102.885 136.784C103.221 136.784 103.431 136.84 103.711 136.91L104.061 135.146C103.823 135.034 103.571 134.978 103.151 134.978C102.339 134.978 101.485 135.524 100.925 136.56H100.883L100.715 135.174H99.0494V143ZM108.204 143.196C110.164 143.196 111.956 141.684 111.956 139.094C111.956 136.49 110.164 134.978 108.204 134.978C106.23 134.978 104.438 136.49 104.438 139.094C104.438 141.684 106.23 143.196 108.204 143.196ZM108.204 141.53C107.126 141.53 106.538 140.564 106.538 139.094C106.538 137.61 107.126 136.658 108.204 136.658C109.268 136.658 109.856 137.61 109.856 139.094C109.856 140.564 109.268 141.53 108.204 141.53ZM113.692 143H115.75V135.174H113.692V143ZM114.714 133.9C115.428 133.9 115.918 133.452 115.918 132.766C115.918 132.094 115.428 131.66 114.714 131.66C114 131.66 113.524 132.094 113.524 132.766C113.524 133.452 114 133.9 114.714 133.9ZM120.702 143.196C121.514 143.196 122.298 142.762 122.872 142.188H122.914L123.068 143H124.748V131.842H122.69V134.586L122.774 135.818C122.2 135.3 121.654 134.978 120.772 134.978C119.092 134.978 117.482 136.532 117.482 139.094C117.482 141.67 118.742 143.196 120.702 143.196ZM121.22 141.502C120.198 141.502 119.596 140.704 119.596 139.066C119.596 137.498 120.352 136.658 121.234 136.658C121.724 136.658 122.228 136.826 122.69 137.26V140.704C122.242 141.278 121.78 141.502 121.22 141.502Z" fill="white"/>
</svg>
