<svg width="42" height="42" viewBox="0 0 42 42" fill="none" xmlns="http://www.w3.org/2000/svg">
<rect width="42" height="42" rx="19" fill="#DBD38A"/>
<path d="M10 21C10 27.0751 14.9249 32 21 32C27.0751 32 32 27.0751 32 21C32 14.9249 27.0751 10 21 10L26 5" stroke="white" stroke-width="2"/>
<path d="M17.3362 16.689C17.3362 15.9192 18.1696 15.4381 18.8362 15.823L26.452 20.22C27.1187 20.6049 27.1187 21.5671 26.452 21.952L18.8362 26.349C18.1696 26.7339 17.3362 26.2528 17.3362 25.483L17.3362 16.689Z" fill="white"/>
<circle cx="15" cy="12" r="1" fill="white"/>
<circle cx="12" cy="15" r="1" fill="white"/>
<circle cx="10" cy="19" r="1" fill="white"/>
</svg>
