<svg width="98" height="119" viewBox="0 0 98 119" fill="none" xmlns="http://www.w3.org/2000/svg">
<path d="M18.2188 112H12.1468L5.88278 99.928H5.78678C5.81878 100.2 5.84278 100.52 5.85878 100.888C5.89078 101.256 5.91478 101.64 5.93078 102.04C5.94678 102.44 5.96278 102.832 5.97878 103.216C5.99478 103.6 6.00278 103.952 6.00278 104.272V112H1.89878V94.864H7.94678L14.1868 106.768H14.2588C14.2428 106.496 14.2188 106.184 14.1868 105.832C14.1708 105.464 14.1548 105.096 14.1388 104.728C14.1228 104.344 14.1068 103.968 14.0908 103.6C14.0908 103.232 14.0908 102.904 14.0908 102.616V94.864H18.2188V112ZM34.3224 105.328C34.3224 106.432 34.1704 107.416 33.8664 108.28C33.5624 109.144 33.1224 109.872 32.5464 110.464C31.9704 111.04 31.2744 111.48 30.4584 111.784C29.6424 112.088 28.7144 112.24 27.6744 112.24C26.7144 112.24 25.8264 112.088 25.0104 111.784C24.2104 111.48 23.5144 111.04 22.9224 110.464C22.3464 109.872 21.8904 109.144 21.5544 108.28C21.2344 107.416 21.0744 106.432 21.0744 105.328C21.0744 103.856 21.3384 102.616 21.8664 101.608C22.4104 100.584 23.1784 99.808 24.1704 99.28C25.1624 98.752 26.3544 98.488 27.7464 98.488C29.0264 98.488 30.1544 98.752 31.1304 99.28C32.1224 99.808 32.8984 100.584 33.4584 101.608C34.0344 102.616 34.3224 103.856 34.3224 105.328ZM25.7304 105.328C25.7304 106.08 25.7944 106.72 25.9224 107.248C26.0504 107.776 26.2584 108.176 26.5464 108.448C26.8504 108.704 27.2424 108.832 27.7224 108.832C28.2024 108.832 28.5784 108.704 28.8504 108.448C29.1384 108.176 29.3464 107.776 29.4744 107.248C29.6024 106.72 29.6664 106.08 29.6664 105.328C29.6664 104.576 29.6024 103.944 29.4744 103.432C29.3464 102.92 29.1384 102.536 28.8504 102.28C28.5624 102.024 28.1784 101.896 27.6984 101.896C27.0104 101.896 26.5064 102.184 26.1864 102.76C25.8824 103.336 25.7304 104.192 25.7304 105.328ZM47.294 112.24C45.934 112.24 44.806 111.656 43.91 110.488C43.03 109.32 42.59 107.616 42.59 105.376C42.59 103.104 43.038 101.392 43.934 100.24C44.846 99.072 46.022 98.488 47.462 98.488C48.054 98.488 48.566 98.576 48.998 98.752C49.43 98.912 49.806 99.144 50.126 99.448C50.446 99.736 50.718 100.064 50.942 100.432H51.038C50.974 100.096 50.918 99.632 50.87 99.04C50.838 98.448 50.822 97.872 50.822 97.312V93.76H55.43V112H51.974L50.99 110.32H50.822C50.614 110.672 50.35 110.992 50.03 111.28C49.71 111.568 49.326 111.8 48.878 111.976C48.43 112.152 47.902 112.24 47.294 112.24ZM49.166 108.616C49.902 108.616 50.422 108.384 50.726 107.92C51.03 107.456 51.19 106.744 51.206 105.784V105.424C51.206 104.384 51.054 103.584 50.75 103.024C50.462 102.464 49.918 102.184 49.118 102.184C48.574 102.184 48.118 102.448 47.75 102.976C47.398 103.504 47.222 104.328 47.222 105.448C47.222 106.552 47.398 107.36 47.75 107.872C48.118 108.368 48.59 108.616 49.166 108.616ZM65.0679 98.488C66.7479 98.488 68.0599 98.904 69.0039 99.736C69.9479 100.568 70.4199 101.752 70.4199 103.288V112H67.2519L66.3639 110.248H66.2679C65.8999 110.712 65.5159 111.096 65.1159 111.4C64.7319 111.688 64.2839 111.896 63.7719 112.024C63.2599 112.168 62.6359 112.24 61.8999 112.24C61.1319 112.24 60.4439 112.088 59.8359 111.784C59.2279 111.464 58.7479 110.992 58.3959 110.368C58.0439 109.728 57.8679 108.92 57.8679 107.944C57.8679 106.52 58.3559 105.464 59.3319 104.776C60.3239 104.088 61.7559 103.704 63.6279 103.624L65.8359 103.552V103.36C65.8359 102.768 65.6919 102.352 65.4039 102.112C65.1159 101.856 64.7239 101.728 64.2279 101.728C63.6999 101.728 63.1159 101.824 62.4759 102.016C61.8359 102.192 61.1879 102.424 60.5319 102.712L59.2119 99.688C59.9799 99.288 60.8439 98.992 61.8039 98.8C62.7799 98.592 63.8679 98.488 65.0679 98.488ZM64.8039 106.12C63.9719 106.152 63.3799 106.304 63.0279 106.576C62.6919 106.832 62.5239 107.2 62.5239 107.68C62.5239 108.128 62.6439 108.464 62.8839 108.688C63.1239 108.896 63.4439 109 63.8439 109C64.4039 109 64.8759 108.824 65.2599 108.472C65.6599 108.12 65.8599 107.664 65.8599 107.104V106.072L64.8039 106.12ZM80.045 108.616C80.461 108.616 80.837 108.576 81.173 108.496C81.525 108.4 81.885 108.288 82.253 108.16V111.496C81.757 111.704 81.229 111.88 80.669 112.024C80.109 112.168 79.397 112.24 78.533 112.24C77.669 112.24 76.909 112.104 76.253 111.832C75.613 111.56 75.109 111.096 74.741 110.44C74.373 109.768 74.189 108.832 74.189 107.632V102.16H72.581V100.288L74.621 98.848L75.797 96.064H78.797V98.728H82.061V102.16H78.797V107.32C78.797 107.752 78.901 108.08 79.109 108.304C79.333 108.512 79.645 108.616 80.045 108.616ZM91.0601 98.488C92.7401 98.488 94.0521 98.904 94.9961 99.736C95.9401 100.568 96.4121 101.752 96.4121 103.288V112H93.2441L92.3561 110.248H92.2601C91.8921 110.712 91.5081 111.096 91.1081 111.4C90.7241 111.688 90.2761 111.896 89.7641 112.024C89.2521 112.168 88.6281 112.24 87.8921 112.24C87.1241 112.24 86.4361 112.088 85.8281 111.784C85.2201 111.464 84.7401 110.992 84.3881 110.368C84.0361 109.728 83.8601 108.92 83.8601 107.944C83.8601 106.52 84.3481 105.464 85.3241 104.776C86.3161 104.088 87.7481 103.704 89.6201 103.624L91.8281 103.552V103.36C91.8281 102.768 91.6841 102.352 91.3961 102.112C91.1081 101.856 90.7161 101.728 90.2201 101.728C89.6921 101.728 89.1081 101.824 88.4681 102.016C87.8281 102.192 87.1801 102.424 86.5241 102.712L85.2041 99.688C85.9721 99.288 86.8361 98.992 87.7961 98.8C88.7721 98.592 89.8601 98.488 91.0601 98.488ZM90.7961 106.12C89.9641 106.152 89.3721 106.304 89.0201 106.576C88.6841 106.832 88.5161 107.2 88.5161 107.68C88.5161 108.128 88.6361 108.464 88.8761 108.688C89.1161 108.896 89.4361 109 89.8361 109C90.3961 109 90.8681 108.824 91.2521 108.472C91.6521 108.12 91.8521 107.664 91.8521 107.104V106.072L90.7961 106.12Z" fill="#E4E4E4"/>
<path d="M22 34C23.8519 33 31.4949 31 47.2525 31C63.0101 31 69.4747 33 72 34" stroke="#E4E4E4" stroke-width="8" stroke-linecap="round"/>
<rect x="11" width="11" height="19" rx="5.5" fill="#E4E4E4"/>
<rect x="72" width="11" height="19" rx="5.5" fill="#E4E4E4"/>
</svg>
