<svg width="48" height="20" viewBox="0 0 48 20" fill="none" xmlns="http://www.w3.org/2000/svg">
  <rect width="48" height="20" rx="10" fill="#F3F3F3"/>
  <path
    d="M24.452 15.168C26.66 15.168 28.196 13.392 28.196 10.572C28.196 7.764 26.66 6.048 24.452 6.048C22.232 6.048 20.696 7.752 20.696 10.572C20.696 13.392 22.232 15.168 24.452 15.168ZM24.452 14.184C22.868 14.184 21.836 12.768 21.836 10.572C21.836 8.376 22.868 7.02 24.452 7.02C26.024 7.02 27.068 8.376 27.068 10.572C27.068 12.768 26.024 14.184 24.452 14.184ZM30.1063 15H31.2223V11.052H34.5703V10.128H31.2223V7.14H35.1703V6.204H30.1063V15ZM36.7273 15H37.8433V11.052H41.1913V10.128H37.8433V7.14H41.7913V6.204H36.7273V15Z"
    fill="#808080"/>
  <circle cx="10" cy="10" r="8" fill="white"/>
</svg>
