<svg width="70" height="29" viewBox="0 0 70 29" fill="none" xmlns="http://www.w3.org/2000/svg">
<rect width="69.6" height="29" rx="14.5" fill="#07AF71"/>
<path d="M16.7317 20.674C19.7557 20.674 21.8517 18.322 21.8517 14.514C21.8517 10.722 19.7557 8.46595 16.7317 8.46595C13.6917 8.46595 11.5957 10.722 11.5957 14.514C11.5957 18.322 13.6917 20.674 16.7317 20.674ZM16.7317 19.042C14.7637 19.042 13.5157 17.266 13.5157 14.514C13.5157 11.762 14.7637 10.082 16.7317 10.082C18.6837 10.082 19.9477 11.762 19.9477 14.514C19.9477 17.266 18.6837 19.042 16.7317 19.042ZM24.2982 20.45H26.0742V14.914C26.0742 13.618 25.9142 12.274 25.8342 11.042H25.9142L27.1462 13.522L31.0342 20.45H32.9542V8.67395H31.1782V14.178C31.1782 15.442 31.3222 16.882 31.4342 18.082H31.3542L30.1222 15.602L26.2022 8.67395H24.2982V20.45Z" fill="white"/>
<ellipse cx="53.0498" cy="14.5" rx="12" ry="11.5" fill="#35DA9E"/>
</svg>
