<svg width="327" height="73" viewBox="0 0 327 73" fill="none" xmlns="http://www.w3.org/2000/svg">
<path d="M3.73828 15.704H22.1943V66.376H33.7503V15.704H52.1243V5.878H3.73828V15.704Z" fill="#737373"/>
<path d="M98.1645 31.173H71.2405V5.878H59.6855V66.376H71.2405V40.999H98.1645V66.376H109.802V5.878H98.1645V31.173Z" fill="#737373"/>
<path d="M131.554 5.878H119.998V66.376H131.554V5.878Z" fill="#737373"/>
<path d="M180.231 46.567L152.2 5.878H141.834V66.376H153.39V25.805L181.503 66.376H191.704V5.878H180.231V46.567Z" fill="#737373"/>
<path d="M227.741 33.104L251.197 5.878H236.98L213.662 33.317H213.456V5.878H201.9V66.376H213.456V48.312L219.674 41.019L237.367 66.376H251.341L227.741 33.104Z" fill="#737373"/>
<path d="M306.177 5.878L288.462 49.218H288.287L270.572 5.878H256.684V66.376H267.908V25.705L284.151 65.948L284.259 66.211H292.49L308.922 25.664V66.376H320.065V5.878H306.177Z" fill="#DF0003"/>
</svg>
