<svg width="20" height="20" viewBox="0 0 20 20" fill="none" xmlns="http://www.w3.org/2000/svg">
<rect width="20" height="20" rx="3" fill="#F56548"/>
<path d="M10.8953 4.51806L16.8592 14.8475C16.9502 15.005 16.998 15.1837 16.998 15.3655C16.998 15.5474 16.9502 15.7261 16.8592 15.8836C16.7683 16.0411 16.6375 16.1719 16.48 16.2628C16.3225 16.3538 16.1438 16.4017 15.962 16.4017H4.03414C3.85227 16.4017 3.6736 16.3538 3.51609 16.2628C3.35858 16.1719 3.22779 16.0411 3.13685 15.8836C3.04592 15.7261 2.99805 15.5474 2.99805 15.3655C2.99805 15.1837 3.04592 15.005 3.13686 14.8475L9.10077 4.51806C9.49933 3.82731 10.4961 3.82731 10.8953 4.51806ZM9.99805 13.7353C9.81485 13.7353 9.43243 13.808 9.30289 13.9376C9.17335 14.0671 9.10057 14.3473 9.10057 14.5305C9.10057 14.7137 9.17335 15.0337 9.30289 15.1632C9.43243 15.2928 9.81485 15.3655 9.99805 15.3655C10.1812 15.3655 10.5637 15.2623 10.6932 15.1327C10.8227 15.0032 10.8955 14.6832 10.8955 14.5C10.8955 14.3168 10.8227 14.0366 10.6932 13.9071C10.5637 13.7776 10.1812 13.7353 9.99805 13.7353ZM9.99805 6.90004C9.82886 6.90006 9.45884 6.96218 9.3324 7.0746C9.20597 7.18703 9.1252 7.34194 9.10541 7.50997L9.10057 7.59079V12.3538C9.10077 12.5298 9.16818 12.6992 9.28904 12.8272C9.4099 12.9552 9.78181 13.0322 9.95757 13.0426C10.1333 13.0529 10.5131 12.9652 10.6481 12.8522C10.7831 12.7392 10.8699 12.5789 10.8907 12.4041L10.8955 12.3233V7.56031C10.8955 7.37711 10.8227 7.20142 10.6932 7.07188C10.5637 6.94234 10.1812 6.90004 9.99805 6.90004Z" fill="white"/>
</svg>
