<svg width="20" height="22" viewBox="0 0 20 22" fill="none" xmlns="http://www.w3.org/2000/svg">
<rect x="0.00195312" y="2" width="20" height="20" rx="3" fill="#818181"/>
<mask id="path-2-outside-1_5682_9" maskUnits="userSpaceOnUse" x="4" y="10" width="13" height="4" fill="black">
<rect fill="white" x="4" y="10" width="13" height="4"/>
<path d="M4.62891 12.0635V11.9268C4.62891 11.9176 4.63574 11.8994 4.64941 11.8721C4.66764 11.8447 4.68587 11.8174 4.7041 11.79C4.72233 11.7581 4.73828 11.7308 4.75195 11.708C4.77018 11.6807 4.78158 11.667 4.78613 11.667C4.85905 11.5166 4.9502 11.4163 5.05957 11.3662C5.1735 11.3115 5.31022 11.2842 5.46973 11.2842H5.72266C5.73177 11.2887 5.74316 11.2956 5.75684 11.3047C5.77962 11.3184 5.79785 11.3366 5.81152 11.3594C5.93913 11.4277 6.05078 11.5189 6.14648 11.6328C6.24219 11.7467 6.29004 11.8835 6.29004 12.043C6.29004 12.1523 6.26497 12.2663 6.21484 12.3848C6.16927 12.5033 6.10547 12.6104 6.02344 12.7061C5.94596 12.8018 5.85482 12.8792 5.75 12.9385C5.64518 12.9932 5.53353 13.0137 5.41504 13C5.32845 12.9954 5.25326 12.9795 5.18945 12.9521C5.12565 12.9248 5.06641 12.8906 5.01172 12.8496C4.96159 12.804 4.91374 12.7562 4.86816 12.7061C4.82259 12.6514 4.77474 12.5967 4.72461 12.542C4.68359 12.4873 4.65625 12.4121 4.64258 12.3164C4.63346 12.2207 4.62891 12.1364 4.62891 12.0635ZM9.4425 12.0635V11.9268C9.4425 11.9176 9.44934 11.8994 9.46301 11.8721C9.48124 11.8447 9.49947 11.8174 9.5177 11.79C9.53592 11.7581 9.55188 11.7308 9.56555 11.708C9.58378 11.6807 9.59517 11.667 9.59973 11.667C9.67264 11.5166 9.76379 11.4163 9.87316 11.3662C9.9871 11.3115 10.1238 11.2842 10.2833 11.2842H10.5363C10.5454 11.2887 10.5568 11.2956 10.5704 11.3047C10.5932 11.3184 10.6114 11.3366 10.6251 11.3594C10.7527 11.4277 10.8644 11.5189 10.9601 11.6328C11.0558 11.7467 11.1036 11.8835 11.1036 12.043C11.1036 12.1523 11.0786 12.2663 11.0284 12.3848C10.9829 12.5033 10.9191 12.6104 10.837 12.7061C10.7596 12.8018 10.6684 12.8792 10.5636 12.9385C10.4588 12.9932 10.3471 13.0137 10.2286 13C10.142 12.9954 10.0668 12.9795 10.003 12.9521C9.93924 12.9248 9.88 12.8906 9.82531 12.8496C9.77518 12.804 9.72733 12.7562 9.68176 12.7061C9.63619 12.6514 9.58833 12.5967 9.5382 12.542C9.49719 12.4873 9.46984 12.4121 9.45617 12.3164C9.44706 12.2207 9.4425 12.1364 9.4425 12.0635ZM14.2561 12.0635V11.9268C14.2561 11.9176 14.2629 11.8994 14.2766 11.8721C14.2948 11.8447 14.3131 11.8174 14.3313 11.79C14.3495 11.7581 14.3655 11.7308 14.3791 11.708C14.3974 11.6807 14.4088 11.667 14.4133 11.667C14.4862 11.5166 14.5774 11.4163 14.6868 11.3662C14.8007 11.3115 14.9374 11.2842 15.0969 11.2842H15.3498C15.359 11.2887 15.3704 11.2956 15.384 11.3047C15.4068 11.3184 15.425 11.3366 15.4387 11.3594C15.5663 11.4277 15.678 11.5189 15.7737 11.6328C15.8694 11.7467 15.9172 11.8835 15.9172 12.043C15.9172 12.1523 15.8922 12.2663 15.842 12.3848C15.7965 12.5033 15.7327 12.6104 15.6506 12.7061C15.5732 12.8018 15.482 12.8792 15.3772 12.9385C15.2724 12.9932 15.1607 13.0137 15.0422 13C14.9556 12.9954 14.8804 12.9795 14.8166 12.9521C14.7528 12.9248 14.6936 12.8906 14.6389 12.8496C14.5888 12.804 14.5409 12.7562 14.4954 12.7061C14.4498 12.6514 14.4019 12.5967 14.3518 12.542C14.3108 12.4873 14.2834 12.4121 14.2698 12.3164C14.2607 12.2207 14.2561 12.1364 14.2561 12.0635Z"/>
</mask>
<path d="M4.62891 12.0635V11.9268C4.62891 11.9176 4.63574 11.8994 4.64941 11.8721C4.66764 11.8447 4.68587 11.8174 4.7041 11.79C4.72233 11.7581 4.73828 11.7308 4.75195 11.708C4.77018 11.6807 4.78158 11.667 4.78613 11.667C4.85905 11.5166 4.9502 11.4163 5.05957 11.3662C5.1735 11.3115 5.31022 11.2842 5.46973 11.2842H5.72266C5.73177 11.2887 5.74316 11.2956 5.75684 11.3047C5.77962 11.3184 5.79785 11.3366 5.81152 11.3594C5.93913 11.4277 6.05078 11.5189 6.14648 11.6328C6.24219 11.7467 6.29004 11.8835 6.29004 12.043C6.29004 12.1523 6.26497 12.2663 6.21484 12.3848C6.16927 12.5033 6.10547 12.6104 6.02344 12.7061C5.94596 12.8018 5.85482 12.8792 5.75 12.9385C5.64518 12.9932 5.53353 13.0137 5.41504 13C5.32845 12.9954 5.25326 12.9795 5.18945 12.9521C5.12565 12.9248 5.06641 12.8906 5.01172 12.8496C4.96159 12.804 4.91374 12.7562 4.86816 12.7061C4.82259 12.6514 4.77474 12.5967 4.72461 12.542C4.68359 12.4873 4.65625 12.4121 4.64258 12.3164C4.63346 12.2207 4.62891 12.1364 4.62891 12.0635ZM9.4425 12.0635V11.9268C9.4425 11.9176 9.44934 11.8994 9.46301 11.8721C9.48124 11.8447 9.49947 11.8174 9.5177 11.79C9.53592 11.7581 9.55188 11.7308 9.56555 11.708C9.58378 11.6807 9.59517 11.667 9.59973 11.667C9.67264 11.5166 9.76379 11.4163 9.87316 11.3662C9.9871 11.3115 10.1238 11.2842 10.2833 11.2842H10.5363C10.5454 11.2887 10.5568 11.2956 10.5704 11.3047C10.5932 11.3184 10.6114 11.3366 10.6251 11.3594C10.7527 11.4277 10.8644 11.5189 10.9601 11.6328C11.0558 11.7467 11.1036 11.8835 11.1036 12.043C11.1036 12.1523 11.0786 12.2663 11.0284 12.3848C10.9829 12.5033 10.9191 12.6104 10.837 12.7061C10.7596 12.8018 10.6684 12.8792 10.5636 12.9385C10.4588 12.9932 10.3471 13.0137 10.2286 13C10.142 12.9954 10.0668 12.9795 10.003 12.9521C9.93924 12.9248 9.88 12.8906 9.82531 12.8496C9.77518 12.804 9.72733 12.7562 9.68176 12.7061C9.63619 12.6514 9.58833 12.5967 9.5382 12.542C9.49719 12.4873 9.46984 12.4121 9.45617 12.3164C9.44706 12.2207 9.4425 12.1364 9.4425 12.0635ZM14.2561 12.0635V11.9268C14.2561 11.9176 14.2629 11.8994 14.2766 11.8721C14.2948 11.8447 14.3131 11.8174 14.3313 11.79C14.3495 11.7581 14.3655 11.7308 14.3791 11.708C14.3974 11.6807 14.4088 11.667 14.4133 11.667C14.4862 11.5166 14.5774 11.4163 14.6868 11.3662C14.8007 11.3115 14.9374 11.2842 15.0969 11.2842H15.3498C15.359 11.2887 15.3704 11.2956 15.384 11.3047C15.4068 11.3184 15.425 11.3366 15.4387 11.3594C15.5663 11.4277 15.678 11.5189 15.7737 11.6328C15.8694 11.7467 15.9172 11.8835 15.9172 12.043C15.9172 12.1523 15.8922 12.2663 15.842 12.3848C15.7965 12.5033 15.7327 12.6104 15.6506 12.7061C15.5732 12.8018 15.482 12.8792 15.3772 12.9385C15.2724 12.9932 15.1607 13.0137 15.0422 13C14.9556 12.9954 14.8804 12.9795 14.8166 12.9521C14.7528 12.9248 14.6936 12.8906 14.6389 12.8496C14.5888 12.804 14.5409 12.7562 14.4954 12.7061C14.4498 12.6514 14.4019 12.5967 14.3518 12.542C14.3108 12.4873 14.2834 12.4121 14.2698 12.3164C14.2607 12.2207 14.2561 12.1364 14.2561 12.0635Z" fill="white"/>
<path d="M4.64941 11.8721L4.31659 11.6502L4.30278 11.6709L4.29164 11.6932L4.64941 11.8721ZM4.7041 11.79L5.03692 12.0119L5.04456 12.0005L5.0514 11.9885L4.7041 11.79ZM4.75195 11.708L4.41913 11.4861L4.41385 11.494L4.40896 11.5022L4.75195 11.708ZM4.78613 11.667V12.067H5.03673L5.14606 11.8415L4.78613 11.667ZM5.05957 11.3662L5.22626 11.7299L5.23266 11.7268L5.05957 11.3662ZM5.72266 11.2842L5.90154 10.9264L5.81708 10.8842H5.72266V11.2842ZM5.75684 11.3047L5.53496 11.6375L5.54288 11.6428L5.55104 11.6477L5.75684 11.3047ZM5.81152 11.3594L5.46853 11.5652L5.52532 11.6598L5.62263 11.712L5.81152 11.3594ZM6.21484 12.3848L5.84626 12.2288L5.84151 12.2412L6.21484 12.3848ZM6.02344 12.7061L5.71961 12.4456L5.71254 12.4544L6.02344 12.7061ZM5.75 12.9385L5.93513 13.2933L5.94682 13.2867L5.75 12.9385ZM5.41504 13L5.46089 12.6026L5.44851 12.6012L5.43606 12.6006L5.41504 13ZM5.01172 12.8496L4.74265 13.1456L4.75662 13.1583L4.77172 13.1696L5.01172 12.8496ZM4.86816 12.7061L4.56088 12.9621L4.56639 12.9687L4.57219 12.9751L4.86816 12.7061ZM4.72461 12.542L4.40461 12.782L4.41643 12.7978L4.42975 12.8123L4.72461 12.542ZM4.64258 12.3164L4.24438 12.3543L4.24527 12.3637L4.2466 12.373L4.64258 12.3164ZM5.02891 12.0635V11.9268H4.22891V12.0635H5.02891ZM5.02891 11.9268C5.02891 11.9698 5.02151 12.0022 5.01824 12.0152C5.01433 12.0309 5.01034 12.042 5.00856 12.0467C5.00513 12.0559 5.00351 12.0583 5.00718 12.051L4.29164 11.6932C4.28164 11.7132 4.26977 11.7384 4.2595 11.7658C4.25397 11.7805 4.22891 11.8451 4.22891 11.9268H5.02891ZM4.98223 12.094C4.98426 12.0909 4.99388 12.0765 4.99591 12.0734C4.99793 12.0704 5.00072 12.0662 5.00274 12.0632C5.00477 12.0602 5.00755 12.056 5.00958 12.0529C5.03388 12.0165 5.01262 12.0484 5.03692 12.0119L4.37128 11.5682C4.36318 11.5803 4.35204 11.597 4.34394 11.6092C4.34378 11.6094 4.34367 11.6096 4.34351 11.6098C4.34335 11.6101 4.34324 11.6102 4.34308 11.6105C4.34292 11.6107 4.34281 11.6109 4.34266 11.6111C4.3425 11.6113 4.34239 11.6115 4.34223 11.6117C4.34207 11.612 4.34196 11.6121 4.3418 11.6124C4.34164 11.6126 4.34153 11.6128 4.34137 11.613C4.34122 11.6133 4.34111 11.6134 4.34095 11.6137C4.34079 11.6139 4.34068 11.6141 4.34052 11.6143C4.34036 11.6145 4.34025 11.6147 4.34009 11.6149C4.33993 11.6152 4.33982 11.6153 4.33967 11.6156C4.33951 11.6158 4.3394 11.616 4.33924 11.6162C4.33908 11.6165 4.33897 11.6166 4.33881 11.6169C4.33865 11.6171 4.33854 11.6173 4.33838 11.6175C4.33823 11.6177 4.33811 11.6179 4.33796 11.6181C4.3378 11.6184 4.33769 11.6186 4.33753 11.6188C4.33737 11.619 4.33726 11.6192 4.3371 11.6194C4.33694 11.6197 4.33683 11.6198 4.33667 11.6201C4.33652 11.6203 4.33641 11.6205 4.33625 11.6207C4.33609 11.6209 4.33598 11.6211 4.33582 11.6214C4.33566 11.6216 4.33555 11.6218 4.33539 11.622C4.33523 11.6222 4.33512 11.6224 4.33497 11.6226C4.33481 11.6229 4.3347 11.623 4.33454 11.6233C4.33438 11.6235 4.33427 11.6237 4.33411 11.6239C4.33395 11.6242 4.33384 11.6243 4.33368 11.6246C4.33353 11.6248 4.33341 11.625 4.33326 11.6252C4.3331 11.6254 4.33299 11.6256 4.33283 11.6258C4.33267 11.6261 4.33256 11.6262 4.3324 11.6265C4.33224 11.6267 4.33213 11.6269 4.33197 11.6271C4.33182 11.6274 4.33171 11.6275 4.33155 11.6278C4.33139 11.628 4.33128 11.6282 4.33112 11.6284C4.33096 11.6286 4.33085 11.6288 4.33069 11.629C4.33053 11.6293 4.33042 11.6294 4.33027 11.6297C4.33011 11.6299 4.33 11.6301 4.32984 11.6303C4.32968 11.6306 4.32957 11.6307 4.32941 11.631C4.32925 11.6312 4.32914 11.6314 4.32898 11.6316C4.32883 11.6318 4.32872 11.632 4.32856 11.6322C4.3284 11.6325 4.32829 11.6326 4.32813 11.6329C4.32797 11.6331 4.32786 11.6333 4.3277 11.6335C4.32754 11.6338 4.32743 11.6339 4.32728 11.6342C4.32712 11.6344 4.32701 11.6346 4.32685 11.6348C4.32669 11.635 4.32658 11.6352 4.32642 11.6355C4.32626 11.6357 4.32615 11.6359 4.32599 11.6361C4.32584 11.6363 4.32572 11.6365 4.32557 11.6367C4.32541 11.637 4.3253 11.6371 4.32514 11.6374C4.32498 11.6376 4.32487 11.6378 4.32471 11.638C4.32455 11.6383 4.32444 11.6384 4.32428 11.6387C4.32413 11.6389 4.32402 11.6391 4.32386 11.6393C4.3237 11.6395 4.32359 11.6397 4.32343 11.6399C4.32327 11.6402 4.32316 11.6403 4.323 11.6406C4.32284 11.6408 4.32273 11.641 4.32258 11.6412C4.32242 11.6415 4.32231 11.6416 4.32215 11.6419C4.32199 11.6421 4.32188 11.6423 4.32172 11.6425C4.32156 11.6427 4.32145 11.6429 4.32129 11.6431C4.32114 11.6434 4.32102 11.6435 4.32087 11.6438C4.32071 11.644 4.3206 11.6442 4.32044 11.6444C4.32028 11.6447 4.32017 11.6448 4.32001 11.6451C4.31985 11.6453 4.31974 11.6455 4.31958 11.6457C4.31943 11.6459 4.31932 11.6461 4.31916 11.6463C4.319 11.6466 4.31889 11.6467 4.31873 11.647C4.31857 11.6472 4.31846 11.6474 4.3183 11.6476C4.31814 11.6479 4.31803 11.648 4.31788 11.6483C4.31772 11.6485 4.31761 11.6487 4.31745 11.6489C4.31729 11.6491 4.31718 11.6493 4.31702 11.6495C4.31686 11.6498 4.31675 11.65 4.31659 11.6502L4.98223 12.094ZM5.0514 11.9885C5.06871 11.9582 5.08317 11.9334 5.09495 11.9138L4.40896 11.5022C4.39339 11.5281 4.37595 11.5581 4.3568 11.5916L5.0514 11.9885ZM5.08477 11.9299C5.0914 11.92 5.0895 11.9237 5.08146 11.9333C5.07837 11.937 5.06437 11.9539 5.04175 11.9733C5.03048 11.9829 5.00791 12.0012 4.97564 12.0188C4.94781 12.034 4.88 12.067 4.78613 12.067V11.267C4.69112 11.267 4.62197 11.3004 4.59256 11.3165C4.55873 11.3349 4.53438 11.3545 4.52112 11.3659C4.49451 11.3887 4.47567 11.4106 4.46688 11.4212C4.44745 11.4445 4.43074 11.4687 4.41913 11.4861L5.08477 11.9299ZM5.14606 11.8415C5.16956 11.793 5.19049 11.7642 5.20516 11.7481C5.2123 11.7402 5.21768 11.7357 5.22096 11.7332C5.22415 11.7308 5.22588 11.73 5.22623 11.7298L4.89291 11.0026C4.67148 11.1041 4.52403 11.2907 4.42621 11.4925L5.14606 11.8415ZM5.23266 11.7268C5.28033 11.7039 5.35489 11.6842 5.46973 11.6842V10.8842C5.26556 10.8842 5.06667 10.9191 4.88648 11.0056L5.23266 11.7268ZM5.46973 11.6842H5.72266V10.8842H5.46973V11.6842ZM5.54377 11.642C5.53691 11.6385 5.53285 11.6361 5.53224 11.6357C5.5314 11.6352 5.53222 11.6357 5.53496 11.6375L5.97872 10.9719C5.95849 10.9584 5.93165 10.9415 5.90154 10.9264L5.54377 11.642ZM5.55104 11.6477C5.51752 11.6276 5.48863 11.5987 5.46853 11.5652L6.15452 11.1536C6.10707 11.0745 6.04172 11.0091 5.96263 10.9617L5.55104 11.6477ZM5.62263 11.712C5.70415 11.7556 5.77628 11.814 5.8402 11.8901L6.45277 11.3755C6.32528 11.2238 6.17411 11.0998 6.00041 11.0068L5.62263 11.712ZM5.8402 11.8901C5.87083 11.9266 5.89004 11.9703 5.89004 12.043H6.69004C6.69004 11.7967 6.61354 11.5669 6.45277 11.3755L5.8402 11.8901ZM5.89004 12.043C5.89004 12.0902 5.87935 12.1512 5.84646 12.2289L6.58323 12.5406C6.6506 12.3814 6.69004 12.2145 6.69004 12.043H5.89004ZM5.84151 12.2412C5.8122 12.3174 5.77185 12.3849 5.71973 12.4457L6.32714 12.9664C6.43909 12.8358 6.52635 12.6891 6.58818 12.5284L5.84151 12.2412ZM5.71254 12.4544C5.66596 12.5119 5.61324 12.5563 5.55318 12.5903L5.94682 13.2867C6.09639 13.2022 6.22597 13.0916 6.33434 12.9577L5.71254 12.4544ZM5.56497 12.5838C5.53178 12.6012 5.50063 12.6072 5.46089 12.6026L5.36919 13.3974C5.56643 13.4201 5.75859 13.3852 5.93503 13.2931L5.56497 12.5838ZM5.43606 12.6006C5.38525 12.5979 5.35826 12.5893 5.34702 12.5845L5.03189 13.3198C5.14825 13.3697 5.27165 13.393 5.39402 13.3994L5.43606 12.6006ZM5.34702 12.5845C5.31204 12.5695 5.28053 12.5512 5.25172 12.5296L4.77172 13.1696C4.85228 13.23 4.93926 13.2801 5.03189 13.3198L5.34702 12.5845ZM5.28079 12.5536C5.24005 12.5166 5.20118 12.4777 5.16414 12.437L4.57219 12.9751C4.6263 13.0346 4.68313 13.0915 4.74265 13.1456L5.28079 12.5536ZM5.17545 12.45C5.12569 12.3903 5.07368 12.3308 5.01947 12.2717L4.42975 12.8123C4.4758 12.8625 4.5195 12.9125 4.56088 12.9621L5.17545 12.45ZM5.04461 12.302C5.05135 12.311 5.05171 12.3146 5.04926 12.3079C5.04673 12.3009 5.04227 12.2858 5.03856 12.2598L4.2466 12.373C4.26607 12.5092 4.30999 12.6558 4.40461 12.782L5.04461 12.302ZM5.04078 12.2785C5.03251 12.1917 5.02891 12.1205 5.02891 12.0635H4.22891C4.22891 12.1523 4.23442 12.2497 4.24438 12.3543L5.04078 12.2785ZM9.46301 11.8721L9.13019 11.6502L9.11637 11.6709L9.10524 11.6932L9.46301 11.8721ZM9.5177 11.79L9.85052 12.0119L9.85816 12.0005L9.86499 11.9885L9.5177 11.79ZM9.56555 11.708L9.23273 11.4861L9.22745 11.494L9.22255 11.5022L9.56555 11.708ZM9.59973 11.667V12.067H9.85032L9.95965 11.8415L9.59973 11.667ZM9.87316 11.3662L10.0399 11.7299L10.0463 11.7268L9.87316 11.3662ZM10.5363 11.2842L10.7151 10.9264L10.6307 10.8842H10.5363V11.2842ZM10.5704 11.3047L10.3485 11.6375L10.3565 11.6428L10.3646 11.6477L10.5704 11.3047ZM10.6251 11.3594L10.2821 11.5652L10.3389 11.6598L10.4362 11.712L10.6251 11.3594ZM11.0284 12.3848L10.6598 12.2288L10.6551 12.2412L11.0284 12.3848ZM10.837 12.7061L10.5332 12.4456L10.5261 12.4544L10.837 12.7061ZM10.5636 12.9385L10.7487 13.2933L10.7604 13.2867L10.5636 12.9385ZM10.2286 13L10.2745 12.6026L10.2621 12.6012L10.2497 12.6006L10.2286 13ZM9.82531 12.8496L9.55624 13.1456L9.57021 13.1583L9.58531 13.1696L9.82531 12.8496ZM9.68176 12.7061L9.37447 12.9621L9.37999 12.9687L9.38578 12.9751L9.68176 12.7061ZM9.5382 12.542L9.2182 12.782L9.23003 12.7978L9.24334 12.8123L9.5382 12.542ZM9.45617 12.3164L9.05797 12.3543L9.05886 12.3637L9.06019 12.373L9.45617 12.3164ZM9.8425 12.0635V11.9268H9.0425V12.0635H9.8425ZM9.8425 11.9268C9.8425 11.9698 9.83511 12.0022 9.83184 12.0152C9.82793 12.0309 9.82393 12.042 9.82216 12.0467C9.81872 12.0559 9.81711 12.0583 9.82078 12.051L9.10524 11.6932C9.09524 11.7132 9.08337 11.7384 9.0731 11.7658C9.06757 11.7805 9.0425 11.8451 9.0425 11.9268H9.8425ZM9.79583 12.094C9.79785 12.0909 9.80747 12.0765 9.8095 12.0734C9.81153 12.0704 9.81431 12.0662 9.81634 12.0632C9.81836 12.0602 9.82115 12.056 9.82317 12.0529C9.84748 12.0165 9.82621 12.0484 9.85052 12.0119L9.18488 11.5682C9.17677 11.5803 9.16563 11.597 9.15753 11.6092C9.15737 11.6094 9.15726 11.6096 9.1571 11.6098C9.15695 11.6101 9.15684 11.6102 9.15668 11.6105C9.15652 11.6107 9.15641 11.6109 9.15625 11.6111C9.15609 11.6113 9.15598 11.6115 9.15582 11.6117C9.15566 11.612 9.15555 11.6121 9.1554 11.6124C9.15524 11.6126 9.15513 11.6128 9.15497 11.613C9.15481 11.6133 9.1547 11.6134 9.15454 11.6137C9.15438 11.6139 9.15427 11.6141 9.15411 11.6143C9.15396 11.6145 9.15384 11.6147 9.15369 11.6149C9.15353 11.6152 9.15342 11.6153 9.15326 11.6156C9.1531 11.6158 9.15299 11.616 9.15283 11.6162C9.15267 11.6165 9.15256 11.6166 9.1524 11.6169C9.15225 11.6171 9.15214 11.6173 9.15198 11.6175C9.15182 11.6177 9.15171 11.6179 9.15155 11.6181C9.15139 11.6184 9.15128 11.6186 9.15112 11.6188C9.15096 11.619 9.15085 11.6192 9.1507 11.6194C9.15054 11.6197 9.15043 11.6198 9.15027 11.6201C9.15011 11.6203 9.15 11.6205 9.14984 11.6207C9.14968 11.6209 9.14957 11.6211 9.14941 11.6214C9.14926 11.6216 9.14914 11.6218 9.14899 11.622C9.14883 11.6222 9.14872 11.6224 9.14856 11.6226C9.1484 11.6229 9.14829 11.623 9.14813 11.6233C9.14797 11.6235 9.14786 11.6237 9.14771 11.6239C9.14755 11.6242 9.14744 11.6243 9.14728 11.6246C9.14712 11.6248 9.14701 11.625 9.14685 11.6252C9.14669 11.6254 9.14658 11.6256 9.14642 11.6258C9.14627 11.6261 9.14615 11.6262 9.146 11.6265C9.14584 11.6267 9.14573 11.6269 9.14557 11.6271C9.14541 11.6274 9.1453 11.6275 9.14514 11.6278C9.14498 11.628 9.14487 11.6282 9.14471 11.6284C9.14456 11.6286 9.14444 11.6288 9.14429 11.629C9.14413 11.6293 9.14402 11.6294 9.14386 11.6297C9.1437 11.6299 9.14359 11.6301 9.14343 11.6303C9.14327 11.6306 9.14316 11.6307 9.14301 11.631C9.14285 11.6312 9.14274 11.6314 9.14258 11.6316C9.14242 11.6318 9.14231 11.632 9.14215 11.6322C9.14199 11.6325 9.14188 11.6326 9.14172 11.6329C9.14157 11.6331 9.14145 11.6333 9.1413 11.6335C9.14114 11.6338 9.14103 11.6339 9.14087 11.6342C9.14071 11.6344 9.1406 11.6346 9.14044 11.6348C9.14028 11.635 9.14017 11.6352 9.14001 11.6355C9.13986 11.6357 9.13975 11.6359 9.13959 11.6361C9.13943 11.6363 9.13932 11.6365 9.13916 11.6367C9.139 11.637 9.13889 11.6371 9.13873 11.6374C9.13857 11.6376 9.13846 11.6378 9.13831 11.638C9.13815 11.6383 9.13804 11.6384 9.13788 11.6387C9.13772 11.6389 9.13761 11.6391 9.13745 11.6393C9.13729 11.6395 9.13718 11.6397 9.13702 11.6399C9.13687 11.6402 9.13675 11.6403 9.1366 11.6406C9.13644 11.6408 9.13633 11.641 9.13617 11.6412C9.13601 11.6415 9.1359 11.6416 9.13574 11.6419C9.13558 11.6421 9.13547 11.6423 9.13531 11.6425C9.13516 11.6427 9.13505 11.6429 9.13489 11.6431C9.13473 11.6434 9.13462 11.6435 9.13446 11.6438C9.1343 11.644 9.13419 11.6442 9.13403 11.6444C9.13387 11.6447 9.13376 11.6448 9.13361 11.6451C9.13345 11.6453 9.13334 11.6455 9.13318 11.6457C9.13302 11.6459 9.13291 11.6461 9.13275 11.6463C9.13259 11.6466 9.13248 11.6467 9.13232 11.647C9.13217 11.6472 9.13205 11.6474 9.1319 11.6476C9.13174 11.6479 9.13163 11.648 9.13147 11.6483C9.13131 11.6485 9.1312 11.6487 9.13104 11.6489C9.13088 11.6491 9.13077 11.6493 9.13062 11.6495C9.13046 11.6498 9.13035 11.65 9.13019 11.6502L9.79583 12.094ZM9.86499 11.9885C9.8823 11.9582 9.89676 11.9334 9.90854 11.9138L9.22255 11.5022C9.20699 11.5281 9.18955 11.5581 9.1704 11.5916L9.86499 11.9885ZM9.89837 11.9299C9.90499 11.92 9.90309 11.9237 9.89505 11.9333C9.89196 11.937 9.87796 11.9539 9.85534 11.9733C9.84407 11.9829 9.82151 12.0012 9.78924 12.0188C9.7614 12.034 9.6936 12.067 9.59973 12.067V11.267C9.50472 11.267 9.43556 11.3004 9.40616 11.3165C9.37232 11.3349 9.34798 11.3545 9.33471 11.3659C9.3081 11.3887 9.28926 11.4106 9.28048 11.4212C9.26104 11.4445 9.24433 11.4687 9.23273 11.4861L9.89837 11.9299ZM9.95965 11.8415C9.98315 11.793 10.0041 11.7642 10.0187 11.7481C10.0259 11.7402 10.0313 11.7357 10.0346 11.7332C10.0377 11.7308 10.0395 11.73 10.0398 11.7298L9.7065 11.0026C9.48507 11.1041 9.33762 11.2907 9.2398 11.4925L9.95965 11.8415ZM10.0463 11.7268C10.0939 11.7039 10.1685 11.6842 10.2833 11.6842V10.8842C10.0791 10.8842 9.88027 10.9191 9.70007 11.0056L10.0463 11.7268ZM10.2833 11.6842H10.5363V10.8842H10.2833V11.6842ZM10.3574 11.642C10.3505 11.6385 10.3464 11.6361 10.3458 11.6357C10.345 11.6352 10.3458 11.6357 10.3485 11.6375L10.7923 10.9719C10.7721 10.9584 10.7452 10.9415 10.7151 10.9264L10.3574 11.642ZM10.3646 11.6477C10.3311 11.6276 10.3022 11.5987 10.2821 11.5652L10.9681 11.1536C10.9207 11.0745 10.8553 11.0091 10.7762 10.9617L10.3646 11.6477ZM10.4362 11.712C10.5177 11.7556 10.5899 11.814 10.6538 11.8901L11.2664 11.3755C11.1389 11.2238 10.9877 11.0998 10.814 11.0068L10.4362 11.712ZM10.6538 11.8901C10.6844 11.9266 10.7036 11.9703 10.7036 12.043H11.5036C11.5036 11.7967 11.4271 11.5669 11.2664 11.3755L10.6538 11.8901ZM10.7036 12.043C10.7036 12.0902 10.6929 12.1512 10.6601 12.2289L11.3968 12.5406C11.4642 12.3814 11.5036 12.2145 11.5036 12.043H10.7036ZM10.6551 12.2412C10.6258 12.3174 10.5854 12.3849 10.5333 12.4457L11.1407 12.9664C11.2527 12.8358 11.3399 12.6891 11.4018 12.5284L10.6551 12.2412ZM10.5261 12.4544C10.4795 12.5119 10.4268 12.5563 10.3668 12.5903L10.7604 13.2867C10.91 13.2022 11.0396 13.0916 11.1479 12.9577L10.5261 12.4544ZM10.3786 12.5838C10.3454 12.6012 10.3142 12.6072 10.2745 12.6026L10.1828 13.3974C10.38 13.4201 10.5722 13.3852 10.7486 13.2931L10.3786 12.5838ZM10.2497 12.6006C10.1988 12.5979 10.1719 12.5893 10.1606 12.5845L9.84548 13.3198C9.96184 13.3697 10.0852 13.393 10.2076 13.3994L10.2497 12.6006ZM10.1606 12.5845C10.1256 12.5695 10.0941 12.5512 10.0653 12.5296L9.58531 13.1696C9.66587 13.23 9.75286 13.2801 9.84548 13.3198L10.1606 12.5845ZM10.0944 12.5536C10.0536 12.5166 10.0148 12.4777 9.97773 12.437L9.38578 12.9751C9.43989 13.0346 9.49672 13.0915 9.55624 13.1456L10.0944 12.5536ZM9.98905 12.45C9.93928 12.3903 9.88727 12.3308 9.83307 12.2717L9.24334 12.8123C9.2894 12.8625 9.33309 12.9125 9.37447 12.9621L9.98905 12.45ZM9.8582 12.302C9.86494 12.311 9.8653 12.3146 9.86285 12.3079C9.86032 12.3009 9.85586 12.2858 9.85215 12.2598L9.06019 12.373C9.07966 12.5092 9.12359 12.6558 9.2182 12.782L9.8582 12.302ZM9.85437 12.2785C9.8461 12.1917 9.8425 12.1205 9.8425 12.0635H9.0425C9.0425 12.1523 9.04801 12.2497 9.05797 12.3543L9.85437 12.2785ZM14.2766 11.8721L13.9438 11.6502L13.93 11.6709L13.9188 11.6932L14.2766 11.8721ZM14.3313 11.79L14.6641 12.0119L14.6718 12.0005L14.6786 11.9885L14.3313 11.79ZM14.3791 11.708L14.0463 11.4861L14.041 11.494L14.0361 11.5022L14.3791 11.708ZM14.4133 11.667V12.067H14.6639L14.7732 11.8415L14.4133 11.667ZM14.6868 11.3662L14.8534 11.7299L14.8599 11.7268L14.6868 11.3662ZM15.3498 11.2842L15.5287 10.9264L15.4443 10.8842H15.3498V11.2842ZM15.384 11.3047L15.1621 11.6375L15.1701 11.6428L15.1782 11.6477L15.384 11.3047ZM15.4387 11.3594L15.0957 11.5652L15.1525 11.6598L15.2498 11.712L15.4387 11.3594ZM15.842 12.3848L15.4734 12.2288L15.4687 12.2412L15.842 12.3848ZM15.6506 12.7061L15.3468 12.4456L15.3397 12.4544L15.6506 12.7061ZM15.3772 12.9385L15.5623 13.2933L15.574 13.2867L15.3772 12.9385ZM15.0422 13L15.0881 12.6026L15.0757 12.6012L15.0633 12.6006L15.0422 13ZM14.6389 12.8496L14.3698 13.1456L14.3838 13.1583L14.3989 13.1696L14.6389 12.8496ZM14.4954 12.7061L14.1881 12.9621L14.1936 12.9687L14.1994 12.9751L14.4954 12.7061ZM14.3518 12.542L14.0318 12.782L14.0436 12.7978L14.0569 12.8123L14.3518 12.542ZM14.2698 12.3164L13.8716 12.3543L13.8725 12.3637L13.8738 12.373L14.2698 12.3164ZM14.6561 12.0635V11.9268H13.8561V12.0635H14.6561ZM14.6561 11.9268C14.6561 11.9698 14.6487 12.0022 14.6454 12.0152C14.6415 12.0309 14.6375 12.042 14.6358 12.0467C14.6323 12.0559 14.6307 12.0583 14.6344 12.051L13.9188 11.6932C13.9088 11.7132 13.897 11.7384 13.8867 11.7658C13.8812 11.7805 13.8561 11.8451 13.8561 11.9268H14.6561ZM14.6094 12.094C14.6114 12.0909 14.6211 12.0765 14.6231 12.0734C14.6251 12.0704 14.6279 12.0662 14.6299 12.0632C14.632 12.0602 14.6347 12.056 14.6368 12.0529C14.6611 12.0165 14.6398 12.0484 14.6641 12.0119L13.9985 11.5682C13.9904 11.5803 13.9792 11.597 13.9711 11.6092C13.971 11.6094 13.9709 11.6096 13.9707 11.6098C13.9705 11.6101 13.9704 11.6102 13.9703 11.6105C13.9701 11.6107 13.97 11.6109 13.9698 11.6111C13.9697 11.6113 13.9696 11.6115 13.9694 11.6117C13.9693 11.612 13.9691 11.6121 13.969 11.6124C13.9688 11.6126 13.9687 11.6128 13.9686 11.613C13.9684 11.6133 13.9683 11.6134 13.9681 11.6137C13.968 11.6139 13.9679 11.6141 13.9677 11.6143C13.9675 11.6145 13.9674 11.6147 13.9673 11.6149C13.9671 11.6152 13.967 11.6153 13.9669 11.6156C13.9667 11.6158 13.9666 11.616 13.9664 11.6162C13.9663 11.6165 13.9662 11.6166 13.966 11.6169C13.9658 11.6171 13.9657 11.6173 13.9656 11.6175C13.9654 11.6177 13.9653 11.6179 13.9651 11.6181C13.965 11.6184 13.9649 11.6186 13.9647 11.6188C13.9646 11.619 13.9644 11.6192 13.9643 11.6194C13.9641 11.6197 13.964 11.6198 13.9639 11.6201C13.9637 11.6203 13.9636 11.6205 13.9634 11.6207C13.9633 11.6209 13.9632 11.6211 13.963 11.6214C13.9628 11.6216 13.9627 11.6218 13.9626 11.622C13.9624 11.6222 13.9623 11.6224 13.9622 11.6226C13.962 11.6229 13.9619 11.623 13.9617 11.6233C13.9616 11.6235 13.9615 11.6237 13.9613 11.6239C13.9611 11.6242 13.961 11.6243 13.9609 11.6246C13.9607 11.6248 13.9606 11.625 13.9604 11.6252C13.9603 11.6254 13.9602 11.6256 13.96 11.6258C13.9599 11.6261 13.9597 11.6262 13.9596 11.6265C13.9594 11.6267 13.9593 11.6269 13.9592 11.6271C13.959 11.6274 13.9589 11.6275 13.9587 11.6278C13.9586 11.628 13.9585 11.6282 13.9583 11.6284C13.9581 11.6286 13.958 11.6288 13.9579 11.629C13.9577 11.6293 13.9576 11.6294 13.9575 11.6297C13.9573 11.6299 13.9572 11.6301 13.957 11.6303C13.9569 11.6306 13.9568 11.6307 13.9566 11.631C13.9564 11.6312 13.9563 11.6314 13.9562 11.6316C13.956 11.6318 13.9559 11.632 13.9557 11.6322C13.9556 11.6325 13.9555 11.6326 13.9553 11.6329C13.9552 11.6331 13.955 11.6333 13.9549 11.6335C13.9547 11.6338 13.9546 11.6339 13.9545 11.6342C13.9543 11.6344 13.9542 11.6346 13.954 11.6348C13.9539 11.635 13.9538 11.6352 13.9536 11.6355C13.9535 11.6357 13.9533 11.6359 13.9532 11.6361C13.953 11.6363 13.9529 11.6365 13.9528 11.6367C13.9526 11.637 13.9525 11.6371 13.9523 11.6374C13.9522 11.6376 13.9521 11.6378 13.9519 11.638C13.9517 11.6383 13.9516 11.6384 13.9515 11.6387C13.9513 11.6389 13.9512 11.6391 13.951 11.6393C13.9509 11.6395 13.9508 11.6397 13.9506 11.6399C13.9505 11.6402 13.9503 11.6403 13.9502 11.6406C13.95 11.6408 13.9499 11.641 13.9498 11.6412C13.9496 11.6415 13.9495 11.6416 13.9493 11.6419C13.9492 11.6421 13.9491 11.6423 13.9489 11.6425C13.9488 11.6427 13.9486 11.6429 13.9485 11.6431C13.9483 11.6434 13.9482 11.6435 13.9481 11.6438C13.9479 11.644 13.9478 11.6442 13.9476 11.6444C13.9475 11.6447 13.9474 11.6448 13.9472 11.6451C13.947 11.6453 13.9469 11.6455 13.9468 11.6457C13.9466 11.6459 13.9465 11.6461 13.9463 11.6463C13.9462 11.6466 13.9461 11.6467 13.9459 11.647C13.9458 11.6472 13.9456 11.6474 13.9455 11.6476C13.9453 11.6479 13.9452 11.648 13.9451 11.6483C13.9449 11.6485 13.9448 11.6487 13.9446 11.6489C13.9445 11.6491 13.9444 11.6493 13.9442 11.6495C13.9441 11.6498 13.9439 11.65 13.9438 11.6502L14.6094 12.094ZM14.6786 11.9885C14.6959 11.9582 14.7104 11.9334 14.7221 11.9138L14.0361 11.5022C14.0206 11.5281 14.0031 11.5581 13.984 11.5916L14.6786 11.9885ZM14.712 11.9299C14.7186 11.92 14.7167 11.9237 14.7086 11.9333C14.7056 11.937 14.6916 11.9539 14.6689 11.9733C14.6577 11.9829 14.6351 12.0012 14.6028 12.0188C14.575 12.034 14.5072 12.067 14.4133 12.067V11.267C14.3183 11.267 14.2492 11.3004 14.2198 11.3165C14.1859 11.3349 14.1616 11.3545 14.1483 11.3659C14.1217 11.3887 14.1029 11.4106 14.0941 11.4212C14.0746 11.4445 14.0579 11.4687 14.0463 11.4861L14.712 11.9299ZM14.7732 11.8415C14.7967 11.793 14.8177 11.7642 14.8323 11.7481C14.8395 11.7402 14.8449 11.7357 14.8481 11.7332C14.8513 11.7308 14.8531 11.73 14.8534 11.7298L14.5201 11.0026C14.2987 11.1041 14.1512 11.2907 14.0534 11.4925L14.7732 11.8415ZM14.8599 11.7268C14.9075 11.7039 14.9821 11.6842 15.0969 11.6842V10.8842C14.8927 10.8842 14.6939 10.9191 14.5137 11.0056L14.8599 11.7268ZM15.0969 11.6842H15.3498V10.8842H15.0969V11.6842ZM15.171 11.642C15.1641 11.6385 15.16 11.6361 15.1594 11.6357C15.1586 11.6352 15.1594 11.6357 15.1621 11.6375L15.6059 10.9719C15.5857 10.9584 15.5588 10.9415 15.5287 10.9264L15.171 11.642ZM15.1782 11.6477C15.1447 11.6276 15.1158 11.5987 15.0957 11.5652L15.7817 11.1536C15.7343 11.0745 15.6689 11.0091 15.5898 10.9617L15.1782 11.6477ZM15.2498 11.712C15.3313 11.7556 15.4035 11.814 15.4674 11.8901L16.08 11.3755C15.9525 11.2238 15.8013 11.0998 15.6276 11.0068L15.2498 11.712ZM15.4674 11.8901C15.498 11.9266 15.5172 11.9703 15.5172 12.043H16.3172C16.3172 11.7967 16.2407 11.5669 16.08 11.3755L15.4674 11.8901ZM15.5172 12.043C15.5172 12.0902 15.5065 12.1512 15.4736 12.2289L16.2104 12.5406C16.2778 12.3814 16.3172 12.2145 16.3172 12.043H15.5172ZM15.4687 12.2412C15.4394 12.3174 15.399 12.3849 15.3469 12.4457L15.9543 12.9664C16.0663 12.8358 16.1535 12.6891 16.2154 12.5284L15.4687 12.2412ZM15.3397 12.4544C15.2931 12.5119 15.2404 12.5563 15.1804 12.5903L15.574 13.2867C15.7236 13.2022 15.8532 13.0916 15.9615 12.9577L15.3397 12.4544ZM15.1922 12.5838C15.159 12.6012 15.1278 12.6072 15.0881 12.6026L14.9964 13.3974C15.1936 13.4201 15.3858 13.3852 15.5622 13.2931L15.1922 12.5838ZM15.0633 12.6006C15.0124 12.5979 14.9855 12.5893 14.9742 12.5845L14.6591 13.3198C14.7754 13.3697 14.8988 13.393 15.0212 13.3994L15.0633 12.6006ZM14.9742 12.5845C14.9392 12.5695 14.9077 12.5512 14.8789 12.5296L14.3989 13.1696C14.4795 13.23 14.5664 13.2801 14.6591 13.3198L14.9742 12.5845ZM14.908 12.5536C14.8672 12.5166 14.8284 12.4777 14.7913 12.437L14.1994 12.9751C14.2535 13.0346 14.3103 13.0915 14.3698 13.1456L14.908 12.5536ZM14.8026 12.45C14.7529 12.3903 14.7009 12.3308 14.6467 12.2717L14.0569 12.8123C14.103 12.8625 14.1467 12.9125 14.1881 12.9621L14.8026 12.45ZM14.6718 12.302C14.6785 12.311 14.6789 12.3146 14.6764 12.3079C14.6739 12.3009 14.6695 12.2858 14.6657 12.2598L13.8738 12.373C13.8933 12.5092 13.9372 12.6558 14.0318 12.782L14.6718 12.302ZM14.668 12.2785C14.6597 12.1917 14.6561 12.1205 14.6561 12.0635H13.8561C13.8561 12.1523 13.8616 12.2497 13.8716 12.3543L14.668 12.2785Z" fill="white" mask="url(#path-2-outside-1_5682_9)"/>
</svg>
