<svg width="21" height="21" viewBox="0 0 21 21" fill="none" xmlns="http://www.w3.org/2000/svg">
<circle cx="10.5" cy="10.5" r="10.5" fill="#6F73AE"/>
<path d="M6.59961 7.5C8.24636 7.5 9.7002 8.95494 9.7002 10.9004C9.7 12.8456 8.24625 14.2998 6.59961 14.2998C4.95313 14.2996 3.50019 12.8455 3.5 10.9004C3.5 8.95509 4.95302 7.50023 6.59961 7.5Z" fill="#6F73AE" stroke="black" stroke-width="2"/>
<path d="M14.89 6.55C16.71 6.55 18.07 7.66 18.16 9.21H16.28C16.17 8.5 15.64 8.07 14.77 8.07C13.92 8.07 13.45 8.41 13.45 8.9C13.45 9.51 14.08 9.72 15.67 10.05C17.55 10.44 18.19 11.37 18.19 12.59C18.19 14.15 16.72 15.1 14.9 15.1C12.89 15.1 11.42 14.01 11.34 12.27H13.21C13.31 13.05 13.99 13.57 15.03 13.57C15.77 13.57 16.32 13.2 16.32 12.67C16.32 12.02 15.77 11.76 14.32 11.49C12.55 11.16 11.59 10.43 11.59 8.9C11.59 7.43 13.05 6.55 14.89 6.55Z" fill="black"/>
<path d="M18.16 9.21V9.36H18.319L18.3097 9.2013L18.16 9.21ZM16.28 9.21L16.1318 9.23297L16.1514 9.36H16.28V9.21ZM15.67 10.05L15.6395 10.1969L15.6395 10.1969L15.67 10.05ZM11.34 12.27V12.12H11.1829L11.1902 12.2769L11.34 12.27ZM13.21 12.27L13.3588 12.2509L13.342 12.12H13.21V12.27ZM14.32 11.49L14.2925 11.6375L14.2925 11.6375L14.32 11.49ZM14.89 6.55V6.7C16.6514 6.7 17.926 7.76728 18.0103 9.21869L18.16 9.21L18.3097 9.2013C18.214 7.55272 16.7686 6.4 14.89 6.4V6.55ZM18.16 9.21V9.06H16.28V9.21V9.36H18.16V9.21ZM16.28 9.21L16.4282 9.18703C16.3681 8.79886 16.1907 8.47748 15.9015 8.25488C15.6139 8.03356 15.2291 7.92 14.77 7.92V8.07V8.22C15.1809 8.22 15.4961 8.32144 15.7185 8.49262C15.9393 8.66252 16.0819 8.91114 16.1318 9.23297L16.28 9.21ZM14.77 8.07V7.92C14.3277 7.92 13.9657 8.00804 13.7092 8.17569C13.4472 8.34693 13.3 8.5996 13.3 8.9H13.45H13.6C13.6 8.7104 13.6878 8.54806 13.8733 8.42681C14.0643 8.30196 14.3623 8.22 14.77 8.22V8.07ZM13.45 8.9H13.3C13.3 9.08083 13.3476 9.24126 13.4538 9.38127C13.5575 9.51801 13.7091 9.62469 13.8991 9.71538C14.2748 9.89462 14.8485 10.0327 15.6395 10.1969L15.67 10.05L15.7005 9.90313C14.9015 9.7373 14.3652 9.60538 14.0284 9.44462C13.8621 9.36531 13.7569 9.28449 13.6928 9.19998C13.6312 9.11874 13.6 9.02417 13.6 8.9H13.45ZM15.67 10.05L15.6395 10.1969C16.5614 10.3881 17.1578 10.7075 17.5241 11.1097C17.888 11.5093 18.04 12.0074 18.04 12.59H18.19H18.34C18.34 11.9526 18.172 11.3757 17.7459 10.9078C17.3222 10.4425 16.6586 10.1019 15.7005 9.90313L15.67 10.05ZM18.19 12.59H18.04C18.04 13.3169 17.6998 13.9013 17.1393 14.3087C16.5754 14.7186 15.7858 14.95 14.9 14.95V15.1V15.25C15.8342 15.25 16.6896 15.0064 17.3157 14.5513C17.9452 14.0937 18.34 13.4231 18.34 12.59H18.19ZM14.9 15.1V14.95C13.921 14.95 13.0856 14.6845 12.4885 14.2192C11.8939 13.7558 11.5278 13.0888 11.4898 12.2631L11.34 12.27L11.1902 12.2769C11.2322 13.1912 11.6411 13.9392 12.304 14.4558C12.9644 14.9705 13.869 15.25 14.9 15.25V15.1ZM11.34 12.27V12.42H13.21V12.27V12.12H11.34V12.27ZM13.21 12.27L13.0612 12.2891C13.1165 12.7203 13.3336 13.0821 13.6792 13.3338C14.0229 13.584 14.4858 13.72 15.03 13.72V13.57V13.42C14.5342 13.42 14.1371 13.2961 13.8558 13.0912C13.5764 12.8879 13.4035 12.5997 13.3588 12.2509L13.21 12.27ZM15.03 13.57V13.72C15.4232 13.72 15.7773 13.6219 16.0377 13.4422C16.3004 13.2609 16.47 12.9931 16.47 12.67H16.32H16.17C16.17 12.8769 16.0646 13.0591 15.8673 13.1953C15.6677 13.3331 15.3768 13.42 15.03 13.42V13.57ZM16.32 12.67H16.47C16.47 12.4854 16.4306 12.3186 16.339 12.1705C16.2479 12.0233 16.1122 11.9055 15.9375 11.8069C15.5944 11.6131 15.0711 11.4773 14.3475 11.3425L14.32 11.49L14.2925 11.6375C15.0189 11.7727 15.4956 11.9019 15.79 12.0681C15.934 12.1495 16.0264 12.2355 16.0838 12.3283C16.1406 12.4201 16.17 12.5296 16.17 12.67H16.32ZM14.32 11.49L14.3475 11.3425C13.4736 11.1796 12.8229 10.9215 12.3916 10.5335C11.967 10.1515 11.74 9.62976 11.74 8.9H11.59H11.44C11.44 9.70024 11.693 10.3085 12.1909 10.7565C12.6821 11.1985 13.3964 11.4704 14.2925 11.6375L14.32 11.49ZM11.59 8.9H11.74C11.74 8.22191 12.074 7.678 12.6342 7.29787C13.1983 6.91513 13.9917 6.7 14.89 6.7V6.55V6.4C13.9483 6.4 13.0917 6.62487 12.4658 7.04963C11.836 7.477 11.44 8.10809 11.44 8.9H11.59Z" fill="black"/>
</svg>
