<svg width="48" height="48" viewBox="0 0 48 48" fill="none" xmlns="http://www.w3.org/2000/svg">
<rect width="48" height="48" rx="4" fill="black"/>
<path d="M35.8838 12.6367C35.9587 12.7918 36 12.9642 36 13.1416V34.8584C36 35.0355 35.9584 35.2074 35.8838 35.3623V17.4941H20.2793V35.8584H35.4219C35.2578 35.9507 35.0729 36 34.8838 36H13.1162C12.9271 36 12.7422 35.9507 12.5781 35.8584H20.1631V17.4941H12.1162V35.3623C12.0416 35.2074 12 35.0355 12 34.8584V13.1416C12 12.9642 12.0413 12.7918 12.1162 12.6367V17.3525H35.8838V12.6367ZM13.1162 12H34.8838C35.0729 12 35.2578 12.0493 35.4219 12.1416H12.5781C12.7422 12.0493 12.9271 12 13.1162 12Z" fill="#7277FF" stroke="#7277FF" stroke-width="2"/>
</svg>
