<svg width="24" height="24" viewBox="0 0 24 24" fill="none" xmlns="http://www.w3.org/2000/svg">
<path d="M12 0.5C9.72552 0.5 7.50211 1.17446 5.61095 2.4381C3.71978 3.70174 2.2458 5.49779 1.37539 7.59914C0.504983 9.70049 0.277244 12.0128 0.720974 14.2435C1.1647 16.4743 2.25997 18.5234 3.86828 20.1317C5.47658 21.74 7.52568 22.8353 9.75646 23.279C11.9872 23.7228 14.2995 23.495 16.4009 22.6246C18.5022 21.7542 20.2983 20.2802 21.5619 18.3891C22.8255 16.4979 23.5 14.2745 23.5 12C23.4968 8.951 22.2841 6.0278 20.1282 3.87183C17.9722 1.71586 15.049 0.50322 12 0.5ZM12 21.7308C10.0754 21.7308 8.19409 21.1601 6.59388 20.0908C4.99366 19.0216 3.74644 17.5019 3.00995 15.7238C2.27345 13.9457 2.08075 11.9892 2.45621 10.1016C2.83167 8.21404 3.75844 6.48018 5.11931 5.11931C6.48018 3.75843 8.21404 2.83167 10.1016 2.4562C11.9892 2.08074 13.9457 2.27344 15.7238 3.00994C17.5019 3.74644 19.0216 4.99366 20.0908 6.59387C21.1601 8.19409 21.7308 10.0754 21.7308 12C21.7278 14.5799 20.7017 17.0532 18.8775 18.8775C17.0532 20.7017 14.5799 21.7278 12 21.7308ZM17.3077 15.5385C17.3077 15.7731 17.2145 15.9981 17.0486 16.164C16.8827 16.3299 16.6577 16.4231 16.4231 16.4231H7.57693C7.34231 16.4231 7.11731 16.3299 6.95141 16.164C6.78551 15.9981 6.69231 15.7731 6.69231 15.5385C6.69231 15.3038 6.78551 15.0788 6.95141 14.9129C7.11731 14.747 7.34231 14.6538 7.57693 14.6538H16.4231C16.6577 14.6538 16.8827 14.747 17.0486 14.9129C17.2145 15.0788 17.3077 15.3038 17.3077 15.5385ZM6.69231 9.78846C6.69231 9.52602 6.77013 9.26947 6.91594 9.05126C7.06174 8.83305 7.26898 8.66297 7.51144 8.56254C7.75391 8.46211 8.02071 8.43583 8.2781 8.48703C8.5355 8.53823 8.77194 8.66461 8.95751 8.85018C9.14308 9.03576 9.26946 9.27219 9.32066 9.52959C9.37186 9.78699 9.34558 10.0538 9.24515 10.2963C9.14472 10.5387 8.97464 10.746 8.75643 10.8918C8.53822 11.0376 8.28167 11.1154 8.01923 11.1154C7.66731 11.1154 7.3298 10.9756 7.08096 10.7267C6.83211 10.4779 6.69231 10.1404 6.69231 9.78846ZM17.3077 9.78846C17.3077 10.0509 17.2299 10.3074 17.0841 10.5257C16.9383 10.7439 16.731 10.9139 16.4886 11.0144C16.2461 11.1148 15.9793 11.1411 15.7219 11.0899C15.4645 11.0387 15.2281 10.9123 15.0425 10.7267C14.8569 10.5412 14.7305 10.3047 14.6793 10.0473C14.6281 9.78993 14.6544 9.52313 14.7549 9.28067C14.8553 9.0382 15.0254 8.83097 15.2436 8.68516C15.4618 8.53936 15.7183 8.46154 15.9808 8.46154C16.3327 8.46154 16.6702 8.60134 16.919 8.85018C17.1679 9.09903 17.3077 9.43654 17.3077 9.78846Z" fill="#B0D008" stroke="#B0D008"/>
</svg>
