<svg width="48" height="16" viewBox="0 0 48 16" fill="none" xmlns="http://www.w3.org/2000/svg">
<rect width="48" height="16" rx="1" fill="#272829"/>
<path d="M6 3H10.3244V13H6V3Z" stroke="#7277FF"/>
<path d="M12.7568 11.3333L14.3785 13L16.0001 11.3333M16.0001 4.66667L14.3785 3L12.7568 4.66667M14.3785 12.5833V3.41667" stroke="#7277FF" stroke-linecap="square"/>
<path d="M21.7852 13V4.51562H23.3086V11.7109H27.0586V13H21.7852ZM33.6562 7.375C33.4805 6.35547 32.6602 5.76953 31.6289 5.76953C30.2344 5.76953 29.2617 6.83594 29.2617 8.75781C29.2617 10.7031 30.2461 11.7461 31.6289 11.7461C32.6367 11.7461 33.457 11.1836 33.6562 10.1875H35.1914C34.957 11.8164 33.6211 13.1172 31.6055 13.1172C29.3672 13.1172 27.7266 11.4883 27.7266 8.75781C27.7266 6.01562 29.3906 4.39844 31.6055 4.39844C33.4805 4.39844 34.9336 5.48828 35.1914 7.375H33.6562ZM36.5039 13V4.51562H39.6914C41.6367 4.51562 42.6797 5.69922 42.6797 7.32812C42.6797 8.95703 41.625 10.1289 39.668 10.1289H38.0273V13H36.5039ZM38.0273 8.875H39.457C40.6055 8.875 41.1211 8.23047 41.1211 7.32812C41.1211 6.41406 40.6055 5.79297 39.457 5.79297H38.0273V8.875Z" fill="#7277FF"/>
</svg>
