<svg width="27" height="24" viewBox="0 0 27 24" fill="none" xmlns="http://www.w3.org/2000/svg">
<path d="M12.0002 0.5C15.0491 0.503275 17.9722 1.71614 20.1281 3.87207C20.3345 4.07847 20.5301 4.29377 20.7189 4.51367C21.5517 2.96356 22.4482 1.55693 22.4553 1.5459C22.4911 1.60204 25.591 6.46987 25.591 8.05957C25.591 9.34231 24.6866 10.4275 23.4348 10.8076C23.4762 11.202 23.4998 11.5998 23.5002 12C23.5002 14.2744 22.8253 16.4975 21.5617 18.3887C20.2981 20.2798 18.5019 21.7546 16.4006 22.625C14.2993 23.4953 11.9867 23.723 9.75604 23.2793C7.52541 22.8355 5.47657 21.74 3.86835 20.1318C2.26003 18.5235 1.16462 16.474 0.720886 14.2432C0.277298 12.0126 0.504967 9.70073 1.37518 7.59961C2.24553 5.4984 3.71956 3.70211 5.61053 2.43848C7.50171 1.17483 9.72569 0.5 12.0002 0.5ZM15.7238 3.00977C13.9458 2.2733 11.9893 2.08064 10.1017 2.45605C8.21421 2.83151 6.48018 3.75834 5.11932 5.11914C3.75847 6.47999 2.83172 8.21402 2.45624 10.1016C2.08079 11.9891 2.27351 13.9456 3.00995 15.7236C3.74645 17.5017 4.99371 19.0216 6.59393 20.0908C8.19415 21.16 10.0756 21.7305 12.0002 21.7305C14.5798 21.7275 17.053 20.7019 18.8771 18.8779C20.7014 17.0537 21.7277 14.5799 21.7307 12C21.7306 11.6168 21.707 11.2354 21.6623 10.8574C20.3143 10.5331 19.3186 9.40547 19.3185 8.05957C19.3185 7.63897 19.5368 6.98946 19.8566 6.25977C18.8047 4.81999 17.376 3.69413 15.7238 3.00977ZM12.0002 13.9551C13.749 13.9551 16.423 14.6543 16.423 14.6543C16.4276 14.6552 16.8839 14.748 17.049 14.9131C17.2147 15.0789 17.3077 15.3037 17.3078 15.5381C17.3078 15.7726 17.2148 15.9982 17.049 16.1641C16.8831 16.33 16.6576 16.4229 16.423 16.4229C16.403 16.4176 13.7424 15.7237 12.0002 15.7236C10.2653 15.7236 7.61933 16.4119 7.57733 16.4229C7.34272 16.4229 7.11725 16.33 6.95135 16.1641C6.78546 15.9982 6.69257 15.7727 6.69257 15.5381C6.69269 15.3036 6.78558 15.0789 6.95135 14.9131C7.11725 14.7472 7.33005 14.7479 7.57733 14.6543C9.21268 14.0352 10.2515 13.9551 12.0002 13.9551ZM8.2785 8.4873C8.53572 8.53857 8.77175 8.66513 8.95721 8.85059C9.14268 9.03607 9.26925 9.27206 9.3205 9.5293C9.37167 9.78655 9.34559 10.0535 9.2453 10.2959C9.14487 10.5384 8.97425 10.7458 8.75604 10.8916C8.53786 11.0373 8.28112 11.1152 8.01874 11.1152C7.667 11.1151 7.32998 10.9753 7.08124 10.7266C6.83239 10.4777 6.69257 10.14 6.69257 9.78809C6.69265 9.52586 6.77054 9.26982 6.9162 9.05176C7.06193 8.83365 7.26862 8.66295 7.51093 8.5625C7.75339 8.46207 8.0211 8.4361 8.2785 8.4873ZM15.9807 8.46191C16.3326 8.46191 16.6703 8.60174 16.9191 8.85059C17.1677 9.09931 17.3077 9.43642 17.3078 9.78809C17.3078 10.0504 17.2299 10.3072 17.0842 10.5254C16.9384 10.7436 16.7309 10.9142 16.4885 11.0146C16.246 11.115 15.9792 11.141 15.7219 11.0898C15.4645 11.0386 15.2277 10.9121 15.0422 10.7266C14.8568 10.5411 14.7301 10.305 14.6789 10.0479C14.6277 9.79045 14.6546 9.52274 14.7551 9.28027C14.8555 9.03812 15.0254 8.83125 15.2433 8.68555C15.4615 8.53976 15.7182 8.46194 15.9807 8.46191Z" fill="#FFC700"/>
<path d="M12.0002 0.5L12.0007 0H12.0002V0.5ZM20.1281 3.87207L20.4817 3.51852L20.4817 3.51852L20.1281 3.87207ZM20.7189 4.51367L20.3396 4.83945L20.8145 5.39232L21.1594 4.7503L20.7189 4.51367ZM22.4553 1.5459L22.8769 1.27712L22.4554 0.615974L22.0337 1.277L22.4553 1.5459ZM25.591 8.05957L26.091 8.05958V8.05957H25.591ZM23.4348 10.8076L23.2895 10.3292L22.8943 10.4492L22.9375 10.8599L23.4348 10.8076ZM23.5002 12H24.0002V11.9995L23.5002 12ZM21.5617 18.3887L21.9774 18.6665L21.9774 18.6664L21.5617 18.3887ZM16.4006 22.625L16.5919 23.0869L16.5919 23.0869L16.4006 22.625ZM9.75604 23.2793L9.65848 23.7697L9.6585 23.7697L9.75604 23.2793ZM3.86835 20.1318L3.51479 20.4854L3.5148 20.4854L3.86835 20.1318ZM0.720886 14.2432L0.23049 14.3407L0.230494 14.3407L0.720886 14.2432ZM1.37518 7.59961L0.913243 7.40827L0.913236 7.40829L1.37518 7.59961ZM5.61053 2.43848L5.33275 2.02274L5.33273 2.02275L5.61053 2.43848ZM15.7238 3.00977L15.9152 2.54783L15.9152 2.54782L15.7238 3.00977ZM10.1017 2.45605L10.0042 1.96566L10.0042 1.96566L10.1017 2.45605ZM5.11932 5.11914L4.76578 4.76558L4.76577 4.76559L5.11932 5.11914ZM2.45624 10.1016L1.96585 10.004L1.96585 10.004L2.45624 10.1016ZM3.00995 15.7236L2.548 15.915L2.54801 15.915L3.00995 15.7236ZM6.59393 20.0908L6.31615 20.5066H6.31615L6.59393 20.0908ZM12.0002 21.7305V22.2305H12.0008L12.0002 21.7305ZM18.8771 18.8779L19.2307 19.2315L19.2307 19.2315L18.8771 18.8779ZM21.7307 12L22.2307 12.0006V12L21.7307 12ZM21.6623 10.8574L22.1588 10.7987L22.1179 10.4528L21.7793 10.3713L21.6623 10.8574ZM19.3185 8.05957H18.8185V8.05958L19.3185 8.05957ZM19.8566 6.25977L20.3146 6.4605L20.43 6.19706L20.2604 5.9648L19.8566 6.25977ZM12.0002 13.9551L12.0002 13.4551H12.0002V13.9551ZM16.423 14.6543L16.2966 15.138L16.3099 15.1415L16.3233 15.1443L16.423 14.6543ZM17.049 14.9131L17.4027 14.5597L17.4026 14.5595L17.049 14.9131ZM17.3078 15.5381H17.8078V15.5378L17.3078 15.5381ZM17.049 16.1641L17.4026 16.5176L17.4027 16.5175L17.049 16.1641ZM16.423 16.4229L16.2967 16.9066L16.3588 16.9229H16.423V16.4229ZM12.0002 15.7236L12.0002 15.2236H12.0002V15.7236ZM7.57733 16.4229V16.9229H7.64146L7.70351 16.9067L7.57733 16.4229ZM6.95135 16.1641L6.5978 16.5176L6.95135 16.1641ZM6.69257 15.5381L6.19257 15.5378V15.5381H6.69257ZM6.95135 14.9131L6.5978 14.5595L6.59778 14.5595L6.95135 14.9131ZM7.57733 14.6543L7.40031 14.1867L7.40031 14.1867L7.57733 14.6543ZM8.2785 8.4873L8.37623 7.99695L8.37605 7.99691L8.2785 8.4873ZM8.95721 8.85059L9.31079 8.49705L9.31077 8.49703L8.95721 8.85059ZM9.3205 9.5293L9.81089 9.43175L9.81086 9.43162L9.3205 9.5293ZM9.2453 10.2959L9.70724 10.4872L9.7073 10.4871L9.2453 10.2959ZM8.75604 10.8916L9.03378 11.3074L9.03383 11.3073L8.75604 10.8916ZM8.01874 11.1152L8.01857 11.6152H8.01874V11.1152ZM7.08124 10.7266L6.72768 11.0801L6.7277 11.0801L7.08124 10.7266ZM6.69257 9.78809L6.19257 9.78792V9.78809H6.69257ZM6.9162 9.05176L6.50046 8.77397L6.50042 8.77403L6.9162 9.05176ZM7.51093 8.5625L7.31958 8.10056L7.31945 8.10062L7.51093 8.5625ZM15.9807 8.46191V7.96191H15.9806L15.9807 8.46191ZM16.9191 8.85059L17.2728 8.49712L17.2727 8.49703L16.9191 8.85059ZM17.3078 9.78809H17.8078V9.78793L17.3078 9.78809ZM17.0842 10.5254L17.4999 10.8032L17.5 10.8031L17.0842 10.5254ZM16.4885 11.0146L16.6797 11.4766L16.6798 11.4766L16.4885 11.0146ZM15.7219 11.0898L15.6243 11.5802L15.6243 11.5802L15.7219 11.0898ZM15.0422 10.7266L14.6885 11.08L14.6886 11.0801L15.0422 10.7266ZM14.6789 10.0479L14.1885 10.1454L14.1885 10.1455L14.6789 10.0479ZM14.7551 9.28027L14.2932 9.08876L14.2931 9.08893L14.7551 9.28027ZM15.2433 8.68555L14.9656 8.26981L14.9654 8.26989L15.2433 8.68555ZM12.0002 0.5L11.9996 1C14.9161 1.00313 17.7122 2.16331 19.7746 4.22562L20.1281 3.87207L20.4817 3.51852C18.2321 1.26897 15.1821 0.00341767 12.0007 2.98023e-07L12.0002 0.5ZM20.1281 3.87207L19.7746 4.22562C19.9698 4.42089 20.1567 4.62643 20.3396 4.83945L20.7189 4.51367L21.0982 4.18789C20.9035 3.96112 20.6992 3.73606 20.4817 3.51852L20.1281 3.87207ZM20.7189 4.51367L21.1594 4.7503C21.5706 3.98478 21.9986 3.25307 22.3251 2.71047C22.4883 2.43945 22.6257 2.21624 22.7227 2.06036C22.7711 1.98243 22.8095 1.92137 22.8358 1.87961C22.8489 1.85872 22.8591 1.84267 22.866 1.83176C22.8695 1.8263 22.8721 1.82212 22.874 1.81927C22.8749 1.81784 22.8756 1.81675 22.876 1.81599C22.8763 1.81562 22.8765 1.81532 22.8766 1.81512C22.8767 1.81501 22.8767 1.81493 22.8767 1.81488C22.8768 1.81482 22.8768 1.81479 22.8768 1.8148L22.4553 1.5459L22.0337 1.277C22.0247 1.29116 21.1202 2.71026 20.2785 4.27705L20.7189 4.51367ZM22.4553 1.5459L22.0336 1.81468C22.0494 1.83942 22.8265 3.0596 23.5981 4.4679C23.9842 5.17275 24.3643 5.91609 24.6464 6.57567C24.9391 7.26014 25.091 7.77626 25.091 8.05957H25.591H26.091C26.091 7.54803 25.8554 6.85954 25.5658 6.18242C25.2655 5.48043 24.8683 4.70524 24.4751 3.98741C23.6877 2.55033 22.8969 1.30852 22.8769 1.27712L22.4553 1.5459ZM25.591 8.05957L25.091 8.05956C25.091 9.09315 24.3597 10.0042 23.2895 10.3292L23.4348 10.8076L23.58 11.286C25.0134 10.8508 26.091 9.59148 26.091 8.05958L25.591 8.05957ZM23.4348 10.8076L22.9375 10.8599C22.9774 11.2391 22.9998 11.6195 23.0002 12.0005L23.5002 12L24.0002 11.9995C23.9997 11.5801 23.9751 11.1649 23.932 10.7553L23.4348 10.8076ZM23.5002 12H23.0002C23.0002 14.1754 22.3546 16.3019 21.146 18.1109L21.5617 18.3887L21.9774 18.6664C23.2959 16.6932 24.0002 14.3734 24.0002 12H23.5002ZM21.5617 18.3887L21.146 18.1109C19.9372 19.9199 18.2192 21.3305 16.2092 22.1631L16.4006 22.625L16.5919 23.0869C18.7847 22.1787 20.6589 20.6398 21.9774 18.6665L21.5617 18.3887ZM16.4006 22.625L16.2092 22.1631C14.1993 22.9955 11.9873 23.2133 9.85359 22.7889L9.75604 23.2793L9.6585 23.7697C11.9862 24.2327 14.3993 23.9951 16.5919 23.0869L16.4006 22.625ZM9.75604 23.2793L9.8536 22.7889C7.72 22.3644 5.76023 21.3166 4.2219 19.7783L3.86835 20.1318L3.5148 20.4854C5.19291 22.1635 7.33082 23.3066 9.65848 23.7697L9.75604 23.2793ZM3.86835 20.1318L4.2219 19.7783C2.68352 18.2399 1.63572 16.2794 1.21128 14.1456L0.720886 14.2432L0.230494 14.3407C0.693516 16.6685 1.83655 18.8071 3.51479 20.4854L3.86835 20.1318ZM0.720886 14.2432L1.21128 14.1456C0.78698 12.0121 1.00475 9.80069 1.83713 7.79093L1.37518 7.59961L0.913236 7.40829C0.00518206 9.60076 -0.232384 12.0132 0.23049 14.3407L0.720886 14.2432ZM1.37518 7.59961L1.83712 7.79095C2.66964 5.78109 4.07958 4.06288 5.88834 2.8542L5.61053 2.43848L5.33273 2.02275C3.35953 3.34133 1.82143 5.21571 0.913243 7.40827L1.37518 7.59961ZM5.61053 2.43848L5.88832 2.85421C7.6973 1.64549 9.8246 1 12.0002 1V0.5V0C9.62677 0 7.30613 0.704174 5.33275 2.02274L5.61053 2.43848ZM15.7238 3.00977L15.9152 2.54782C14.0458 1.77352 11.9887 1.57096 10.0042 1.96566L10.1017 2.45605L10.1993 2.94645C11.9898 2.59032 13.8458 2.77309 15.5325 3.47171L15.7238 3.00977ZM10.1017 2.45605L10.0042 1.96566C8.01968 2.36041 6.19656 3.33485 4.76578 4.76558L5.11932 5.11914L5.47287 5.4727C6.7638 4.18182 8.40874 3.30261 10.1993 2.94645L10.1017 2.45605ZM5.11932 5.11914L4.76577 4.76559C3.33498 6.19637 2.36062 8.0195 1.96585 10.004L2.45624 10.1016L2.94663 10.1991C3.30282 8.40854 4.18197 6.76361 5.47288 5.47269L5.11932 5.11914ZM2.45624 10.1016L1.96585 10.004C1.5711 11.9885 1.77373 14.0456 2.548 15.915L3.00995 15.7236L3.47189 15.5323C2.77329 13.8456 2.59047 11.9896 2.94663 10.1991L2.45624 10.1016ZM3.00995 15.7236L2.54801 15.915C3.32235 17.7844 4.63369 19.3824 6.31615 20.5066L6.59393 20.0908L6.87172 19.6751C5.35373 18.6608 4.17055 17.219 3.47189 15.5323L3.00995 15.7236ZM6.59393 20.0908L6.31615 20.5066C7.99864 21.6308 9.97678 22.2305 12.0002 22.2305V21.7305V21.2305C10.1745 21.2305 8.38967 20.6893 6.87172 19.6751L6.59393 20.0908ZM12.0002 21.7305L12.0008 22.2305C14.7127 22.2273 17.3128 21.1491 19.2307 19.2315L18.8771 18.8779L18.5236 18.5244C16.7931 20.2547 14.4469 21.2276 11.9996 21.2305L12.0002 21.7305ZM18.8771 18.8779L19.2307 19.2315C21.1486 17.3136 22.2276 14.7129 22.2307 12.0006L21.7307 12L21.2307 11.9994C21.2279 14.4469 20.2542 16.7938 18.5236 18.5244L18.8771 18.8779ZM21.7307 12L22.2307 12C22.2306 11.5962 22.2057 11.1952 22.1588 10.7987L21.6623 10.8574L21.1658 10.9161C21.2083 11.2756 21.2306 11.6373 21.2307 12L21.7307 12ZM21.6623 10.8574L21.7793 10.3713C20.6242 10.0934 19.8186 9.14325 19.8185 8.05956L19.3185 8.05957L18.8185 8.05958C18.8186 9.66768 20.0044 10.9728 21.5453 11.3435L21.6623 10.8574ZM19.3185 8.05957H19.8185C19.8185 7.92343 19.8562 7.71193 19.9454 7.4231C20.0324 7.14137 20.159 6.81537 20.3146 6.4605L19.8566 6.25977L19.3987 6.05903C19.2344 6.43386 19.092 6.79746 18.9899 7.12806C18.89 7.45156 18.8185 7.77511 18.8185 8.05957H19.3185ZM19.8566 6.25977L20.2604 5.9648C19.1545 4.45115 17.6524 3.26741 15.9152 2.54783L15.7238 3.00977L15.5325 3.47171C17.0997 4.12085 18.455 5.18883 19.4529 6.55473L19.8566 6.25977ZM12.0002 13.9551L12.0002 14.4551C12.8233 14.4551 13.8893 14.6216 14.7707 14.7953C15.2069 14.8812 15.5897 14.9672 15.8631 15.0317C15.9998 15.0639 16.1089 15.0907 16.1835 15.1093C16.2208 15.1187 16.2495 15.1259 16.2686 15.1308C16.2782 15.1333 16.2854 15.1351 16.2901 15.1364C16.2924 15.137 16.2941 15.1374 16.2952 15.1377C16.2958 15.1378 16.2961 15.1379 16.2964 15.138C16.2965 15.138 16.2966 15.138 16.2966 15.138C16.2966 15.138 16.2966 15.138 16.2966 15.138C16.2966 15.138 16.2966 15.138 16.423 14.6543C16.5495 14.1706 16.5495 14.1705 16.5494 14.1705C16.5494 14.1705 16.5493 14.1705 16.5492 14.1705C16.5491 14.1705 16.5489 14.1704 16.5487 14.1704C16.5483 14.1702 16.5477 14.1701 16.547 14.1699C16.5455 14.1695 16.5433 14.1689 16.5406 14.1682C16.535 14.1668 16.527 14.1647 16.5165 14.1621C16.4956 14.1567 16.4651 14.149 16.4259 14.1392C16.3474 14.1196 16.234 14.0917 16.0926 14.0584C15.8101 13.9918 15.415 13.903 14.9641 13.8141C14.0713 13.6382 12.9258 13.4551 12.0002 13.4551L12.0002 13.9551ZM16.423 14.6543L16.3233 15.1443C16.3234 15.1443 16.3233 15.1442 16.3232 15.1442C16.3232 15.1442 16.3231 15.1442 16.3231 15.1442C16.3231 15.1442 16.3231 15.1442 16.3232 15.1442C16.3235 15.1443 16.3242 15.1444 16.3252 15.1447C16.3273 15.1451 16.3309 15.1459 16.3358 15.147C16.3456 15.1491 16.3605 15.1526 16.3792 15.1572C16.4171 15.1666 16.4678 15.1803 16.5214 15.1977C16.5761 15.2155 16.6258 15.2346 16.6646 15.2533C16.7095 15.275 16.7116 15.2828 16.6955 15.2666L17.049 14.9131L17.4026 14.5595C17.3039 14.4609 17.187 14.3951 17.0998 14.3529C17.0064 14.3079 16.9108 14.2728 16.8303 14.2466C16.7485 14.22 16.674 14.2 16.6199 14.1866C16.5926 14.1798 16.5698 14.1746 16.5532 14.1709C16.5448 14.169 16.538 14.1675 16.5328 14.1664C16.5302 14.1659 16.528 14.1654 16.5263 14.1651C16.5254 14.1649 16.5247 14.1647 16.524 14.1646C16.5237 14.1645 16.5234 14.1645 16.5232 14.1644C16.5231 14.1644 16.523 14.1644 16.5229 14.1644C16.5229 14.1644 16.5228 14.1644 16.5228 14.1643C16.5228 14.1643 16.5227 14.1643 16.5227 14.1643L16.423 14.6543ZM17.049 14.9131L16.6953 15.2665C16.7672 15.3384 16.8077 15.4362 16.8078 15.5383L17.3078 15.5381L17.8078 15.5378C17.8076 15.1712 17.6621 14.8193 17.4027 14.5597L17.049 14.9131ZM17.3078 15.5381H16.8078C16.8078 15.6406 16.767 15.7389 16.6953 15.8106L17.049 16.1641L17.4027 16.5175C17.6625 16.2575 17.8078 15.9046 17.8078 15.5381H17.3078ZM17.049 16.1641L16.6955 15.8105C16.6238 15.8821 16.5258 15.9229 16.423 15.9229V16.4229V16.9229C16.7895 16.9229 17.1424 16.7778 17.4026 16.5176L17.049 16.1641ZM16.423 16.4229L16.5494 15.9391C16.5424 15.9373 13.8181 15.2237 12.0002 15.2236L12.0002 15.7236L12.0002 16.2236C13.6666 16.2237 16.2635 16.898 16.2967 16.9066L16.423 16.4229ZM12.0002 15.7236V15.2236C10.1897 15.2236 7.48016 15.9315 7.45115 15.939L7.57733 16.4229L7.70351 16.9067C7.7585 16.8923 10.3409 16.2236 12.0002 16.2236V15.7236ZM7.57733 16.4229V15.9229C7.4746 15.9229 7.37653 15.8821 7.30491 15.8105L6.95135 16.1641L6.5978 16.5176C6.85798 16.7778 7.21083 16.9229 7.57733 16.9229V16.4229ZM6.95135 16.1641L7.30491 15.8105C7.23329 15.7389 7.19257 15.6408 7.19257 15.5381H6.69257H6.19257C6.19257 15.9046 6.33763 16.2574 6.5978 16.5176L6.95135 16.1641ZM6.69257 15.5381L7.19257 15.5383C7.19262 15.436 7.23312 15.3384 7.30493 15.2666L6.95135 14.9131L6.59778 14.5595C6.33804 14.8193 6.19276 15.1713 6.19257 15.5378L6.69257 15.5381ZM6.95135 14.9131L7.30491 15.2666C7.30498 15.2666 7.31071 15.2561 7.38086 15.2345C7.42343 15.2214 7.45992 15.2125 7.53054 15.1932C7.59337 15.176 7.67066 15.1536 7.75436 15.1219L7.57733 14.6543L7.40031 14.1867C7.36036 14.2018 7.31832 14.2145 7.26652 14.2286C7.22251 14.2407 7.14907 14.2595 7.08679 14.2787C6.94724 14.3216 6.76363 14.3937 6.5978 14.5595L6.95135 14.9131ZM7.57733 14.6543L7.75435 15.1219C9.31096 14.5327 10.2826 14.4551 12.0002 14.4551V13.9551V13.4551C10.2204 13.4551 9.1144 13.5378 7.40031 14.1867L7.57733 14.6543ZM8.2785 8.4873L8.18078 8.97766C8.34067 9.00953 8.4878 9.08827 8.60366 9.20414L8.95721 8.85059L9.31077 8.49703C9.05571 8.24198 8.73076 8.0676 8.37623 7.99695L8.2785 8.4873ZM8.95721 8.85059L8.60364 9.20412C8.71956 9.32005 8.79829 9.46714 8.83013 9.62698L9.3205 9.5293L9.81086 9.43162C9.74022 9.07698 9.56579 8.75208 9.31079 8.49705L8.95721 8.85059ZM9.3205 9.5293L8.8301 9.62684C8.86204 9.78739 8.84571 9.9539 8.7833 10.1047L9.2453 10.2959L9.7073 10.4871C9.84548 10.1532 9.88129 9.78571 9.81089 9.43175L9.3205 9.5293ZM9.2453 10.2959L8.78336 10.1046C8.72092 10.2553 8.61457 10.3848 8.47826 10.4759L8.75604 10.8916L9.03383 11.3073C9.33394 11.1068 9.56881 10.8214 9.70724 10.4872L9.2453 10.2959ZM8.75604 10.8916L8.47831 10.4758C8.34231 10.5667 8.18222 10.6152 8.01874 10.6152V11.1152V11.6152C8.38003 11.6152 8.73341 11.508 9.03378 11.3074L8.75604 10.8916ZM8.01874 11.1152L8.01891 10.6152C7.79989 10.6152 7.58991 10.5281 7.43477 10.373L7.08124 10.7266L6.7277 11.0801C7.07004 11.4224 7.53411 11.6151 8.01857 11.6152L8.01874 11.1152ZM7.08124 10.7266L7.43479 10.373C7.27975 10.218 7.19257 10.0075 7.19257 9.78809H6.69257H6.19257C6.19257 10.2726 6.38503 10.7375 6.72768 11.0801L7.08124 10.7266ZM6.69257 9.78809L7.19257 9.78825C7.19262 9.62509 7.24106 9.46559 7.33197 9.32948L6.9162 9.05176L6.50042 8.77403C6.30003 9.07405 6.19268 9.42663 6.19257 9.78792L6.69257 9.78809ZM6.9162 9.05176L7.33193 9.32954C7.42335 9.19273 7.55238 9.08658 7.7024 9.02438L7.51093 8.5625L7.31945 8.10062C6.98485 8.23933 6.70051 8.47458 6.50046 8.77397L6.9162 9.05176ZM7.51093 8.5625L7.70227 9.02444C7.85287 8.96206 8.02002 8.94568 8.18096 8.9777L8.2785 8.4873L8.37605 7.99691C8.02219 7.92652 7.65391 7.96208 7.31958 8.10056L7.51093 8.5625ZM15.9807 8.46191V8.96191C16.2 8.96191 16.4105 9.0491 16.5656 9.20414L16.9191 8.85059L17.2727 8.49703C16.93 8.15438 16.4651 7.96191 15.9807 7.96191V8.46191ZM16.9191 8.85059L16.5655 9.20406C16.7206 9.35926 16.8077 9.56938 16.8078 9.78825L17.3078 9.78809L17.8078 9.78793C17.8076 9.30346 17.6148 8.83936 17.2728 8.49712L16.9191 8.85059ZM17.3078 9.78809H16.8078C16.8078 9.95148 16.7592 10.1117 16.6684 10.2477L17.0842 10.5254L17.5 10.8031C17.7005 10.5028 17.8078 10.1494 17.8078 9.78809H17.3078ZM17.0842 10.5254L16.6684 10.2476C16.5774 10.3839 16.4479 10.4903 16.2971 10.5527L16.4885 11.0146L16.6798 11.4766C17.014 11.3382 17.2994 11.1033 17.4999 10.8032L17.0842 10.5254ZM16.4885 11.0146L16.2972 10.5527C16.1464 10.6151 15.9801 10.6314 15.8194 10.5995L15.7219 11.0898L15.6243 11.5802C15.9783 11.6506 16.3457 11.6149 16.6797 11.4766L16.4885 11.0146ZM15.7219 11.0898L15.8194 10.5995C15.659 10.5675 15.5113 10.4886 15.3957 10.373L15.0422 10.7266L14.6886 11.0801C14.9441 11.3356 15.27 11.5097 15.6243 11.5802L15.7219 11.0898ZM15.0422 10.7266L15.3958 10.3731C15.2799 10.2571 15.2011 10.1098 15.1693 9.95017L14.6789 10.0479L14.1885 10.1455C14.2592 10.5001 14.4338 10.8251 14.6885 11.08L15.0422 10.7266ZM14.6789 10.0479L15.1693 9.95031C15.1375 9.79064 15.1541 9.62342 15.217 9.47161L14.7551 9.28027L14.2931 9.08893C14.1551 9.42205 14.1179 9.79026 14.1885 10.1454L14.6789 10.0479ZM14.7551 9.28027L15.2169 9.47179C15.2794 9.32103 15.3853 9.19209 15.5212 9.1012L15.2433 8.68555L14.9654 8.26989C14.6655 8.4704 14.4315 8.75521 14.2932 9.08876L14.7551 9.28027ZM15.2433 8.68555L15.5211 9.10128C15.657 9.01047 15.8171 8.96193 15.9807 8.96191L15.9807 8.46191L15.9806 7.96191C15.6194 7.96195 15.266 8.06905 14.9656 8.26981L15.2433 8.68555Z" fill="#FFC700"/>
</svg>
