<svg width="21" height="21" viewBox="0 0 21 21" fill="none" xmlns="http://www.w3.org/2000/svg">
<circle cx="10.5" cy="10.5" r="10.5" fill="#2684B8"/>
<path d="M10.5 6V5V6ZM14 9.5H15V9.49986L14 9.5ZM13.4131 11.5566L14.2494 12.1049L14.2495 12.1048L13.4131 11.5566ZM10.5 16L9.6817 16.5748C9.87219 16.846 10.1847 17.0052 10.516 16.9999C10.8474 16.9946 11.1546 16.8254 11.3363 16.5483L10.5 16ZM7.69238 12.0029L6.87402 12.5776L6.87408 12.5777L7.69238 12.0029ZM10.5 6V7C11.8804 7 12.9998 8.11941 13 9.50014L14 9.5L15 9.49986C14.9997 7.01505 12.9853 5 10.5 5V6ZM14 9.5H13V9.58887H14H15V9.5H14ZM14 9.58887H13C13 10.0934 12.8528 10.5872 12.5767 11.0085L13.4131 11.5566L14.2495 12.1048C14.7395 11.357 15 10.4821 15 9.58887H14ZM13.4131 11.5566L12.5768 11.0084L9.6637 15.4517L10.5 16L11.3363 16.5483L14.2494 12.1049L13.4131 11.5566ZM10.5 16L11.3183 15.4252L8.51068 11.4281L7.69238 12.0029L6.87408 12.5777L9.6817 16.5748L10.5 16ZM7.69238 12.0029L8.51074 11.4282C8.1785 10.9551 8 10.39 8 9.81152H7H6C6 10.801 6.30513 11.7676 6.87402 12.5776L7.69238 12.0029ZM7 9.81152H8V9.50098H7H6V9.81152H7ZM7 9.50098H8C8 8.1199 9.11965 7 10.5 7V6V5C8.01436 5 6 7.01606 6 9.50098H7Z" fill="black"/>
<circle cx="10.5" cy="9.5" r="1" fill="black"/>
</svg>
