<svg width="24" height="24" viewBox="0 0 24 24" fill="none" xmlns="http://www.w3.org/2000/svg">
<path d="M12.0001 0.5C15.0489 0.50322 17.9721 1.71532 20.128 3.87109C22.2839 6.02704 23.4968 8.95103 23.5001 12C23.5 14.2743 22.8251 16.4977 21.5616 18.3887C20.2981 20.2796 18.5025 21.7536 16.4014 22.624C14.3002 23.4944 11.9876 23.722 9.7569 23.2783C7.52614 22.8346 5.47651 21.7391 3.86823 20.1309C2.2601 18.5226 1.16447 16.4738 0.720764 14.2432C0.277039 12.0124 0.505639 9.69996 1.37604 7.59863C2.24645 5.49739 3.7203 3.70108 5.61139 2.4375C7.50245 1.17401 9.72573 0.500016 12.0001 0.5ZM15.7237 3.00977C13.9457 2.27331 11.9892 2.0806 10.1016 2.45605C8.21414 2.83154 6.48001 3.75833 5.1192 5.11914C3.7585 6.47996 2.83155 8.21413 2.45612 10.1016C2.08078 11.989 2.2734 13.9457 3.00983 15.7236C3.74627 17.5015 4.99385 19.0207 6.59381 20.0898C8.19399 21.159 10.0755 21.7305 12.0001 21.7305C14.5799 21.7275 17.0538 20.7012 18.878 18.877C20.702 17.0529 21.7275 14.5796 21.7305 12C21.7305 10.0755 21.16 8.1939 20.0909 6.59375C19.0217 4.99355 17.5017 3.74626 15.7237 3.00977ZM9.76373 9.60645C10.1079 9.83624 10.2011 10.302 9.97174 10.6465C9.74198 10.9911 9.27537 11.0843 8.93073 10.8545L8.01959 10.2471L7.10944 10.8545C6.76483 11.0842 6.29917 10.991 6.0694 10.6465C5.83971 10.3019 5.93284 9.83621 6.2774 9.60645L8.02057 8.44434L9.76373 9.60645ZM17.7247 9.60645C18.0689 9.83626 18.1622 10.302 17.9327 10.6465C17.7029 10.9911 17.2363 11.0843 16.8917 10.8545L15.9805 10.2471L15.0704 10.8545C14.7258 11.0842 14.2601 10.991 14.0303 10.6465C13.8007 10.3019 13.8938 9.83619 14.2383 9.60645L15.9815 8.44434L17.7247 9.60645Z" fill="#009FF9"/>
<path d="M12.0001 0.5L12.0006 0H12.0001L12.0001 0.5ZM20.128 3.87109L20.4815 3.51754L20.4815 3.51753L20.128 3.87109ZM23.5001 12L24.0001 12V11.9995L23.5001 12ZM21.5616 18.3887L21.9773 18.6665L21.9773 18.6665L21.5616 18.3887ZM16.4014 22.624L16.5928 23.086L16.5928 23.086L16.4014 22.624ZM9.7569 23.2783L9.65935 23.7687L9.65936 23.7687L9.7569 23.2783ZM3.86823 20.1309L3.51466 20.4844L3.51467 20.4844L3.86823 20.1309ZM0.720764 14.2432L0.230372 14.3407L0.230372 14.3407L0.720764 14.2432ZM1.37604 7.59863L0.914101 7.40728L0.914098 7.40729L1.37604 7.59863ZM5.61139 2.4375L5.33362 2.02176L5.3336 2.02177L5.61139 2.4375ZM15.7237 3.00977L15.915 2.54783L15.915 2.54782L15.7237 3.00977ZM10.1016 2.45605L10.0041 1.96566L10.0041 1.96566L10.1016 2.45605ZM5.1192 5.11914L4.76565 4.76559L4.76563 4.7656L5.1192 5.11914ZM2.45612 10.1016L1.96572 10.004L1.96572 10.004L2.45612 10.1016ZM3.00983 15.7236L2.54789 15.915L2.54789 15.915L3.00983 15.7236ZM6.59381 20.0898L6.31601 20.5056L6.31603 20.5056L6.59381 20.0898ZM12.0001 21.7305L12.0001 22.2305H12.0006L12.0001 21.7305ZM18.878 18.877L19.2315 19.2305L19.2316 19.2305L18.878 18.877ZM21.7305 12L22.2305 12.0006V12H21.7305ZM20.0909 6.59375L20.5066 6.31598L20.5066 6.31596L20.0909 6.59375ZM9.76373 9.60645L10.0413 9.1906L10.0411 9.19042L9.76373 9.60645ZM9.97174 10.6465L10.3878 10.9238L10.3879 10.9236L9.97174 10.6465ZM8.93073 10.8545L8.65337 11.2705L8.65338 11.2705L8.93073 10.8545ZM8.01959 10.2471L8.29694 9.83105L8.01944 9.64605L7.74204 9.83118L8.01959 10.2471ZM7.10944 10.8545L7.38674 11.2705L7.38699 11.2704L7.10944 10.8545ZM6.0694 10.6465L5.65334 10.9238L5.65342 10.9239L6.0694 10.6465ZM6.2774 9.60645L6.00005 9.19042L6.00001 9.19045L6.2774 9.60645ZM8.02057 8.44434L8.29792 8.02831L8.02057 7.84341L7.74322 8.02831L8.02057 8.44434ZM17.7247 9.60645L18.0023 9.1906L18.002 9.19042L17.7247 9.60645ZM17.9327 10.6465L18.3487 10.9238L18.3488 10.9237L17.9327 10.6465ZM16.8917 10.8545L17.169 10.4385L16.8917 10.8545ZM15.9805 10.2471L16.2579 9.83105L15.9804 9.64605L15.703 9.83118L15.9805 10.2471ZM15.0704 10.8545L15.3477 11.2705L15.3479 11.2704L15.0704 10.8545ZM14.0303 10.6465L13.6142 10.9237L13.6144 10.9239L14.0303 10.6465ZM14.2383 9.60645L13.961 9.19042L13.9609 9.19045L14.2383 9.60645ZM15.9815 8.44434L16.2589 8.02831L15.9815 7.84341L15.7042 8.02831L15.9815 8.44434ZM12.0001 0.5L11.9995 1C14.916 1.00308 17.7122 2.16256 19.7745 4.22466L20.128 3.87109L20.4815 3.51753C18.2319 1.26809 15.1818 0.00335968 12.0006 2.68221e-07L12.0001 0.5ZM20.128 3.87109L19.7744 4.22465C21.8367 6.28695 22.997 9.08398 23.0001 12.0005L23.5001 12L24.0001 11.9995C23.9967 8.81809 22.7311 5.76713 20.4815 3.51754L20.128 3.87109ZM23.5001 12L23.0001 12C23 14.1753 22.3545 16.3021 21.1458 18.1109L21.5616 18.3887L21.9773 18.6665C23.2958 16.6933 24 14.3732 24.0001 12L23.5001 12ZM21.5616 18.3887L21.1459 18.1109C19.9372 19.9196 18.2197 21.3296 16.2101 22.1621L16.4014 22.624L16.5928 23.086C18.7852 22.1777 20.6589 20.6395 21.9773 18.6665L21.5616 18.3887ZM16.4014 22.624L16.2101 22.1621C14.2002 22.9946 11.9882 23.2123 9.85443 22.7879L9.7569 23.2783L9.65936 23.7687C11.987 24.2317 14.4001 23.9942 16.5928 23.086L16.4014 22.624ZM9.7569 23.2783L9.85444 22.7879C7.72066 22.3635 5.76013 21.3157 4.22178 19.7773L3.86823 20.1309L3.51467 20.4844C5.19289 22.1626 7.33162 23.3057 9.65935 23.7687L9.7569 23.2783ZM3.86823 20.1309L4.22179 19.7773C2.68354 18.239 1.63555 16.2792 1.21116 14.1456L0.720764 14.2432L0.230372 14.3407C0.693382 16.6684 1.83667 18.8063 3.51466 20.4844L3.86823 20.1309ZM0.720764 14.2432L1.21116 14.1456C0.78675 12.012 1.00537 9.80006 1.83798 7.78997L1.37604 7.59863L0.914098 7.40729C0.0059056 9.59986 -0.232672 12.0128 0.230372 14.3407L0.720764 14.2432ZM1.37604 7.59863L1.83797 7.78998C2.67055 5.78006 4.08035 4.06185 5.88917 2.85323L5.61139 2.4375L5.3336 2.02177C3.36026 3.34031 1.82234 5.21472 0.914101 7.40728L1.37604 7.59863ZM5.61139 2.4375L5.88916 2.85324C7.69796 1.64472 9.82456 1.00002 12.0001 1L12.0001 0.5L12.0001 0C9.62691 1.65999e-05 7.30695 0.703294 5.33362 2.02176L5.61139 2.4375ZM15.7237 3.00977L15.915 2.54782C14.0457 1.77353 11.9886 1.57092 10.0041 1.96566L10.1016 2.45605L10.1992 2.94645C11.9897 2.59029 13.8457 2.77309 15.5324 3.47171L15.7237 3.00977ZM10.1016 2.45605L10.0041 1.96566C8.01962 2.36044 6.1964 3.33484 4.76565 4.76559L5.1192 5.11914L5.47275 5.47269C6.76363 4.18182 8.40866 3.30264 10.1992 2.94645L10.1016 2.45605ZM5.1192 5.11914L4.76563 4.7656C3.33502 6.19633 2.36045 8.01959 1.96572 10.004L2.45612 10.1016L2.94651 10.1991C3.30265 8.40867 4.18198 6.76358 5.47277 5.47268L5.1192 5.11914ZM2.45612 10.1016L1.96572 10.004C1.5711 11.9884 1.7736 14.0457 2.54789 15.915L3.00983 15.7236L3.47177 15.5323C2.77319 13.8458 2.59046 11.9896 2.94651 10.1991L2.45612 10.1016ZM3.00983 15.7236L2.54789 15.915C3.32222 17.7843 4.63393 19.3815 6.31601 20.5056L6.59381 20.0898L6.87162 19.6741C5.35377 18.6598 4.17032 17.2187 3.47176 15.5323L3.00983 15.7236ZM6.59381 20.0898L6.31603 20.5056C7.99833 21.6297 9.97654 22.2305 12.0001 22.2305L12.0001 21.7305L12.0001 21.2305C10.1746 21.2305 8.38964 20.6884 6.8716 19.6741L6.59381 20.0898ZM12.0001 21.7305L12.0006 22.2305C14.7129 22.2274 17.3137 21.1484 19.2315 19.2305L18.878 18.877L18.5244 18.5234C16.7938 20.254 14.4469 21.2277 11.9995 21.2305L12.0001 21.7305ZM18.878 18.877L19.2316 19.2305C21.1492 17.3127 22.2273 14.7125 22.2305 12.0006L21.7305 12L21.2305 11.9994C21.2276 14.4467 20.2547 16.793 18.5244 18.5234L18.878 18.877ZM21.7305 12H22.2305C22.2305 9.9767 21.6307 7.99839 20.5066 6.31598L20.0909 6.59375L19.6751 6.87152C20.6893 8.38942 21.2305 10.1744 21.2305 12H21.7305ZM20.0909 6.59375L20.5066 6.31596C19.3825 4.63353 17.7844 3.32216 15.915 2.54783L15.7237 3.00977L15.5324 3.47171C17.219 4.17036 18.6609 5.35357 19.6751 6.87154L20.0909 6.59375ZM9.76373 9.60645L9.48612 10.0223C9.60093 10.0989 9.63199 10.2546 9.55558 10.3693L9.97174 10.6465L10.3879 10.9236C10.7703 10.3494 10.615 9.57353 10.0413 9.1906L9.76373 9.60645ZM9.97174 10.6465L9.55572 10.3691C9.47926 10.4838 9.32315 10.5152 9.20807 10.4385L8.93073 10.8545L8.65338 11.2705C9.22759 11.6533 10.0047 11.4984 10.3878 10.9238L9.97174 10.6465ZM8.93073 10.8545L9.20808 10.4385L8.29694 9.83105L8.01959 10.2471L7.74224 10.6631L8.65337 11.2705L8.93073 10.8545ZM8.01959 10.2471L7.74204 9.83118L6.83188 10.4386L7.10944 10.8545L7.38699 11.2704L8.29715 10.663L8.01959 10.2471ZM7.10944 10.8545L6.83213 10.4384C6.7173 10.515 6.56199 10.4839 6.48537 10.3691L6.0694 10.6465L5.65342 10.9239C6.03636 11.4981 6.81237 11.6534 7.38674 11.2705L7.10944 10.8545ZM6.0694 10.6465L6.48546 10.3692C6.40889 10.2543 6.43995 10.099 6.5548 10.0224L6.2774 9.60645L6.00001 9.19045C5.42574 9.5734 5.27053 10.3494 5.65334 10.9238L6.0694 10.6465ZM6.2774 9.60645L6.55475 10.0225L8.29792 8.86036L8.02057 8.44434L7.74322 8.02831L6.00005 9.19042L6.2774 9.60645ZM8.02057 8.44434L7.74322 8.86036L9.48638 10.0225L9.76373 9.60645L10.0411 9.19042L8.29792 8.02831L8.02057 8.44434ZM17.7247 9.60645L17.4471 10.0223C17.562 10.099 17.5929 10.2546 17.5166 10.3693L17.9327 10.6465L18.3488 10.9237C18.7314 10.3494 18.5759 9.57351 18.0023 9.1906L17.7247 9.60645ZM17.9327 10.6465L17.5167 10.3691C17.4402 10.4838 17.2841 10.5152 17.169 10.4385L16.8917 10.8545L16.6143 11.2705C17.1885 11.6533 17.9656 11.4984 18.3487 10.9238L17.9327 10.6465ZM16.8917 10.8545L17.169 10.4385L16.2579 9.83105L15.9805 10.2471L15.7032 10.6631L16.6143 11.2705L16.8917 10.8545ZM15.9805 10.2471L15.703 9.83118L14.7928 10.4386L15.0704 10.8545L15.3479 11.2704L16.2581 10.663L15.9805 10.2471ZM15.0704 10.8545L14.7931 10.4384C14.6782 10.515 14.5229 10.4839 14.4463 10.3691L14.0303 10.6465L13.6144 10.9239C13.9973 11.4981 14.7733 11.6534 15.3477 11.2705L15.0704 10.8545ZM14.0303 10.6465L14.4464 10.3692C14.3698 10.2543 14.401 10.099 14.5157 10.0224L14.2383 9.60645L13.9609 9.19045C13.3866 9.57341 13.2316 10.3495 13.6142 10.9237L14.0303 10.6465ZM14.2383 9.60645L14.5157 10.0225L16.2589 8.86036L15.9815 8.44434L15.7042 8.02831L13.961 9.19042L14.2383 9.60645ZM15.9815 8.44434L15.7042 8.86036L17.4473 10.0225L17.7247 9.60645L18.002 9.19042L16.2589 8.02831L15.9815 8.44434Z" fill="#009FF9"/>
<path d="M18.2729 14.0903C18.2729 16.5036 16.5274 18.5567 14.0911 19.3175C14.0911 19.3175 13.5684 19.5725 12.0003 19.5725C10.4321 19.5725 9.90937 19.3069 9.90937 19.3175C7.47309 18.5567 5.7276 16.5036 5.7276 14.0903C5.7276 14.0903 8.53597 15.0684 12.0003 15.0684C15.4646 15.0684 18.2729 14.0903 18.2729 14.0903Z" fill="#009FF9"/>
</svg>
