<svg width="16" height="16" viewBox="0 0 16 16" fill="none" xmlns="http://www.w3.org/2000/svg">
<path d="M1 2C1 1.44771 1.44772 1 2 1H11C11.5523 1 12 1.44772 12 2V11C12 11.5523 11.5523 12 11 12H2C1.44771 12 1 11.5523 1 11V2Z" fill="black"/>
<path d="M3 10L5.5 6L7.5 8L10 4M2 12H11C11.5523 12 12 11.5523 12 11V2C12 1.44772 11.5523 1 11 1H2C1.44772 1 1 1.44771 1 2V11C1 11.5523 1.44771 12 2 12Z" stroke="#C1C1C1" stroke-width="2"/>
<path d="M14 6C14.5523 6 15 6.44772 15 7V14C15 14.5523 14.5523 15 14 15H7C6.44772 15 6 14.5523 6 14" stroke="#C1C1C1" stroke-width="2"/>
</svg>
