<svg width="24" height="24" viewBox="0 0 24 24" fill="none" xmlns="http://www.w3.org/2000/svg">
<path d="M12 0.5C9.72552 0.5 7.50211 1.17446 5.61095 2.4381C3.71978 3.70174 2.2458 5.49779 1.37539 7.59914C0.504983 9.70049 0.277244 12.0128 0.720974 14.2435C1.1647 16.4743 2.25997 18.5234 3.86828 20.1317C5.47658 21.74 7.52568 22.8353 9.75646 23.279C11.9872 23.7228 14.2995 23.495 16.4009 22.6246C18.5022 21.7542 20.2983 20.2802 21.5619 18.3891C22.8255 16.4979 23.5 14.2745 23.5 12C23.4968 8.951 22.2841 6.0278 20.1282 3.87183C17.9722 1.71586 15.049 0.50322 12 0.5ZM12 21.7308C10.0754 21.7308 8.19409 21.1601 6.59388 20.0908C4.99366 19.0216 3.74644 17.5019 3.00995 15.7238C2.27345 13.9457 2.08075 11.9892 2.45621 10.1016C2.83167 8.21404 3.75844 6.48018 5.11931 5.11931C6.48018 3.75843 8.21404 2.83167 10.1016 2.4562C11.9892 2.08074 13.9457 2.27344 15.7238 3.00994C17.5019 3.74644 19.0216 4.99366 20.0908 6.59387C21.1601 8.19409 21.7308 10.0754 21.7308 12C21.7278 14.5799 20.7017 17.0532 18.8775 18.8775C17.0532 20.7017 14.5799 21.7278 12 21.7308ZM6.69231 9.78846C6.69231 9.52602 6.77013 9.26947 6.91594 9.05126C7.06174 8.83305 7.26898 8.66297 7.51144 8.56254C7.75391 8.46211 8.02071 8.43583 8.2781 8.48703C8.5355 8.53823 8.77194 8.66461 8.95751 8.85018C9.14308 9.03576 9.26946 9.27219 9.32066 9.52959C9.37186 9.78699 9.34558 10.0538 9.24515 10.2963C9.14472 10.5387 8.97464 10.746 8.75643 10.8918C8.53822 11.0376 8.28167 11.1154 8.01923 11.1154C7.66731 11.1154 7.3298 10.9756 7.08096 10.7267C6.83211 10.4779 6.69231 10.1404 6.69231 9.78846ZM17.3077 9.78846C17.3077 10.0509 17.2299 10.3074 17.0841 10.5257C16.9383 10.7439 16.731 10.9139 16.4886 11.0144C16.2461 11.1148 15.9793 11.1411 15.7219 11.0899C15.4645 11.0387 15.2281 10.9123 15.0425 10.7267C14.8569 10.5412 14.7305 10.3047 14.6793 10.0473C14.6281 9.78993 14.6544 9.52313 14.7549 9.28067C14.8553 9.0382 15.0254 8.83097 15.2436 8.68516C15.4618 8.53936 15.7183 8.46154 15.9808 8.46154C16.3327 8.46154 16.6702 8.60134 16.919 8.85018C17.1679 9.09903 17.3077 9.43654 17.3077 9.78846ZM17.1894 15.0962C16.0515 17.0633 14.1596 18.1923 12 18.1923C9.84044 18.1923 7.94957 17.0644 6.81173 15.0962C6.74773 14.9955 6.70475 14.8829 6.68539 14.7651C6.66602 14.6474 6.67068 14.527 6.69906 14.4111C6.72745 14.2952 6.77898 14.1863 6.85055 14.0908C6.92213 13.9954 7.01228 13.9154 7.11557 13.8557C7.21887 13.796 7.33317 13.7578 7.45161 13.7434C7.57004 13.729 7.69017 13.7388 7.80475 13.772C7.91933 13.8052 8.026 13.8613 8.11835 13.9368C8.2107 14.0124 8.28682 14.1058 8.34212 14.2115C9.16813 15.6391 10.4663 16.4231 12 16.4231C13.5337 16.4231 14.8319 15.638 15.6568 14.2115C15.7741 14.0083 15.9673 13.86 16.194 13.7992C16.4206 13.7385 16.6622 13.7702 16.8654 13.8875C17.0686 14.0049 17.2169 14.1981 17.2777 14.4247C17.3385 14.6514 17.3067 14.8929 17.1894 15.0962Z" fill="#24BE86" stroke="#24BE86"/>
</svg>
