<svg width="48" height="16" viewBox="0 0 48 16" fill="none" xmlns="http://www.w3.org/2000/svg">
<rect width="48" height="16" rx="1" fill="#272829"/>
<path d="M27.5039 7.375C27.3281 6.35547 26.5078 5.76953 25.4766 5.76953C24.082 5.76953 23.1094 6.83594 23.1094 8.75781C23.1094 10.7031 24.0938 11.7461 25.4766 11.7461C26.4844 11.7461 27.3047 11.1836 27.5039 10.1875H29.0391C28.8047 11.8164 27.4688 13.1172 25.4531 13.1172C23.2148 13.1172 21.5742 11.4883 21.5742 8.75781C21.5742 6.01562 23.2383 4.39844 25.4531 4.39844C27.3281 4.39844 28.7812 5.48828 29.0391 7.375H27.5039ZM30.3516 13V4.51562H31.875V11.7109H35.625V13H30.3516ZM41.4609 6.84766C41.3906 6.12109 40.7695 5.69922 39.8555 5.69922C38.8945 5.69922 38.3086 6.16797 38.3086 6.80078C38.3086 7.51562 39.0586 7.80859 39.7617 7.97266L40.5586 8.18359C41.8242 8.47656 43.043 9.14453 43.043 10.6211C43.043 12.1094 41.8711 13.1289 39.832 13.1289C37.8516 13.1289 36.6094 12.1797 36.5391 10.5039H38.0391C38.1094 11.3945 38.8594 11.8281 39.8203 11.8281C40.8281 11.8281 41.5195 11.3359 41.5195 10.6094C41.5195 9.94141 40.8984 9.66016 39.9844 9.42578L39.0234 9.17969C37.6289 8.81641 36.7617 8.11328 36.7617 6.89453C36.7617 5.39453 38.0977 4.39844 39.8789 4.39844C41.6836 4.39844 42.9023 5.41797 42.9258 6.84766H41.4609Z" fill="#1EAEFF"/>
<path fill-rule="evenodd" clip-rule="evenodd" d="M6 3.82353C6 3.60512 6.08576 3.39565 6.2384 3.24121C6.39105 3.08676 6.59808 3 6.81395 3H15.1861C15.4019 3 15.609 3.08676 15.7616 3.24121C15.9142 3.39565 16 3.60512 16 3.82353V12.1765C16 12.3949 15.9142 12.6044 15.7616 12.7588C15.609 12.9132 15.4019 13 15.1861 13H6.81395C6.59808 13 6.39105 12.9132 6.2384 12.7588C6.08576 12.6044 6 12.3949 6 12.1765V3.82353ZM15.1861 3.82353H6.81395V5.05882L15.1861 5.05882V3.82353ZM6.81395 12.1765V5.88235H9.13952V12.1765H6.81395ZM9.95347 12.1765H15.1861V5.88235H9.95347L9.95347 12.1765Z" fill="#1EAEFF"/>
</svg>
