<svg width="32" height="32" viewBox="0 0 32 32" fill="none" xmlns="http://www.w3.org/2000/svg">
<rect x="0.5" y="0.5" width="31" height="31" rx="4.5" fill="#36373E" stroke="#6C6E8B"/>
<path d="M19 14H27" stroke="white"/>
<path d="M19 10H27" stroke="white"/>
<path d="M22 18H27" stroke="white"/>
<path d="M12.407 8.5C13.4276 8.5 14.2894 8.85795 15.0183 9.58691C15.747 10.3158 16.1043 11.1769 16.1043 12.1973C16.1043 13.2179 15.7473 14.0796 15.0183 14.8086C14.2894 15.5376 13.4276 15.8945 12.407 15.8945C11.3866 15.8945 10.5255 15.5373 9.79666 14.8086C9.0677 14.0796 8.70975 13.2179 8.70975 12.1973C8.70977 11.1767 9.06773 10.3159 9.79666 9.58691C10.5256 8.85797 11.3864 8.50002 12.407 8.5Z" fill="#7277FF" stroke="#7277FF"/>
<path d="M12.5 18.5C13.4876 18.4994 14.4707 18.6235 15.4277 18.8721C15.6333 18.9255 17.1691 19.3841 18.2607 19.9873C18.6284 20.1905 18.9265 20.4865 19.1572 20.8877C19.3853 21.2844 19.5005 21.7181 19.5 22.1992V24.5H5.5V22.2002C5.5 21.718 5.61566 21.2838 5.84375 20.8877C6.07312 20.4894 6.36907 20.195 6.7334 19.9912C7.66783 19.4921 8.61363 19.1195 9.57129 18.8721C10.5286 18.6247 11.5121 18.5007 12.5 18.5Z" fill="#7277FF" stroke="#7277FF"/>
</svg>
