<svg width="21" height="21" viewBox="0 0 21 21" fill="none" xmlns="http://www.w3.org/2000/svg">
<circle cx="10.5" cy="10.5" r="10.5" fill="#6F73AE"/>
<mask id="mask0_682_564" style="mask-type:alpha" maskUnits="userSpaceOnUse" x="0" y="0" width="21" height="21">
<circle cx="10.5" cy="10.5" r="10.5" fill="#B5B7D8"/>
</mask>
<g mask="url(#mask0_682_564)">
<circle cx="14.5" cy="19.5" r="10.5" stroke="black" stroke-width="1.5"/>
<ellipse cx="14.5" cy="17" rx="3.5" ry="8" stroke="black" stroke-width="1.5"/>
<path d="M6 13C6 15.2091 9.58172 17 14 17C18.4183 17 22 15.2091 22 13" stroke="black" stroke-width="1.5"/>
</g>
<mask id="path-6-outside-1_682_564" maskUnits="userSpaceOnUse" x="4" y="2" width="10" height="13" fill="black">
<rect fill="white" x="4" y="2" width="10" height="13"/>
<path d="M9 4C10.645 4 12 5.33352 12 6.97852C12 7.48154 11.8728 7.97651 11.6299 8.41699L9 13.1836L6.44922 8.86719C6.15552 8.37022 6.00009 7.80382 6 7.22656V7C6.00002 5.34316 7.34316 4.00002 9 4Z"/>
</mask>
<path d="M9 4C10.645 4 12 5.33352 12 6.97852C12 7.48154 11.8728 7.97651 11.6299 8.41699L9 13.1836L6.44922 8.86719C6.15552 8.37022 6.00009 7.80382 6 7.22656V7C6.00002 5.34316 7.34316 4.00002 9 4Z" fill="black"/>
<path d="M9 4V2.2H8.99998L9 4ZM12 6.97852H13.8L13.8 6.97847L12 6.97852ZM11.6299 8.41699L13.2059 9.28654L13.2061 9.2862L11.6299 8.41699ZM9 13.1836L7.45036 14.0994C7.77905 14.6556 8.38061 14.9929 9.02661 14.9834C9.6726 14.9738 10.2639 14.6188 10.576 14.0531L9 13.1836ZM6.44922 8.86719L7.99886 7.95143L7.99883 7.95138L6.44922 8.86719ZM6 7.22656H4.2V7.22683L6 7.22656ZM6 7L4.2 6.99998V7H6ZM9 4V5.8C9.66772 5.8 10.2 6.34438 10.2 6.97856L12 6.97852L13.8 6.97847C13.7999 4.32266 11.6223 2.2 9 2.2V4ZM12 6.97852H10.2C10.2 7.17808 10.1495 7.37395 10.0537 7.54778L11.6299 8.41699L13.2061 9.2862C13.5961 8.57906 13.8 7.785 13.8 6.97852H12ZM11.6299 8.41699L10.0538 7.54744L7.42396 12.314L9 13.1836L10.576 14.0531L13.2059 9.28654L11.6299 8.41699ZM9 13.1836L10.5496 12.2678L7.99886 7.95143L6.44922 8.86719L4.89958 9.78295L7.45036 14.0994L9 13.1836ZM6.44922 8.86719L7.99883 7.95138C7.86844 7.73075 7.80004 7.48037 7.8 7.22629L6 7.22656L4.2 7.22683C4.20014 8.12728 4.44259 9.0097 4.89961 9.783L6.44922 8.86719ZM6 7.22656H7.8V7H6H4.2V7.22656H6ZM6 7L7.8 7.00002C7.80001 6.33727 8.33727 5.80001 9.00002 5.8L9 4L8.99998 2.2C6.34904 2.20004 4.20003 4.34904 4.2 6.99998L6 7Z" fill="#6F73AE" mask="url(#path-6-outside-1_682_564)"/>
<circle cx="9" cy="7" r="1" fill="#6F73AE"/>
</svg>
