<svg width="69" height="16" viewBox="0 0 69 16" fill="none" xmlns="http://www.w3.org/2000/svg">
<rect width="69" height="16" rx="1" fill="#272829"/>

<path d="M21.9238 4.92969V12H20.6543V4.92969H21.9238ZM29.0527 4.92969V12H27.9199L24.5703 7.16602H24.5117V12H23.2422V4.92969H24.3945L27.7246 9.76367H27.793V4.92969H29.0527ZM30.3613 12V4.92969H33.0176C34.6387 4.92969 35.5078 5.91602 35.5078 7.27344C35.5078 8.63086 34.6289 9.60742 32.998 9.60742H31.6309V12H30.3613ZM31.6309 8.5625H32.8223C33.7793 8.5625 34.209 8.02539 34.209 7.27344C34.209 6.51172 33.7793 5.99414 32.8223 5.99414H31.6309V8.5625ZM36.6992 9.30469C36.6992 7.46875 37.2461 5.93555 38.1641 4.62695H39.3359C38.6621 5.59375 37.9883 7.55664 37.9883 9.30469C37.9883 11.0527 38.6621 13.0156 39.3359 13.9922H38.1641C37.2461 12.6738 36.6992 11.1504 36.6992 9.30469ZM40.2734 12V4.92969H44.8047V5.99414H41.543V7.92773H44.4922V8.99219H41.543V12H40.2734ZM47.1484 4.92969V12H45.8789V4.92969H47.1484ZM50.8691 12H48.4668V4.92969H50.9082C53.0176 4.92969 54.2969 6.25781 54.2969 8.45508C54.2969 10.6621 53.0176 12 50.8691 12ZM49.7363 10.8965H50.8008C52.2754 10.8965 53.0273 10.0859 53.0273 8.45508C53.0273 6.83398 52.2754 6.0332 50.8398 6.0332H49.7363V10.8965ZM57.6855 9.30469C57.6855 11.1504 57.1387 12.6738 56.2207 13.9922H55.0488C55.7227 13.0156 56.3965 11.0527 56.3965 9.30469C56.3965 7.55664 55.7227 5.59375 55.0488 4.62695H56.2207C57.1387 5.93555 57.6855 7.46875 57.6855 9.30469Z" fill="#24be86"/>
<path d="M15.6522 3.00009L6.34787 3C6.15548 3 6.00005 3.15818 6.00005 3.35398L6 12.646C6 12.8418 6.15543 12.9999 6.34783 12.9999L15.6521 13C15.8445 13 16 12.8418 16 12.646L16 3.35407C16 3.15827 15.8446 3.00009 15.6522 3.00009ZM15.2173 12.2036L6.78261 12.2035L6.78266 3.79646L15.2174 3.79654L15.2173 12.2036ZM8.44353 8.26546H8.99461C9.03483 8.26546 9.06853 8.23227 9.06853 8.19024V6.96347C9.06853 6.74555 9.24135 6.56967 9.4544 6.56967H12.4348V7.16038C12.4348 7.22343 12.5054 7.25772 12.5533 7.219L13.7391 6.271C13.7772 6.24113 13.7772 6.1825 13.7391 6.15264L12.5533 5.20463C12.5054 5.16592 12.4348 5.20132 12.4348 5.26326V5.85397H9.45331C8.8544 5.85397 8.36961 6.34954 8.36961 6.96126V8.18802C8.36961 8.23227 8.40222 8.26546 8.44353 8.26546ZM8.39787 9.78655L9.58374 10.7346C9.63157 10.7733 9.70222 10.7379 9.70222 10.6759V10.0852H12.5685C13.1674 10.0852 13.6522 9.58965 13.6522 8.97793V7.75117C13.6522 7.71024 13.6196 7.67595 13.5783 7.67595H13.0272C12.987 7.67595 12.9533 7.70913 12.9533 7.75117V8.97793C12.9533 9.19585 12.7804 9.37173 12.5674 9.37173H9.70222V8.78103C9.70222 8.71797 9.63157 8.68368 9.58374 8.7224L8.39787 9.6704C8.35983 9.69806 8.35983 9.75669 8.39787 9.78655Z" fill="#24be86"/></svg>
