<svg width="21" height="21" viewBox="0 0 21 21" fill="none" xmlns="http://www.w3.org/2000/svg">
<circle cx="10.5" cy="10.5" r="10.5" fill="#6F73AE"/>
<path d="M10.9092 5.45459L10.9092 4.45459H10.9092V5.45459ZM15 9.54541H16V9.54539L15 9.54541ZM14.999 9.5874L13.999 9.57737V9.5874H14.999ZM14.999 15.0005L14.2917 15.7074C14.5777 15.9935 15.0079 16.0792 15.3816 15.9244C15.7553 15.7697 15.999 15.405 15.999 15.0005H14.999ZM13.0381 13.0386L13.7454 12.3316C13.4188 12.0049 12.911 11.9444 12.5168 12.1852L13.0381 13.0386ZM10.9092 13.6362V14.6362H10.9092L10.9092 13.6362ZM9.09082 13.6362L9.0908 14.6362H9.09082V13.6362ZM5 9.54541L4 9.54539V9.54541H5ZM9.09082 5.45459V4.45459H9.0908L9.09082 5.45459ZM10.9092 5.45459L10.9092 6.45459C12.6162 6.45463 14 7.83842 14 9.54543L15 9.54541L16 9.54539C15.9999 6.73384 13.7207 4.45465 10.9092 4.45459L10.9092 5.45459ZM15 9.54541H14C14 9.53911 14.0001 9.5346 14.0001 9.5329C14.0002 9.53144 14.0002 9.531 14.0001 9.53408C14 9.53585 13.9998 9.54258 13.9996 9.54888C13.9994 9.55586 13.9992 9.5658 13.9991 9.57737L14.999 9.5874L15.999 9.59744C15.9989 9.59982 15.9989 9.6017 15.9989 9.60293C15.9989 9.60414 15.9988 9.60489 15.9988 9.60496C15.9988 9.605 15.9988 9.60466 15.9989 9.60356C15.9989 9.60198 15.999 9.60147 15.999 9.59875C15.9993 9.59202 16 9.57038 16 9.54541H15ZM14.999 9.5874H13.999V15.0005H14.999H15.999V9.5874H14.999ZM14.999 15.0005L15.7063 14.2936L13.7454 12.3316L13.0381 13.0386L12.3308 13.7455L14.2917 15.7074L14.999 15.0005ZM13.0381 13.0386L12.5168 12.1852C12.0486 12.4712 11.4996 12.6362 10.9092 12.6362L10.9092 13.6362L10.9092 14.6362C11.8788 14.6362 12.787 14.3637 13.5593 13.892L13.0381 13.0386ZM10.9092 13.6362V12.6362H9.09082V13.6362V14.6362H10.9092V13.6362ZM9.09082 13.6362L9.09084 12.6362C7.38378 12.6362 6 11.2524 6 9.54541H5H4C4 12.357 6.27925 14.6362 9.0908 14.6362L9.09082 13.6362ZM5 9.54541L6 9.54543C6.00004 7.83842 7.38383 6.45463 9.09084 6.45459L9.09082 5.45459L9.0908 4.45459C6.27925 4.45465 4.00006 6.73384 4 9.54539L5 9.54541ZM9.09082 5.45459V6.45459H10.9092V5.45459V4.45459H9.09082V5.45459Z" fill="black"/>
<circle cx="8.75" cy="9.75" r="0.75" fill="black"/>
<circle cx="11.75" cy="9.75" r="0.75" fill="black"/>
</svg>
