<svg width="48" height="48" viewBox="0 0 48 48" fill="none" xmlns="http://www.w3.org/2000/svg">
<rect width="48" height="48" rx="4" fill="black"/>
<path d="M11.9043 11.0234H36.0957C36.5826 11.0235 36.9766 11.4244 36.9766 11.9209V36.0801C36.9764 36.5764 36.5824 36.9765 36.0957 36.9766H11.9043C11.4174 36.9765 11.0234 36.5756 11.0234 36.0791V11.9199C11.0236 11.4546 11.3701 11.0741 11.8145 11.0283L11.9043 11.0234ZM29.2705 23.1807H30.7031C30.797 23.1807 30.8721 23.2594 30.8721 23.3535V26.543C30.8719 28.1208 29.6217 29.3984 28.0781 29.3984H20.6025V30.957C20.6025 31.0996 20.4401 31.1793 20.332 31.0918L17.249 28.627C17.1617 28.5584 17.1628 28.4246 17.248 28.3623L17.249 28.3613L20.332 25.8965C20.4403 25.8088 20.6022 25.8855 20.6025 26.0303V27.5898H28.0752C28.6424 27.5898 29.1014 27.1219 29.1016 26.543V23.3535C29.1016 23.2571 29.1791 23.1807 29.2705 23.1807ZM27.7539 16.8848C27.7539 16.7424 27.9153 16.6629 28.0234 16.75L31.1074 19.2148C31.1836 19.2746 31.193 19.3856 31.1357 19.458L31.1074 19.4863L28.0234 21.9512C27.9152 22.0386 27.7542 21.9621 27.7539 21.8174V20.2578H19.9814C19.4143 20.2578 18.9553 20.7257 18.9551 21.3047V24.4941C18.9551 24.5906 18.8775 24.6669 18.7861 24.667H17.3535C17.26 24.667 17.1848 24.592 17.1846 24.4893V21.2988C17.1848 19.721 18.4349 18.4434 19.9785 18.4434H27.7539V16.8848ZM34.9883 13.0479H34.9648L13.0352 13.0469H13.0117V34.9521H13.0352L34.9648 34.9531H34.9883V13.0479Z" fill="#7277FF" stroke="#7277FF" stroke-width="0.046875"/>
</svg>
