<svg width="19" height="18" viewBox="0 0 19 18" fill="none" xmlns="http://www.w3.org/2000/svg">
<path d="M17.75 0.75H0.75V16.75H17.75V0.75Z" fill="black" stroke="#C1C1C1" stroke-width="1.5" stroke-linejoin="round"/>
<path d="M9.02539 9.21484C9.02539 11.5684 7.52148 12.8477 5.60742 12.8477C3.67383 12.8477 2.17969 11.5586 2.17969 9.21484C2.17969 6.86133 3.67383 5.58203 5.60742 5.58203C7.52148 5.58203 9.02539 6.86133 9.02539 9.21484ZM7.11133 9.21484C7.11133 7.91602 6.57422 7.20312 5.60742 7.20312C4.63086 7.20312 4.09375 7.91602 4.09375 9.21484C4.09375 10.5137 4.63086 11.2266 5.60742 11.2266C6.57422 11.2266 7.11133 10.5137 7.11133 9.21484ZM13.7422 7.86719C13.7031 7.38867 13.3906 7.11523 12.7559 7.11523C12.1406 7.11523 11.8672 7.34961 11.8574 7.68164C11.8477 8.04297 12.1797 8.24805 12.834 8.38477L13.4199 8.52148C14.9434 8.84375 15.6172 9.58594 15.627 10.6699C15.6172 12.0566 14.5527 12.8379 12.7656 12.8379C10.9395 12.8379 9.75781 12.0371 9.73828 10.2988H11.5156C11.5449 10.9531 12.0039 11.3047 12.7363 11.3047C13.3711 11.3047 13.7129 11.041 13.7227 10.6699C13.7129 10.3281 13.4297 10.1328 12.6387 9.95703L11.9258 9.80078C10.6855 9.52734 9.92383 8.91211 9.92383 7.81836C9.91406 6.48047 11.0957 5.58203 12.7559 5.58203C14.4551 5.58203 15.5195 6.49023 15.5293 7.86719H13.7422Z" fill="#C1C1C1"/>
</svg>
