<svg width="9" height="7" viewBox="0 0 9 7" fill="none" xmlns="http://www.w3.org/2000/svg">
<path d="M0.5 3.55631H1.84769C1.90444 3.55553 1.95999 3.53667 2.00865 3.50166C2.05731 3.46666 2.09734 3.41677 2.12462 3.35711L3.23231 0.701149C3.25961 0.635022 3.30313 0.580493 3.35703 0.544886C3.41094 0.509278 3.47263 0.494296 3.53385 0.501952C3.59481 0.506892 3.653 0.534379 3.7004 0.580626C3.74779 0.626872 3.78205 0.689602 3.79846 0.76017L5.17077 6.2344C5.18878 6.30866 5.2258 6.37425 5.27659 6.42191C5.32739 6.46957 5.3894 6.49689 5.45385 6.5C5.51424 6.4976 5.57271 6.47393 5.62196 6.43194C5.6712 6.38996 5.70905 6.33152 5.73077 6.26391L6.57385 3.79239C6.59706 3.72306 6.63696 3.66359 6.68847 3.62154C6.73998 3.5795 6.80076 3.55679 6.86308 3.55631H8.5" stroke="white" stroke-linecap="round" stroke-linejoin="round"/>
</svg>
