<svg width="33" height="33" viewBox="0 0 33 33" fill="none" xmlns="http://www.w3.org/2000/svg">
<path d="M16.25 0.25C13.0855 0.25 9.99207 1.18838 7.36088 2.94649C4.7297 4.70459 2.67894 7.20345 1.46793 10.1271C0.256932 13.0507 -0.0599208 16.2677 0.557443 19.3714C1.17481 22.4751 2.69866 25.3261 4.9363 27.5637C7.17394 29.8013 10.0249 31.3252 13.1286 31.9426C16.2323 32.5599 19.4493 32.2431 22.3729 31.0321C25.2966 29.8211 27.7954 27.7703 29.5535 25.1391C31.3116 22.5079 32.25 19.4145 32.25 16.25C32.2455 12.0079 30.5584 7.94085 27.5588 4.94124C24.5592 1.94163 20.4921 0.25448 16.25 0.25ZM16.25 29.7885C13.5724 29.7885 10.9548 28.9944 8.72844 27.5068C6.50205 26.0192 4.76679 23.9048 3.7421 21.4309C2.71741 18.9571 2.4493 16.235 2.97168 13.6088C3.49407 10.9826 4.78348 8.57025 6.67687 6.67686C8.57026 4.78347 10.9826 3.49406 13.6088 2.97168C16.235 2.44929 18.9571 2.7174 21.431 3.74209C23.9048 4.76679 26.0192 6.50204 27.5068 8.72843C28.9944 10.9548 29.7885 13.5723 29.7885 16.25C29.7844 19.8394 28.3567 23.2806 25.8186 25.8186C23.2806 28.3567 19.8394 29.7844 16.25 29.7885ZM8.86539 13.1731C8.86539 12.8079 8.97367 12.451 9.17652 12.1474C9.37938 11.8438 9.66771 11.6072 10.0051 11.4675C10.3424 11.3277 10.7136 11.2912 11.0717 11.3624C11.4298 11.4336 11.7588 11.6095 12.017 11.8676C12.2752 12.1258 12.451 12.4548 12.5222 12.8129C12.5935 13.171 12.5569 13.5422 12.4172 13.8796C12.2774 14.2169 12.0408 14.5052 11.7372 14.7081C11.4336 14.911 11.0767 15.0192 10.7115 15.0192C10.2219 15.0192 9.75234 14.8247 9.40612 14.4785C9.05989 14.1323 8.86539 13.6627 8.86539 13.1731ZM23.6346 13.1731C23.6346 13.5382 23.5263 13.8951 23.3235 14.1987C23.1206 14.5023 22.8323 14.739 22.495 14.8787C22.1576 15.0184 21.7864 15.055 21.4283 14.9838C21.0702 14.9125 20.7412 14.7367 20.483 14.4785C20.2248 14.2203 20.049 13.8914 19.9778 13.5332C19.9066 13.1751 19.9431 12.8039 20.0828 12.4666C20.2226 12.1292 20.4592 11.8409 20.7628 11.6381C21.0664 11.4352 21.4233 11.3269 21.7885 11.3269C22.2781 11.3269 22.7477 11.5214 23.0939 11.8676C23.4401 12.2139 23.6346 12.6834 23.6346 13.1731Z" fill="#CECECE" stroke="#CECECE" stroke-width="0.5"/>
</svg>
