<svg width="115" height="115" viewBox="0 0 115 115" fill="none" xmlns="http://www.w3.org/2000/svg">
<path d="M57.5 1C46.3254 1 35.4017 4.31367 26.1103 10.522C16.8189 16.7303 9.57718 25.5544 5.30083 35.8784C1.02448 46.2024 -0.0944077 57.5627 2.08566 68.5226C4.26572 79.4825 9.64682 89.5498 17.5485 97.4515C25.4502 105.353 35.5175 110.734 46.4774 112.914C57.4373 115.094 68.7976 113.976 79.1216 109.699C89.4456 105.423 98.2697 98.1811 104.478 88.8897C110.686 79.5983 114 68.6746 114 57.5C113.984 42.5201 108.026 28.1583 97.4341 17.5659C86.8417 6.97356 72.4799 1.01582 57.5 1ZM57.5 105.308C48.0445 105.308 38.8014 102.504 30.9395 97.2506C23.0776 91.9974 16.9499 84.5309 13.3315 75.7952C9.71302 67.0595 8.76627 57.447 10.6109 48.1732C12.4556 38.8994 17.0089 30.3809 23.6949 23.6949C30.3809 17.0088 38.8994 12.4556 48.1732 10.6109C57.447 8.76625 67.0595 9.713 75.7952 13.3314C84.5309 16.9499 91.9975 23.0775 97.2506 30.9395C102.504 38.8014 105.308 48.0445 105.308 57.5C105.293 70.175 100.252 82.3267 91.2893 91.2892C82.3267 100.252 70.175 105.293 57.5 105.308ZM83.5769 74.8846C83.5769 76.0373 83.119 77.1427 82.304 77.9578C81.4889 78.7729 80.3834 79.2308 79.2308 79.2308H35.7692C34.6166 79.2308 33.5111 78.7729 32.6961 77.9578C31.881 77.1427 31.4231 76.0373 31.4231 74.8846C31.4231 73.7319 31.881 72.6265 32.6961 71.8114C33.5111 70.9963 34.6166 70.5384 35.7692 70.5384H79.2308C80.3834 70.5384 81.4889 70.9963 82.304 71.8114C83.119 72.6265 83.5769 73.7319 83.5769 74.8846ZM31.4231 46.6346C31.4231 45.3452 31.8054 44.0848 32.5218 43.0127C33.2381 41.9406 34.2563 41.105 35.4475 40.6116C36.6388 40.1182 37.9496 39.9891 39.2142 40.2406C40.4788 40.4922 41.6404 41.1131 42.5521 42.0248C43.4638 42.9365 44.0847 44.0982 44.3363 45.3628C44.5878 46.6274 44.4587 47.9382 43.9653 49.1294C43.4719 50.3206 42.6363 51.3388 41.5642 52.0551C40.4921 52.7715 39.2317 53.1538 37.9423 53.1538C36.2133 53.1538 34.5551 52.467 33.3325 51.2444C32.1099 50.0218 31.4231 48.3636 31.4231 46.6346ZM83.5769 46.6346C83.5769 47.924 83.1946 49.1844 82.4782 50.2565C81.7619 51.3286 80.7437 52.1642 79.5525 52.6576C78.3613 53.151 77.0505 53.2801 75.7859 53.0286C74.5213 52.777 73.3596 52.1561 72.4479 51.2444C71.5362 50.3327 70.9153 49.1711 70.6637 47.9064C70.4122 46.6418 70.5413 45.331 71.0347 44.1398C71.5281 42.9486 72.3637 41.9304 73.4358 41.2141C74.5079 40.4977 75.7683 40.1154 77.0577 40.1154C78.7867 40.1154 80.4449 40.8022 81.6675 42.0248C82.8901 43.2474 83.5769 44.9056 83.5769 46.6346Z" fill="#B0D008" stroke="#B0D008" stroke-width="0.5"/>
</svg>
