<svg width="125" height="114" viewBox="0 0 125 114" fill="none" xmlns="http://www.w3.org/2000/svg">
<path fill-rule="evenodd" clip-rule="evenodd" d="M26.0548 10.5009C35.3256 4.30634 46.2251 1 57.375 1C72.3218 1.01578 86.6518 6.96035 97.2208 17.5293C98.2298 18.5384 99.1967 19.5817 100.12 20.6566C104.216 13.0342 108.625 6.125 108.625 6.125C108.625 6.125 124 30.2195 124 38.0577C124 44.3431 119.574 49.6741 113.442 51.5397C113.644 53.4695 113.748 55.417 113.75 57.375C113.75 68.5249 110.444 79.4245 104.249 88.6953C98.0546 97.9661 89.25 105.192 78.9488 109.459C68.6476 113.726 57.3125 114.842 46.3768 112.667C35.4411 110.492 25.3961 105.122 17.5119 97.2382C9.6277 89.354 4.2585 79.3089 2.08326 68.3732C-0.091987 57.4376 1.02443 46.1024 5.29132 35.8012C9.55821 25.5 16.7839 16.6955 26.0548 10.5009ZM95.8853 29.2247C94.3154 32.8048 93.2501 35.9945 93.2501 38.0577C93.2501 44.6602 98.1344 50.2097 104.75 51.7953C104.967 53.6408 105.077 55.5038 105.077 57.375C105.063 70.0219 100.032 82.1468 91.0896 91.0895C82.1468 100.032 70.022 105.063 57.375 105.077C47.9405 105.077 38.7178 102.279 30.8733 97.0377C23.0287 91.7962 16.9146 84.3461 13.3042 75.6298C9.69375 66.9134 8.74909 57.3221 10.5897 48.0688C12.4303 38.8156 16.9734 30.3159 23.6447 23.6447C30.3159 16.9734 38.8156 12.4302 48.0689 10.5897C57.3221 8.74907 66.9134 9.69373 75.6298 13.3042C83.7258 16.6576 90.7292 22.171 95.8853 29.2247ZM82.1241 77.7876C82.9374 76.9743 83.3943 75.8713 83.3943 74.7212C83.3943 73.5711 82.9374 72.468 82.1241 71.6548C81.3109 70.8415 79.0577 70.3846 79.0577 70.3846C79.0577 70.3846 65.9478 66.9567 57.375 66.9567C48.8023 66.9567 43.7098 67.3494 35.6923 70.3846C35.3028 70.5321 34.931 70.632 34.5788 70.7266C33.8347 70.9264 33.1779 71.1028 32.6259 71.6548C31.8127 72.468 31.3558 73.5711 31.3558 74.7212C31.3558 75.8713 31.8127 76.9743 32.6259 77.7876C33.4392 78.6008 34.5422 79.0577 35.6923 79.0577C35.6923 79.0577 48.8023 75.6298 57.375 75.6298C65.9478 75.6298 79.0577 79.0577 79.0577 79.0577C80.2079 79.0577 81.3109 78.6008 82.1241 77.7876ZM32.4521 42.9198C31.7373 43.9895 31.3558 45.2471 31.3558 46.5337C31.3558 48.2589 32.0411 49.9134 33.261 51.1333C34.4809 52.3531 36.1354 53.0385 37.8606 53.0385C39.1471 53.0385 40.4048 52.657 41.4745 51.9422C42.5442 51.2275 43.3779 50.2115 43.8703 49.0229C44.3626 47.8344 44.4914 46.5264 44.2404 45.2646C43.9894 44.0028 43.3699 42.8438 42.4602 41.9341C41.5505 41.0244 40.3914 40.4048 39.1296 40.1538C37.8678 39.9029 36.5599 40.0317 35.3713 40.524C34.1827 41.0163 33.1668 41.8501 32.4521 42.9198ZM82.298 50.1475C83.0128 49.0778 83.3943 47.8202 83.3943 46.5337C83.3943 44.8085 82.709 43.154 81.4891 41.9341C80.2692 40.7142 78.6147 40.0289 76.8895 40.0289C75.6029 40.0289 74.3453 40.4104 73.2756 41.1251C72.2059 41.8399 71.3721 42.8558 70.8798 44.0444C70.3875 45.233 70.2587 46.5409 70.5097 47.8027C70.7606 49.0645 71.3802 50.2235 72.2899 51.1333C73.1996 52.043 74.3586 52.6625 75.6204 52.9135C76.8823 53.1645 78.1901 53.0357 79.3787 52.5433C80.5673 52.051 81.5833 51.2173 82.298 50.1475Z" fill="#FFC700"/>
<path d="M57.375 1L57.3753 0.75H57.375V1ZM26.0548 10.5009L26.1937 10.7088L26.0548 10.5009ZM97.2208 17.5293L97.044 17.7061L97.2208 17.5293ZM100.12 20.6566L99.9307 20.8195L100.168 21.0958L100.341 20.7749L100.12 20.6566ZM108.625 6.125L108.836 5.99052L108.625 5.66026L108.414 5.99052L108.625 6.125ZM113.442 51.5397L113.369 51.3006L113.171 51.3606L113.193 51.5658L113.442 51.5397ZM113.75 57.375H114V57.3748L113.75 57.375ZM104.249 88.6953L104.041 88.5564L104.249 88.6953ZM46.3768 112.667L46.3281 112.912L46.3768 112.667ZM17.5119 97.2382L17.3351 97.415L17.5119 97.2382ZM2.08326 68.3732L2.32845 68.3245L2.08326 68.3732ZM5.29132 35.8012L5.52229 35.8969L5.29132 35.8012ZM95.8853 29.2247L96.1142 29.3251L96.172 29.1933L96.0871 29.0772L95.8853 29.2247ZM104.75 51.7953L104.998 51.7661L104.977 51.5929L104.808 51.5522L104.75 51.7953ZM105.077 57.375L105.327 57.3753V57.375H105.077ZM91.0896 91.0895L91.2663 91.2663L91.0896 91.0895ZM57.375 105.077V105.327H57.3753L57.375 105.077ZM13.3042 75.6298L13.0732 75.7254H13.0732L13.3042 75.6298ZM10.5897 48.0688L10.8349 48.1176L10.5897 48.0688ZM23.6447 23.6447L23.8215 23.8214L23.6447 23.6447ZM48.0689 10.5897L48.0201 10.3445L48.0689 10.5897ZM75.6298 13.3042L75.5341 13.5351L75.6298 13.3042ZM82.1241 77.7876L81.9474 77.6108L81.9474 77.6108L82.1241 77.7876ZM82.1241 71.6548L81.9474 71.8316L81.9474 71.8316L82.1241 71.6548ZM79.0577 70.3846L78.9944 70.6269L79.0081 70.6297L79.0577 70.3846ZM35.6923 70.3846L35.6038 70.1508L35.6923 70.3846ZM34.5788 70.7266L34.5139 70.4851L34.5788 70.7266ZM32.6259 71.6548L32.8027 71.8316L32.8027 71.8316L32.6259 71.6548ZM32.6259 77.7876L32.8027 77.6108L32.6259 77.7876ZM35.6923 79.0577V79.3077H35.7245L35.7556 79.2996L35.6923 79.0577ZM79.0577 79.0577L78.9945 79.2996L79.0256 79.3077H79.0577V79.0577ZM32.4521 42.9198L32.2442 42.7809H32.2442L32.4521 42.9198ZM33.261 51.1333L33.4378 50.9565L33.261 51.1333ZM41.4745 51.9422L41.3356 51.7344L41.4745 51.9422ZM44.2404 45.2646L44.4856 45.2159L44.2404 45.2646ZM39.1296 40.1538L39.1784 39.9086H39.1784L39.1296 40.1538ZM82.298 50.1475L82.5059 50.2864L82.298 50.1475ZM81.4891 41.9341L81.3123 42.1108L81.4891 41.9341ZM73.2756 41.1251L73.4145 41.333L73.2756 41.1251ZM70.5097 47.8027L70.7548 47.7539L70.5097 47.8027ZM75.6204 52.9135L75.5717 53.1587L75.6204 52.9135ZM57.375 0.75C46.1757 0.75 35.2278 4.071 25.9159 10.293L26.1937 10.7088C35.4234 4.54168 46.2746 1.25 57.375 1.25V0.75ZM97.3975 17.3525C86.7818 6.73675 72.3883 0.765854 57.3753 0.75L57.3748 1.25C72.2553 1.26571 86.5219 7.18394 97.044 17.7061L97.3975 17.3525ZM100.31 20.4937C99.3823 19.414 98.4111 18.366 97.3975 17.3525L97.044 17.7061C98.0486 18.7107 99.0112 19.7494 99.9307 20.8195L100.31 20.4937ZM100.341 20.7749C102.386 16.9685 104.51 13.3394 106.123 10.6614C106.929 9.32254 107.608 8.22174 108.084 7.45578C108.323 7.07281 108.511 6.77357 108.639 6.57015C108.703 6.46844 108.753 6.39069 108.786 6.3384C108.802 6.31226 108.815 6.29249 108.823 6.27927C108.827 6.27267 108.831 6.2677 108.833 6.26439C108.834 6.26274 108.835 6.2615 108.835 6.26068C108.835 6.26027 108.836 6.25997 108.836 6.25977C108.836 6.25967 108.836 6.2596 108.836 6.25955C108.836 6.2595 108.836 6.25949 108.625 6.125C108.414 5.99052 108.414 5.99056 108.414 5.99062C108.414 5.99067 108.414 5.99076 108.414 5.99087C108.414 5.99109 108.414 5.99142 108.414 5.99185C108.413 5.99271 108.412 5.99399 108.411 5.99569C108.409 5.99909 108.406 6.00414 108.401 6.01084C108.393 6.02424 108.38 6.04419 108.364 6.07052C108.33 6.12317 108.281 6.2013 108.216 6.3034C108.087 6.5076 107.899 6.80769 107.66 7.19156C107.182 7.95928 106.502 9.06219 105.695 10.4034C104.079 13.0856 101.951 16.7223 99.9001 20.5383L100.341 20.7749ZM108.625 6.125C108.414 6.25949 108.414 6.25956 108.415 6.25973C108.415 6.25991 108.415 6.26017 108.415 6.26053C108.415 6.26124 108.416 6.26232 108.417 6.26376C108.419 6.26664 108.422 6.27097 108.425 6.27673C108.433 6.28826 108.444 6.30552 108.458 6.32834C108.487 6.374 108.53 6.44195 108.586 6.53096C108.699 6.70899 108.864 6.97125 109.074 7.30791C109.494 7.98125 110.094 8.9521 110.814 10.1417C112.254 12.5211 114.174 15.7747 116.093 19.2723C118.014 22.7708 119.931 26.5095 121.368 29.86C122.81 33.2231 123.75 36.1554 123.75 38.0577H124.25C124.25 36.0409 123.268 33.0221 121.828 29.663C120.382 26.2913 118.455 22.5367 116.532 19.0318C114.608 15.526 112.684 12.2661 111.241 9.88279C110.52 8.69105 109.919 7.71829 109.498 7.04334C109.287 6.70585 109.122 6.44281 109.009 6.26406C108.953 6.17468 108.909 6.10638 108.88 6.06038C108.866 6.03738 108.855 6.01996 108.847 6.00826C108.843 6.00242 108.841 5.998 108.839 5.99504C108.838 5.99356 108.837 5.99244 108.837 5.99169C108.836 5.99131 108.836 5.99102 108.836 5.99083C108.836 5.99063 108.836 5.99052 108.625 6.125ZM123.75 38.0577C123.75 44.2189 119.41 49.4627 113.369 51.3006L113.514 51.7789C119.738 49.8856 124.25 44.4672 124.25 38.0577H123.75ZM114 57.3748C113.998 55.4081 113.894 53.452 113.69 51.5136L113.193 51.5658C113.395 53.4871 113.498 55.4259 113.5 57.3753L114 57.3748ZM104.457 88.8342C110.679 79.5222 114 68.5744 114 57.375H113.5C113.5 68.4755 110.208 79.3267 104.041 88.5564L104.457 88.8342ZM79.0445 109.69C89.3914 105.404 98.235 98.1461 104.457 88.8342L104.041 88.5564C97.8742 97.7861 89.1087 104.98 78.8531 109.228L79.0445 109.69ZM46.3281 112.912C57.3122 115.097 68.6976 113.976 79.0445 109.69L78.8531 109.228C68.5976 113.476 57.3128 114.587 46.4256 112.422L46.3281 112.912ZM17.3351 97.415C25.2543 105.334 35.3439 110.727 46.3281 112.912L46.4256 112.422C35.5384 110.256 25.5379 104.911 17.6887 97.0614L17.3351 97.415ZM1.83806 68.422C4.02295 79.4062 9.41596 89.4958 17.3351 97.415L17.6887 97.0614C9.83944 89.2122 4.49405 79.2117 2.32845 68.3245L1.83806 68.422ZM5.06035 35.7056C0.774535 46.0524 -0.34683 57.4378 1.83806 68.422L2.32845 68.3245C0.162856 57.4373 1.27432 46.1524 5.52229 35.8969L5.06035 35.7056ZM25.9159 10.293C16.6039 16.5151 9.34616 25.3587 5.06035 35.7056L5.52229 35.8969C9.77026 25.6414 16.9639 16.8759 26.1937 10.7088L25.9159 10.293ZM93.5001 38.0577C93.5001 37.063 93.7581 35.7777 94.2179 34.2836C94.6767 32.793 95.3316 31.11 96.1142 29.3251L95.6563 29.1243C94.8691 30.9195 94.2064 32.6214 93.7401 34.1365C93.2748 35.6481 93.0001 36.9892 93.0001 38.0577H93.5001ZM104.808 51.5522C98.2897 49.9898 93.5001 44.5295 93.5001 38.0577H93.0001C93.0001 44.7909 97.979 50.4295 104.691 52.0385L104.808 51.5522ZM104.501 51.8246C104.717 53.6604 104.827 55.5136 104.827 57.375H105.327C105.327 55.494 105.216 53.6213 104.998 51.7661L104.501 51.8246ZM104.827 57.3747C104.813 69.9555 99.8087 82.0168 90.9128 90.9128L91.2663 91.2663C100.256 82.2768 105.313 70.0884 105.327 57.3753L104.827 57.3747ZM90.9128 90.9128C82.0169 99.8087 69.9555 104.813 57.3748 104.827L57.3753 105.327C70.0885 105.313 82.2768 100.256 91.2663 91.2663L90.9128 90.9128ZM57.375 104.827C47.9899 104.827 38.8156 102.044 31.0122 96.8299L30.7344 97.2456C38.62 102.515 47.891 105.327 57.375 105.327V104.827ZM31.0122 96.8299C23.2087 91.6158 17.1267 84.2048 13.5352 75.5341L13.0732 75.7254C16.7026 84.4875 22.8487 91.9766 30.7344 97.2456L31.0122 96.8299ZM13.5352 75.5341C9.94364 66.8634 9.00394 57.3224 10.8349 48.1176L10.3445 48.0201C8.49425 57.3218 9.44386 66.9634 13.0732 75.7254L13.5352 75.5341ZM10.8349 48.1176C12.6658 38.9128 17.1852 30.4577 23.8215 23.8214L23.4679 23.4679C16.7617 30.1741 12.1947 38.7183 10.3445 48.0201L10.8349 48.1176ZM23.8215 23.8214C30.4577 17.1852 38.9129 12.6658 48.1176 10.8349L48.0201 10.3445C38.7183 12.1947 30.1741 16.7617 23.4679 23.4679L23.8215 23.8214ZM48.1176 10.8349C57.3224 9.00391 66.8634 9.94362 75.5341 13.5351L75.7255 13.0732C66.9634 9.44383 57.3218 8.49423 48.0201 10.3445L48.1176 10.8349ZM75.5341 13.5351C83.5877 16.871 90.5544 22.3555 95.6834 29.3722L96.0871 29.0772C90.904 21.9865 83.8639 16.4442 75.7255 13.0732L75.5341 13.5351ZM83.1443 74.7212C83.1443 75.805 82.7137 76.8444 81.9474 77.6108L82.3009 77.9644C83.1611 77.1042 83.6443 75.9376 83.6443 74.7212H83.1443ZM81.9474 71.8316C82.7137 72.5979 83.1443 73.6374 83.1443 74.7212H83.6443C83.6443 73.5048 83.1611 72.3381 82.3009 71.478L81.9474 71.8316ZM79.0577 70.3846C79.0081 70.6297 79.008 70.6296 79.008 70.6296C79.008 70.6296 79.008 70.6296 79.008 70.6296C79.008 70.6296 79.0081 70.6297 79.0082 70.6297C79.0084 70.6297 79.0087 70.6298 79.0092 70.6299C79.0101 70.6301 79.0115 70.6304 79.0135 70.6308C79.0174 70.6316 79.0234 70.6328 79.0313 70.6345C79.0473 70.6379 79.071 70.643 79.1018 70.6499C79.1633 70.6636 79.2525 70.6841 79.3623 70.7114C79.5822 70.7659 79.8834 70.8469 80.2088 70.9525C80.5348 71.0584 80.8812 71.1877 81.1932 71.3384C81.5082 71.4904 81.7728 71.657 81.9474 71.8316L82.3009 71.478C82.0688 71.2459 81.7468 71.0504 81.4106 70.8881C81.0714 70.7243 80.7021 70.587 80.3632 70.477C80.0236 70.3667 79.7107 70.2826 79.4827 70.2261C79.3686 70.1978 79.2754 70.1763 79.2105 70.1618C79.178 70.1546 79.1526 70.1491 79.1351 70.1454C79.1264 70.1436 79.1197 70.1421 79.115 70.1412C79.1127 70.1407 79.1109 70.1403 79.1096 70.1401C79.109 70.1399 79.1085 70.1398 79.1081 70.1398C79.1079 70.1397 79.1078 70.1397 79.1077 70.1397C79.1076 70.1397 79.1075 70.1396 79.1075 70.1396C79.1075 70.1396 79.1074 70.1396 79.0577 70.3846ZM57.375 67.2067C61.6358 67.2067 67.0366 68.0595 71.3829 68.9159C73.5537 69.3437 75.4573 69.7715 76.818 70.0923C77.4983 70.2528 78.0428 70.3864 78.4171 70.4799C78.6042 70.5266 78.7488 70.5633 78.8464 70.5883C78.8953 70.6008 78.9324 70.6104 78.9572 70.6168C78.9697 70.62 78.979 70.6225 78.9853 70.6241C78.9884 70.6249 78.9907 70.6255 78.9923 70.6259C78.993 70.6261 78.9936 70.6263 78.994 70.6264C78.9942 70.6264 78.9943 70.6264 78.9944 70.6265C78.9945 70.6265 78.9945 70.6265 79.0577 70.3846C79.121 70.1428 79.1209 70.1428 79.1208 70.1427C79.1207 70.1427 79.1205 70.1426 79.1203 70.1426C79.1199 70.1425 79.1193 70.1423 79.1184 70.1421C79.1168 70.1417 79.1144 70.141 79.1111 70.1402C79.1047 70.1385 79.0951 70.136 79.0825 70.1328C79.0572 70.1262 79.0197 70.1166 78.9704 70.1039C78.8718 70.0787 78.7264 70.0418 78.5383 69.9948C78.1621 69.9008 77.6154 69.7667 76.9327 69.6057C75.5675 69.2838 73.6577 68.8546 71.4795 68.4254C67.1276 67.5678 61.6871 66.7067 57.375 66.7067V67.2067ZM35.7809 70.6184C43.759 67.5981 48.8178 67.2067 57.375 67.2067V66.7067C48.7867 66.7067 43.6607 67.1007 35.6038 70.1508L35.7809 70.6184ZM34.6436 70.968C34.9947 70.8737 35.3781 70.7709 35.7809 70.6184L35.6038 70.1508C35.2276 70.2933 34.8673 70.3902 34.5139 70.4851L34.6436 70.968ZM32.8027 71.8316C33.3006 71.3337 33.8914 71.1701 34.6436 70.968L34.5139 70.4851C33.7781 70.6828 33.0552 70.8719 32.4492 71.478L32.8027 71.8316ZM31.6058 74.7212C31.6058 73.6374 32.0364 72.5979 32.8027 71.8316L32.4492 71.478C31.589 72.3381 31.1058 73.5047 31.1058 74.7212H31.6058ZM32.8027 77.6108C32.0364 76.8444 31.6058 75.805 31.6058 74.7212H31.1058C31.1058 75.9376 31.589 77.1042 32.4492 77.9644L32.8027 77.6108ZM35.6923 78.8077C34.6085 78.8077 33.5691 78.3772 32.8027 77.6108L32.4492 77.9643C33.3093 78.8245 34.4759 79.3077 35.6923 79.3077V78.8077ZM57.375 75.3798C53.063 75.3798 47.6225 76.2409 43.2706 77.0985C41.0923 77.5277 39.1826 77.9569 37.8173 78.2788C37.1347 78.4397 36.588 78.5739 36.2118 78.6679C36.0237 78.7149 35.8782 78.7518 35.7797 78.777C35.7304 78.7896 35.6929 78.7993 35.6676 78.8059C35.6549 78.8091 35.6454 78.8116 35.6389 78.8133C35.6357 78.8141 35.6333 78.8148 35.6316 78.8152C35.6308 78.8154 35.6302 78.8156 35.6298 78.8157C35.6296 78.8157 35.6294 78.8158 35.6293 78.8158C35.6292 78.8158 35.6291 78.8158 35.6923 79.0577C35.7556 79.2996 35.7556 79.2996 35.7557 79.2996C35.7558 79.2995 35.7559 79.2995 35.7561 79.2994C35.7565 79.2994 35.7571 79.2992 35.7578 79.299C35.7594 79.2986 35.7617 79.298 35.7648 79.2972C35.771 79.2956 35.7804 79.2931 35.7928 79.2899C35.8177 79.2835 35.8548 79.2739 35.9036 79.2614C36.0013 79.2364 36.1459 79.1997 36.333 79.153C36.7073 79.0595 37.2518 78.9258 37.9321 78.7654C39.2928 78.4446 41.1964 78.0168 43.3672 77.589C47.7135 76.7326 53.1143 75.8798 57.375 75.8798V75.3798ZM79.0577 79.0577C79.121 78.8158 79.1209 78.8158 79.1208 78.8158C79.1207 78.8158 79.1205 78.8157 79.1203 78.8157C79.1199 78.8156 79.1193 78.8154 79.1184 78.8152C79.1168 78.8148 79.1144 78.8141 79.1111 78.8133C79.1047 78.8116 79.0951 78.8091 79.0825 78.8059C79.0572 78.7993 79.0197 78.7896 78.9704 78.777C78.8718 78.7518 78.7264 78.7149 78.5383 78.6679C78.1621 78.5739 77.6154 78.4397 76.9327 78.2788C75.5675 77.9569 73.6577 77.5277 71.4795 77.0985C67.1276 76.2409 61.6871 75.3798 57.375 75.3798V75.8798C61.6358 75.8798 67.0366 76.7326 71.3829 77.589C73.5537 78.0168 75.4573 78.4446 76.818 78.7654C77.4983 78.9258 78.0428 79.0595 78.4171 79.153C78.6042 79.1997 78.7488 79.2364 78.8464 79.2614C78.8953 79.2739 78.9324 79.2835 78.9572 79.2899C78.9697 79.2931 78.979 79.2956 78.9853 79.2972C78.9884 79.298 78.9907 79.2986 78.9923 79.299C78.993 79.2992 78.9936 79.2994 78.994 79.2994C78.9942 79.2995 78.9943 79.2995 78.9944 79.2996C78.9945 79.2996 78.9945 79.2996 79.0577 79.0577ZM81.9474 77.6108C81.181 78.3772 80.1416 78.8077 79.0577 78.8077V79.3077C80.2742 79.3077 81.4408 78.8245 82.3009 77.9643L81.9474 77.6108ZM31.6058 46.5337C31.6058 45.2966 31.9726 44.0873 32.6599 43.0587L32.2442 42.7809C31.502 43.8917 31.1058 45.1977 31.1058 46.5337H31.6058ZM33.4378 50.9565C32.2648 49.7835 31.6058 48.1925 31.6058 46.5337H31.1058C31.1058 48.3252 31.8175 50.0433 33.0842 51.31L33.4378 50.9565ZM37.8606 52.7885C36.2017 52.7885 34.6108 52.1295 33.4378 50.9565L33.0842 51.31C34.351 52.5768 36.0691 53.2885 37.8606 53.2885V52.7885ZM41.3356 51.7344C40.307 52.4216 39.0977 52.7885 37.8606 52.7885V53.2885C39.1966 53.2885 40.5026 52.8923 41.6134 52.1501L41.3356 51.7344ZM43.6393 48.9273C43.1659 50.0702 42.3642 51.0471 41.3356 51.7344L41.6134 52.1501C42.7242 51.4079 43.59 50.3529 44.1012 49.1186L43.6393 48.9273ZM43.9952 45.3134C44.2366 46.5267 44.1127 47.7844 43.6393 48.9273L44.1012 49.1186C44.6125 47.8843 44.7463 46.5262 44.4856 45.2159L43.9952 45.3134ZM42.2834 42.1108C43.1582 42.9856 43.7539 44.1001 43.9952 45.3134L44.4856 45.2159C44.225 43.9056 43.5817 42.702 42.637 41.7573L42.2834 42.1108ZM39.0809 40.399C40.2942 40.6404 41.4087 41.2361 42.2834 42.1108L42.637 41.7573C41.6923 40.8126 40.4887 40.1693 39.1784 39.9086L39.0809 40.399ZM35.467 40.755C36.6099 40.2816 37.8676 40.1577 39.0809 40.399L39.1784 39.9086C37.8681 39.648 36.5099 39.7818 35.2757 40.293L35.467 40.755ZM32.6599 43.0587C33.3472 42.0301 34.3241 41.2284 35.467 40.755L35.2757 40.293C34.0414 40.8043 32.9864 41.6701 32.2442 42.7809L32.6599 43.0587ZM83.1443 46.5337C83.1443 47.7708 82.7774 48.9801 82.0901 50.0087L82.5059 50.2864C83.2481 49.1756 83.6443 47.8696 83.6443 46.5337H83.1443ZM81.3123 42.1108C82.4853 43.2839 83.1443 44.8748 83.1443 46.5337H83.6443C83.6443 44.7422 82.9326 43.0241 81.6658 41.7573L81.3123 42.1108ZM76.8895 40.2789C78.5483 40.2789 80.1393 40.9378 81.3123 42.1108L81.6658 41.7573C80.3991 40.4905 78.681 39.7789 76.8895 39.7789V40.2789ZM73.4145 41.333C74.4431 40.6457 75.6524 40.2789 76.8895 40.2789V39.7789C75.5535 39.7789 74.2475 40.175 73.1367 40.9172L73.4145 41.333ZM71.1108 44.1401C71.5842 42.9971 72.3859 42.0203 73.4145 41.333L73.1367 40.9172C72.0259 41.6595 71.1601 42.7144 70.6488 43.9487L71.1108 44.1401ZM70.7548 47.7539C70.5135 46.5406 70.6374 45.283 71.1108 44.1401L70.6488 43.9487C70.1376 45.183 70.0038 46.5412 70.2645 47.8515L70.7548 47.7539ZM72.4667 50.9565C71.5919 50.0817 70.9962 48.9672 70.7548 47.7539L70.2645 47.8515C70.5251 49.1618 71.1684 50.3654 72.1131 51.31L72.4667 50.9565ZM75.6692 52.6683C74.4559 52.4269 73.3414 51.8312 72.4667 50.9565L72.1131 51.31C73.0578 52.2547 74.2614 52.898 75.5717 53.1587L75.6692 52.6683ZM79.2831 52.3124C78.1402 52.7858 76.8825 52.9096 75.6692 52.6683L75.5717 53.1587C76.882 53.4193 78.2401 53.2856 79.4744 52.7743L79.2831 52.3124ZM82.0901 50.0087C81.4029 51.0373 80.426 51.8389 79.2831 52.3124L79.4744 52.7743C80.7087 52.263 81.7637 51.3973 82.5059 50.2864L82.0901 50.0087Z" fill="#FFC700"/>
</svg>
