<svg width="32" height="32" viewBox="0 0 32 32" fill="none" xmlns="http://www.w3.org/2000/svg">
<rect x="0.5" y="0.5" width="31" height="31" rx="4.5" fill="white" stroke="#E3E5E8"/>
<path d="M19 14H27" stroke="#767676"/>
<path d="M19 10H27" stroke="#767676"/>
<path d="M22 18H27" stroke="#767676"/>
<path d="M12.4072 8.5C13.4278 8.5 14.2896 8.85795 15.0186 9.58691C15.7472 10.3158 16.1045 11.1769 16.1045 12.1973C16.1045 13.2179 15.7475 14.0796 15.0186 14.8086C14.2896 15.5376 13.4278 15.8945 12.4072 15.8945C11.3868 15.8945 10.5257 15.5373 9.79688 14.8086C9.06791 14.0796 8.70996 13.2179 8.70996 12.1973C8.70999 11.1767 9.06794 10.3159 9.79688 9.58691C10.5258 8.85797 11.3867 8.50002 12.4072 8.5Z" stroke="#7277FF"/>
<path d="M12.5 18.5C13.4876 18.4994 14.4707 18.6235 15.4277 18.8721C15.6333 18.9255 17.1691 19.3841 18.2607 19.9873C18.6284 20.1905 18.9265 20.4865 19.1572 20.8877C19.3853 21.2844 19.5005 21.7181 19.5 22.1992V24.5H5.5V22.2002C5.5 21.718 5.61566 21.2838 5.84375 20.8877C6.07312 20.4894 6.36907 20.195 6.7334 19.9912C7.66783 19.4921 8.61363 19.1195 9.57129 18.8721C10.5286 18.6247 11.5121 18.5007 12.5 18.5Z" stroke="#7277FF"/>
</svg>
