<svg width="26" height="31" viewBox="0 0 26 31" fill="none" xmlns="http://www.w3.org/2000/svg">
<path fill-rule="evenodd" clip-rule="evenodd" d="M18.1022 0.132703C18.1755 0.00577008 18.3376 -0.037689 18.4645 0.0356345C18.5914 0.108958 18.6349 0.271298 18.5617 0.398231L17.149 2.84756C19.5184 4.1806 21.1832 6.61828 21.445 9.46224H4.54127C4.80314 6.61752 6.46872 4.1793 8.83911 2.84649L7.42739 0.398732C7.35418 0.271799 7.39768 0.109459 7.52455 0.0361357C7.65141 -0.0371878 7.81361 0.00627149 7.88681 0.133205L9.31 2.60083C10.424 2.06345 11.6734 1.76226 12.9931 1.76226C14.3136 1.76226 15.5637 2.0638 16.6782 2.60178L18.1022 0.132703ZM1.92305 9.86028C0.860979 9.86028 0 10.7213 0 11.7833V19.7532C0 20.8153 0.860979 21.6763 1.92305 21.6763C2.98512 21.6763 3.8461 20.8153 3.8461 19.7532V11.7833C3.8461 10.7213 2.98512 9.86028 1.92305 9.86028ZM24.0728 9.86028C23.0108 9.86028 22.1498 10.7213 22.1498 11.7833V19.7532C22.1498 20.8153 23.0108 21.6763 24.0728 21.6763C25.1349 21.6763 25.9959 20.8153 25.9959 19.7532V11.7833C25.9959 10.7213 25.1349 9.86028 24.0728 9.86028ZM11.8041 24.5972H14.1902V28.6488C14.1902 29.7109 15.0512 30.5719 16.1133 30.5719C17.1754 30.5719 18.0363 29.7109 18.0363 28.6488V24.5972H19.4839C20.5885 24.5972 21.4839 23.7018 21.4839 22.5972V10.1259H4.50801V22.5972C4.50801 23.7018 5.40344 24.5972 6.50801 24.5972H7.958V28.6488C7.958 29.7109 8.81898 30.5719 9.88105 30.5719C10.9431 30.5719 11.8041 29.7109 11.8041 28.6488V24.5972ZM9.15252 6.54175C9.592 6.54175 9.94826 6.18511 9.94826 5.74517C9.94826 5.30522 9.592 4.94858 9.15252 4.94858C8.71304 4.94858 8.35677 5.30522 8.35677 5.74517C8.35677 6.18511 8.71304 6.54175 9.15252 6.54175ZM17.6379 5.74517C17.6379 6.18511 17.2817 6.54175 16.8422 6.54175C16.4027 6.54175 16.0465 6.18511 16.0465 5.74517C16.0465 5.30522 16.4027 4.94858 16.8422 4.94858C17.2817 4.94858 17.6379 5.30522 17.6379 5.74517Z" fill="#BFBFBF"/>
</svg>
