<svg width="19" height="22" viewBox="0 0 19 22" fill="none" xmlns="http://www.w3.org/2000/svg">
<path fill-rule="evenodd" clip-rule="evenodd" d="M9.15655 0H10.3067V2.74558C10.3067 3.25103 10.7164 3.66078 11.2219 3.66078C11.7273 3.66078 12.137 3.25103 12.137 2.74558V0.0602853C13.025 0.241113 13.7964 0.818052 14.2152 1.64589L17.9901 9.10877C18.2025 9.52857 18.3131 9.99242 18.3131 10.4629V10.7917V18.5833C18.3131 20.2402 16.97 21.5833 15.3131 21.5833H3C1.34315 21.5833 0 20.2402 0 18.5833V3C0 1.34811 1.3351 0.00805659 2.98511 3.61913e-05V2.74558C2.98511 3.25103 3.39485 3.66078 3.9003 3.66078C4.40575 3.66078 4.81549 3.25103 4.81549 2.74558V0H6.64588V2.74558C6.64588 3.25103 7.05563 3.66078 7.56108 3.66078C8.06652 3.66078 8.47627 3.25103 8.47627 2.74558V0H9.15655ZM15.0437 15.8423H2.83496V17.5864H15.0437V15.8423ZM4.83496 8.86583C3.73039 8.86583 2.83496 9.76126 2.83496 10.8658V14.0982H15.0437V10.8658C15.0437 9.76126 14.1483 8.86583 13.0437 8.86583H4.83496Z" fill="#009ff9"/>
</svg>
