<svg width="40" height="40" viewBox="0 0 40 40" fill="none" xmlns="http://www.w3.org/2000/svg">
<path d="M0 5C0 2.23858 2.23858 0 5 0H35C37.7614 0 40 2.23858 40 5V35C40 37.7614 37.7614 40 35 40H5C2.23858 40 0 37.7614 0 35V5Z" fill="none"/>
<path d="M25.8789 26.0862L28.3743 28.8145L32.2733 24.5515" stroke="#7277FF" stroke-width="2"/>
<rect x="23" y="21" width="12" height="12" rx="2" stroke="#7277FF" stroke-width="2"/>
<rect x="10" y="13" width="6" height="6" fill="#7277FF"/>
<path d="M13 17V24H23" stroke="#7277FF" stroke-width="2"/>
<path d="M29.8481 17.4615L29.8481 10.8369C29.8481 9.18007 28.505 7.83693 26.8481 7.83693L8.20703 7.83693C6.55018 7.83693 5.20703 9.18007 5.20703 10.8369L5.20703 26.0557C5.20703 27.7125 6.55018 29.0557 8.20703 29.0557L19.4441 29.0557" stroke="#7277FF" stroke-width="2"/>
</svg>
