<svg width="12" height="12" viewBox="0 0 12 12" fill="none" xmlns="http://www.w3.org/2000/svg">
<circle cx="6" cy="6" r="5.25" stroke="#7277FF" stroke-width="1.5"/>
<path d="M7.64961 6C7.64961 7.58587 7.39112 8.98706 7.00031 9.9641C6.80407 10.4547 6.58916 10.8014 6.38888 11.0132C6.1901 11.2233 6.05831 11.25 5.99961 11.25C5.94091 11.25 5.80911 11.2233 5.61034 11.0132C5.41006 10.8014 5.19515 10.4547 4.99891 9.9641C4.6081 8.98706 4.34961 7.58587 4.34961 6C4.34961 4.41413 4.6081 3.01294 4.99891 2.0359C5.19515 1.5453 5.41006 1.19861 5.61034 0.986841C5.80911 0.776651 5.94091 0.75 5.99961 0.75C6.05831 0.75 6.1901 0.776652 6.38888 0.986841C6.58916 1.19861 6.80407 1.5453 7.00031 2.0359C7.39112 3.01294 7.64961 4.41413 7.64961 6Z" stroke="#7277FF" stroke-width="1.5"/>
<path d="M0 6H12" stroke="#7277FF" stroke-width="1.5"/>
</svg>
