<svg width="48" height="16" viewBox="0 0 48 16" fill="none" xmlns="http://www.w3.org/2000/svg">
<rect width="48" height="16" rx="1" fill="#DEF3FF"/>
<path d="M26.4199 7.3125C26.2734 6.46289 25.5898 5.97461 24.7305 5.97461C23.5684 5.97461 22.7578 6.86328 22.7578 8.46484C22.7578 10.0859 23.5781 10.9551 24.7305 10.9551C25.5703 10.9551 26.2539 10.4863 26.4199 9.65625H27.6992C27.5039 11.0137 26.3906 12.0977 24.7109 12.0977C22.8457 12.0977 21.4785 10.7402 21.4785 8.46484C21.4785 6.17969 22.8652 4.83203 24.7109 4.83203C26.2734 4.83203 27.4844 5.74023 27.6992 7.3125H26.4199ZM28.793 12V4.92969H30.0625V10.9258H33.1875V12H28.793ZM38.0508 6.87305C37.9922 6.26758 37.4746 5.91602 36.7129 5.91602C35.9121 5.91602 35.4238 6.30664 35.4238 6.83398C35.4238 7.42969 36.0488 7.67383 36.6348 7.81055L37.2988 7.98633C38.3535 8.23047 39.3691 8.78711 39.3691 10.0176C39.3691 11.2578 38.3926 12.1074 36.6934 12.1074C35.043 12.1074 34.0078 11.3164 33.9492 9.91992H35.1992C35.2578 10.6621 35.8828 11.0234 36.6836 11.0234C37.5234 11.0234 38.0996 10.6133 38.0996 10.0078C38.0996 9.45117 37.582 9.2168 36.8203 9.02148L36.0195 8.81641C34.8574 8.51367 34.1348 7.92773 34.1348 6.91211C34.1348 5.66211 35.248 4.83203 36.7324 4.83203C38.2363 4.83203 39.252 5.68164 39.2715 6.87305H38.0508Z" fill="#009FF9"/>
<path fill-rule="evenodd" clip-rule="evenodd" d="M6 3.82353C6 3.60512 6.08576 3.39565 6.2384 3.24121C6.39105 3.08676 6.59808 3 6.81395 3H15.1861C15.4019 3 15.609 3.08676 15.7616 3.24121C15.9142 3.39565 16 3.60512 16 3.82353V12.1765C16 12.3949 15.9142 12.6044 15.7616 12.7588C15.609 12.9132 15.4019 13 15.1861 13H6.81395C6.59808 13 6.39105 12.9132 6.2384 12.7588C6.08576 12.6044 6 12.3949 6 12.1765V3.82353ZM15.1861 3.82353H6.81395V5.05882L15.1861 5.05882V3.82353ZM6.81395 12.1765V5.88235H9.13952V12.1765H6.81395ZM9.95347 12.1765H15.1861V5.88235H9.95347L9.95347 12.1765Z" fill="#009FF9"/>
</svg>
