<svg width="12" height="11" viewBox="0 0 12 11" fill="none" xmlns="http://www.w3.org/2000/svg">
<path fill-rule="evenodd" clip-rule="evenodd" d="M8.00727 0L9.49315 0.857872L9.275 2.54209C9.63812 2.96738 9.91489 3.45242 10.0978 3.96915L11.6671 4.62301V6.33876L10.0987 6.99223C10.0077 7.2482 9.89224 7.49955 9.75154 7.74325C9.62511 7.96224 9.48313 8.16667 9.32781 8.35594L9.55913 10.1419L8.07325 10.9997L6.66995 9.92759C6.12678 10.0301 5.56354 10.0338 5.00902 9.93115L3.65989 10.9619L2.17401 10.104L2.39204 8.42077C2.02836 7.99508 1.75122 7.50947 1.56818 6.99211L0 6.3387V4.62296L1.56738 3.96988C1.65841 3.71383 1.77389 3.46239 1.91464 3.21862C2.06943 2.95051 2.24752 2.70424 2.44486 2.48089L2.23956 0.89583L3.72544 0.0379582L5.02301 1.02931C5.55817 0.931657 6.1123 0.929726 6.65798 1.03087L8.00727 0ZM3.21368 3.96862C4.04891 2.52195 5.89875 2.02629 7.34541 2.86152C8.79207 3.69675 9.28773 5.54659 8.45251 6.99325C7.61727 8.43991 5.76743 8.93558 4.32077 8.10035C2.87411 7.26512 2.37845 5.41528 3.21368 3.96862Z" fill="#7277FF"/>
</svg>
