<svg width="22" height="21" viewBox="0 0 22 21" fill="none" xmlns="http://www.w3.org/2000/svg">
<path d="M10.707 9L10.707 10" stroke="#383C43" stroke-width="1.5" stroke-linecap="round"/>
<path d="M16.6055 9L16.6055 10" stroke="#383C43" stroke-width="1.5" stroke-linecap="round"/>
<path d="M10.7051 12.2874H16.6033C16.6033 13.5903 15.547 14.6466 14.244 14.6466H13.6542H13.0644C11.7614 14.6466 10.7051 13.5903 10.7051 12.2874Z" fill="#383C43"/>
<path d="M9.75 18H13.5H15C18.3137 18 21 15.3137 21 12V12C21 8.68629 18.3137 6 15 6H12C8.68629 6 6 8.68629 6 12V12V12.4615" stroke="#383C43" stroke-width="1.5"/>
<path d="M13.5 4.4707L13.5 5.65034" stroke="#383C43" stroke-width="1.5" stroke-linecap="round"/>
<circle cx="13.5009" cy="2.23529" r="2.23529" fill="#383C43"/>
<circle cx="17.9709" cy="0.558824" r="0.558824" fill="#383C43"/>
<circle cx="19.0881" cy="3.91136" r="0.558824" fill="#383C43"/>
<circle cx="7.91039" cy="3.91136" r="0.558824" fill="#383C43"/>
<circle cx="9.02953" cy="0.558824" r="0.558824" fill="#383C43"/>
<path d="M1.78125 19H0.171875L2.05469 13.3438H4.07812L5.95312 19H4.35156L4.01562 17.8906H2.11719L1.78125 19ZM2.46094 16.7656H3.67188L3.08594 14.8672H3.03906L2.46094 16.7656ZM8 13.3438V19H6.51562V13.3438H8Z" fill="#383C43"/>
</svg>
