<svg width="22" height="27" viewBox="0 0 22 27" fill="none" xmlns="http://www.w3.org/2000/svg">
<path fill-rule="evenodd" clip-rule="evenodd" d="M15.319 0.264524C15.381 0.157105 15.5182 0.120327 15.6256 0.182378C15.733 0.244429 15.7698 0.381812 15.7078 0.489232L14.5126 2.56159C16.5181 3.68961 17.9272 5.75271 18.1488 8.15969H3.84373C4.06535 5.75236 5.47485 3.68902 7.48077 2.5611L6.2861 0.48969C6.22415 0.382271 6.26096 0.244888 6.36833 0.182837C6.47569 0.120785 6.61295 0.157563 6.6749 0.264983L7.87927 2.3532C8.82206 1.89841 9.87939 1.64351 10.9963 1.64351C12.1135 1.64351 13.1711 1.89857 14.1142 2.35364L15.319 0.264524ZM1.62742 8.49663C0.728619 8.49663 0 9.22525 0 10.124V16.8687C0 17.7675 0.728619 18.4961 1.62742 18.4961C2.52621 18.4961 3.25483 17.7675 3.25483 16.8687V10.124C3.25483 9.22525 2.52621 8.49663 1.62742 8.49663ZM20.3728 8.49663C19.474 8.49663 18.7454 9.22525 18.7454 10.124V16.8687C18.7454 17.7675 19.474 18.4961 20.3728 18.4961C21.2716 18.4961 22.0002 17.7675 22.0002 16.8687V10.124C22.0002 9.22525 21.2716 8.49663 20.3728 8.49663ZM9.98773 20.968H12.0089V24.3968C12.0089 25.2956 12.7375 26.0242 13.6363 26.0242C14.5351 26.0242 15.2637 25.2956 15.2637 24.3968V20.968H16.1816C17.2862 20.968 18.1816 20.0726 18.1816 18.968V8.72146H3.81543V18.968C3.81543 20.0726 4.71086 20.968 5.81543 20.968H6.7329V24.3968C6.7329 25.2956 7.46152 26.0242 8.36031 26.0242C9.25911 26.0242 9.98773 25.2956 9.98773 24.3968V20.968ZM7.74598 5.68821C8.1179 5.68821 8.41939 5.3864 8.41939 5.01409C8.41939 4.64178 8.1179 4.33997 7.74598 4.33997C7.37406 4.33997 7.07257 4.64178 7.07257 5.01409C7.07257 5.3864 7.37406 5.68821 7.74598 5.68821ZM14.9269 5.01409C14.9269 5.3864 14.6254 5.68821 14.2535 5.68821C13.8816 5.68821 13.5801 5.3864 13.5801 5.01409C13.5801 4.64178 13.8816 4.33997 14.2535 4.33997C14.6254 4.33997 14.9269 4.64178 14.9269 5.01409Z" fill="#009ff9"/>
</svg>
