<svg width="15" height="18" viewBox="0 0 15 18" fill="none" xmlns="http://www.w3.org/2000/svg">
<path d="M0.5 1.38892H9.28996L14.5 6.70418V17.2778H0.5V1.38892Z" stroke="#767676"/>
<path d="M3.14505 13.8976C3.4435 14.0995 4.27916 14.1399 5.2342 12.6861C6.428 10.8688 7.92025 7.0828 7.77103 5.71985C7.6218 4.35689 6.428 5.26553 6.428 5.71985C6.428 6.17417 6.27878 7.68856 8.06948 9.80871C9.86018 11.9289 11.054 11.7774 11.6509 11.626C12.2478 11.4745 12.0986 10.5659 11.054 10.4145C10.0094 10.263 7.92025 10.7173 7.47258 10.8688C7.0249 11.0202 2.10048 12.0803 3.14505 13.8976Z" stroke="#F9282F"/>
</svg>
