<svg width="16" height="19" viewBox="0 0 16 19" fill="none" xmlns="http://www.w3.org/2000/svg">
<path d="M2.75 1V0.25H2V1H2.75ZM13.25 1H14V0.25H13.25V1ZM5.29451 9.25012L5.68156 9.89253L6.74782 9.25012L5.68156 8.60771L5.29451 9.25012ZM2.75 17.5002H2V18.2502H2.75V17.5002ZM13.25 17.5002V18.2502H14V17.5002H13.25ZM10.7055 9.25012L10.3184 8.60771L9.25218 9.25012L10.3184 9.89253L10.7055 9.25012ZM2.75 1.75H13.25V0.25H2.75V1.75ZM3.5 4.75V1H2V4.75H3.5ZM5.68156 8.60771C4.37269 7.81912 3.5 6.38611 3.5 4.75H2C2 6.93355 3.16687 8.84383 4.90746 9.89253L5.68156 8.60771ZM3.5 13.7502C3.5 12.1141 4.37269 10.6811 5.68156 9.89253L4.90746 8.60771C3.16687 9.65641 2 11.5667 2 13.7502H3.5ZM3.5 17.5002V13.7502H2V17.5002H3.5ZM13.25 16.7502H2.75V18.2502H13.25V16.7502ZM12.5 13.7502V17.5002H14V13.7502H12.5ZM10.3184 9.89253C11.6273 10.6811 12.5 12.1141 12.5 13.7502H14C14 11.5667 12.8331 9.65641 11.0925 8.60771L10.3184 9.89253ZM12.5 4.75C12.5 6.38611 11.6273 7.81912 10.3184 8.60771L11.0925 9.89253C12.8331 8.84383 14 6.93355 14 4.75H12.5ZM12.5 1V4.75H14V1H12.5Z" fill="black"/>
<path d="M5.08398 5.66663H10.9173C10.9173 6.95529 9.87265 7.99996 8.58398 7.99996H7.41732C6.12865 7.99996 5.08398 6.95529 5.08398 5.66663Z" fill="black"/>
<path d="M10.918 15.3667L5.08463 15.3667L8.0013 11.8667L10.918 15.3667Z" fill="black"/>
<path d="M1 1H15" stroke="black" stroke-width="1.5" stroke-linecap="round"/>
<path d="M1 17.5669H15" stroke="black" stroke-width="1.5" stroke-linecap="round"/>
</svg>
