<svg width="15" height="16" viewBox="0 0 15 16" fill="none" xmlns="http://www.w3.org/2000/svg">
<path d="M11 4H14L11 1V4ZM1.875 0H11.9539L15 3.01818V14.1455C15 14.6373 14.8025 15.109 14.4508 15.4568C14.0992 15.8046 13.6223 16 13.125 16H1.875C1.37772 16 0.900805 15.8046 0.549175 15.4568C0.197544 15.109 0 14.6373 0 14.1455V1.85455C0 0.825273 0.834375 0 1.875 0ZM2.5 14.1455H4.6875V8.58182H2.5V14.1455ZM6.5625 14.1455H9V6.72727H6.5625V14.1455ZM10.8125 14.1455H13V10.4364H10.8125V14.1455Z" fill="#767676"/>
</svg>
