<svg width="21" height="24" viewBox="0 0 21 24" fill="none" xmlns="http://www.w3.org/2000/svg">
<path fill-rule="evenodd" clip-rule="evenodd" d="M10.4498 6.13141C13.0159 5.5691 14.9325 3.34006 14.9325 0.675897C14.9325 0.44713 14.9184 0.221571 14.8909 0C12.3248 0.562313 10.4082 2.79136 10.4082 5.45552C10.4082 5.68429 10.4223 5.90984 10.4498 6.13141Z" fill="#009ff9"/>
<path fill-rule="evenodd" clip-rule="evenodd" d="M0.918999 12.9595C1.06652 19.8902 4.60712 23.8575 6.57412 23.7619C7.69766 23.7073 8.54845 23.3408 9.25479 23.0365C9.78506 22.8081 10.2339 22.6147 10.6556 22.6147C11.0977 22.6147 11.7683 22.8465 12.5066 23.1017C13.4109 23.4142 14.4168 23.7619 15.2289 23.7619C16.3959 23.7619 18.9785 21.6082 20.0555 17.0644C17.9749 16.4703 16.4558 14.6006 16.4558 12.386C16.4558 10.4149 17.6593 8.71697 19.3909 7.94858C18.2776 6.15429 16.6105 5.59857 15.5732 5.59857C15.147 5.56671 14.1372 5.59857 13.5078 5.98096C12.721 6.45894 11.59 6.93692 10.9507 6.93692C10.3114 6.93692 8.59996 6.27806 8.04937 5.98096C7.36092 5.60946 6.2299 5.5626 5.82586 5.60946C4.07397 5.81288 0.803422 7.52966 0.918999 12.9595Z" fill="#009ff9"/>
</svg>
