<svg width="21" height="18" viewBox="0 0 21 18" fill="none" xmlns="http://www.w3.org/2000/svg">
<path d="M20 7.36842V6.5C20 5.67157 19.3284 5 18.5 5H14.5C13.6716 5 13 5.67157 13 6.5V15.5C13 16.3284 13.6716 17 14.5 17H18.5C19.3284 17 20 16.3284 20 15.5V6.73734" stroke="#767676" stroke-width="2"/>
<path d="M13.2778 12H2.5C1.67157 12 1 11.3284 1 10.5V2.5C1 1.67157 1.67157 1 2.5 1H15.5C16.3284 1 17 1.67157 17 2.5V4.5" stroke="#767676" stroke-width="2"/>
<path d="M9 12V15.5" stroke="#767676" stroke-width="2"/>
<path d="M13 16H5" stroke="#767676" stroke-width="2"/>
<path d="M13 13L20 13" stroke="#767676" stroke-width="1.5"/>
<path d="M16 15H17" stroke="#767676"/>
</svg>
