<svg width="213" height="28" viewBox="0 0 213 28" fill="none" xmlns="http://www.w3.org/2000/svg">
<rect y="18" width="92" height="10" rx="5" fill="#CFEEE7"/>
<rect x="71" y="18" width="71" height="10" fill="#EFE2B2"/>
<path d="M66 13H75L71 18V28H70V18L66 13Z" fill="#707070"/>
<path d="M137 13H146L142 18V28H141V18L137 13Z" fill="#707070"/>
<path d="M142 18H208C210.761 18 213 20.2386 213 23C213 25.7614 210.761 28 208 28H142V18Z" fill="#F8D0D0"/>
<path d="M55.625 10V9.21875L58.0762 6.74805C58.8477 5.9375 59.2383 5.48828 59.2383 4.87305C59.2383 4.17969 58.6719 3.73047 57.9297 3.73047C57.1484 3.73047 56.6406 4.22852 56.6406 4.98047H55.625C55.6152 3.69141 56.6016 2.83203 57.9492 2.83203C59.3164 2.83203 60.2539 3.69141 60.2637 4.84375C60.2539 5.63477 59.8828 6.25977 58.5547 7.56836L57.1191 9.02344V9.08203H60.3809V10H55.625ZM62.2656 10.0684C61.8848 10.0684 61.5625 9.75586 61.5723 9.375C61.5625 8.99414 61.8848 8.68164 62.2656 8.68164C62.6367 8.68164 62.959 8.99414 62.959 9.375C62.959 9.75586 62.6367 10.0684 62.2656 10.0684ZM66.4941 10.0977C65.1562 10.0977 64.1504 9.27734 64.1016 8.1543H65.1465C65.2051 8.75977 65.7812 9.19922 66.4941 9.19922C67.3535 9.19922 67.9688 8.57422 67.9688 7.73438C67.9688 6.875 67.334 6.25 66.4453 6.24023C65.8789 6.24023 65.4492 6.42578 65.2051 6.86523H64.1895L64.6484 2.92969H68.6523V3.84766H65.5371L65.3027 5.83008H65.3711C65.6641 5.54688 66.1621 5.35156 66.6992 5.35156C68.0273 5.35156 69.0137 6.33789 69.0137 7.70508C69.0137 9.10156 67.9688 10.0977 66.4941 10.0977ZM73.1445 6.14258C73.0469 5.72266 72.7148 5.44922 72.1387 5.44922C71.543 5.44922 71.1133 5.76172 71.123 6.16211C71.1133 6.47461 71.3672 6.69922 71.9531 6.83594L72.793 7.03125C73.7695 7.24609 74.2383 7.71484 74.248 8.4668C74.2383 9.42383 73.4375 10.1074 72.0801 10.1074C70.8105 10.1074 70.0488 9.54102 69.9219 8.55469H70.9863C71.0742 9.0332 71.4453 9.26758 72.0703 9.26758C72.7441 9.26758 73.1738 8.99414 73.1836 8.54492C73.1738 8.20312 72.9199 7.97852 72.3633 7.85156L71.5332 7.67578C70.5762 7.46094 70.0781 6.95312 70.0781 6.2207C70.0781 5.27344 70.8984 4.62891 72.1289 4.62891C73.3105 4.62891 74.043 5.23438 74.1504 6.14258H73.1445ZM77.5488 10.1074C75.9863 10.1074 75.0293 9.0332 75.0293 7.38281C75.0293 5.75195 76.0059 4.62891 77.4805 4.62891C78.6914 4.62891 79.834 5.38086 79.834 7.29492V7.66602H76.0645C76.0938 8.67188 76.6846 9.24805 77.5586 9.24805C78.1543 9.24805 78.5352 8.99414 78.7109 8.67188H79.7656C79.5312 9.53125 78.7109 10.1074 77.5488 10.1074ZM76.0742 6.88477H78.8086C78.8086 6.07422 78.291 5.48828 77.4902 5.48828C76.6553 5.48828 76.1133 6.13281 76.0742 6.88477ZM83.1152 10.1074C81.5723 10.1074 80.6348 8.96484 80.6348 7.37305C80.6348 5.75195 81.6016 4.62891 83.0957 4.62891C84.3066 4.62891 85.1855 5.3418 85.293 6.41602H84.2773C84.1699 5.91797 83.7695 5.49805 83.1152 5.49805C82.2559 5.49805 81.6797 6.21094 81.6797 7.34375C81.6797 8.50586 82.2461 9.21875 83.1152 9.21875C83.7012 9.21875 84.1504 8.89648 84.2773 8.32031H85.293C85.1758 9.3457 84.3652 10.1074 83.1152 10.1074Z" fill="#707070"/>
<path d="M124.469 8.62305V7.75391L127.594 2.92969H128.922V7.71484H129.889V8.62305H128.922V10H127.906V8.62305H124.469ZM125.602 7.71484H127.906V4.20898H127.828L125.602 7.65625V7.71484ZM131.402 10.0684C131.021 10.0684 130.699 9.75586 130.709 9.375C130.699 8.99414 131.021 8.68164 131.402 8.68164C131.773 8.68164 132.096 8.99414 132.096 9.375C132.096 9.75586 131.773 10.0684 131.402 10.0684ZM135.543 10.0977C133.902 10.0977 132.945 8.7793 132.945 6.46484C132.945 4.16992 133.922 2.83203 135.543 2.83203C137.164 2.83203 138.141 4.16992 138.141 6.46484C138.141 8.7793 137.174 10.0977 135.543 10.0977ZM135.543 9.16992C136.5 9.16992 137.066 8.23242 137.066 6.46484C137.066 4.70703 136.49 3.74023 135.543 3.74023C134.596 3.74023 134.02 4.70703 134.02 6.46484C134.02 8.23242 134.586 9.16992 135.543 9.16992ZM142.242 6.14258C142.145 5.72266 141.812 5.44922 141.236 5.44922C140.641 5.44922 140.211 5.76172 140.221 6.16211C140.211 6.47461 140.465 6.69922 141.051 6.83594L141.891 7.03125C142.867 7.24609 143.336 7.71484 143.346 8.4668C143.336 9.42383 142.535 10.1074 141.178 10.1074C139.908 10.1074 139.146 9.54102 139.02 8.55469H140.084C140.172 9.0332 140.543 9.26758 141.168 9.26758C141.842 9.26758 142.271 8.99414 142.281 8.54492C142.271 8.20312 142.018 7.97852 141.461 7.85156L140.631 7.67578C139.674 7.46094 139.176 6.95312 139.176 6.2207C139.176 5.27344 139.996 4.62891 141.227 4.62891C142.408 4.62891 143.141 5.23438 143.248 6.14258H142.242ZM146.646 10.1074C145.084 10.1074 144.127 9.0332 144.127 7.38281C144.127 5.75195 145.104 4.62891 146.578 4.62891C147.789 4.62891 148.932 5.38086 148.932 7.29492V7.66602H145.162C145.191 8.67188 145.782 9.24805 146.656 9.24805C147.252 9.24805 147.633 8.99414 147.809 8.67188H148.863C148.629 9.53125 147.809 10.1074 146.646 10.1074ZM145.172 6.88477H147.906C147.906 6.07422 147.389 5.48828 146.588 5.48828C145.753 5.48828 145.211 6.13281 145.172 6.88477ZM152.213 10.1074C150.67 10.1074 149.732 8.96484 149.732 7.37305C149.732 5.75195 150.699 4.62891 152.193 4.62891C153.404 4.62891 154.283 5.3418 154.391 6.41602H153.375C153.268 5.91797 152.867 5.49805 152.213 5.49805C151.354 5.49805 150.777 6.21094 150.777 7.34375C150.777 8.50586 151.344 9.21875 152.213 9.21875C152.799 9.21875 153.248 8.89648 153.375 8.32031H154.391C154.273 9.3457 153.463 10.1074 152.213 10.1074Z" fill="#707070"/>
</svg>
