<svg width="22" height="18" viewBox="0 0 22 18" fill="none" xmlns="http://www.w3.org/2000/svg">
<path d="M8.25 5.4C8.25 5.1613 8.34658 4.93239 8.51849 4.7636C8.69039 4.59482 8.92355 4.5 9.16667 4.5H14.6667C14.9098 4.5 15.1429 4.59482 15.3148 4.7636C15.4868 4.93239 15.5833 5.1613 15.5833 5.4C15.5833 5.63869 15.4868 5.86761 15.3148 6.0364C15.1429 6.20518 14.9098 6.3 14.6667 6.3H9.16667C8.92355 6.3 8.69039 6.20518 8.51849 6.0364C8.34658 5.86761 8.25 5.63869 8.25 5.4ZM9.16667 9.9H14.6667C14.9098 9.9 15.1429 9.80518 15.3148 9.6364C15.4868 9.46761 15.5833 9.23869 15.5833 9C15.5833 8.7613 15.4868 8.53239 15.3148 8.3636C15.1429 8.19482 14.9098 8.1 14.6667 8.1H9.16667C8.92355 8.1 8.69039 8.19482 8.51849 8.3636C8.34658 8.53239 8.25 8.7613 8.25 9C8.25 9.23869 8.34658 9.46761 8.51849 9.6364C8.69039 9.80518 8.92355 9.9 9.16667 9.9ZM22 14.4C22 15.3548 21.6137 16.2705 20.9261 16.9456C20.2384 17.6207 19.3058 18 18.3333 18H7.33333C6.875 18 5.80106 17.3956 5.5 17.1C5.19894 16.8044 4.58333 15.3548 4.58333 14.4V3.6C4.58333 3.12261 4.46882 2.58757 4.125 2.25C3.98744 2.11494 3.69456 1.8 3.20833 1.8C2.7221 1.8 2.48475 2.06043 2.29167 2.25C1.94785 2.58757 1.83333 3.12261 1.83333 3.6C1.83333 4.24575 2.38677 4.68225 2.3925 4.68675C2.54421 4.80138 2.65556 4.95976 2.71093 5.13968C2.7663 5.31959 2.76292 5.51202 2.70124 5.68995C2.63957 5.86788 2.52271 6.02239 2.36706 6.1318C2.2114 6.24121 2.02477 6.30002 1.83333 6.3C1.6351 6.30034 1.44226 6.2367 1.28448 6.11887C1.15156 6.02325 0 5.13112 0 3.6C0 2.64522 0.386308 1.72955 1.07394 1.05442C1.76158 0.379284 2.69421 0 2.75 0H15.5833C16.5558 0 17.4884 0.379284 18.1761 1.05442C18.8637 1.72955 19.25 2.64522 19.25 3.6V11.7H20.1667C20.365 11.7 20.558 11.7632 20.7167 11.88C20.8542 11.9768 22 12.8689 22 14.4ZM8.27979 12.3165C8.34242 12.135 8.46195 11.9776 8.62126 11.8668C8.78057 11.7561 8.97149 11.6977 9.16667 11.7H17.4167V3.6C17.4167 3.12261 17.2235 2.66477 16.8797 2.32721C16.5359 1.98964 16.0696 1.8 15.5833 1.8H5.92281C6.24701 2.34642 6.41745 2.96763 6.41667 3.6V14.4C6.41667 14.8774 6.53118 15.4124 6.875 15.75C6.95646 15.83 7.33333 16.2 7.79167 16.2C8.17407 16.2 8.62126 15.8981 8.70833 15.75C9.05215 15.4124 9.16667 14.8774 9.16667 14.4C9.16667 13.7542 8.61323 13.3177 8.6075 13.3132C8.45128 13.2035 8.33511 13.0474 8.2761 12.868C8.2171 12.6885 8.21839 12.4952 8.27979 12.3165ZM20.1667 14.4C20.1552 14.0665 20.0241 13.7478 19.7966 13.5H10.8591C10.9512 13.7914 10.9979 14.0949 10.9977 14.4C10.9986 15.0321 10.829 15.6531 10.5061 16.2H18.3333C18.8196 16.2 19.2859 16.0104 19.6297 15.6728C19.9735 15.3352 20.1667 14.8774 20.1667 14.4Z" fill="#767676"/>
</svg>
