<svg width="90" height="90" viewBox="0 0 90 90" fill="none" xmlns="http://www.w3.org/2000/svg">
<path d="M77.9163 0H12.0837C5.41006 0 0 5.41006 0 12.0837V77.9163C0 84.59 5.41006 90 12.0837 90H77.9163C84.59 90 90 84.59 90 77.9163V12.0837C90 5.41006 84.59 0 77.9163 0Z" fill="#13AEBB"/>
<path d="M37.449 36.3682L34.9824 43.8931L40.0278 43.8784L37.5135 36.3682C37.5113 36.3614 37.507 36.3554 37.5012 36.3512C37.4954 36.347 37.4884 36.3447 37.4813 36.3447C37.4741 36.3447 37.4671 36.347 37.4613 36.3512C37.4555 36.3554 37.4512 36.3614 37.449 36.3682Z" fill="white"/>
<path d="M44.6522 13.965C25.5809 14.0199 10.1555 26.2803 10.1993 41.3451C10.2272 51.0321 16.6445 59.5221 26.2922 64.3344L23.0726 76.5024C23.0042 76.705 23.0032 76.9243 23.0697 77.1275C23.1363 77.3307 23.2668 77.5069 23.4419 77.6297C23.6169 77.7525 23.827 77.8153 24.0407 77.8088C24.2544 77.8023 24.4603 77.7268 24.6275 77.5935L38.5997 68.1036C40.6571 68.3914 42.7323 68.5326 44.8097 68.5263C63.8807 68.4714 79.3064 56.214 79.2632 41.1468C79.22 26.0796 63.7235 13.9104 44.6522 13.965Z" fill="white"/>
<path d="M30.7539 38.8926C30.625 37.668 29.6367 36.9375 28.0684 36.9375C26.4355 36.9375 25.5332 37.6895 25.5117 38.7207C25.4902 39.8379 26.6719 40.3535 28.0039 40.6543L29.4004 40.998C32.0645 41.5996 34.0625 42.9531 34.0625 45.5527C34.0625 48.4102 31.8281 50.2148 28.0469 50.2148C24.2871 50.2148 21.8809 48.4746 21.7949 45.1445H24.9316C25.0391 46.7129 26.2852 47.5078 28.0039 47.5078C29.7012 47.5078 30.7969 46.7129 30.7969 45.5527C30.7969 44.5 29.8301 44.0059 28.1328 43.5762L26.4355 43.168C23.8145 42.5234 22.2031 41.2129 22.2031 38.9355C22.2031 36.0996 24.6953 34.2305 28.0898 34.2305C31.5273 34.2305 33.8047 36.1426 33.8477 38.8926H30.7539ZM36.168 34.4453H40.1641L44.4824 44.9941H44.6543L48.9727 34.4453H52.9688V50H49.832V39.8164H49.7031L45.6426 49.9355H43.4941L39.4336 39.7734H39.3047V50H36.168V34.4453ZM64.0332 38.8926C63.9043 37.668 62.916 36.9375 61.3477 36.9375C59.7148 36.9375 58.8125 37.6895 58.791 38.7207C58.7695 39.8379 59.9512 40.3535 61.2832 40.6543L62.6797 40.998C65.3438 41.5996 67.3418 42.9531 67.3418 45.5527C67.3418 48.4102 65.1074 50.2148 61.3262 50.2148C57.5664 50.2148 55.1602 48.4746 55.0742 45.1445H58.2109C58.3184 46.7129 59.5645 47.5078 61.2832 47.5078C62.9805 47.5078 64.0762 46.7129 64.0762 45.5527C64.0762 44.5 63.1094 44.0059 61.4121 43.5762L59.7148 43.168C57.0938 42.5234 55.4824 41.2129 55.4824 38.9355C55.4824 36.0996 57.9746 34.2305 61.3691 34.2305C64.8066 34.2305 67.084 36.1426 67.127 38.8926H64.0332Z" fill="#13AEBB"/>
</svg>
