<svg width="13" height="13" viewBox="0 0 13 13" fill="none" xmlns="http://www.w3.org/2000/svg">
<path fill-rule="evenodd" clip-rule="evenodd" d="M8.97921 0L10.6117 0.942526L10.3142 3.23925C10.5347 3.53468 10.7177 3.85359 10.861 4.18821L13.0002 5.07955V6.96461L10.8604 7.85621C10.789 8.02175 10.7072 8.18489 10.6149 8.34482C10.5387 8.47676 10.457 8.60355 10.3703 8.72506L10.6836 11.1435L9.05109 12.0861L7.15136 10.6347C6.78572 10.6794 6.41362 10.681 6.04311 10.6372L4.2023 12.0436L2.5698 11.1011L2.86729 8.80433C2.64683 8.50912 2.46388 8.19045 2.3205 7.85607L0.181641 6.96488V5.07983L2.31913 4.18921C2.39081 4.02268 2.47297 3.85857 2.56585 3.69771C2.67456 3.50941 2.79445 3.3316 2.92422 3.16464L2.64193 0.985239L4.27443 0.0427124L6.05695 1.40457C6.41435 1.36299 6.77772 1.36264 7.13955 1.40551L8.97921 0ZM3.43187 4.1977C4.43899 2.45332 6.66954 1.85564 8.41392 2.86277C10.1583 3.86989 10.756 6.10043 9.74886 7.84482C8.74174 9.58921 6.5112 10.1869 4.76681 9.17976C3.02242 8.17264 2.42475 5.94209 3.43187 4.1977Z" fill="white"/>
</svg>
