<svg width="16" height="19" viewBox="0 0 16 19" fill="none" xmlns="http://www.w3.org/2000/svg">
<path d="M13.25 4.75H14H13.25ZM10.7041 9.25L10.3172 8.60751L9.25026 9.25002L10.3172 9.8925L10.7041 9.25ZM13.25 13.75H14V13.75L13.25 13.75ZM13.25 17.5V18.25H14V17.5H13.25ZM2.75 17.5H2V18.25H2.75V17.5ZM2.75 13.75L2 13.75V13.75H2.75ZM5.29492 9.25L5.68192 9.89244L6.74838 9.25002L5.68194 8.60757L5.29492 9.25ZM2.75 1V0.25H2V1H2.75ZM13.25 1H14V0.25H13.25V1ZM13.25 4.75H12.5C12.5 6.38622 11.6267 7.8189 10.3172 8.60751L10.7041 9.25L11.091 9.89249C12.832 8.84405 14 6.93424 14 4.75H13.25ZM10.7041 9.25L10.3172 9.8925C11.6267 10.681 12.4999 12.1138 12.5 13.75L13.25 13.75L14 13.75C13.9999 11.5659 12.832 9.65591 11.091 8.6075L10.7041 9.25ZM13.25 13.75H12.5V17.5H13.25H14V13.75H13.25ZM13.25 17.5V16.75H2.75V17.5V18.25H13.25V17.5ZM2.75 17.5H3.5V13.75H2.75H2V17.5H2.75ZM2.75 13.75L3.5 13.75C3.50007 12.1139 4.37291 10.681 5.68192 9.89244L5.29492 9.25L4.90792 8.60756C3.1672 9.65615 2.0001 11.5663 2 13.75L2.75 13.75ZM5.29492 9.25L5.68194 8.60757C4.37287 7.81896 3.5 6.38611 3.5 4.75H2.75H2C2 6.93375 3.16723 8.84381 4.90791 9.89243L5.29492 9.25ZM2.75 4.75H3.5V1H2.75H2V4.75H2.75ZM2.75 1V1.75H13.25V1V0.25H2.75V1ZM13.25 1H12.5V4.75H13.25H14V1H13.25Z" fill="#767676"/>
<path d="M5.08325 5.66675H10.9166C10.9166 6.95541 9.87192 8.00008 8.58325 8.00008H7.41659C6.12792 8.00008 5.08325 6.95541 5.08325 5.66675Z" fill="#767676"/>
<path d="M10.917 15.3667L5.08366 15.3667L8.00033 11.8667L10.917 15.3667Z" fill="#767676"/>
<path d="M1 1H15" stroke="#767676" stroke-width="1.5" stroke-linecap="round"/>
<path d="M1 17.5669H15" stroke="#767676" stroke-width="1.5" stroke-linecap="round"/>
</svg>
