<svg width="10" height="8" viewBox="0 0 10 8" fill="none" xmlns="http://www.w3.org/2000/svg">
<path d="M1 4.05631H2.34769C2.40444 4.05553 2.45999 4.03667 2.50865 4.00166C2.55731 3.96666 2.59734 3.91677 2.62462 3.85711L3.73231 1.20115C3.75961 1.13502 3.80313 1.08049 3.85703 1.04489C3.91094 1.00928 3.97263 0.994296 4.03385 1.00195C4.09481 1.00689 4.153 1.03438 4.2004 1.08063C4.24779 1.12687 4.28205 1.1896 4.29846 1.26017L5.67077 6.7344C5.68878 6.80866 5.7258 6.87425 5.77659 6.92191C5.82739 6.96957 5.8894 6.99689 5.95385 7C6.01424 6.9976 6.07271 6.97393 6.12196 6.93194C6.1712 6.88996 6.20905 6.83152 6.23077 6.76391L7.07385 4.29239C7.09706 4.22306 7.13696 4.16359 7.18847 4.12154C7.23998 4.0795 7.30076 4.05679 7.36308 4.05631H9" stroke="#838383" stroke-linecap="round" stroke-linejoin="round"/>
</svg>
