<svg width="29" height="29" viewBox="0 0 29 29" fill="none" xmlns="http://www.w3.org/2000/svg">
<path fill-rule="evenodd" clip-rule="evenodd" d="M16.1867 0L20.2896 1.09937L20.8219 5.0783C21.226 5.34902 21.6077 5.642 21.9661 5.95463L25.945 5.43927L28.0688 9.11784L25.6301 12.3098C25.7227 12.7797 25.7857 13.2559 25.8185 13.7352L28.9998 16.187L27.9005 20.2899L23.9166 20.8229C23.6845 21.1691 23.4362 21.4988 23.1732 21.8115L23.7209 26.0406L20.0423 28.1645L16.7167 25.6236C16.2383 25.7192 15.7533 25.7842 15.2651 25.8177L12.8124 29.0002L8.70952 27.9009L8.17678 23.9187C7.77336 23.6486 7.39234 23.3563 7.03443 23.0445L3.05427 23.56L0.930446 19.8814L3.36731 16.6918C3.27432 16.2211 3.21095 15.7442 3.17801 15.264L0 12.8148L1.09938 8.7119L5.07456 8.18009C5.38331 7.71856 5.72107 7.28634 6.08398 6.88445L5.60034 3.15045L9.27891 1.02662L12.3343 3.36094C12.7972 3.27078 13.2662 3.20926 13.7382 3.17714L16.1867 0ZM8.13729 10.8253C10.1655 7.31228 14.6575 6.10864 18.1705 8.13686C21.6835 10.1651 22.8871 14.6571 20.8589 18.1701C18.8307 21.6831 14.3387 22.8867 10.8257 20.8585C7.31271 18.8303 6.10907 14.3382 8.13729 10.8253Z" fill="#8B99A0"/>
</svg>
