<svg width="17" height="17" viewBox="0 0 17 17" fill="none" xmlns="http://www.w3.org/2000/svg">
<path d="M7 6L7 16" stroke="#858696" stroke-width="1.5"/>
<rect x="1" y="1" width="15" height="15" rx="2" stroke="#858696" stroke-width="1.5"/>
<mask id="path-3-inside-1_5405_603" fill="white">
<path fill-rule="evenodd" clip-rule="evenodd" d="M1.02734 3.02768C1.44156 3.02768 1.77734 3.36347 1.77734 3.77768C1.77734 4.7422 2.55924 5.5241 3.52377 5.5241C4.48829 5.5241 5.27019 4.7422 5.27019 3.77768C5.27019 3.36347 5.60598 3.02768 6.02019 3.02768C6.4344 3.02768 6.77019 3.36347 6.77019 3.77768C6.77019 5.57063 5.31672 7.0241 3.52377 7.0241C1.73082 7.0241 0.277344 5.57063 0.277344 3.77768C0.277344 3.36347 0.61313 3.02768 1.02734 3.02768Z"/>
</mask>
<path d="M3.27734 3.77768C3.27734 2.53504 2.26998 1.52768 1.02734 1.52768V4.52768C0.61313 4.52768 0.277344 4.19189 0.277344 3.77768H3.27734ZM3.52377 4.0241C3.38767 4.0241 3.27734 3.91378 3.27734 3.77768H0.277344C0.277344 5.57063 1.73082 7.0241 3.52377 7.0241V4.0241ZM3.77019 3.77768C3.77019 3.91378 3.65986 4.0241 3.52377 4.0241V7.0241C5.31672 7.0241 6.77019 5.57063 6.77019 3.77768H3.77019ZM6.02019 1.52768C4.77755 1.52768 3.77019 2.53504 3.77019 3.77768H6.77019C6.77019 4.19189 6.4344 4.52768 6.02019 4.52768V1.52768ZM8.27019 3.77768C8.27019 2.53504 7.26283 1.52768 6.02019 1.52768V4.52768C5.60598 4.52768 5.27019 4.19189 5.27019 3.77768H8.27019ZM3.52377 8.5241C6.14514 8.5241 8.27019 6.39906 8.27019 3.77768H5.27019C5.27019 4.7422 4.48829 5.5241 3.52377 5.5241V8.5241ZM-1.22266 3.77768C-1.22266 6.39906 0.90239 8.5241 3.52377 8.5241V5.5241C2.55924 5.5241 1.77734 4.7422 1.77734 3.77768H-1.22266ZM1.02734 1.52768C-0.215297 1.52768 -1.22266 2.53504 -1.22266 3.77768H1.77734C1.77734 4.19189 1.44156 4.52768 1.02734 4.52768V1.52768Z" fill="#858696" mask="url(#path-3-inside-1_5405_603)"/>
<mask id="path-5-inside-2_5405_603" fill="white">
<path fill-rule="evenodd" clip-rule="evenodd" d="M6.01953 3.02768C6.43374 3.02768 6.76953 3.36347 6.76953 3.77768C6.76953 4.7422 7.55143 5.5241 8.51595 5.5241C9.48048 5.5241 10.2624 4.7422 10.2624 3.77768C10.2624 3.36347 10.5982 3.02768 11.0124 3.02768C11.4266 3.02768 11.7624 3.36347 11.7624 3.77768C11.7624 5.57063 10.3089 7.0241 8.51595 7.0241C6.723 7.0241 5.26953 5.57063 5.26953 3.77768C5.26953 3.36347 5.60532 3.02768 6.01953 3.02768Z"/>
</mask>
<path d="M8.26953 3.77768C8.26953 2.53504 7.26217 1.52768 6.01953 1.52768V4.52768C5.60532 4.52768 5.26953 4.19189 5.26953 3.77768H8.26953ZM8.51595 4.0241C8.37986 4.0241 8.26953 3.91378 8.26953 3.77768H5.26953C5.26953 5.57063 6.723 7.0241 8.51595 7.0241V4.0241ZM8.76238 3.77768C8.76238 3.91378 8.65205 4.0241 8.51595 4.0241V7.0241C10.3089 7.0241 11.7624 5.57063 11.7624 3.77768H8.76238ZM11.0124 1.52768C9.76974 1.52768 8.76238 2.53504 8.76238 3.77768H11.7624C11.7624 4.19189 11.4266 4.52768 11.0124 4.52768V1.52768ZM13.2624 3.77768C13.2624 2.53504 12.255 1.52768 11.0124 1.52768V4.52768C10.5982 4.52768 10.2624 4.19189 10.2624 3.77768H13.2624ZM8.51595 8.5241C11.1373 8.5241 13.2624 6.39906 13.2624 3.77768H10.2624C10.2624 4.7422 9.48048 5.5241 8.51595 5.5241V8.5241ZM3.76953 3.77768C3.76953 6.39906 5.89458 8.5241 8.51595 8.5241V5.5241C7.55143 5.5241 6.76953 4.7422 6.76953 3.77768H3.76953ZM6.01953 1.52768C4.77689 1.52768 3.76953 2.53504 3.76953 3.77768H6.76953C6.76953 4.19189 6.43374 4.52768 6.01953 4.52768V1.52768Z" fill="#858696" mask="url(#path-5-inside-2_5405_603)"/>
<mask id="path-7-inside-3_5405_603" fill="white">
<path fill-rule="evenodd" clip-rule="evenodd" d="M11.0137 3.02768C11.4279 3.02768 11.7637 3.36347 11.7637 3.77768C11.7637 4.7422 12.5456 5.5241 13.5101 5.5241C14.4746 5.5241 15.2565 4.7422 15.2565 3.77768C15.2565 3.36347 15.5923 3.02768 16.0065 3.02768C16.4207 3.02768 16.7565 3.36347 16.7565 3.77768C16.7565 5.57063 15.303 7.0241 13.5101 7.0241C11.7171 7.0241 10.2637 5.57063 10.2637 3.77768C10.2637 3.36347 10.5995 3.02768 11.0137 3.02768Z"/>
</mask>
<path d="M13.2637 3.77768C13.2637 2.53504 12.2563 1.52768 11.0137 1.52768V4.52768C10.5995 4.52768 10.2637 4.19189 10.2637 3.77768H13.2637ZM13.5101 4.0241C13.374 4.0241 13.2637 3.91378 13.2637 3.77768H10.2637C10.2637 5.57063 11.7171 7.0241 13.5101 7.0241V4.0241ZM13.7565 3.77768C13.7565 3.91378 13.6462 4.0241 13.5101 4.0241V7.0241C15.303 7.0241 16.7565 5.57063 16.7565 3.77768H13.7565ZM16.0065 1.52768C14.7639 1.52768 13.7565 2.53504 13.7565 3.77768H16.7565C16.7565 4.19189 16.4207 4.52768 16.0065 4.52768V1.52768ZM18.2565 3.77768C18.2565 2.53504 17.2492 1.52768 16.0065 1.52768V4.52768C15.5923 4.52768 15.2565 4.19189 15.2565 3.77768H18.2565ZM13.5101 8.5241C16.1315 8.5241 18.2565 6.39906 18.2565 3.77768H15.2565C15.2565 4.7422 14.4746 5.5241 13.5101 5.5241V8.5241ZM8.76367 3.77768C8.76367 6.39906 10.8887 8.5241 13.5101 8.5241V5.5241C12.5456 5.5241 11.7637 4.7422 11.7637 3.77768H8.76367ZM11.0137 1.52768C9.77103 1.52768 8.76367 2.53504 8.76367 3.77768H11.7637C11.7637 4.19189 11.4279 4.52768 11.0137 4.52768V1.52768Z" fill="#858696" mask="url(#path-7-inside-3_5405_603)"/>
<circle cx="4.75" cy="10.75" r="0.75" fill="#858696"/>
</svg>
