<svg width="90" height="90" viewBox="0 0 90 90" fill="none" xmlns="http://www.w3.org/2000/svg">
<path d="M12.084 0.5H77.916C84.3135 0.5 89.5 5.68648 89.5 12.084V77.916C89.5 84.3135 84.3135 89.5 77.916 89.5H12.084C5.68648 89.5 0.5 84.3135 0.5 77.916V12.084C0.5 5.68648 5.68648 0.5 12.084 0.5Z" fill="white" stroke="#E3E5E8"/>
<path d="M32.8542 40.5296C32.8542 42.9688 30.8828 44.9401 28.4437 44.9401C26.0046 44.9401 24.0332 42.9688 24.0332 40.5296C24.0332 38.0905 26.0046 36.1191 28.4437 36.1191H32.8542V40.5296ZM35.0594 40.5296C35.0594 38.0905 37.0308 36.1191 39.4699 36.1191C41.9091 36.1191 43.8804 38.0905 43.8804 40.5296V51.5559C43.8804 53.995 41.9091 55.9664 39.4699 55.9664C37.0308 55.9664 35.0594 53.995 35.0594 51.5559V40.5296Z" fill="#E01E5A"/>
<path d="M39.4702 22.821C37.031 22.821 35.0597 20.8496 35.0597 18.4105C35.0597 15.9714 37.031 14 39.4702 14C41.9093 14 43.8807 15.9714 43.8807 18.4105V22.821H39.4702ZM39.4702 25.0597C41.9093 25.0597 43.8807 27.031 43.8807 29.4702C43.8807 31.9093 41.9093 33.8807 39.4702 33.8807H28.4105C25.9714 33.8807 24 31.9093 24 29.4702C24 27.031 25.9714 25.0597 28.4105 25.0597H39.4702Z" fill="#36C5F0"/>
<path d="M57.1454 29.4702C57.1454 27.031 59.1167 25.0597 61.5559 25.0597C63.995 25.0597 65.9664 27.031 65.9664 29.4702C65.9664 31.9093 63.995 33.8807 61.5559 33.8807H57.1454V29.4702ZM54.9401 29.4702C54.9401 31.9093 52.9688 33.8807 50.5296 33.8807C48.0905 33.8807 46.1191 31.9093 46.1191 29.4702V18.4105C46.1191 15.9714 48.0905 14 50.5296 14C52.9688 14 54.9401 15.9714 54.9401 18.4105V29.4702Z" fill="#2EB67D"/>
<path d="M50.5296 47.1454C52.9688 47.1454 54.9401 49.1167 54.9401 51.5559C54.9401 53.995 52.9688 55.9664 50.5296 55.9664C48.0905 55.9664 46.1191 53.995 46.1191 51.5559V47.1454H50.5296ZM50.5296 44.9401C48.0905 44.9401 46.1191 42.9688 46.1191 40.5296C46.1191 38.0905 48.0905 36.1191 50.5296 36.1191H61.5893C64.0284 36.1191 65.9998 38.0905 65.9998 40.5296C65.9998 42.9688 64.0284 44.9401 61.5893 44.9401H50.5296Z" fill="#ECB22E"/>
<path d="M26.209 74.8024L26.9188 73.1536C27.6859 73.7261 28.7049 74.0238 29.7125 74.0238C30.4567 74.0238 30.9261 73.7376 30.9261 73.3025C30.9146 72.0888 26.4723 73.0392 26.438 69.9936C26.4265 68.4479 27.8004 67.2571 29.7468 67.2571C30.9032 67.2571 32.0596 67.5433 32.8839 68.196L32.2199 69.8791C31.4642 69.3982 30.5254 69.0547 29.6323 69.0547C29.0255 69.0547 28.6248 69.3409 28.6248 69.7073C28.6362 70.8981 33.1129 70.2455 33.1587 73.1536C33.1587 74.7337 31.8191 75.8443 29.8957 75.8443C28.4874 75.8443 27.1936 75.5123 26.209 74.8024ZM53.4468 72.5583C53.0919 73.1765 52.4278 73.6002 51.6607 73.6002C50.5272 73.6002 49.6113 72.6842 49.6113 71.5507C49.6113 70.4172 50.5272 69.5012 51.6607 69.5012C52.4278 69.5012 53.0919 69.9249 53.4468 70.5431L55.4046 69.4554C54.6719 68.1502 53.2636 67.2571 51.6607 67.2571C49.2907 67.2571 47.3672 69.1806 47.3672 71.5507C47.3672 73.9208 49.2907 75.8443 51.6607 75.8443C53.2751 75.8443 54.6719 74.9627 55.4046 73.646L53.4468 72.5583ZM34.1433 63.6963H36.5935V75.684H34.1433V63.6963ZM58.8165 75.684V72.0888L61.7246 75.684H64.8617L61.1636 71.4133L64.587 67.4289H61.5872L58.8165 70.7378V63.6963H56.3664V75.684H58.8165ZM43.8752 72.5812C43.5203 73.1651 42.7875 73.6002 41.9632 73.6002C40.8297 73.6002 39.9138 72.6842 39.9138 71.5507C39.9138 70.4172 40.8297 69.5012 41.9632 69.5012C42.7875 69.5012 43.5203 69.9592 43.8752 70.5546V72.5812ZM43.8752 67.4289V68.4021C43.4745 67.7265 42.4784 67.2571 41.4365 67.2571C39.2841 67.2571 37.5896 69.1577 37.5896 71.5393C37.5896 73.9208 39.2841 75.8443 41.4365 75.8443C42.4784 75.8443 43.4745 75.3749 43.8752 74.6993V75.6726H46.3254V67.4289H43.8752Z" fill="black"/>
</svg>
