<svg width="48" height="16" viewBox="0 0 48 16" fill="none" xmlns="http://www.w3.org/2000/svg">
<rect width="48" height="16" rx="1" fill="#EBF3FA"/>
<path d="M6 3H10.3244V13H6V3Z" stroke="#7277FF"/>
<path d="M12.7568 11.3333L14.3785 13L16.0001 11.3333M16.0001 4.66667L14.3785 3L12.7568 4.66667M14.3785 12.5833V3.41667" stroke="#7277FF" stroke-linecap="square"/>
<path d="M21.6543 12V4.92969H22.9238V10.9258H26.0488V12H21.6543ZM31.5469 7.3125C31.4004 6.46289 30.7168 5.97461 29.8574 5.97461C28.6953 5.97461 27.8848 6.86328 27.8848 8.46484C27.8848 10.0859 28.7051 10.9551 29.8574 10.9551C30.6973 10.9551 31.3809 10.4863 31.5469 9.65625H32.8262C32.6309 11.0137 31.5176 12.0977 29.8379 12.0977C27.9727 12.0977 26.6055 10.7402 26.6055 8.46484C26.6055 6.17969 27.9922 4.83203 29.8379 4.83203C31.4004 4.83203 32.6113 5.74023 32.8262 7.3125H31.5469ZM33.9199 12V4.92969H36.5762C38.1973 4.92969 39.0664 5.91602 39.0664 7.27344C39.0664 8.63086 38.1875 9.60742 36.5566 9.60742H35.1895V12H33.9199ZM35.1895 8.5625H36.3809C37.3379 8.5625 37.7676 8.02539 37.7676 7.27344C37.7676 6.51172 37.3379 5.99414 36.3809 5.99414H35.1895V8.5625Z" fill="#7277FF"/>
</svg>
