<svg width="90" height="90" viewBox="0 0 90 90" fill="none" xmlns="http://www.w3.org/2000/svg">
<path d="M77.9163 0H12.0837C5.41006 0 0 5.41006 0 12.0837V77.9163C0 84.59 5.41006 90 12.0837 90H77.9163C84.59 90 90 84.59 90 77.9163V12.0837C90 5.41006 84.59 0 77.9163 0Z" fill="#FBE300"/>
<path d="M37.449 36.3682L34.9824 43.8931L40.0278 43.8784L37.5135 36.3682C37.5113 36.3614 37.507 36.3554 37.5012 36.3512C37.4954 36.347 37.4884 36.3447 37.4813 36.3447C37.4741 36.3447 37.4671 36.347 37.4613 36.3512C37.4555 36.3554 37.4512 36.3614 37.449 36.3682Z" fill="#3B1E1E"/>
<path d="M44.6522 13.965C25.5809 14.0199 10.1555 26.2803 10.1993 41.3451C10.2272 51.0321 16.6445 59.5221 26.2922 64.3344L23.0726 76.5024C23.0042 76.705 23.0032 76.9243 23.0697 77.1275C23.1363 77.3307 23.2668 77.5069 23.4419 77.6297C23.6169 77.7525 23.827 77.8153 24.0407 77.8088C24.2544 77.8023 24.4603 77.7268 24.6275 77.5935L38.5997 68.1036C40.6571 68.3914 42.7323 68.5326 44.8097 68.5263C63.8807 68.4714 79.3064 56.214 79.2632 41.1468C79.22 26.0796 63.7235 13.9104 44.6522 13.965ZM27.3197 48.5187C27.3227 49.5843 26.6918 50.2488 25.6724 50.2518C24.653 50.2548 24.0197 49.5939 24.0167 48.5283L23.9822 36.5328L20.5079 36.543C19.418 36.546 19.0289 35.7387 19.0268 35.0463C19.0203 34.8495 19.0537 34.6533 19.1249 34.4697C19.1962 34.2861 19.3038 34.1187 19.4413 33.9777C19.5788 33.8367 19.7434 33.725 19.9252 33.6492C20.107 33.5734 20.3023 33.5352 20.4992 33.5367L30.7487 33.5067C30.9458 33.5038 31.1414 33.5407 31.3239 33.6152C31.5063 33.6898 31.6718 33.8004 31.8104 33.9405C31.9491 34.0806 32.058 34.2473 32.1306 34.4305C32.2032 34.6137 32.2381 34.8097 32.2331 35.0067C32.2349 35.6988 31.8497 36.5085 30.7574 36.5115L27.2852 36.5217L27.3197 48.5187ZM43.307 50.2023C42.9464 50.2325 42.5867 50.1344 42.2913 49.9253C41.9959 49.7163 41.7837 49.4097 41.6921 49.0596L40.9634 46.8027L34.0613 46.8225L33.3278 49.0578C33.2492 49.4119 33.0457 49.7258 32.7546 49.942C32.4635 50.1583 32.1043 50.2626 31.7426 50.2356C31.5351 50.2447 31.3279 50.2124 31.1331 50.1404C30.9382 50.0685 30.7597 49.9584 30.6079 49.8167C30.4562 49.6749 30.3342 49.5043 30.2492 49.3148C30.1641 49.1253 30.1177 48.9208 30.1127 48.7131C30.1152 48.4638 30.1662 48.2173 30.2627 47.9874L35.0207 35.2728C35.3615 34.3407 36.1841 33.3447 37.4723 33.3411C38.6042 33.3378 39.503 34.0353 39.938 35.2548L44.6216 47.9223C44.7293 48.1931 44.7932 48.4793 44.8109 48.7701C44.8082 48.9635 44.767 49.1545 44.6896 49.3317C44.6121 49.509 44.5001 49.669 44.36 49.8024C44.22 49.9358 44.0547 50.0398 43.8739 50.1085C43.693 50.1772 43.5003 50.2091 43.307 50.2023ZM55.9928 48.5376C55.985 48.7362 55.938 48.9312 55.8545 49.1116C55.7711 49.2919 55.6528 49.454 55.5065 49.5884C55.3601 49.7229 55.1887 49.8271 55.002 49.8951C54.8152 49.9631 54.6169 49.9935 54.4184 49.9845L48.2618 50.0019C47.1818 50.0052 46.5329 49.3233 46.5296 48.1788L46.4918 35.0388C46.4888 33.975 47.12 33.312 48.1391 33.3093C49.1582 33.3066 49.7921 33.9654 49.7954 35.0295L49.8296 46.9914L54.41 46.9782C54.6293 46.9676 54.8484 47.0028 55.0534 47.0814C55.2583 47.16 55.4447 47.2803 55.6007 47.4348C55.7375 47.5824 55.8428 47.7563 55.9102 47.9459C55.9776 48.1355 56.0057 48.3368 55.9928 48.5376ZM69.7472 48.8283C69.6218 50.0316 68.4572 50.1282 68.1026 50.1291C68.0165 50.1295 67.9304 50.1255 67.8446 50.1171C67.2344 50.0571 66.8903 49.674 66.2504 48.8154L61.8938 42.912L60.7103 44.1258L60.7232 48.573C60.7237 48.7864 60.681 48.9977 60.5976 49.1942C60.5143 49.3907 60.392 49.5682 60.2381 49.7161C60.0843 49.864 59.902 49.9792 59.7025 50.0548C59.5029 50.1304 59.29 50.1647 59.0768 50.1558C58.0868 50.1588 57.4214 49.5258 57.4187 48.5823L57.3794 34.9098C57.3731 34.6923 57.4115 34.4757 57.4925 34.2736C57.5734 34.0716 57.695 33.8883 57.8497 33.7352C58.0045 33.5822 58.1891 33.4626 58.392 33.3839C58.595 33.3052 58.8119 33.2691 59.0294 33.2778C59.2478 33.263 59.4669 33.2945 59.6723 33.3703C59.8777 33.4462 60.0647 33.5646 60.221 33.7178C60.3774 33.871 60.4996 34.0556 60.5796 34.2594C60.6595 34.4631 60.6955 34.6816 60.6851 34.9002L60.7001 40.1937L66.5006 34.1121C66.6671 33.9277 66.8692 33.7788 67.0947 33.6745C67.3202 33.5701 67.5645 33.5125 67.8128 33.5049C68.6111 33.5238 69.4154 34.0518 69.3971 35.0235C69.3971 35.4777 69.1271 35.7783 68.5871 36.3768C68.465 36.5124 68.3303 36.6618 68.1845 36.8292L64.2194 40.8528L68.9411 46.9983C69.4289 47.631 69.8333 48.1545 69.7472 48.8283Z" fill="#3B1E1E"/>
</svg>
