<svg width="13" height="18" viewBox="0 0 13 18" fill="none" xmlns="http://www.w3.org/2000/svg">
<path d="M6.5 1V0H6.49998L6.5 1ZM12 6.5H13V6.49992L12 6.5ZM11.0771 9.73145L11.9135 10.2796L11.9135 10.2796L11.0771 9.73145ZM6.5 16.7148L5.68166 17.2896C5.87215 17.5608 6.18465 17.72 6.51605 17.7147C6.84744 17.7094 7.15467 17.5402 7.33636 17.263L6.5 16.7148ZM2.08789 10.4326L1.26953 11.0073L1.26955 11.0074L2.08789 10.4326ZM1 6.99023H0V6.99028L1 6.99023ZM1 6.5L0 6.49992V6.5H1ZM6.5 1V2C8.98511 2 10.9998 4.0148 11 6.50008L12 6.5L13 6.49992C12.9997 2.91036 10.0898 0 6.5 0V1ZM12 6.5H11V6.63965H12H13V6.5H12ZM12 6.63965H11C11 7.54333 10.7361 8.42755 10.2408 9.18327L11.0771 9.73145L11.9135 10.2796C12.6224 9.19803 13 7.93275 13 6.63965H12ZM11.0771 9.73145L10.2408 9.18327L5.66364 16.1667L6.5 16.7148L7.33636 17.263L11.9135 10.2796L11.0771 9.73145ZM6.5 16.7148L7.31834 16.1401L2.90623 9.85788L2.08789 10.4326L1.26955 11.0074L5.68166 17.2896L6.5 16.7148ZM2.08789 10.4326L2.90625 9.85791C2.31652 9.01816 2.00005 8.01654 2 6.99019L1 6.99023L0 6.99028C6.52671e-05 8.42777 0.443271 9.83077 1.26953 11.0073L2.08789 10.4326ZM1 6.99023H2V6.5H1H0V6.99023H1ZM1 6.5L2 6.50008C2.0002 4.01486 4.01492 2.00005 6.50002 2L6.5 1L6.49998 0C2.91022 6.59227e-05 0.000287533 2.91038 0 6.49992L1 6.5Z" fill="#F55959"/>
<circle cx="6.5" cy="6.5" r="1.5" stroke="#F55959" stroke-width="2"/>
</svg>
