<svg width="213" height="28" viewBox="0 0 213 28" fill="none" xmlns="http://www.w3.org/2000/svg">
<rect y="18" width="92" height="10" rx="5" fill="#CFEEE7"/>
<rect x="71" y="18" width="71" height="10" fill="#EFE2B2"/>
<path d="M66 13H75L71 18V28H70V18L66 13Z" fill="#707070"/>
<path d="M137 13H146L142 18V28H141V18L137 13Z" fill="#707070"/>
<path d="M142 18H208C210.761 18 213 20.2386 213 23C213 25.7614 210.761 28 208 28H142V18Z" fill="#F8D0D0"/>
<path d="M55.625 10V9.21875L58.0762 6.74805C58.8477 5.9375 59.2383 5.48828 59.2383 4.87305C59.2383 4.17969 58.6719 3.73047 57.9297 3.73047C57.1484 3.73047 56.6406 4.22852 56.6406 4.98047H55.625C55.6152 3.69141 56.6016 2.83203 57.9492 2.83203C59.3164 2.83203 60.2539 3.69141 60.2637 4.84375C60.2539 5.63477 59.8828 6.25977 58.5547 7.56836L57.1191 9.02344V9.08203H60.3809V10H55.625ZM64.0332 10.0977C62.3926 10.0977 61.4355 8.7793 61.4355 6.46484C61.4355 4.16992 62.4121 2.83203 64.0332 2.83203C65.6543 2.83203 66.6309 4.16992 66.6309 6.46484C66.6309 8.7793 65.6641 10.0977 64.0332 10.0977ZM64.0332 9.16992C64.9902 9.16992 65.5566 8.23242 65.5566 6.46484C65.5566 4.70703 64.9805 3.74023 64.0332 3.74023C63.0859 3.74023 62.5098 4.70703 62.5098 6.46484C62.5098 8.23242 63.0762 9.16992 64.0332 9.16992ZM70.2051 10.0977C68.5645 10.0977 67.6074 8.7793 67.6074 6.46484C67.6074 4.16992 68.584 2.83203 70.2051 2.83203C71.8262 2.83203 72.8027 4.16992 72.8027 6.46484C72.8027 8.7793 71.8359 10.0977 70.2051 10.0977ZM70.2051 9.16992C71.1621 9.16992 71.7285 8.23242 71.7285 6.46484C71.7285 4.70703 71.1523 3.74023 70.2051 3.74023C69.2578 3.74023 68.6816 4.70703 68.6816 6.46484C68.6816 8.23242 69.248 9.16992 70.2051 9.16992ZM73.9258 10V4.69727H74.9316V5.56641H74.9902C75.2148 4.9707 75.7324 4.62891 76.4355 4.62891C77.1387 4.62891 77.6367 4.98047 77.8613 5.56641H77.9199C78.1738 4.99023 78.7402 4.62891 79.5117 4.62891C80.4688 4.62891 81.1523 5.23438 81.1523 6.44531V10H80.1074V6.54297C80.1074 5.83008 79.6582 5.52734 79.1113 5.52734C78.4375 5.52734 78.0566 5.98633 78.0566 6.62109V10H77.0215V6.48438C77.0215 5.9082 76.6211 5.52734 76.0547 5.52734C75.4688 5.52734 74.9707 6.01562 74.9707 6.72852V10H73.9258ZM85.3906 6.14258C85.293 5.72266 84.9609 5.44922 84.3848 5.44922C83.7891 5.44922 83.3594 5.76172 83.3691 6.16211C83.3594 6.47461 83.6133 6.69922 84.1992 6.83594L85.0391 7.03125C86.0156 7.24609 86.4844 7.71484 86.4941 8.4668C86.4844 9.42383 85.6836 10.1074 84.3262 10.1074C83.0566 10.1074 82.2949 9.54102 82.168 8.55469H83.2324C83.3203 9.0332 83.6914 9.26758 84.3164 9.26758C84.9902 9.26758 85.4199 8.99414 85.4297 8.54492C85.4199 8.20312 85.166 7.97852 84.6094 7.85156L83.7793 7.67578C82.8223 7.46094 82.3242 6.95312 82.3242 6.2207C82.3242 5.27344 83.1445 4.62891 84.375 4.62891C85.5566 4.62891 86.2891 5.23438 86.3965 6.14258H85.3906Z" fill="#707070"/>
<path d="M127.027 10.0977C125.689 10.0977 124.684 9.27734 124.635 8.1543H125.68C125.738 8.75977 126.314 9.19922 127.027 9.19922C127.887 9.19922 128.502 8.57422 128.502 7.73438C128.502 6.875 127.867 6.25 126.979 6.24023C126.412 6.24023 125.982 6.42578 125.738 6.86523H124.723L125.182 2.92969H129.186V3.84766H126.07L125.836 5.83008H125.904C126.197 5.54688 126.695 5.35156 127.232 5.35156C128.561 5.35156 129.547 6.33789 129.547 7.70508C129.547 9.10156 128.502 10.0977 127.027 10.0977ZM133.15 10.0977C131.51 10.0977 130.553 8.7793 130.553 6.46484C130.553 4.16992 131.529 2.83203 133.15 2.83203C134.771 2.83203 135.748 4.16992 135.748 6.46484C135.748 8.7793 134.781 10.0977 133.15 10.0977ZM133.15 9.16992C134.107 9.16992 134.674 8.23242 134.674 6.46484C134.674 4.70703 134.098 3.74023 133.15 3.74023C132.203 3.74023 131.627 4.70703 131.627 6.46484C131.627 8.23242 132.193 9.16992 133.15 9.16992ZM139.322 10.0977C137.682 10.0977 136.725 8.7793 136.725 6.46484C136.725 4.16992 137.701 2.83203 139.322 2.83203C140.943 2.83203 141.92 4.16992 141.92 6.46484C141.92 8.7793 140.953 10.0977 139.322 10.0977ZM139.322 9.16992C140.279 9.16992 140.846 8.23242 140.846 6.46484C140.846 4.70703 140.27 3.74023 139.322 3.74023C138.375 3.74023 137.799 4.70703 137.799 6.46484C137.799 8.23242 138.365 9.16992 139.322 9.16992ZM143.043 10V4.69727H144.049V5.56641H144.107C144.332 4.9707 144.85 4.62891 145.553 4.62891C146.256 4.62891 146.754 4.98047 146.979 5.56641H147.037C147.291 4.99023 147.857 4.62891 148.629 4.62891C149.586 4.62891 150.27 5.23438 150.27 6.44531V10H149.225V6.54297C149.225 5.83008 148.775 5.52734 148.229 5.52734C147.555 5.52734 147.174 5.98633 147.174 6.62109V10H146.139V6.48438C146.139 5.9082 145.738 5.52734 145.172 5.52734C144.586 5.52734 144.088 6.01562 144.088 6.72852V10H143.043ZM154.508 6.14258C154.41 5.72266 154.078 5.44922 153.502 5.44922C152.906 5.44922 152.477 5.76172 152.486 6.16211C152.477 6.47461 152.73 6.69922 153.316 6.83594L154.156 7.03125C155.133 7.24609 155.602 7.71484 155.611 8.4668C155.602 9.42383 154.801 10.1074 153.443 10.1074C152.174 10.1074 151.412 9.54102 151.285 8.55469H152.35C152.438 9.0332 152.809 9.26758 153.434 9.26758C154.107 9.26758 154.537 8.99414 154.547 8.54492C154.537 8.20312 154.283 7.97852 153.727 7.85156L152.896 7.67578C151.939 7.46094 151.441 6.95312 151.441 6.2207C151.441 5.27344 152.262 4.62891 153.492 4.62891C154.674 4.62891 155.406 5.23438 155.514 6.14258H154.508Z" fill="#707070"/>
</svg>
