<svg width="19" height="18" viewBox="0 0 19 18" fill="none" xmlns="http://www.w3.org/2000/svg">
<path d="M18 1H1V17H18V1Z" fill="white" stroke="#767676" stroke-width="1.5" stroke-linejoin="round"/>
<path d="M9.27539 9.46484C9.27539 11.8184 7.77148 13.0977 5.85742 13.0977C3.92383 13.0977 2.42969 11.8086 2.42969 9.46484C2.42969 7.11133 3.92383 5.83203 5.85742 5.83203C7.77148 5.83203 9.27539 7.11133 9.27539 9.46484ZM7.36133 9.46484C7.36133 8.16602 6.82422 7.45312 5.85742 7.45312C4.88086 7.45312 4.34375 8.16602 4.34375 9.46484C4.34375 10.7637 4.88086 11.4766 5.85742 11.4766C6.82422 11.4766 7.36133 10.7637 7.36133 9.46484ZM13.9922 8.11719C13.9531 7.63867 13.6406 7.36523 13.0059 7.36523C12.3906 7.36523 12.1172 7.59961 12.1074 7.93164C12.0977 8.29297 12.4297 8.49805 13.084 8.63477L13.6699 8.77148C15.1934 9.09375 15.8672 9.83594 15.877 10.9199C15.8672 12.3066 14.8027 13.0879 13.0156 13.0879C11.1895 13.0879 10.0078 12.2871 9.98828 10.5488H11.7656C11.7949 11.2031 12.2539 11.5547 12.9863 11.5547C13.6211 11.5547 13.9629 11.291 13.9727 10.9199C13.9629 10.5781 13.6797 10.3828 12.8887 10.207L12.1758 10.0508C10.9355 9.77734 10.1738 9.16211 10.1738 8.06836C10.1641 6.73047 11.3457 5.83203 13.0059 5.83203C14.7051 5.83203 15.7695 6.74023 15.7793 8.11719H13.9922Z" fill="#767676"/>
</svg>
