<svg width="18" height="15" viewBox="0 0 18 15" fill="none" xmlns="http://www.w3.org/2000/svg">
<rect x="8" y="4.00024" width="2" height="2" rx="1" stroke="#7277ff" stroke-width="2"/>
<path d="M8.39922 6.40015H9.59922L10.7992 14.2001H7.19922L8.39922 6.40015Z" fill="#7277ff"/>
<path d="M3.4 1.00024C1.98917 1.64546 1 3.14873 1 4.90024C1 6.65176 1.98917 8.15503 3.4 8.80024" stroke="#7277ff" stroke-width="2" stroke-linecap="round"/>
<path d="M5.60039 2.80005C4.85251 3.36384 4.40039 4.09767 4.40039 4.90005C4.40039 5.70242 4.85251 6.43625 5.60039 7.00005" stroke="#7277ff" stroke-width="2" stroke-linecap="round"/>
<path d="M14.6 8.80005C16.0108 8.15483 17 6.65156 17 4.90005C17 3.14853 16.0108 1.64527 14.6 1.00005" stroke="#7277ff" stroke-width="2" stroke-linecap="round"/>
<path d="M12.3996 7.00024C13.1475 6.43645 13.5996 5.70262 13.5996 4.90024C13.5996 4.09787 13.1475 3.36404 12.3996 2.80024" stroke="#7277ff" stroke-width="2" stroke-linecap="round"/>
</svg>
