<svg width="48" height="48" viewBox="0 0 48 48" fill="none" xmlns="http://www.w3.org/2000/svg">
<rect width="48" height="48" rx="4" fill="#EAECFB"/>
<path fill-rule="evenodd" clip-rule="evenodd" d="M11 13.1412C11 12.5733 11.223 12.0287 11.6198 11.6271C12.0167 11.2256 12.555 11 13.1163 11H34.8837C35.445 11 35.9833 11.2256 36.3802 11.6271C36.777 12.0287 37 12.5733 37 13.1412V34.8588C37 35.4267 36.777 35.9713 36.3802 36.3729C35.9833 36.7744 35.445 37 34.8837 37H13.1163C12.555 37 12.0167 36.7744 11.6198 36.3729C11.223 35.9713 11 35.4267 11 34.8588V13.1412ZM34.8837 13.1412H13.1163V16.3529L34.8837 16.3529V13.1412ZM13.1163 34.8588V18.4941H19.1627V34.8588H13.1163ZM21.279 34.8588H34.8837V18.4941H21.279L21.279 34.8588Z" fill="#7277FF"/>
</svg>
