<svg width="19" height="17" viewBox="0 0 19 17" fill="none" xmlns="http://www.w3.org/2000/svg">
<path d="M14.3337 12.6665L17.667 8.49984L14.3337 4.33317" stroke="#9E9E9E" stroke-width="2" stroke-linecap="round" stroke-linejoin="round"/>
<path d="M6.83398 7.5C6.2817 7.5 5.83398 7.94772 5.83398 8.5C5.83398 9.05228 6.2817 9.5 6.83398 9.5L6.83398 7.5ZM17.1465 7.5L6.83398 7.5L6.83398 9.5L17.1465 9.5L17.1465 7.5Z" fill="#9E9E9E"/>
<path d="M10 3.8125V3.8125C10 2.2592 8.7408 1 7.1875 1H4C2.34315 1 1 2.34315 1 4V13C1 14.6569 2.34315 16 4 16H7.1875C8.7408 16 10 14.7408 10 13.1875V13.1875" stroke="#9E9E9E" stroke-width="2" stroke-linecap="round"/>
</svg>
