<svg width="48" height="48" viewBox="0 0 48 48" fill="none" xmlns="http://www.w3.org/2000/svg">
<rect width="48" height="48" rx="4" fill="#EAECFB"/>
<path d="M36.0957 11.0002L11.9045 11C11.4043 11 11.0001 11.4113 11.0001 11.9203L11 36.0795C11 36.5886 11.4041 36.9999 11.9043 36.9999L36.0955 37.0001C36.5957 37.0001 36.9999 36.5888 36.9999 36.0797L37 11.9206C37 11.4115 36.5959 11.0002 36.0957 11.0002ZM34.9651 34.9293L13.0348 34.9291L13.0349 13.0708L34.9652 13.071L34.9651 34.9293ZM17.3532 24.6902H18.786C18.8906 24.6902 18.9782 24.6039 18.9782 24.4946V21.305C18.9782 20.7384 19.4275 20.2811 19.9814 20.2811H27.7304V21.817C27.7304 21.9809 27.9141 22.0701 28.0385 21.9694L31.1217 19.5046C31.2207 19.4269 31.2207 19.2745 31.1217 19.1969L28.0385 16.732C27.9141 16.6314 27.7304 16.7234 27.7304 16.8845V18.4203H19.9786C18.4214 18.4203 17.161 19.7088 17.161 21.2993V24.4889C17.161 24.6039 17.2458 24.6902 17.3532 24.6902ZM17.2345 28.645L20.3177 31.1098C20.4421 31.2105 20.6258 31.1185 20.6258 30.9574V29.4216H28.078C29.6352 29.4216 30.8957 28.1331 30.8957 26.5426V23.353C30.8957 23.2466 30.8109 23.1575 30.7035 23.1575H29.2707C29.1661 23.1575 29.0785 23.2437 29.0785 23.353V26.5426C29.0785 27.1092 28.6291 27.5665 28.0752 27.5665H20.6258V26.0307C20.6258 25.8667 20.4421 25.7776 20.3177 25.8782L17.2345 28.343C17.1356 28.4149 17.1356 28.5674 17.2345 28.645Z" fill="#7277FF"/>
</svg>
