<svg width="213" height="28" viewBox="0 0 213 28" fill="none" xmlns="http://www.w3.org/2000/svg">
<rect y="18" width="92" height="10" rx="5" fill="#CFEEE7"/>
<rect x="71" y="18" width="71" height="10" fill="#EFE2B2"/>
<path d="M66 13H75L71 18V28H70V18L66 13Z" fill="#707070"/>
<path d="M137 13H146L142 18V28H141V18L137 13Z" fill="#707070"/>
<path d="M142 18H208C210.761 18 213 20.2386 213 23C213 25.7614 210.761 28 208 28H142V18Z" fill="#F8D0D0"/>
<path d="M67.0859 10.0977C65.4453 10.0977 64.4883 8.7793 64.4883 6.46484C64.4883 4.16992 65.4648 2.83203 67.0859 2.83203C68.707 2.83203 69.6836 4.16992 69.6836 6.46484C69.6836 8.7793 68.7168 10.0977 67.0859 10.0977ZM67.0859 9.16992C68.043 9.16992 68.6094 8.23242 68.6094 6.46484C68.6094 4.70703 68.0332 3.74023 67.0859 3.74023C66.1387 3.74023 65.5625 4.70703 65.5625 6.46484C65.5625 8.23242 66.1289 9.16992 67.0859 9.16992ZM71.2266 10.0684C70.8457 10.0684 70.5234 9.75586 70.5332 9.375C70.5234 8.99414 70.8457 8.68164 71.2266 8.68164C71.5977 8.68164 71.9199 8.99414 71.9199 9.375C71.9199 9.75586 71.5977 10.0684 71.2266 10.0684ZM74.9961 2.92969V10H73.9121V4.00391H73.873L72.1836 5.10742V4.08203L73.9414 2.92969H74.9961Z" fill="#707070"/>
<path d="M133.086 10.0977C131.445 10.0977 130.488 8.7793 130.488 6.46484C130.488 4.16992 131.465 2.83203 133.086 2.83203C134.707 2.83203 135.684 4.16992 135.684 6.46484C135.684 8.7793 134.717 10.0977 133.086 10.0977ZM133.086 9.16992C134.043 9.16992 134.609 8.23242 134.609 6.46484C134.609 4.70703 134.033 3.74023 133.086 3.74023C132.139 3.74023 131.562 4.70703 131.562 6.46484C131.562 8.23242 132.129 9.16992 133.086 9.16992ZM137.227 10.0684C136.846 10.0684 136.523 9.75586 136.533 9.375C136.523 8.99414 136.846 8.68164 137.227 8.68164C137.598 8.68164 137.92 8.99414 137.92 9.375C137.92 9.75586 137.598 10.0684 137.227 10.0684ZM139.17 10V9.21875L141.621 6.74805C142.393 5.9375 142.783 5.48828 142.783 4.87305C142.783 4.17969 142.217 3.73047 141.475 3.73047C140.693 3.73047 140.186 4.22852 140.186 4.98047H139.17C139.16 3.69141 140.146 2.83203 141.494 2.83203C142.861 2.83203 143.799 3.69141 143.809 4.84375C143.799 5.63477 143.428 6.25977 142.1 7.56836L140.664 9.02344V9.08203H143.926V10H139.17ZM147.52 10.0977C146.182 10.0977 145.176 9.27734 145.127 8.1543H146.172C146.23 8.75977 146.807 9.19922 147.52 9.19922C148.379 9.19922 148.994 8.57422 148.994 7.73438C148.994 6.875 148.359 6.25 147.471 6.24023C146.904 6.24023 146.475 6.42578 146.23 6.86523H145.215L145.674 2.92969H149.678V3.84766H146.562L146.328 5.83008H146.396C146.689 5.54688 147.188 5.35156 147.725 5.35156C149.053 5.35156 150.039 6.33789 150.039 7.70508C150.039 9.10156 148.994 10.0977 147.52 10.0977Z" fill="#707070"/>
</svg>
