<svg width="18" height="25" viewBox="0 0 18 25" fill="none" xmlns="http://www.w3.org/2000/svg">
<path d="M18 9C18 11.4063 17.0556 13.5921 15.5173 15.2069L9.00002 24.2069L2.48276 15.2069C0.944405 13.5921 2.30855e-05 11.4063 2.30855e-05 9C2.30855e-05 4.02944 4.02946 0 9.00002 0C13.9706 0 18 4.02944 18 9Z" fill="#009FF9"/>
<path d="M9 9C9 11.4063 9 13.6552 9 15.2069V24.2069L2.48274 15.2069C0.944382 13.5921 0 11.4063 0 9C0 4.02944 4.02944 0 9 0C9 0 9 4.02944 9 9Z" fill="#147AB3"/>
<circle cx="9.00051" cy="9.31056" r="3.72414" fill="white"/>
</svg>
