<svg width="149" height="189" viewBox="0 0 149 189" fill="none" xmlns="http://www.w3.org/2000/svg">
<path d="M5 184H144" stroke="#C7C7C7" stroke-width="10" stroke-linecap="round"/>
<rect x="24" y="132" width="14" height="14" rx="7" fill="#CBC7FF"/>
<rect x="90" y="132" width="14" height="14" rx="7" fill="#CBC7FF"/>
<rect x="46" y="132" width="14" height="14" rx="7" fill="#A6ECE1"/>
<rect x="68" y="132" width="14" height="14" rx="7" fill="#E0E0E0"/>
<rect x="112" y="132" width="14" height="14" rx="7" fill="#E0E0E0"/>
<rect x="24" y="110" width="14" height="14" rx="7" fill="#E0E0E0"/>
<rect x="90" y="110" width="14" height="14" rx="7" fill="#E0E0E0"/>
<rect x="46" y="110" width="14" height="14" rx="7" fill="#CBC7FF"/>
<rect x="68" y="110" width="14" height="14" rx="7" fill="#A6ECE1"/>
<rect x="112" y="110" width="14" height="14" rx="7" fill="#A6ECE1"/>
<rect x="24" y="154" width="14" height="14" rx="7" fill="#A6ECE1"/>
<rect x="90" y="154" width="14" height="14" rx="7" fill="#E0E0E0"/>
<rect x="46" y="154" width="14" height="14" rx="7" fill="#E0E0E0"/>
<rect x="68" y="154" width="14" height="14" rx="7" fill="#CBC7FF"/>
<rect x="112" y="154" width="14" height="14" rx="7" fill="#CBC7FF"/>
<rect x="46" y="88" width="14" height="14" rx="7" fill="#A6ECE1"/>
<rect x="46" y="68" width="14" height="14" rx="7" fill="#E0E0E0"/>
<rect x="23" y="81" width="14" height="14" rx="7" fill="#28D6A4"/>
<rect x="23" y="28" width="14" height="50" rx="7" fill="url(#paint0_linear_775_6)"/>
<rect x="89" width="14" height="50" rx="7" fill="url(#paint1_linear_775_6)"/>
<rect x="112" y="32" width="14" height="50" rx="7" fill="url(#paint2_linear_775_6)"/>
<rect x="89" y="54" width="14" height="14" rx="7" fill="#914EF9"/>
<rect x="112" y="86" width="14" height="14" rx="7" fill="#6784D7"/>
<defs>
<linearGradient id="paint0_linear_775_6" x1="30" y1="28" x2="30" y2="78" gradientUnits="userSpaceOnUse">
<stop stop-color="white"/>
<stop offset="1" stop-color="#26D9A3"/>
</linearGradient>
<linearGradient id="paint1_linear_775_6" x1="96" y1="0" x2="96" y2="50" gradientUnits="userSpaceOnUse">
<stop stop-color="white"/>
<stop offset="1" stop-color="#9945FF"/>
</linearGradient>
<linearGradient id="paint2_linear_775_6" x1="119" y1="32" x2="119" y2="82" gradientUnits="userSpaceOnUse">
<stop stop-color="white"/>
<stop offset="1" stop-color="#6784D7"/>
</linearGradient>
</defs>
</svg>
