<svg width="39" height="9" viewBox="0 0 39 9" fill="none" xmlns="http://www.w3.org/2000/svg">
<path d="M1.71116 3.63335H5.13339V5.0778H1.71116V7.91113H5.1558e-05V0.133355H5.57783V1.5778H1.71116V3.63335ZM10.2528 5.74447H8.7639V7.91113H7.05279V0.133355H10.2528C10.9046 0.133355 11.4713 0.24817 11.9528 0.477799C12.4343 0.707429 12.8046 1.03336 13.0639 1.45558C13.3306 1.8778 13.4639 2.3778 13.4639 2.95558C13.4639 3.53335 13.3306 4.03335 13.0639 4.45558C12.7972 4.87039 12.4232 5.18891 11.9417 5.41113L13.5972 7.91113H11.7639L10.3306 5.74447H10.2528ZM10.1528 4.31113C10.6639 4.31113 11.0528 4.19261 11.3195 3.95558C11.5935 3.71854 11.7306 3.38521 11.7306 2.95558C11.7306 2.52595 11.5972 2.19261 11.3306 1.95558C11.0639 1.71854 10.6713 1.60002 10.1528 1.60002H8.7639V4.31113H10.1528ZM18.5524 8.04447C17.7821 8.04447 17.0895 7.87039 16.4747 7.52224C15.8598 7.1741 15.3784 6.69632 15.0302 6.08891C14.6821 5.4741 14.508 4.78521 14.508 4.02224C14.508 3.25928 14.6821 2.5741 15.0302 1.96669C15.3784 1.35187 15.8598 0.870392 16.4747 0.522244C17.0895 0.174096 17.7821 2.16961e-05 18.5524 2.16961e-05C19.3154 2.16961e-05 20.0043 0.174096 20.6191 0.522244C21.2339 0.870392 21.7154 1.35187 22.0636 1.96669C22.4191 2.5741 22.5969 3.25928 22.5969 4.02224C22.5969 4.78521 22.4191 5.4741 22.0636 6.08891C21.7154 6.69632 21.2339 7.1741 20.6191 7.52224C20.0043 7.87039 19.3154 8.04447 18.5524 8.04447ZM18.5524 6.51113C18.9895 6.51113 19.3821 6.40743 19.7302 6.20002C20.0858 5.98521 20.3635 5.68891 20.5635 5.31113C20.7635 4.93335 20.8636 4.50373 20.8636 4.02224C20.8636 3.54076 20.7635 3.11113 20.5635 2.73335C20.3635 2.35558 20.0858 2.06298 19.7302 1.85558C19.3821 1.64076 18.9895 1.53335 18.5524 1.53335C18.1154 1.53335 17.7191 1.64076 17.3635 1.85558C17.0154 2.06298 16.7413 2.35558 16.5413 2.73335C16.3413 3.11113 16.2413 3.54076 16.2413 4.02224C16.2413 4.50373 16.3413 4.93335 16.5413 5.31113C16.7413 5.68891 17.0154 5.98521 17.3635 6.20002C17.7191 6.40743 18.1154 6.51113 18.5524 6.51113ZM30.8267 7.91113H29.4155L25.7378 3.18891V7.91113H24.0489V0.133355H25.46L29.1378 4.85558V0.133355H30.8267V7.91113ZM31.9187 1.60002V0.133355H38.352V1.60002H35.9964V7.91113H34.2853V1.60002H31.9187Z" fill="black"/>
</svg>
