<svg width="26" height="6" viewBox="0 0 26 6" fill="none" xmlns="http://www.w3.org/2000/svg">
<path d="M20.8696 1.04611V0.0871582H25.0759V1.04611H23.5358V5.17249H22.417V1.04611H20.8696Z" fill="white"/>
<path d="M20.1551 5.17249H19.2325L16.8279 2.08497V5.17249H15.7236V0.0871582H16.6463L19.0509 3.17468V0.0871582H20.1551V5.17249Z" fill="white"/>
<path d="M12.1302 5.25968C11.6265 5.25968 11.1737 5.14587 10.7717 4.91824C10.3697 4.69061 10.0549 4.37823 9.82728 3.98109C9.59965 3.5791 9.48584 3.12869 9.48584 2.62984C9.48584 2.131 9.59965 1.683 9.82728 1.28586C10.0549 0.883879 10.3697 0.569072 10.7717 0.341443C11.1737 0.113814 11.6265 0 12.1302 0C12.6291 0 13.0795 0.113814 13.4815 0.341443C13.8834 0.569072 14.1982 0.883879 14.4259 1.28586C14.6583 1.683 14.7746 2.131 14.7746 2.62984C14.7746 3.12869 14.6583 3.5791 14.4259 3.98109C14.1982 4.37823 13.8834 4.69061 13.4815 4.91824C13.0795 5.14587 12.6291 5.25968 12.1302 5.25968ZM12.1302 4.25715C12.416 4.25715 12.6726 4.18934 12.9003 4.05373C13.1327 3.91328 13.3144 3.71955 13.4451 3.47255C13.5759 3.22555 13.6413 2.94465 13.6413 2.62984C13.6413 2.31504 13.5759 2.03413 13.4451 1.78713C13.3144 1.54013 13.1327 1.34882 12.9003 1.21321C12.6726 1.07276 12.416 1.00254 12.1302 1.00254C11.8445 1.00254 11.5854 1.07276 11.3529 1.21321C11.1253 1.34882 10.9461 1.54013 10.8153 1.78713C10.6845 2.03413 10.6191 2.31504 10.6191 2.62984C10.6191 2.94465 10.6845 3.22555 10.8153 3.47255C10.9461 3.71955 11.1253 3.91328 11.3529 4.05373C11.5854 4.18934 11.8445 4.25715 12.1302 4.25715Z" fill="white"/>
<path d="M6.70358 3.75586H5.7301V5.17249H4.61133V0.0871582H6.70358C7.12978 0.0871582 7.50028 0.162227 7.81509 0.312366C8.12989 0.462504 8.37205 0.675604 8.54156 0.951664C8.71592 1.22773 8.80309 1.55464 8.80309 1.93241C8.80309 2.31017 8.71592 2.63709 8.54156 2.91315C8.36721 3.18437 8.12263 3.39262 7.80782 3.53792L8.89027 5.17249H7.69158L6.75443 3.75586H6.70358ZM6.6382 2.81871C6.97237 2.81871 7.22664 2.74122 7.40099 2.58623C7.58019 2.43125 7.66979 2.21331 7.66979 1.93241C7.66979 1.6515 7.58261 1.43356 7.40826 1.27858C7.23391 1.1236 6.97722 1.04611 6.6382 1.04611H5.7301V2.81871H6.6382Z" fill="white"/>
<path d="M1.11877 2.37556H3.35632V3.31997H1.11877V5.17249H0V0.0871582H3.64691V1.03158H1.11877V2.37556Z" fill="white"/>
</svg>
