<svg width="48" height="20" viewBox="0 0 48 20" fill="none" xmlns="http://www.w3.org/2000/svg">
  <rect width="48" height="20" rx="10" fill="#24F2A7"/>
  <path
    d="M9.36 6.192V7.068C9.36 8.604 8.244 10.044 6.624 10.62L7.14 11.412C8.952 10.74 10.176 9.048 10.176 7.068V6.192H9.36ZM9.552 6.192V7.068C9.552 8.88 10.716 10.512 12.48 11.16L12.984 10.368C11.412 9.816 10.356 8.46 10.356 7.068V6.192H9.552ZM12.396 7.908V8.736H14.808V7.908H12.396ZM6.936 5.832V6.636H12.732V5.832H6.936ZM8.28 12.168V12.984H14.52V15.936H15.516V12.168H8.28ZM14.52 5.088V11.58H15.516V5.088H14.52ZM20.0511 8.76V10.812H21.0351V8.76H20.0511ZM24.0351 8.76V10.812H25.0191V8.76H24.0351ZM17.6271 10.452V11.256H27.4311V10.452H17.6271ZM22.5231 12.072C20.1951 12.072 18.8031 12.756 18.8031 13.992C18.8031 15.228 20.1951 15.924 22.5231 15.924C24.8511 15.924 26.2431 15.228 26.2431 13.992C26.2431 12.756 24.8511 12.072 22.5231 12.072ZM22.5231 12.84C24.2271 12.84 25.2351 13.26 25.2351 13.992C25.2351 14.736 24.2271 15.144 22.5231 15.144C20.8311 15.144 19.8111 14.736 19.8111 13.992C19.8111 13.26 20.8311 12.84 22.5231 12.84ZM22.5351 5.28C20.1711 5.28 18.7191 6.036 18.7191 7.308C18.7191 8.568 20.1711 9.312 22.5351 9.312C24.8871 9.312 26.3511 8.568 26.3511 7.308C26.3511 6.036 24.8871 5.28 22.5351 5.28ZM22.5351 6.06C24.2631 6.06 25.3311 6.516 25.3311 7.308C25.3311 8.088 24.2631 8.544 22.5351 8.544C20.8071 8.544 19.7391 8.088 19.7391 7.308C19.7391 6.516 20.8071 6.06 22.5351 6.06Z"
    fill="black"/>
  <circle cx="38" cy="10" r="8" fill="#00AF6F"/>
</svg>
