<svg width="30" height="42" viewBox="0 0 30 42" fill="none" xmlns="http://www.w3.org/2000/svg">
<path d="M1.5 16.0654C1.5 8.27241 7.66149 1.5 15 1.5C22.3385 1.5 28.5 8.27241 28.5 16.0654C28.5 23.9881 23.9451 33.6427 16.9382 39.0614C16.6353 39.2245 16.3685 39.422 16.1601 39.5854C16.0317 39.6861 15.9056 39.7899 15.7932 39.8827L15.7721 39.9001C15.6638 39.9895 15.5675 40.069 15.4716 40.1452C15.262 40.3119 15.1153 40.4131 15.0047 40.4718C15.0031 40.4726 15.0015 40.4735 15 40.4743C14.9985 40.4735 14.9969 40.4726 14.9953 40.4718C14.8847 40.4131 14.738 40.3119 14.5284 40.1452C14.4326 40.069 14.3363 39.9896 14.2281 39.9002L14.2068 39.8827C14.0944 39.7899 13.9683 39.6861 13.8399 39.5854C13.6448 39.4325 13.3986 39.2497 13.1195 39.0931C10.1308 36.3889 7.22908 32.6281 5.06877 28.5311C2.86977 24.3608 1.5 19.9587 1.5 16.0654ZM15 20.4004C16.3963 20.4004 17.7329 19.8412 18.7165 18.8497C19.6998 17.8586 20.25 16.5168 20.25 15.1203C20.25 13.7238 19.6998 12.3821 18.7165 11.391C17.7329 10.3995 16.3963 9.84025 15 9.84025C13.6037 9.84025 12.2671 10.3995 11.2835 11.391C10.3002 12.3821 9.75 13.7238 9.75 15.1203C9.75 16.5168 10.3002 17.8586 11.2835 18.8497C12.2671 19.8412 13.6037 20.4004 15 20.4004Z" fill="#FF6969" stroke="#F13434" stroke-width="3"/>
</svg>
