<svg width="181" height="136" viewBox="0 0 181 136" fill="none" xmlns="http://www.w3.org/2000/svg">
<path d="M5 131H176" stroke="#C7C7C7" stroke-width="10" stroke-linecap="round"/>
<rect x="21" y="102" width="14" height="14" rx="7" fill="#C7C7C7"/>
<rect x="145" y="89" width="14" height="27" rx="7" fill="#C7C7C7"/>
<rect x="62" y="50" width="14" height="66" rx="7" fill="#A6ECE1"/>
<rect x="104" y="102" width="14" height="14" rx="7" fill="#C7C7C7"/>
<rect x="21" y="52" width="14" height="48" rx="7" fill="#EEEEEE"/>
<rect x="145" y="68" width="14" height="19" rx="7" fill="#EEEEEE"/>
<rect x="62" y="35" width="14" height="14" rx="7" fill="#EEEEEE"/>
<rect x="104" y="39" width="14" height="61" rx="7" fill="url(#paint0_linear_6934_6)"/>
<rect x="21" width="14" height="50" rx="7" fill="url(#paint1_linear_6934_6)"/>
<rect x="145" width="14" height="66" rx="7" fill="#CBC7FF"/>
<rect x="62" width="14" height="33" rx="7" fill="#C7C7C7"/>
<rect x="104" width="14" height="38" rx="7" fill="#EEEEEE"/>
<defs>
<linearGradient id="paint0_linear_6934_6" x1="111" y1="39" x2="111" y2="100" gradientUnits="userSpaceOnUse">
<stop stop-color="#9945FF"/>
<stop offset="1" stop-color="#26D9A3"/>
</linearGradient>
<linearGradient id="paint1_linear_6934_6" x1="28" y1="0" x2="28" y2="50" gradientUnits="userSpaceOnUse">
<stop stop-color="#9945FF"/>
<stop offset="1" stop-color="#26D9A3"/>
</linearGradient>
</defs>
</svg>
