<svg width="20" height="21" viewBox="0 0 20 21" fill="none" xmlns="http://www.w3.org/2000/svg">
<rect x="0.00195312" y="1" width="20" height="20" rx="3" fill="#40BA8D"/>
<mask id="path-2-outside-1_5808_9" maskUnits="userSpaceOnUse" x="6.00195" y="5" width="9" height="12" fill="black">
<rect fill="white" x="6.00195" y="5" width="9" height="12"/>
<path d="M13.802 13.825V15.865H6.90195V6.37H9.30195V13.825H13.802Z"/>
</mask>
<path d="M13.802 13.825V15.865H6.90195V6.37H9.30195V13.825H13.802Z" fill="white"/>
<path d="M13.802 13.825H14.202V13.425H13.802V13.825ZM13.802 15.865V16.265H14.202V15.865H13.802ZM6.90195 15.865H6.50195V16.265H6.90195V15.865ZM6.90195 6.37V5.97H6.50195V6.37H6.90195ZM9.30195 6.37H9.70195V5.97H9.30195V6.37ZM9.30195 13.825H8.90195V14.225H9.30195V13.825ZM13.402 13.825V15.865H14.202V13.825H13.402ZM13.802 15.465H6.90195V16.265H13.802V15.465ZM7.30195 15.865V6.37H6.50195V15.865H7.30195ZM6.90195 6.77H9.30195V5.97H6.90195V6.77ZM8.90195 6.37V13.825H9.70195V6.37H8.90195ZM9.30195 14.225H13.802V13.425H9.30195V14.225Z" fill="white" mask="url(#path-2-outside-1_5808_9)"/>
</svg>
