<svg width="20" height="20" viewBox="0 0 20 20" fill="none" xmlns="http://www.w3.org/2000/svg">
  <rect x="0.00195312" width="20" height="20" rx="3" fill="#5B8AA0"/>
  <path d="M8 6C8 5.44772 8.44772 5 9 5H10C10.5523 5 11 5.44772 11 6V14C11 14.5523 10.5523 15 10 15H9C8.44772 15 8 14.5523 8 14V6Z" fill="white"/>
  <path d="M6.5 8.5C6.5 8.5 6 9 6 10C6 11 6.5 11.5 6.5 11.5M13.5 8.5C13.5 8.5 14 9 14 10C14 11 13.5 11.5 13.5 11.5" stroke="white" stroke-linecap="round" stroke-linejoin="round"/>
</svg>
