<svg width="20" height="21" viewBox="0 0 20 21" fill="none" xmlns="http://www.w3.org/2000/svg">
<rect x="0.00195312" width="20" height="20" rx="3" fill="#6FB151"/>
<path d="M18 20V18.2222C18 17.2792 17.6312 16.3749 16.9749 15.7081C16.3185 15.0413 15.4283 14.6667 14.5 14.6667H13.625C13.3929 14.6667 13.1704 14.573 13.0063 14.4063C12.8422 14.2396 12.75 14.0135 12.75 13.7778V9.33333C12.75 8.86184 12.5656 8.40965 12.2374 8.07625C11.9092 7.74286 11.4641 7.55556 11 7.55556C10.5359 7.55556 10.0908 7.74286 9.76256 8.07625C9.43438 8.40965 9.25 8.86184 9.25 9.33333V17.3333L7.15 14.4889C6.98699 14.2681 6.77562 14.0889 6.53262 13.9655C6.28963 13.842 6.02168 13.7778 5.75 13.7778H5.37025C4.61337 13.7778 4 14.4009 4 15.1698C4 15.4222 4.06738 15.6702 4.19513 15.8862L6.625 20M11 4.88889V4M6.92512 6.08267L6.3065 5.45422M15.0749 6.08267L15.6935 5.45422" stroke="white" stroke-width="2" stroke-linecap="round" stroke-linejoin="round"/>
</svg>
