<svg width="20" height="20" viewBox="0 0 20 20" fill="none" xmlns="http://www.w3.org/2000/svg">
<rect x="0.00195312" width="20" height="20" rx="3" fill="#D86F6F"/>
<path d="M6.69922 15.9805C5.55664 15.9889 4.62354 15.7985 3.8999 15.4092C3.17627 15.0199 2.88428 14.402 3.02393 13.5557L3.22705 12.1528C3.29476 11.7254 3.25667 11.4461 3.11279 11.3149C2.97314 11.1838 2.77848 11.1182 2.52881 11.1182V9.59473C2.77848 9.59473 2.97314 9.52913 3.11279 9.39795C3.25667 9.26253 3.29476 8.98112 3.22705 8.55371L3.02393 7.15723C2.88428 6.3151 3.17839 5.69938 3.90625 5.31006C4.63411 4.92074 5.5651 4.72819 6.69922 4.73242V6.38281C6.4707 6.38281 6.18083 6.43148 5.82959 6.52881C5.47835 6.62191 5.33659 6.9266 5.4043 7.44287L5.62012 8.82666C5.67936 9.19482 5.62858 9.50163 5.46777 9.74707C5.3112 9.98828 5.01497 10.1914 4.5791 10.3564C5.01497 10.5215 5.3112 10.7267 5.46777 10.9722C5.62858 11.2134 5.67936 11.5181 5.62012 11.8862L5.4043 13.27C5.33659 13.7863 5.47835 14.091 5.82959 14.1841C6.18506 14.2814 6.47493 14.3301 6.69922 14.3301V15.9805ZM13.3236 15.9805V14.3301C13.5479 14.3301 13.8039 14.2835 14.0917 14.1904C14.3837 14.0973 14.4831 13.7905 14.39 13.27L14.1361 11.8862C14.06 11.5223 14.1129 11.2176 14.2948 10.9722C14.481 10.7267 14.7921 10.5215 15.2279 10.3564C14.7963 10.1914 14.4874 9.98617 14.3012 9.74072C14.115 9.49528 14.06 9.19059 14.1361 8.82666L14.39 7.44287C14.4831 6.9266 14.3858 6.62191 14.098 6.52881C13.8103 6.43571 13.5521 6.38916 13.3236 6.38916V4.73242C14.4493 4.72396 15.3485 4.9165 16.0214 5.31006C16.6985 5.69938 16.9503 6.3151 16.7768 7.15723L16.5165 8.56006C16.4319 8.979 16.5102 9.25618 16.7514 9.3916C16.9926 9.52702 17.238 9.59473 17.4877 9.59473V11.1182C17.238 11.1182 16.9926 11.1859 16.7514 11.3213C16.5102 11.4525 16.4319 11.7297 16.5165 12.1528L16.7768 13.5557C16.9503 14.3978 16.7006 15.0135 16.0277 15.4028C15.3549 15.7922 14.4535 15.9847 13.3236 15.9805Z" fill="white"/>
<path d="M8.56689 14.5298C8.8335 14.2082 9.03239 13.8675 9.16357 13.5078C9.29476 13.1523 9.35824 12.7461 9.354 12.2891V10.7212H11.4551V12.2891C11.4551 12.8984 11.3239 13.4655 11.0615 13.9902C10.8034 14.515 10.4437 14.9572 9.98242 15.3169L8.56689 14.5298ZM8.89062 7.28076C8.89062 6.9126 9.01335 6.59733 9.25879 6.33496C9.50846 6.07259 9.86816 5.94141 10.3379 5.94141C10.7992 5.94141 11.1546 6.07259 11.4043 6.33496C11.654 6.5931 11.7788 6.90837 11.7788 7.28076C11.7788 7.64469 11.654 7.95785 11.4043 8.22021C11.1546 8.47835 10.797 8.60742 10.3315 8.60742C9.86605 8.60742 9.50846 8.47624 9.25879 8.21387C9.01335 7.9515 8.89062 7.64046 8.89062 7.28076Z" fill="white"/>
</svg>
