<svg width="20" height="20" viewBox="0 0 20 20" fill="none" xmlns="http://www.w3.org/2000/svg">
<rect x="0.00195312" width="20" height="20" rx="3" fill="#B88F00"/>
<path d="M5.39495 15.182C3.88695 15.182 2.89895 14.597 2.20995 13.401L3.78295 12.218C4.12095 12.881 4.61495 13.18 5.08295 13.18C5.83695 13.18 6.23995 12.803 6.23995 11.542V5.315H8.56695V11.724C8.56695 13.622 7.56595 15.182 5.39495 15.182ZM13.7401 15.182C12.4791 15.182 11.1271 14.714 10.1261 13.791L11.4521 12.192C12.1281 12.777 13.0251 13.18 13.7921 13.18C14.6501 13.18 15.0531 12.855 15.0531 12.335C15.0531 11.776 14.5201 11.594 13.6881 11.243L12.4531 10.723C11.4391 10.32 10.4901 9.475 10.4901 8.071C10.4901 6.446 11.9461 5.146 14.0001 5.146C15.1181 5.146 16.3011 5.575 17.1461 6.42L15.9891 7.876C15.3521 7.395 14.7541 7.135 14.0001 7.135C13.2851 7.135 12.8561 7.421 12.8561 7.928C12.8561 8.474 13.4541 8.682 14.3121 9.02L15.5211 9.501C16.7171 9.982 17.4321 10.788 17.4321 12.153C17.4321 13.765 16.0801 15.182 13.7401 15.182Z" fill="white"/>
</svg>
