<svg width="74" height="74" viewBox="0 0 74 74" fill="none" xmlns="http://www.w3.org/2000/svg">
<path d="M0 32.8889V0H32.8889V32.8889H0ZM8.22222 24.6667H24.6667V8.22222H8.22222V24.6667ZM0 74V41.1111H32.8889V74H0ZM8.22222 65.7778H24.6667V49.3333H8.22222V65.7778ZM41.1111 32.8889V0H74V32.8889H41.1111ZM49.3333 24.6667H65.7778V8.22222H49.3333V24.6667ZM65.7778 74V65.7778H74V74H65.7778ZM41.1111 49.3333V41.1111H49.3333V49.3333H41.1111ZM49.3333 57.5556V49.3333H57.5556V57.5556H49.3333ZM41.1111 65.7778V57.5556H49.3333V65.7778H41.1111ZM49.3333 74V65.7778H57.5556V74H49.3333ZM57.5556 65.7778V57.5556H65.7778V65.7778H57.5556ZM57.5556 49.3333V41.1111H65.7778V49.3333H57.5556ZM65.7778 57.5556V49.3333H74V57.5556H65.7778Z" fill="#F2F2F2"/>
</svg>
